<svg version="1.2" xmlns="http://www.w3.org/2000/svg" viewBox="0 0 300 300" width="300" height="300">
	<title>i</title>
	<style>
		.s0 { fill: #fffffe } 
		.s1 { fill: #ed7e21 } 
		.s2 { fill: #3c3c3c } 
	</style>
	<g id="Слой 2">
		<path id="Path 0" class="s0" d="m0 150v150h300v-300h-300z"/>
		<path id="Path 1" class="s1" d="m82.1 52.5c-28.5 0.3-29.6 0.3-30.9 1.3-0.7 0.6-10.6 11.5-22 24.1-13.5 15.1-20.7 23.6-20.9 24.6-0.1 0.8 0 2.3 0.4 3.4 0.4 1.1 1.4 2.4 2.2 3.1 1.5 1.1 2.2 1.1 34 1.5 21.3 0.3 33.2 0.3 34.4-0.1 1.4-0.4 3.6-2.4 8.9-8.2 3.8-4.2 13.4-14.6 21.3-23.2 7.9-8.5 14.8-16.2 15.4-17.1 0.5-0.9 1-2.3 1-3.1 0-0.8-0.4-2.2-0.8-3.1-0.5-0.9-1.6-2-2.6-2.5-1.1-0.6-3.2-0.9-6.3-1-2.5 0-17.8 0.1-34.1 0.3zm48.6 6.7c-0.7 0.4-11.2 11.7-23.3 25.2-12.1 13.4-22.2 24.9-22.6 25.6-0.4 0.6-0.7 2.1-0.7 3.3 0 1.7 1.5 4.9 6.8 15.3 3.7 7.2 8.7 17 11.2 21.7 2.4 4.7 7.7 15 11.7 23 4.1 8 8 15.1 8.8 16 0.8 0.8 2.1 1.7 3 1.9 0.9 0.2 2.5 0.3 3.5 0.1 1.5-0.2 2.7-1.2 6-4.6 2.2-2.3 12.6-13.6 23.1-25 15.2-16.5 19.2-21.2 19.6-22.8 0.3-1.3 0.3-2.6 0-3.6-0.3-0.9-4.5-9.5-9.4-19.1-4.9-9.5-11-21.5-13.6-26.5-2.6-5-6.9-13.4-9.6-18.7-3.1-6.2-5.5-10.2-6.6-11.1-1.4-1.2-2.3-1.5-4.1-1.5-1.4 0-3.1 0.4-3.8 0.8zm-113.3 54.3c-4.9 0.2-7.3 0.6-8.2 1.1-0.6 0.5-1.7 1.8-2.3 3-0.8 1.6-1 2.6-0.7 4 0.2 1 2.5 5.4 5.1 9.7 2.5 4.2 12 20 21.1 35 9 15.1 17.2 28.1 18.1 29l1.7 1.6c17.9 0.6 31.7 0.8 42.2 0.8 12.3 0 19.3-0.2 19.4-0.6 0.2-0.3 0.5-0.4 0.8-0.2 0.3 0.1 1.2-0.2 1.9-0.8 0.8-0.6 1.7-1.8 2.1-2.6 0.4-0.8 0.7-2.5 0.6-3.9-0.1-1.9-2.6-7-12.3-25.7-6.7-12.8-14.7-28.2-17.8-34.3-3.2-6-6.3-11.8-7-12.9-0.7-1.2-2-2.4-3.1-2.9-1.6-0.6-5.8-0.7-28.2-0.7-14.6 0.1-29.6 0.3-33.4 0.4z"/>
		<path id="Path 2" class="s2" d="m261.7 180.2c-2.1 0.4-5.1 1.3-6.7 1.9-1.6 0.6-3.7 1.7-4.6 2.4-1 0.8-1.8 2.1-2.2 3.6-0.4 1.3-0.8 3.3-1 4.5-0.1 1.2 0 2.5 0.3 2.9 0.4 0.7 1.1 0.6 4.7-1.1 2.3-1.1 5.1-2.3 6.3-2.6 1.2-0.4 3.4-0.6 4.9-0.5 2.2 0.2 3.1 0.5 4.3 1.7 1.3 1.3 1.5 1.9 1.5 4.6-0.1 2.3-0.5 3.8-1.7 6.2-1 1.8-3 4.8-4.6 6.6-1.5 1.9-7.5 7.6-13.2 12.6-5.8 5.1-10.9 10-11.4 10.8-0.5 0.9-1.2 3-1.6 4.6-0.4 2.2-0.4 3.2 0 4.1l0.6 1.3h39.7c1.2-1.9 1.8-3.7 2.1-5.3q0.5-2.8 0-3.9c-0.5-1-1.1-1-12.8-1.2l-12.2-0.1c12.4-10.4 17.9-15.4 20.3-17.9 2.3-2.5 5.2-6 6.4-7.8 1.1-1.8 2.6-4.8 3.2-6.7 0.9-2.7 1.1-4.5 0.9-7.9-0.1-3.8-0.4-4.6-1.8-6.6-0.9-1.3-2.5-3-3.7-3.8-1.2-0.8-3-1.7-4-2-1.1-0.3-3.7-0.7-5.9-0.8-2.4-0.2-5.6 0-7.8 0.4zm-83.9 4.8c-4.3 2.4-8.4 4.9-9 5.4-0.6 0.6-1.4 2.1-1.7 3.4-0.3 1.2-0.5 3-0.5 3.9 0 0.9 0.3 1.7 0.7 1.9 0.3 0.2 3.6-1.1 7.2-2.9 3.6-1.8 6.6-3.2 6.6-3.2 0 0.1-1.8 9.2-4 20.3-2.3 11-4.1 20.1-4.1 20.2 0 0-2.9 0.1-6.4 0.1h-6.4c-1.4 2.7-1.9 4.9-2.1 6.6l-0.3 3.1h37.2c1.2-1.9 1.8-3.7 2-5.1 0.3-1.5 0.4-3.1 0.3-3.7-0.1-0.8-0.8-0.9-5.8-0.9-3.1 0-5.6-0.2-5.6-0.4 0-0.2 2.3-11.8 5.1-25.8 2.8-14 5.1-25.9 5.1-26.4 0-0.9-0.6-1-5.3-1h-5.2zm33 29.8c-0.3 0.2-0.9 0.9-1.2 1.6-0.4 0.6-0.9 2.3-1.1 3.7-0.3 1.6-0.3 2.9 0 3.5 0.4 0.9 1.5 1 11.3 1 9.7 0 10.9-0.1 11.7-1 0.5-0.5 1.2-1.9 1.6-3.1 0.3-1.1 0.5-3 0.4-4l-0.2-1.9c-17-0.2-22.2 0-22.5 0.2z"/>
		<path id="Path 3" class="s0" d="m73.4 69.2c-1.9 1.6-3.1 2.3-2.6 1.6l0.9-1.2c-13.5 0.1-15 0.2-16.8 1.1-1.5 0.7-4.4 3.7-9.8 9.9-4.2 4.9-7.6 9.2-7.6 9.7 0 0.4 0.4 0.9 0.8 1 0.4 0.2 3.6 0.3 7.1 0.3 5.6 0 6.4-0.1 7.4-1.1l1-1c-9.6-0.2-12.3-0.5-12.4-0.8-0.1-0.3 2.9-4.1 6.6-8.3 4.3-5 7.2-8 8.1-8.2 0.8-0.2 4.2-0.4 7.5-0.4 3.3 0 6 0.1 6 0.3 0 0.1-3.9 3.3-8.6 7.1l-8.7 6.8 6.3 0.5c-9.3 7.3-12 9.5-12 9.7 0 0.1 2.6-1.2 5.8-2.8 3.1-1.7 5.5-2.8 5.3-2.5-0.3 0.6 1.5 0.7 7.8 0.7 4.5 0 9.1-0.3 10.3-0.6 1.4-0.4 3.2-1.7 5.1-3.5 1.8-1.7 3.5-2.9 4.3-2.9 0.9-0.1 2.5-1.3 4.8-3.8 2.9-3 3.4-3.8 2.8-4.4-0.5-0.7-0.4-1.2 0.9-2.7 0.9-1.1 1.6-2.3 1.5-2.9-0.1-0.8-0.9-0.9-5.9-1-5-0.1-5.9 0-7.2 0.9l-1.5 1.1c7.9 0 10.5 0.2 10.9 0.4 0.4 0.3-1.6 2.9-6.4 8.2-3.9 4.2-7.3 7.9-7.6 8.1-0.4 0.2-4.4 0.4-9 0.5l-8.3 0.2 18.3-10.2-7-0.5c11.5-9.2 14.8-11.9 14.8-11.9 0-0.1-2.2-0.2-4.7-0.2l-4.7 0.1zm53.2 28.3c-1.1 0.2-2.7 0.8-3.4 1.4-0.7 0.6-1.9 1.9-2.6 2.9-0.6 1-1.4 2.6-1.7 3.7-0.3 1-0.5 3.3-0.5 5.1 0 1.7 0.3 4.5 0.7 6.1 0.4 1.6 1.8 5.5 3.2 8.6 1.3 3.1 2.6 6.7 2.8 8 0.2 1.3 0.8 3.3 1.3 4.3 0.9 1.8 1.2 1.9 6 3.1 2.7 0.7 5.4 1.2 5.9 1.2 0.5 0 1.1-0.3 1.3-0.7 0.2-0.3 0.6-2.1 0.8-3.9 0.2-1.7 1.1-4.9 2-6.9 0.8-2.1 1.8-5.1 2.2-6.7 0.4-1.8 0.6-4.6 0.4-7-0.2-3-0.7-5-2.1-8-1-2.2-2.9-5.1-4.1-6.3-1.2-1.3-3.1-2.7-4.2-3.3-1.1-0.6-2.9-1.2-4-1.5-1.1-0.3-2.9-0.3-4-0.1zm-75.2 31.5c-0.4 0.9 0.1 2.4 2.5 7.7 1.6 3.6 3.1 7 3.3 7.5 0.3 0.9 0.1 1-2.2 0.8l-2.6-0.2c-5-10.8-7-14.4-7.6-15.1-0.8-0.8-1.6-1.2-2.5-1.1-1 0.1-1.4 0.5-1.5 1.5-0.1 0.8 1.1 3.9 2.9 7.9l3.2 6.5c-2.8 2.2-3.1 2.8-2.8 4 0.2 0.8 2.1 4 4.2 7.2 2.2 3.1 5.2 7.1 6.9 8.8 2.1 2.3 3.6 3.4 5.5 4.1l2.6 0.9 7.4 15.2c4.1 0 5.5-0.2 5.6-0.5 0.2-0.3-1.2-3.6-2.9-7.4-1.8-3.7-3.3-6.9-3.2-7.1 0-0.1 0.8-0.9 1.7-1.6 1.4-1.2 1.7-1.8 1.7-3.5 0-1.2-0.7-4.9-1.5-8.2-0.8-3.4-1.9-7-2.6-8.1-0.7-1-1.8-2.1-2.6-2.5-0.7-0.4-2-1-2.8-1.3-1.2-0.6-2.1-2.1-4.5-7.2-1.6-3.5-3.6-7.1-4.5-7.9-0.8-0.8-1.9-1.4-2.3-1.4-0.5 0-1.1 0.4-1.4 1zm76.7 13c0.1 0.3 2.6 1.1 5.4 1.7 2.9 0.6 5.4 1 5.5 0.7 0.2-0.2 0.1-0.5-0.1-0.6-0.3-0.1-2.7-0.7-5.4-1.3-2.7-0.6-5.1-1.1-5.3-1.1-0.2 0-0.2 0.2-0.1 0.6zm-0.1 2c0 0.3 0.7 0.7 1.5 0.9 0.8 0.2 2.8 0.6 4.4 1.1 1.6 0.4 3.6 0.7 4.3 0.7q1.4 0 0.8-0.5c-0.3-0.3-2.6-1-5.1-1.6-2.5-0.6-4.8-1.1-5.2-1.1-0.4 0-0.7 0.2-0.7 0.5zm0 2.2c0 0.3 1.8 0.9 3.9 1.3 2.1 0.5 4.7 1 5.6 1.2 1.3 0.3 1.8 0.2 1.8-0.2 0-0.4-0.6-0.8-1.2-1-0.7-0.1-2.8-0.6-4.7-1-1.9-0.5-3.9-0.8-4.4-0.9-0.6 0-1 0.3-1 0.6zm0.2 1.7c-0.1 0.2 0.4 0.6 1 0.9 1 0.4 1 0.5 0.3 0.6-0.5 0-0.9 0.1-0.9 0.3 0 0.1 0.5 1 1.1 2 0.7 0.9 1.5 1.9 1.8 2.1 0.3 0.2 1.6 0.5 2.9 0.7 2.1 0.2 2.6 0.1 3.7-0.9 0.6-0.7 1.2-1.4 1.2-1.7 0-0.2-0.9-0.6-2-0.9l-2.1-0.5c3.4 0.4 4 0.3 3.9-0.1 0-0.4-2.5-1.2-5.4-1.8-2.9-0.7-5.4-1-5.5-0.7z"/>
		<path id="Path 4" class="s1" d="m77.1 74.1l-5.6 4.4 7 0.5-18.3 10.2c12.9-0.3 16.9-0.5 17.3-0.7 0.3-0.2 3.7-3.9 7.6-8.1 4.8-5.3 6.8-7.9 6.4-8.2-0.4-0.2-3-0.4-5.8-0.4h-5.1c2.1-1.6 2.6-2.1 2.4-2.1-0.1-0.1-2.8 1.9-5.9 4.4zm-21.2-1.9c-0.7 0.2-4.2 3.9-7.9 8.2-3.7 4.2-6.7 8-6.6 8.3 0.1 0.3 2.8 0.6 6.3 0.6l6.1 0.2c-1.6 1.8-0.5 1.1 1.4-0.3l3.5-2.7-6.4-0.5c13.4-10.6 17.4-13.8 17.4-13.9 0-0.1-2.9-0.2-6.3-0.2-3.5 0-6.9 0.1-7.5 0.3zm70.5 28.6c-0.7 0.3-1.9 1-2.6 1.7-0.7 0.6-1.5 1.8-1.9 2.5-0.4 0.7-0.9 2.5-1.1 4-0.2 1.5-0.1 4.2 0.3 6.2 0.3 1.9 1.8 6.2 3.3 9.6 1.5 3.4 2.8 7.1 3 8.3 0.1 1.2 0.5 2.6 0.7 3.1 0.3 0.6 1.8 1.2 4.6 1.8 2.3 0.4 4.4 0.7 4.7 0.6 0.3-0.1 0.7-1.5 0.9-3.1 0.2-1.6 1.3-5.2 2.4-8 1.8-4.5 2-5.6 2-9.6 0-3.8-0.2-5.1-1.3-7.5-0.8-1.7-2.3-4.1-3.5-5.4-1.1-1.2-3.3-2.9-4.8-3.6-1.4-0.6-3.3-1.2-4-1.2-0.7 0-1.9 0.3-2.7 0.6zm-83.6 30.5c0.1 0.7 1.6 4.2 3.4 7.9 1.7 3.6 3 6.8 2.8 7.1-0.1 0.2-0.9 0.5-1.6 0.5-1 0-1.3 0.3-1.3 1.2-0.1 0.7 0.6 2.2 1.4 3.3 0.8 1.2 3.1 4.5 5.1 7.4 2 2.9 4.6 5.9 5.9 6.9 1.3 0.8 3.1 1.7 4.2 1.9 1.8 0.4 2 0.7 5.5 8.1 2.8 6.1 3.8 7.6 4.7 7.6 0.8 0 1-0.3 0.8-1.2-0.2-0.7-1.6-4-3.3-7.4-1.6-3.3-2.9-6.3-2.9-6.5 0-0.2 0.5-0.4 1.1-0.4 0.6 0 1.5-0.3 2.1-0.6 0.8-0.4 1.1-1 1.1-2.6 0-1.2-0.6-4.8-1.4-7.9-0.8-3.2-1.9-6.6-2.4-7.5-0.6-1.1-1.6-1.9-2.5-2.1-0.8-0.1-2-0.4-2.6-0.5-0.7-0.1-1.9-2.1-4.2-7.2-1.8-3.8-3.7-7.5-4.2-8.1-0.5-0.7-1.1-1.1-1.3-0.9-0.2 0.3 1.2 3.8 3.2 7.9 2 4.1 3.5 7.8 3.3 8.1-0.1 0.2-2 0.5-4.3 0.5h-4c-5.6-11.8-7.6-15.6-8.1-16.1-0.6-0.7-0.7-0.6-0.5 0.6z"/>
	</g>
</svg>