<svg version="1.2" xmlns="http://www.w3.org/2000/svg" viewBox="0 0 300 300" width="300" height="300">
	<title>4ewcryjqpz3sooqu3xcp6wump5dtcota</title>
	<style>
		.s0 { fill: #fefefd } 
		.s1 { fill: #015cbe } 
		.s2 { fill: #f02d2d } 
		.s3 { fill: #71cfe2 } 
	</style>
	<g id="Background">
		<path id="Path 0" class="s0" d="m0 150v150h300v-300h-300z"/>
		<path id="Path 1" class="s1" d="m52.6 21.8c-0.3 0.2-0.3 1.7-0.3 98.6 0 79.1 0.1 98.5 0.3 98.8 0.2 0.3 5 0.3 98.7 0.3l98.5-0.1c0.1-192.6 0.1-197.3-0.3-197.6-0.3-0.2-19.6-0.2-98.4-0.2-66.2 0-98.2 0-98.5 0.2zm39.1 207.1c-0.6 0.6-2.4 2.3-4 3.7-1.6 1.5-5.6 5-8.8 8-3.2 2.9-7.1 6.4-8.6 7.8-1.5 1.3-4.2 3.8-6.1 5.5-1.8 1.7-4.3 3.9-5.5 4.9-1.1 1.1-2.8 2.6-3.6 3.4l-1.6 1.4c0 13.4 0.1 17.5 0.1 17.8 0.1 0.2 0.2 0.4 0.3 0.4 0.1 0 2.2-1.8 4.6-4 2.5-2.2 5.3-4.7 6.2-5.6 0.9-0.8 2.8-2.4 4.1-3.6 1.3-1.2 2.9-2.7 3.6-3.3 0.7-0.6 2-1.8 2.9-2.6 0.9-0.9 2.2-2 2.8-2.6 0.6-0.5 1.5-1.4 2.1-1.9 0.5-0.4 1.5-1.3 2.1-1.8 0.6-0.6 1.9-1.8 3-2.7 1-1 2.3-2.2 2.9-2.7 0.5-0.5 1.7-1.6 2.7-2.4 0.9-0.8 1.7-1.5 1.8-1.5 0.1 0 0.2 3 0.1 6.8v6.9l-11 0.1c-1.2 1.1-2.6 2.3-3.7 3.4-1.2 1-3.2 2.9-4.6 4.1-1.4 1.3-3.2 2.9-4 3.7-1 1-1.3 1.5-1.2 1.6 0.2 0.1 5.7 0.1 12.3 0.1 9.5 0 12.1 0.1 12.2 0.3 0.1 0.1 0.1 1.6 0.1 3.2 0 1.6 0.1 3.1 0.2 3.3 0.2 0.4 0.3 0.4 7 0.4l6.9-0.1 0.1-53h-14.2zm36.2 1.1c-1.3 1.1-2.9 2.6-3.6 3.2-0.7 0.6-1.9 1.8-2.8 2.6-0.9 0.7-2.4 2.1-3.5 3l-1.9 1.7 0.1 40.5 13.9-0.1c0.2-31.1 0.2-40.2 0.3-40.2 0 0 3.6-0.1 8-0.1h8c1-0.8 1.7-1.4 2.3-1.9 0.5-0.6 2.9-2.7 5.2-4.8 2.3-2 4.6-4.2 5.2-4.7 0.6-0.6 1-1.1 1-1.2-0.1-0.1-6.8-0.2-15-0.2h-14.9zm53 1c-1.9 1.6-3.8 3.4-4.4 3.9-0.6 0.5-2.5 2.3-4.3 3.9-1.8 1.7-4.2 3.8-5.3 4.8-1.1 1-4 3.6-6.5 5.9-2.5 2.2-5.8 5.2-7.4 6.7-1.6 1.4-4 3.7-5.4 5-1.4 1.3-2.7 2.6-2.7 2.8-0.1 0.2-0.1 4.3 0 9 0 4.7 0.1 8.7 0.2 8.7 0.1 0.1 0.4 0 0.7-0.3 0.3-0.2 1.2-1 2.1-1.8 0.9-0.8 3.1-2.8 5-4.5 1.9-1.7 5.1-4.7 7.2-6.5 2.1-1.9 5.3-4.8 7.2-6.5 1.9-1.7 5-4.5 6.9-6.2 1.9-1.8 4.7-4.3 6.2-5.6 1.5-1.3 2.9-2.6 3.2-2.8l0.6-0.4v13.8h-11.1c-1.4 1.3-2.8 2.6-4 3.7-1.2 1.1-2.5 2.2-2.8 2.6-0.4 0.3-2 1.7-3.6 3.2-1.5 1.4-3 2.8-3.2 3l-0.3 0.5h25c0 5.5 0 6.6 0.2 6.8 0.3 0.3 0.8 0.4 7.1 0.3h6.8v-53l-14.1-0.1zm30.1 3.2c-3.8 3.4-6.8 6.2-6.7 6.3 0 0.1 3.3 0.2 7.2 0.3l7.1 0.1c-0.1 37.1 0 39.6 0.2 39.9 0.3 0.3 1.3 0.3 7.1 0.3l6.7-0.1 0.2-40.1c1.7-0.1 2.4-0.2 2.7-0.2 0.2-0.1 2.1-1.7 4.2-3.6 2-1.9 4.7-4.3 6-5.5 1.3-1.1 2.7-2.4 3.1-2.8l0.8-0.8h-31.8z"/>
		<path id="Path 2" class="s0" d="m55.6 24.9c-0.1 0.1-0.1 43.1-0.1 95.7 0 84.7 0.1 95.5 0.3 95.6 0.2 0.1 43.2 0.1 95.5 0.1 95 0 95.2 0 95.4-0.4 0.1-0.3 0.2-32.4 0.2-95.4 0-62.9-0.1-95.1-0.2-95.3-0.2-0.4-0.4-0.4-95.6-0.4-52.4 0-95.4 0-95.5 0.1z"/>
		<path id="Path 3" class="s1" d="m81.9 43.9c-0.2 0.1-1.8 1-3.7 2.1-1.9 1.1-3.7 2.2-4.1 2.5-0.6 0.3-0.7 0.5-0.6 0.7 0.1 0.1 0.7 0.6 1.4 1 0.7 0.4 2.6 1.5 4.1 2.5 1.6 0.9 2.9 1.6 3 1.6 0 0 0.1-0.3 0-0.7v-0.8c2.3-0.1 4.8 0 7.1 0.2 2.2 0.2 5.7 0.6 7.8 0.8 2 0.3 5.1 0.8 6.9 1.1 1.7 0.3 4.4 0.9 6 1.2 1.5 0.4 4.2 1 6 1.6 1.9 0.5 5 1.4 7 2.1 2.1 0.6 5.1 1.7 6.7 2.3 1.7 0.7 4 1.6 5.2 2.1 1.2 0.5 3.6 1.6 5.2 2.4 1.7 0.8 4.5 2.2 6.3 3.2 1.7 0.9 3.3 1.8 3.3 2 0.1 0.1-0.2 0.8-0.6 1.5-0.4 0.7-0.8 1.4-0.9 1.6-0.1 0.2-1.5 2.7-3.2 5.7-1.7 3-3.5 6.3-4.1 7.3-0.6 1.2-1.2 2-1.4 2-0.2 0-1.6-0.7-3.2-1.6-1.7-0.9-4.5-2.3-6.4-3.2-1.8-0.9-4.7-2.1-6.3-2.7-1.6-0.6-4.3-1.6-6.1-2.2-1.7-0.6-4.4-1.5-5.9-1.9-1.6-0.4-3.8-1-5-1.3-1.3-0.3-3.4-0.7-4.7-1-1.4-0.3-4.1-0.7-5.9-1-1.9-0.3-5.2-0.6-7.3-0.8-2.2-0.2-4.5-0.4-5.2-0.5l-1.3-0.1c0.1-1.4 0.1-1.5-0.4-1.4-0.2 0.1-2.2 1.2-4.3 2.5-2.1 1.3-3.9 2.4-3.9 2.5 0 0.1 1.3 1 2.9 1.9 1.6 1 3.4 2.1 4.1 2.5 0.7 0.4 1.3 0.7 1.5 0.8 0.3 0.1 0.4 0 0.2-0.6-0.1-0.3-0.1-0.7-0.1-0.8 0.1-0.1 1.3-0.1 3 0 1.5 0 4 0.2 5.5 0.4 1.5 0.2 3.9 0.5 5.4 0.7 1.5 0.2 4.2 0.7 6 1.1 1.8 0.4 4.6 1.1 6.3 1.5 1.6 0.5 4.4 1.3 6.1 1.9 1.8 0.6 4.8 1.7 6.7 2.4 2 0.8 4.9 2.1 6.5 2.9 1.7 0.7 4.2 2 5.7 2.8 1.4 0.8 2.6 1.6 2.6 1.7 0 0.1-0.5 1-1 2.1-0.6 1-2.9 5-5 8.9-2.5 4.4-4.1 7-4.3 7-0.1 0-1.2-0.5-2.3-1.1-1.1-0.6-3.1-1.6-4.5-2.3-1.3-0.6-3.7-1.7-5.4-2.3-1.6-0.7-3.9-1.5-5-1.9-1.2-0.4-2.9-0.9-3.8-1.2-1-0.3-2.9-0.8-4.2-1.1-1.4-0.3-3.8-0.8-5.3-1.1-1.6-0.3-3.9-0.7-5.2-0.8-1.3-0.2-3.6-0.4-5.1-0.5-1.5-0.1-2.8-0.3-2.8-0.3-0.1-0.1 0-0.5 0.1-0.9 0.3-0.8 0.3-0.8-0.1-0.8-0.2 0-2.1 1.1-4.4 2.4-2.2 1.4-4.1 2.5-4.1 2.7-0.1 0.1 1.8 1.3 4.1 2.7 2.4 1.4 4.4 2.6 4.4 2.6 0.1 0 0.2-0.3 0.1-0.7 0-0.6 0-0.7 0.6-0.7 0.3 0 1.8 0 3.2 0.1 1.4 0.2 3.8 0.4 5.2 0.6 1.4 0.3 3.8 0.7 5.4 1 1.5 0.4 3.6 0.9 4.6 1.1 1 0.3 2.7 0.8 3.8 1.2 1.1 0.3 3.3 1.1 4.9 1.7 1.5 0.6 4.2 1.7 5.7 2.5 1.6 0.7 3.8 1.8 4.8 2.4 1 0.6 1.8 1.1 1.8 1.2 0 0.1-0.9 1.9-2.1 4-1.2 2.1-3.3 6-4.8 8.7-1.6 2.7-5.6 9.9-8.9 15.9-3.4 6-7 12.4-8 14.2-1 1.7-2.6 4.7-3.6 6.5-1 1.8-2.9 5.2-4.2 7.5-1.3 2.3-3.2 5.7-4.3 7.6-1 1.8-2.1 3.8-2.4 4.3-0.3 0.5-1.4 2.5-2.4 4.3-1.7 3.1-1.8 3.4-1.5 3.6 0.3 0.2 6.8 0.2 32.1 0.2 17.4 0 31.7 0 31.8-0.1 0.1-0.1 0.5-0.6 0.8-1.2 0.4-0.5 1.8-2.9 3.1-5.4 1.3-2.4 2.9-5.1 3.4-6 0.5-1 2.1-3.8 3.5-6.3 1.5-2.6 3.4-6 4.4-7.8 1-1.8 1.8-3.1 1.9-3.1 0.2 0.1 0.5 0.7 0.7 1.5 0.3 0.8 0.9 2.7 1.3 4.3 0.5 1.6 1 3.9 1.3 5.2 0.3 1.2 0.6 3.1 0.8 4.2 0.1 1 0.4 3.1 0.6 4.6 0.1 1.6 0.3 4.4 0.4 6.3 0.1 2.2 0.2 3.6 0.4 3.7 0.1 0.1 14.2 0.1 31.3 0.1 17.1 0 31.2 0 31.4-0.1 0.3-0.1 0.3-8.7 0.3-76 0-72.1 0-75.9-0.4-76-0.1-0.1-14.8-0.1-32.4-0.1h-32.1c-1.7 3.1-2.8 5.1-3.6 6.4-0.7 1.4-2.4 4.4-3.7 6.7-1.3 2.3-2.6 4.7-2.9 5.3-0.4 0.6-0.7 1.2-0.9 1.4-0.2 0.2-0.4 0.1-1.6-0.5-0.8-0.5-2.6-1.5-4.1-2.2-1.5-0.8-4.2-2.1-6-3-1.8-0.8-4.9-2.2-6.9-3-2-0.8-5-1.9-6.8-2.6-1.7-0.6-4.8-1.6-6.9-2.2-2-0.6-4.9-1.4-6.5-1.8-1.5-0.3-3.8-0.9-5-1.1-1.3-0.3-3.6-0.8-5.1-1-1.6-0.3-3.8-0.7-5-0.8-1.2-0.2-3.4-0.5-4.9-0.6-1.5-0.2-3.4-0.4-4.1-0.5-0.8 0-3-0.2-4.9-0.3-1.9-0.1-3.5-0.2-3.6-0.2 0 0 0.1-0.4 0.1-0.8 0.1-0.5 0.2-0.9 0.2-0.9 0 0-0.2 0-0.3 0.1z"/>
		<path id="Path 4" class="s0" d="m221.3 59.6c-0.4 0.7-1.6 2.8-2.7 4.7-1.1 1.9-3 5.4-4.2 7.6-1.3 2.3-3.6 6.3-5.1 9.1-1.6 2.7-3.5 6.2-4.3 7.7-0.9 1.5-2.3 4-3.2 5.6-0.9 1.6-2.2 3.8-2.8 5-0.6 1.1-1.3 2.3-1.5 2.6-0.2 0.2-0.4 0.7-0.5 1 0 0.5 0.3 1 1.9 3.2 1.1 1.5 2.8 3.8 3.8 5.3 0.9 1.4 2.4 3.7 3.3 5 0.9 1.4 2.2 3.6 3 4.9 0.8 1.4 2.1 3.7 2.9 5.3 0.8 1.6 2.1 4.2 2.8 5.7 0.8 1.6 2 4.3 2.8 6.1 0.7 1.8 1.8 4.5 2.3 6 0.6 1.5 1.3 3.4 1.6 4.3l0.6 1.6c0.2-1.2 0.3-21.7 0.3-46.2 0-24.6-0.1-44.9-0.2-45.2-0.1-0.4-0.2-0.4-0.8 0.7z"/>
		<path id="Path 5" class="s2" d="m177.3 138c-0.2 0.3-1 1.8-1.8 3.3-0.9 1.5-2.4 4.2-3.4 6-1 1.8-2.4 4.3-3.1 5.6-0.8 1.3-1.5 2.7-1.8 3.1-0.2 0.4-0.7 1.3-1.1 2.1l-0.8 1.4c1.6 3.9 2.4 6.1 2.8 7.4 0.5 1.3 1.2 3.5 1.5 5 0.4 1.4 1 3.6 1.3 5 0.2 1.3 0.7 3.4 0.9 4.8 0.2 1.3 0.5 3.7 0.7 5.4 0.1 1.6 0.3 3.1 0.4 3.2 0 0.2 2.3 0.2 10.5 0.2 6.7 0 10.4 0 10.4-0.2 0.1-0.1 0-1.3-0.1-2.6-0.1-1.3-0.3-3.5-0.5-4.8-0.1-1.4-0.4-3.1-0.5-3.8-0.1-0.8-0.3-2.2-0.5-3-0.2-0.9-0.6-2.9-0.9-4.4-0.3-1.6-1-4.2-1.5-6-0.5-1.7-1.2-4-1.5-5.2-0.4-1.1-1.1-3-1.5-4.2-0.5-1.2-1.3-3.2-1.8-4.4-0.5-1.2-1.5-3.4-2.2-4.9-0.7-1.5-2-4-2.8-5.6-0.9-1.6-1.8-3.1-2-3.4l-0.4-0.5z"/>
		<path id="Path 6" class="s3" d="m187.9 119.1c-2.7 4.9-5.3 9.4-5.6 10l-0.7 1.2c1.6 2.7 2.7 4.5 3.4 5.7 0.7 1.3 1.8 3.3 2.4 4.4 0.6 1.2 1.6 3.3 2.3 4.7 0.7 1.4 1.8 4 2.5 5.8 0.7 1.8 1.8 4.8 2.5 6.8 0.7 2 1.7 5.3 2.2 7.4 0.6 2.1 1.4 5.3 1.7 7.2 0.4 1.8 0.9 4.9 1.2 6.9 0.3 1.9 0.7 5.1 0.8 7.2 0.2 2 0.4 3.8 0.4 3.9 0.1 0.2 2.4 0.2 10.6 0.2h10.5c-0.2-3-0.4-5.7-0.6-7.9-0.2-2.3-0.6-5.6-0.9-7.3-0.3-1.8-0.7-4.2-0.9-5.4-0.2-1.2-0.8-3.7-1.2-5.5-0.4-1.8-1.1-4.7-1.6-6.3-0.4-1.7-1.4-4.8-2.1-6.9-0.7-2.1-1.6-4.7-2-5.7-0.4-1-1.3-3.2-2-4.9-0.7-1.7-2.2-5-3.4-7.3-1.1-2.3-2.9-5.6-3.9-7.4-1-1.7-2.6-4.4-3.6-6-0.9-1.5-2.8-4.3-4.2-6.2-1.3-1.9-2.6-3.5-2.7-3.5-0.1 0-2.4 4-5.1 8.9z"/>
	</g>
</svg>