<svg version="1.2" xmlns="http://www.w3.org/2000/svg" viewBox="0 0 300 300" width="300" height="300">
	<title>Apeyron</title>
	<style>
		.s0 { fill: #018bc3 } 
		.s1 { fill: #cdebee } 
	</style>
	<g id="Background">
		<path id="Path 0" class="s0" d="m0 150v150h300v-300h-300z"/>
		<path id="Path 1" class="s1" d="m26.9 123.7c-1.2 0.3-3 1.1-4.2 1.7-1.1 0.6-3.1 2.5-4.5 4.1-1.3 1.6-2.9 4.4-3.5 6.2-0.7 1.9-1.2 4.4-1.2 5.7 0 1.2 0.5 3.7 1.1 5.6 0.6 1.9 2.2 4.7 3.6 6.4 1.4 1.6 4 3.7 5.8 4.7 2.4 1.1 4.7 1.6 8.1 1.6 3.1 0 5.7-0.4 7.8-1.5 1.8-0.8 3.3-1.5 3.4-1.5 0.1 0 0.2 0.7 0.2 1.5 0 0.9 0.1 1.6 0.2 1.6 0.1 0 1.8 0.2 3.7 0.4l3.6 0.3v-36.8c-6.6 0-7.5 0.3-7.5 1.2q0 1.1-1.3 0.6c-0.7-0.2-2.5-0.9-3.9-1.4-1.5-0.6-4.2-1-6-1-1.9 0-4.3 0.3-5.4 0.6zm41.4 0.4c-1.5 0.5-3.3 1.2-4.1 1.5-1.1 0.4-1.4 0.2-1.3-0.6 0.1-1-0.7-1.3-3.6-1.3h-3.8v54.8h7.5v-21.8c5.3 2.5 8 3 11.1 3 3.3 0 5.6-0.4 7.8-1.5 1.8-0.9 4-2.3 5-3.2 1-0.9 2.6-3.3 3.7-5.4 1.3-2.6 1.9-5 1.9-7.9 0-2.9-0.5-5.3-1.9-8.2-1.1-2.3-3.1-5-4.7-6.2-1.4-1.1-4.1-2.6-5.8-3.2-1.8-0.6-4.6-1.1-6.2-1.1-1.7 0-4.2 0.5-5.6 1.1zm39.8-0.1c-1.5 0.5-4 2.1-5.7 3.6-1.7 1.4-3.8 4.2-4.7 6.1q-1.7 3.6-1.7 7.7c0 2.2 0.4 5.2 1 6.5 0.5 1.4 2 3.8 3.2 5.3 1.2 1.6 3.9 3.7 5.9 4.7 2.8 1.4 5 1.9 8.5 1.9 3 0 5.6-0.5 7.5-1.5 1.5-0.7 3.3-1.9 3.9-2.6 1-1.2 0.9-1.5-1.1-3.6-2.2-2.1-2.4-2.2-4.5-1.1-1.3 0.6-3.3 1.3-4.5 1.5-1.3 0.3-3.5 0.2-4.9-0.3-1.4-0.5-3.6-1.9-4.7-3.1-1.1-1.1-2-2.4-2-2.9 0-0.4 5.2-0.7 14.2-0.7h14.3c-0.1-7.3-0.6-9.7-1.7-12-1-1.8-3.1-4.5-4.8-6-1.7-1.4-4.4-3-6-3.6-1.6-0.5-4.4-0.8-6.3-0.8-1.9 0-4.5 0.4-5.9 0.9zm81.3 0.5c-1.7 0.8-3.3 1.4-3.6 1.4-0.3 0.1-0.5-0.4-0.5-1 0-0.9-1-1.2-3.8-1.2h-3.7v36c3.7 0.8 5.4 0.8 6.1 0.5 1.2-0.4 1.4-1.6 1.4-10.4 0-8.3 0.2-10.4 1.5-13.1 0.8-1.8 2.5-3.9 3.9-4.7 2-1.3 3.2-1.5 7.1-1.2l4.7 0.4c2.3-4 2.8-5.5 2.6-6-0.2-0.4-1.6-1-3.2-1.4-1.5-0.5-4.3-0.8-6.1-0.7-1.9 0-4.8 0.6-6.4 1.4zm25.9-0.3c-1.5 0.7-3.6 1.8-4.7 2.6-1.2 0.8-3.1 3.2-4.3 5.4-1.9 3.3-2.3 4.8-2.3 9 0 3.2 0.4 5.9 1.2 7.5 0.7 1.3 2.2 3.5 3.2 4.9 1.1 1.4 3.7 3.3 5.7 4.3 2.5 1.2 5.1 1.9 7.5 1.9 2.1-0.1 5.1-0.4 6.8-0.9 1.9-0.5 4.3-2.2 6.8-4.7 2.5-2.5 4.2-4.9 4.7-6.8 0.5-1.7 0.8-4.5 0.8-6.4 0-2-0.7-4.9-1.7-7.1-1-2.1-3.2-5-4.9-6.6-1.7-1.5-4.4-3.1-5.9-3.5-1.6-0.5-4.5-0.8-6.6-0.8-2 0-4.9 0.6-6.3 1.2zm40.1 0.3c-1.7 0.9-3.1 1.5-3.2 1.5-0.1 0-0.2-0.5-0.2-1.1 0-0.9-0.9-1.2-3.7-1.2h-3.8v36h7.5c0-16.3 0.3-20.2 1-21.9 0.6-1.3 1.9-3.2 2.8-4 1-0.9 3-2 4.5-2.4 1.7-0.5 3.5-0.5 5.6 0 1.6 0.4 3.8 1.5 4.8 2.4 0.9 0.8 2.2 2.7 2.8 4 0.7 1.7 1 5.6 1 12.2v9.7h7.5c-0.4-22.2-0.6-23.9-2-26.6-0.9-1.6-2.6-3.9-3.7-5-1.2-1-3.6-2.6-5.4-3.5-2.2-1.1-4.5-1.6-7.8-1.6-3.1 0-5.7 0.6-7.7 1.5zm-118.9 8.8c0 6.3 0.4 10.9 1.1 13.3 0.6 2.1 2.2 5.1 3.6 6.7 1.3 1.6 4 3.7 6 4.7 2.2 1.1 5 1.8 7.5 1.8 2.6 0.1 5.2-0.4 7.5-1.5l3.6-1.6c0 4.7-0.4 6.8-0.7 7.7-0.4 1-1.3 2.4-2.1 3.3-0.7 0.9-2.1 2-3.1 2.4-0.9 0.5-3.2 0.9-5 0.9-1.9 0-4.4-0.6-5.7-1.3l-2.3-1.3c-3.8 4.6-4.1 5.4-3.4 6 0.5 0.5 2.4 1.6 4.3 2.6 2.7 1.4 4.2 1.6 8.2 1.4 3.8-0.2 5.6-0.8 8.3-2.4 1.8-1.2 4.2-3.2 5.2-4.5 1-1.3 2.3-3.6 2.8-5 0.6-1.8 0.9-8.9 0.9-22.7l0.1-20.1c-5.8 0-6.9 0.4-7.2 1.2-0.2 0.6-0.4 5.4-0.4 10.7 0 8.2-0.2 9.9-1.5 12-0.8 1.3-2.5 3-3.9 3.6-1.3 0.7-3.8 1.3-5.6 1.4q-3.1 0-5.2-1.5c-1.2-0.9-2.9-2.9-3.8-4.5-1.5-2.7-1.7-4-1.7-12.9v-10h-7.5zm78.3 38.1c0 3.7 0.1 5.4 0.3 3.8 0.1-1.7 0.1-4.7 0-6.8-0.2-2.1-0.3-0.7-0.3 3zm30.6-4.3c-0.1 0.9-0.6 1.7-1.1 1.7-0.7-0.1-0.7 0.1 0 0.9 0.5 0.5 1 2.6 1.1 4.7l0.3 3.8c0.3-6.9 0.7-8.1 1.6-8.6 1.3-0.7 1.3-0.8 0-0.8-0.8 0-1.4-0.7-1.6-1.7l-0.2-1.7zm-42.5 2.8c-0.6 0.6-1.3 1.9-1.6 2.8-0.3 1.1 0.1 2.4 1 3.6 0.8 1 2.2 2 3.1 2.1 0.9 0.1 2.3-0.2 3.1-0.6 0.8-0.4 1.5-1.1 1.5-1.5 0-0.4-0.8-0.2-1.9 0.4-1.6 1-2 1-3.7 0-1-0.6-1.9-1.5-1.9-1.9 0-0.4 0.9-0.8 2.1-0.8 1.1-0.1 3-0.1 4.1 0 1.5 0 2.1-0.3 2.1-1.3 0-0.7-0.6-1.9-1.3-2.6-0.8-0.7-2.3-1.3-3.4-1.3-1.1 0-2.5 0.5-3.2 1.1zm17.3 0c-0.7 0.6-1.4 1.9-1.6 2.8-0.3 1.1 0.1 2.4 1 3.6 0.8 1 2.2 2 3.2 2.1 1 0.1 2.6-0.3 3.5-0.9 1-0.7 1.5-1.4 1.3-1.6-0.2-0.2-1.2 0.2-2.2 0.8-1.7 1-2.1 1-3.8 0-1-0.6-1.8-1.5-1.8-1.9 0-0.4 1.1-0.9 2.4-1.1 1.3-0.3 3-0.3 3.7 0 0.8 0.2 1.6-0.1 1.9-0.8 0.4-0.7 0-1.7-0.9-2.6-0.8-0.9-2.4-1.5-3.5-1.5-1.1 0-2.6 0.5-3.2 1.1zm12.3 0.4c-0.8 0.8-1.5 2.3-1.5 3.4 0 1 0.8 2.5 1.7 3.4 0.9 0.8 2.5 1.5 3.6 1.5 1 0 2.3-0.5 3-1.2 1-1.1 0.9-1.2-1.2-0.4-1.8 0.7-2.6 0.6-3.9-0.3-0.9-0.6-1.7-1.9-1.7-2.8 0-1 0.7-2.4 1.5-3.2 1.4-1.3 1.9-1.4 3.9-0.7 1.3 0.5 2.3 0.6 2.2 0.2 0-0.3-0.6-0.8-1.2-1-0.6-0.2-2-0.4-3-0.4-1 0-2.6 0.7-3.4 1.5zm19.6 3.7c0 3.5 0.2 4.5 0.7 3.4 0.3-0.8 0.6-2.6 0.7-3.9 0-1.7 0.5-2.8 1.7-3.6 1.7-1.1 1.6-1.1-0.8-0.9l-2.4 0.2zm13.8-3.4c-1 1-1.8 2.2-1.8 2.8-0.1 0.5 0.6 1.9 1.4 3q1.6 2.1 3.6 2.1c1.2 0 2.8-0.5 3.6-1.1 0.8-0.6 1.2-1.1 0.9-1.2-0.3 0-1.5 0.4-2.6 0.8-1.6 0.6-2.5 0.5-3.8-0.4-0.9-0.6-1.7-1.9-1.7-2.8 0-0.9 0.7-2.4 1.6-3.2 0.9-0.9 2-1.3 2.8-1 0.7 0.2 2 0.7 2.8 1l1.5 0.5c-2.3-1.9-3.8-2.4-4.7-2.4-1 0-2.6 0.9-3.6 1.9zm11.2-0.2c-0.4 1.3 0 2.1 1.7 3.3 1.5 1.2 2 2 1.6 2.8q-0.6 1.2-2.3 0.8c-1.2-0.4-1.5-0.3-0.9 0.4 0.4 0.5 1.4 0.8 2.2 0.6 0.7-0.1 1.7-0.8 2.2-1.6 0.7-1.1 0.4-1.7-1.6-3.5-1.3-1.2-2.3-2.6-2.1-3 0.2-0.4 1.2-0.5 2.1-0.2 1.2 0.4 1.5 0.2 1.1-0.4-0.3-0.5-1.2-0.9-2-0.9-0.9 0-1.7 0.7-2 1.7zm-16.8 7.3c-0.4 0-0.7-1.8-0.7-4.1 0-2.3 0.3-4.1 0.7-4.1 0.4 0 0.8 1.8 0.8 4.1 0 2.3-0.4 4.1-0.8 4.1z"/>
		<path id="Path 2" class="s0" d="m26.3 132.2c-1.4 0.9-3.1 2.9-3.9 4.3-0.8 1.4-1.4 3.6-1.4 4.7 0 1.1 0.5 3.1 1 4.5 0.6 1.3 1.9 3.2 2.8 4.1 1 1 3.2 2 4.8 2.4 2.1 0.5 3.9 0.5 5.6-0.1 1.5-0.4 3.5-1.5 4.5-2.4 0.9-0.9 2.2-2.7 2.8-4 0.5-1.4 1-3.5 1-4.9 0-1.3-0.7-3.5-1.5-4.9-0.8-1.3-2.6-3.1-3.9-3.9-1.5-0.9-3.8-1.5-5.9-1.5-2.3 0-4.2 0.5-5.9 1.7zm42.1-0.2c-1.3 0.8-3.1 2.6-3.9 3.9-0.9 1.4-1.5 3.8-1.5 5.5 0 1.6 0.7 4.2 1.5 5.6 0.9 1.4 2.3 3.1 3.2 3.7 0.9 0.6 2.9 1.3 4.3 1.6 1.4 0.3 3.6 0.3 4.9-0.1 1.2-0.3 3.2-1.3 4.3-2.2 1.1-0.8 2.6-2.8 3.2-4.3 0.6-1.6 1.1-3.5 1.1-4.3 0-0.8-0.8-3-1.7-4.9-0.9-1.8-2.7-3.9-3.9-4.6-1.3-0.8-3.7-1.4-5.7-1.4-2 0-4.3 0.6-5.8 1.5zm41.5-0.6c-0.8 0.4-2.5 1.7-3.6 2.8-1.1 1-2.1 2.3-2.1 2.9 0 0.7 2.6 0.9 10.2 0.9 7.6 0 10.1-0.2 10.1-0.9 0.1-0.6-1.3-2.2-3-3.8-2.6-2.4-3.5-2.8-6.6-2.8-1.9 0-4.2 0.4-5 0.9zm106.3 0.6c-1.4 0.8-3 2.6-3.7 3.9-0.7 1.4-1.2 3.8-1.2 5.5 0 1.6 0.6 4.1 1.2 5.4 0.7 1.4 2.3 3.1 3.7 3.9 1.4 0.9 3.8 1.5 5.6 1.5 1.8 0 4.3-0.5 5.6-1.1 1.4-0.6 3.1-2.1 3.9-3.2 0.8-1.1 1.6-3.4 1.8-5 0.2-1.7-0.1-4.1-0.7-5.6-0.5-1.4-2.1-3.5-3.5-4.7-2-1.7-3.1-2.1-6.3-2.1q-4 0-6.4 1.5zm-12.7 39c-1.4 1.5-1.4 1.5 2.2 1.5 1.9 0 3.6-0.3 3.6-0.6 0-0.3-0.5-1-1-1.5-0.5-0.5-1.5-0.9-2.1-0.9-0.7 0-1.9 0.7-2.7 1.5zm17.3 0c-1.4 1.5-1.4 1.5 2.1 1.5 2 0 3.6-0.3 3.6-0.6 0-0.3-0.4-1-0.9-1.5-0.5-0.5-1.5-0.9-2.2-0.9-0.6 0-1.8 0.7-2.6 1.5z"/>
	</g>
</svg>