<svg version="1.2" xmlns="http://www.w3.org/2000/svg" viewBox="0 0 300 300" width="300" height="300">
	<title>Y23292</title>
	<style>
		.s0 { fill: #ffffff } 
		.s1 { fill: #1f191a } 
	</style>
	<g id="Background">
		<path id="Path 0" class="s0" d="m-116.7 150v150h533.4v-300h-533.4z"/>
		<path id="Path 1" class="s1" d="m192.3 60.2c-2.8 1-6.6 2.1-8.5 2.4-1.8 0.4-5.3 0.9-7.6 1.1-3 0.2-5.8 0.2-8.7 0-2.4-0.2-7.4-0.8-11.2-1.3-3.7-0.6-8.8-1.2-11.1-1.4-2.7-0.3-6.8-0.4-10.7-0.2-4.3 0.1-7.3 0.4-9.5 0.8-1.7 0.4-4.1 1-5.3 1.4-1.2 0.4-3.1 1.2-4.2 1.7-1.1 0.6-2.7 1.5-3.5 2.2-0.8 0.6-2 1.9-2.7 2.8-1 1.6-1.1 1.9-1.1 4.1 0 1.8 0.2 2.7 0.8 3.9 0.4 0.8 1.7 2.4 2.8 3.5 1.1 1.1 3.9 3.2 6.2 4.8 2.3 1.5 5 3.4 5.9 4.1 1.2 0.9 2.1 2 2.6 3.1 0.6 1.2 0.8 1.9 0.6 2.6-0.1 0.6-0.6 1.4-1.1 2-0.5 0.5-1.3 1-2 1.1-0.8 0.1-1.7 0-2.7-0.4-0.8-0.4-2.7-1.5-4.1-2.6-1.5-1.1-4.3-3.3-6.2-4.9-1.9-1.6-4.9-4-6.7-5.3-1.7-1.3-4.2-2.9-5.5-3.6-2.2-1.1-2.4-1.2-5-1-1.7 0.1-3.1 0.3-3.8 0.7-0.6 0.4-1.8 1.3-2.7 2-0.8 0.8-2.1 1.6-2.8 1.8-0.7 0.2-1.8 0.8-2.4 1.4-0.9 0.8-1.1 1.2-0.9 2 0.1 0.8 0 1-0.5 1-0.4 0-1.7 0.9-2.9 1.9-1.5 1.4-2.1 2.2-2.1 2.8 0 0.4 0.3 1.3 0.6 1.9 0.4 0.6 1 1.2 1.3 1.3 0.4 0.1 0.7-0.1 1.1-0.7 0.4-0.5 1-0.9 1.7-1.1 0.8-0.1 1.3 0 1.7 0.5 0.3 0.3 0.6 0.9 0.6 1.2 0 0.4-0.3 1-0.6 1.3-0.3 0.4-1 0.7-1.5 0.7-0.5 0-1.1-0.2-1.5-0.6-0.3-0.3-0.7-0.4-0.8-0.3-0.2 0.2-0.2 1.3-0.1 2.6 0.1 1.3 0.3 2.4 0.3 2.5 0.1 0.1 0.6-0.3 1.2-0.8 0.9-0.8 1.3-0.9 2.3-0.8 0.8 0.2 1.5 0.7 2.3 1.5 0.7 0.7 4.3 5.7 8.2 11.1 3.8 5.4 7.7 10.7 8.6 11.7l1.6 2c-1.1 3.5-2.1 5.7-2.9 7.3-0.8 1.6-2.2 3.7-3.1 4.7-1.5 1.7-1.6 1.8-2.5 1.4-0.5-0.2-1.3-0.4-1.8-0.4-0.5 0-1.2 0.2-1.7 0.5-0.4 0.3-0.7 0.8-0.7 1.3 0 0.5 0.1 0.9 0.3 1 0.2 0.1 0.3 0.3 0.2 0.5-0.1 0.2-6.6 0.3-18.5 0.3h-18.3v4h192.6v-4c-43.5 0-56.2 0-56.4-0.1-0.1-0.1 0.1-0.7 0.5-1.2 0.6-0.9 0.8-1.5 0.7-3.3 0-1.7-0.3-2.9-1.1-5-0.7-1.6-1.8-4-2.6-5.4-1.3-2.2-1.5-2.5-2.8-2.9-0.8-0.2-1.8-0.7-2.3-1.2l-0.8-0.9c0-11-0.1-14-0.3-14.3-0.3-0.4-0.2-0.4 0.5-0.2 0.4 0.2 1.5 0.8 2.5 1.3 0.9 0.5 2.5 1.7 3.6 2.5 1.1 0.8 5.2 4.7 9 8.6 4.1 4.1 7.9 7.6 9.2 8.5 1.2 0.8 3.1 1.8 4.2 2.3 1.1 0.5 2.9 1.2 4.1 1.5 1.4 0.4 3.5 0.6 5.5 0.6 1.9 0 4.2-0.1 5.2-0.4 1-0.2 2.9-0.9 4.2-1.5 1.4-0.6 3-1.7 4.2-2.9 1.2-1.1 2.4-2.6 3-3.8 0.7-1.5 1-2.6 1.2-4.5 0.1-1.8 0-2.9-0.4-3.9-0.3-0.8-0.7-1.4-1-1.4-0.2-0.1-0.7 0.7-1 1.5-0.4 0.9-1.4 2.4-2.4 3.3q-1.7 1.7-1.9 2.8c-0.1 0.7-0.1 1.7 0.1 2.4 0.4 1.1 0.3 1.2-0.6 2.1-0.6 0.6-1.8 1.4-2.8 1.9-1 0.5-2.8 1.1-4.1 1.3-1.4 0.3-3.2 0.3-4.5 0.2-1.2-0.1-3.3-0.6-4.7-1.1-1.3-0.4-3.1-1.2-4-1.7-0.8-0.4-2.6-1.7-3.9-2.7-1.4-1-4.5-4.1-7-6.9-2.5-2.7-6-6.2-7.7-7.8-1.8-1.5-4.3-3.6-5.5-4.5-1.3-1-3.6-2.6-5.2-3.5-1.6-0.9-4.3-2.3-6.2-3-1.8-0.7-4.4-1.4-5.6-1.6-1.3-0.2-7.1-0.5-12.9-0.6-5.7-0.1-10.9-0.2-11.5-0.3l-1-0.2c0-5.6 0.2-7.2 0.4-7.4 0.1-0.1 1.2-0.2 2.3-0.2 1.1 0 3.6-0.2 5.5-0.4 1.9-0.2 5.2-0.6 7.3-1 2.1-0.4 5.6-1 7.7-1.5 2.1-0.5 5.6-1.4 7.8-2.1 2.2-0.8 5.2-1.9 6.7-2.7 1.5-0.7 3.2-1.8 3.7-2.5 0.6-0.6 1.1-1.5 1.1-1.8 0-0.4-0.2-0.8-0.6-1-0.4-0.2-0.2-0.4 1.1-0.7 0.9-0.2 2.1-0.6 2.7-0.9 0.5-0.3 1.4-0.9 1.9-1.4 0.5-0.5 0.9-1.1 0.9-1.4 0-0.4-0.1-0.7-0.3-0.8-0.2-0.1-0.3-0.3-0.3-0.4 0-0.2 0.7-0.6 1.5-0.9 0.9-0.4 2-1.2 2.5-1.8 0.8-0.9 0.9-1.2 0.6-1.7-0.1-0.4-0.3-0.7-0.2-0.8 0-0.1 0.5-0.4 1-0.7 0.5-0.3 1.1-0.9 1.4-1.3 0.4-0.5 0.5-1.1 0.4-1.6-0.1-0.6-0.5-1-0.7-1-0.3 0-0.5 0-0.5-0.1 0-0.1 0.3-0.7 0.8-1.2 0.5-0.5 0.8-1.3 0.8-1.7 0-0.5-0.1-1-0.2-1.2-0.2-0.2-0.6-0.4-0.9-0.5-0.4-0.1-3 0.6-5.9 1.6zm-111.3 100c-0.7 0.7-1.8 1.7-2.5 2.2-1.3 1-1.5 1.3-4.4 9.4-1.6 4.6-5.4 14.5-8.4 22-5.5 13.7-5.5 13.7-7.3 15.6-1.2 1.1-2.3 2-3 2.1-0.7 0.2-1.2 0.5-1.3 0.7-0.1 0.2 2.1 0.3 6.2 0.2 3.4 0 6.3 0 6.4 0 0.2-0.1 0.3-0.2 0.3-0.4 0-0.2-0.3-0.3-0.6-0.3-0.3 0-0.8-0.2-1.1-0.5-0.3-0.2-0.7-0.7-0.9-1.2-0.3-0.5-0.4-1.3-0.2-2.2 0.1-0.7 0.5-2.3 0.9-3.5 0.3-1.2 1.7-5 3.1-8.5 1.3-3.5 2.5-6.6 2.6-6.9 0.2-0.5 0.8-0.6 6.6-0.5 3.5 0 7.2 0.1 8.1 0.2l1.7 0.2c2.3 6 3.9 10.1 4.9 13.1 1.2 3.5 1.9 6 1.9 6.9 0 0.9-0.2 1.7-0.5 2-0.3 0.3-1 0.6-1.5 0.8-0.6 0.1-1 0.4-0.9 0.6 0.1 0.2 3.2 0.3 8.3 0.4 4.4 0 8.2 0 8.4-0.2 0.1-0.1-0.4-0.4-1.2-0.6-0.8-0.3-2.1-0.9-2.9-1.5-0.8-0.6-2.1-2-2.9-3.1-0.8-1.1-1.9-3-2.4-4.2-0.6-1.2-3.2-8.4-5.9-16-2.7-7.6-5.9-16.7-7-20.2-1.2-3.5-2.4-6.6-2.6-7.1-0.2-0.4-0.5-0.7-0.6-0.7-0.1 0-0.7 0.5-1.3 1.2zm29.7 0.7c0 0.1 0.8 0.5 1.9 0.8 1 0.3 2.2 0.9 2.7 1.4 0.5 0.5 0.8 1.4 1.1 3.4 0.2 1.6 0.2 4.3 0.1 6.8-0.1 2.3-0.2 11.1-0.2 19.6 0 13 0 15.6-0.5 16.6-0.2 0.6-0.9 1.4-1.4 1.6-0.5 0.3-1.4 0.6-2 0.7-0.6 0.1-1 0.4-0.9 0.5 0.1 0.2 1.9 0.3 5.1 0.2 3.2-0.2 5.7-0.1 7.2 0.1 1.3 0.2 2.6 0.3 2.9 0.2 0.4-0.1 0.6-0.3 0.6-0.5 0-0.1-0.2-0.3-0.6-0.3-0.3 0-1.1-0.3-1.9-0.6-0.9-0.4-1.5-1-2-1.9-0.6-1.2-0.6-2-0.6-10.6 0-5 0-9.3 0.1-9.4 0.1-0.1 2.3-0.1 4.8 0.1l4.6 0.2c1.7 2.9 3.4 5.3 4.9 7.2 1.4 1.9 4 4.9 5.7 6.7 1.9 1.9 4.6 4.1 6.5 5.4 1.9 1.2 4.3 2.5 5.4 2.9 1.5 0.6 2.7 0.8 5.3 0.8 2.5 0 3.9-0.2 5.7-0.7 1.2-0.4 2.7-1.1 3.3-1.6 0.5-0.4 0.9-0.9 0.7-1-0.1-0.1-0.8 0.2-1.6 0.6-1.2 0.6-1.9 0.7-4.6 0.7-2.3 0-3.6-0.2-4.8-0.7-1-0.3-2.8-1.3-4-2.2-1.3-0.8-3.5-2.5-4.9-3.8-1.3-1.3-3.3-3.5-4.2-4.8-1-1.4-3.2-4.5-5-7-1.7-2.4-3.1-4.6-3.1-4.8 0-0.2 0.6-0.7 1.4-1.2 0.8-0.5 2.2-1.7 3.2-2.8 0.9-1 2.1-2.7 2.6-3.8 0.8-1.6 1-2.3 1-4.7 0-2.5-0.2-3.1-1.1-5-0.5-1.2-1.5-2.8-2.1-3.5-0.7-0.7-2.1-1.9-3.2-2.6-1.1-0.7-3.2-1.7-4.6-2.1-2.6-0.9-3.1-0.9-13.1-1.1-5.8 0-10.4 0-10.4 0.2zm84.1 0.1c-2.4 0.2-11.3 0.3-19.9 0.3-8.6 0-15.6 0.1-15.6 0.3 0 0.1 0 1.1-0.1 2.1-0.1 1-0.2 2.7-0.4 3.9-0.2 1.6-0.2 2.1 0.1 2.1 0.2 0 0.9-0.9 1.4-2 0.5-1 1.4-2.3 2-2.9l1.1-1c9.8-0.1 12.6 0 12.6 0.1 0 0.2 0.1 2.1 0.2 4.3 0 2.2 0.3 11 0.5 19.6 0.2 8.6 0.3 16.9 0.3 18.4-0.1 1.7-0.4 3-0.8 3.5-0.4 0.7-1 1.1-2.4 1.5-1 0.2-1.8 0.6-1.8 0.7 0 0.2 3.6 0.3 8 0.3 4.4 0 8-0.1 8-0.2 0-0.1-0.6-0.3-1.2-0.4-0.7-0.1-1.7-0.5-2.1-0.8-0.5-0.4-1-1.2-1.3-1.8-0.4-0.8-0.6-3.4-0.8-8.8-0.1-4.3-0.3-14.2-0.4-22.1-0.1-7.9-0.1-14.4 0.1-14.4 0.1 0 1.9-0.2 4-0.4 2.6-0.2 4.8-0.2 6.7 0.1 1.6 0.2 3.4 0.6 4.1 1 1 0.5 1.4 0.9 1.8 2.3 0.3 0.9 0.7 1.6 0.9 1.6 0.1 0 0.2-1.5 0.1-3.5 0-1.9-0.2-3.6-0.4-3.7-0.2-0.2-2.3-0.2-4.7-0.1zm9.7 0.7c0.1 0.1 0.5 0.3 0.8 0.3 0.4 0 1.3 0.3 2 0.6 0.6 0.4 1.6 1.1 2.1 1.7 0.5 0.6 1 1.4 1.1 1.8 0.1 0.4 0.3 3 0.5 5.7 0.2 2.8 0.4 8.3 0.5 12.4 0.1 4 0 10.6-0.1 14.6-0.3 6.2-0.4 7.6-0.9 8.7-0.4 0.7-1.2 1.7-1.8 2.2-0.7 0.4-1.9 1-2.8 1.2-0.9 0.2-1.6 0.6-1.6 0.8 0 0.2 5.6 0.3 16 0.3 8.7 0 16.8 0.1 18 0.2l2.2 0.2c3.7-5.6 5-7.7 5.3-8.3 0.3-0.6 0.5-1.5 0.5-1.9 0-0.8-0.3-0.6-2.5 1.7-1.8 1.8-3.3 2.9-4.8 3.7-1.2 0.6-3.2 1.3-4.5 1.6-1.5 0.4-3.6 0.6-6.2 0.6-2.6 0-4.3-0.2-5.5-0.6-0.9-0.3-2.1-0.9-2.7-1.3-0.6-0.4-1.5-1.4-1.9-2.2-0.8-1.5-0.8-1.7-0.9-9.4v-7.8c2.5-0.4 4.6-0.5 6.4-0.5 2.4 0 3.5 0.2 4.6 0.7 0.8 0.4 1.6 1 1.9 1.6 0.2 0.6 0.5 1 0.6 1 0.1 0 0.2-2 0.2-4.4v-4.4l-2.9 3.3-11.1 0.2c0-16.4 0.1-21.5 0.2-21.9 0.1-0.8 0.2-0.8 6.4-0.8 3.4 0 6.8 0.2 7.5 0.4 0.7 0.2 1.8 0.9 2.6 1.6 0.7 0.7 1.6 1.9 1.9 2.7 0.3 0.8 0.5 2.2 0.6 3.1 0 0.9 0.1 1.6 0.2 1.6 0.2 0 0.4-0.3 0.6-0.7 0.2-0.4 0.3-2.8 0.3-5.6l-0.1-4.9c-27.5-0.1-32.9-0.1-32.7 0.2zm-86.3 66.7c-0.2 0.4-1.4 3.1-2.5 5.9-1.6 3.9-2.4 5.4-3.2 6.1l-1 0.9c3.2 0 4.2-0.1 4.3-0.3 0.1-0.2-0.1-0.4-0.5-0.5-0.3-0.1-0.6-0.4-0.5-0.6 0-0.2 0.3-1.2 0.7-2.2l0.5-1.7 4.4 0.2c1 2.5 1.3 3.5 1.3 3.7 0 0.2-0.3 0.5-0.7 0.6-0.4 0.1-0.7 0.3-0.7 0.5 0 0.2 1 0.3 2.3 0.3 1.3 0 2.4-0.1 2.5-0.2 0.2-0.2-0.1-0.4-0.5-0.7-0.6-0.3-1.2-1.7-2.9-6.4-1.2-3.4-2.4-6.2-2.6-6.2-0.2-0.1-0.6 0.2-0.9 0.6zm-60.7 0.1c0.4 0.3 0.8 0.5 0.9 0.5 0.2 0 0.3 2.5 0.3 5.7 0 5.4-0.1 5.6-0.7 5.8-0.4 0.1-0.6 0.3-0.5 0.5 0.1 0.2 1.9 0.3 4.3 0.3h4.2c0-2.6-0.1-3.3-0.2-3.3-0.2 0-0.6 0.5-0.9 1.2-0.5 1.1-0.6 1.1-2.4 1.1h-1.8c0-8.8 0.1-11.3 0.2-11.3 0.2 0 0.6-0.2 0.9-0.5 0.6-0.4 0.4-0.5-2.1-0.5-2.6 0-2.8 0.1-2.2 0.5zm114.2-0.2c0 0.2 0.3 0.4 0.8 0.5l0.8 0.2v11.3c-1.3 0.3-1.6 0.5-1.6 0.7 0 0.2 0.9 0.3 2.1 0.3 1.2 0 2.2-0.1 2.2-0.2 0-0.2-0.4-0.5-0.8-0.7-0.9-0.4-0.9-0.4-0.9-4.6 0-2.9 0.1-4.1 0.4-4.1 0.2 0.1 1.2 2.2 2.2 4.8 1 2.6 1.9 4.8 2 4.9 0.2 0.2 1.1-1.9 2.2-4.5 1.1-2.6 2.2-5 2.4-5.2 0.4-0.5 0.5 0 0.5 3.9 0 4.3 0 4.4-0.8 4.8-0.5 0.2-0.8 0.5-0.7 0.7 0.1 0.1 1.2 0.2 2.5 0.2 1.3 0 2.3-0.1 2.3-0.2 0-0.2-0.3-0.5-0.8-0.7l-0.8-0.4v-11c1.3-0.3 1.6-0.5 1.6-0.7 0-0.2-0.8-0.3-1.9-0.2l-1.9 0.1c-2.7 6.9-3.7 9.1-3.8 9.2-0.1 0.2-1.1-1.9-2.1-4.6l-1.9-4.8c-3.1 0-4 0.1-4 0.3zm63.1 0.2c0.4 0.3 0.8 0.5 0.9 0.5 0.2 0 0.3 2.5 0.3 5.7 0 5.4 0 5.6-0.7 5.8-0.3 0.1-0.6 0.3-0.5 0.5 0.1 0.2 1.3 0.3 2.7 0.3 1.4 0 2.5-0.1 2.5-0.3 0-0.2-0.4-0.4-1-0.5l-1-0.2v-4.6c2.1 0 3.2-0.2 3.7-0.5 0.6-0.2 1.4-0.8 1.8-1.2 0.5-0.5 0.7-1.2 0.7-2.4 0-1.3-0.2-1.8-1-2.5-0.9-0.9-1-0.9-5-1-3.7-0.1-4-0.1-3.4 0.4z"/>
		<path id="Path 2" class="s0" d="m153.7 119.7c-1.4 0.3-3.7 1-5.2 1.5-1.5 0.5-4.4 1.6-6.5 2.4-2.1 0.8-5.9 2.3-8.3 3.4-3.5 1.5-4.6 2.1-4.8 2.7-0.1 0.5-0.9 1.9-1.8 3.3-0.9 1.4-2.9 3.7-4.5 5.1-1.5 1.4-4.2 3.5-5.9 4.7-1.7 1.1-3 2.1-3 2.3 0 0.1 8.9 0.2 19.9 0.2 11 0 20.1 0 20.2-0.1 0.1-0.1 0-0.4-0.3-0.7-0.3-0.3-0.5-0.9-0.5-1.3 0-0.5 0.3-1.1 0.8-1.4 0.4-0.2 1.1-0.5 1.6-0.5 0.5 0 1.3 0.2 1.8 0.4 0.7 0.4 0.9 0.4 2.2-0.9 0.7-0.7 2.1-2.3 3-3.5 0.9-1.2 1.8-2.8 2.1-3.7 0.4-1.4 0.4-1.7 0-2.5-0.2-0.5-1.4-1.8-2.5-2.8-1.2-1-2.8-2.7-3.5-3.7-1-1.3-1.4-2.3-1.6-3.7-0.1-1-0.4-1.9-0.5-1.9-0.1 0-1.4 0.3-2.7 0.7zm17.3 10.4c0 0.2 0.3 0.7 0.8 1.2 0.7 0.7 0.7 0.8 0.2 2.3-0.3 0.9-1.2 2.5-2 3.7-0.9 1.2-2.3 2.8-3.1 3.6-0.9 0.8-2.4 2-3.4 2.7-1 0.7-1.9 1.3-1.8 1.5 0 0.1 4.6 0.2 10.3 0.2h10.3c-0.3-2.1-0.2-2.6 0.1-2.9 0.3-0.3 1.1-0.4 2.1-0.4l1.5 0.2c-0.2-1.6-1-3.4-1.8-5-0.9-1.8-2-3.5-2.7-4.1-0.9-0.8-1.5-1.1-2.4-1.1-0.7 0-2.2-0.2-3.3-0.5-1.1-0.3-2.6-0.8-3.4-1.2q-1.5-0.6-1.4-0.2zm-57.4 2.8c-0.6 0.1-1.3 0.7-2.1 1.8-0.7 1-2.3 2.6-3.5 3.7-1.2 1.1-3.6 3-5.4 4.2-1.8 1.2-3.3 2.3-3.3 2.5 0 0.1 1.2 0.2 2.7 0.2 1.5 0 2.7-0.1 2.8-0.3 0.1-0.2 0-0.4-0.1-0.5-0.2-0.1-0.4-0.5-0.4-1 0-0.5 0.3-1 0.8-1.4 0.5-0.3 1.2-0.4 2.1-0.3 0.7 0 1.6 0.2 1.9 0.3 0.4 0.2 0.9-0.3 2.1-1.9 0.9-1.1 2-3 2.5-4.2 0.6-1.2 1-2.4 0.9-2.7q-0.1-0.5-1-0.4zm8.7 41.9c-0.2 6.3-0.2 11.7-0.1 11.9 0.1 0.1 1.1 0.4 2.2 0.5 1.2 0.1 3.2 0 4.5-0.2 1.3-0.2 3.2-0.7 4.2-1.1 0.9-0.4 2.3-1.2 2.9-1.8 0.6-0.5 1.5-1.8 2-2.8 0.7-1.6 0.8-2.2 0.8-5.6 0-3.1-0.1-4.2-0.7-5.7-0.4-1-1.2-2.3-1.8-3-0.6-0.6-1.7-1.4-2.4-1.7-0.7-0.4-2.2-0.9-3.3-1.1-1.2-0.3-3.4-0.6-5.1-0.7l-3-0.3zm-43.7-5.7c-0.4 1-1.7 4.4-2.9 7.6-1.1 3.2-2.3 6.4-2.7 7.1-0.5 1.1-0.5 1.3-0.1 1.4 0.3 0.1 3.3 0.2 6.8 0.2h6.4c-0.4-1.4-1.7-5.5-3.2-9.9-1.6-4.5-3-8.1-3.2-8.1-0.2 0-0.7 0.8-1.1 1.7zm159.5 62.7l0.1 3.1c1.8-0.1 2.7-0.4 3.1-0.7 0.5-0.3 0.8-1 0.9-1.7 0.2-0.7 0.1-1.7-0.1-2.1-0.2-0.5-0.7-1-1.2-1.3-0.5-0.2-1.3-0.4-1.9-0.4h-1zm-120.6 0.9c-0.4 1-0.8 2-0.8 2.1 0 0.2 0.8 0.3 1.7 0.3 1.2 0 1.6-0.2 1.5-0.4 0-0.3-0.3-1.2-0.6-2.2-0.3-1-0.7-1.8-0.8-1.8-0.2 0-0.6 0.9-1 2z"/>
	</g>
</svg>