<svg version="1.2" xmlns="http://www.w3.org/2000/svg" viewBox="0 0 300 300" width="300" height="300">
	<title>cbee32c071a0c5688827bdb56d0eefe4</title>
	<style>
		.s0 { fill: #fefeff } 
		.s1 { fill: #8cd50b } 
	</style>
	<g id="Background">
		<path id="Path 0" class="s0" d="m-71.1 150v221h442.8v-442h-442.8z"/>
		<path id="Path 1" class="s1" d="m54.8 20.9c-1.5 0.2-4.2 0.9-6.1 1.6-1.9 0.6-4.5 1.6-5.7 2.2-1.1 0.6-3.5 2.1-5.3 3.3-1.8 1.3-4.8 4-6.9 6.2-2.5 2.8-4.3 5.4-5.9 8.8-1.3 2.6-2.8 6.3-3.3 8.2-1 3.3-1 9.3-1 115.9v112.3h225.1c6.7-1.9 10.5-3.4 12.9-4.6 3.2-1.7 5.4-3.4 9.3-7.3 4-4 5.7-6.1 7.4-9.4 1.2-2.4 2.7-6.2 3.4-8.5l1.2-4.3v-224.7c-172.4-0.2-223.6 0-225.1 0.3z"/>
		<path id="Path 2" class="s0" d="m152.5 52.8c-0.8 0.9-2.6 3.6-4.1 6-1.5 2.5-3.6 6.4-4.7 8.7-1.2 2.4-2.8 6-3.6 8-0.8 2.1-2 5.5-2.6 7.5-0.6 2.1-1.5 5.5-1.9 7.7-0.5 2.2-1.2 6.5-1.7 9.4-0.4 2.9-0.7 9.4-0.7 14.3 0 6.6 0.2 10.5 1 15.2 0.6 3.4 2.2 9.4 3.5 13.2 1.2 3.8 3.6 9.9 5.2 13.6 1.7 3.7 4.6 10.3 6.5 14.7 1.9 4.4 4.2 10.4 5 13.3 1.3 4.9 1.4 6.2 1.4 15 0 8.8-0.1 10-1.5 14.9-0.8 3-2.3 7.4-3.3 9.9-1 2.5-3.1 6.7-4.6 9.3-1.5 2.7-3.9 6.4-5.3 8.3-2 2.8-2.4 3.6-1.8 3.9 0.5 0.2 6 0.3 12.4 0.3l11.7-0.2c4.5-9.1 6.6-14.1 7.6-17.1 0.9-2.9 2-7.1 2.5-9.3 0.4-2.2 1.2-7.3 1.7-11.2 0.6-5.1 0.8-9.1 0.6-13.6-0.2-3.9-0.9-8.7-1.7-12-0.7-3.1-2-7.7-2.9-10.2-0.9-2.5-4-9.9-6.9-16.5-2.9-6.6-6.1-14.1-7-16.6-0.9-2.5-2-5.8-2.4-7.4-0.5-1.7-1.1-5-1.4-7.5-0.3-2.5-0.6-6.7-0.6-9.4 0-2.6 0.3-6.9 0.6-9.6 0.3-2.6 0.9-6.6 1.4-8.8 0.4-2.2 1.5-6.1 2.4-8.7 0.8-2.5 2.8-7.2 4.4-10.4 1.5-3.1 4-7.5 5.4-9.7 1.4-2.2 3.7-5.3 5-6.9 1.3-1.7 3.6-4.2 5.1-5.7 1.5-1.5 2.5-2.9 2.3-3.3-0.3-0.5-3.4-0.7-13-0.7h-12.5zm-45.1 12.7c-3.9 1.9-9 4.7-11.2 6.2-2.2 1.5-5.5 3.8-7.2 5.1-1.8 1.4-5.4 4.7-8.1 7.3-2.6 2.6-6.1 6.6-7.8 8.8-1.6 2.2-4.4 6.5-6.2 9.6-1.8 3.1-3.3 5.8-3.3 6 0 0.3-0.6 1.7-1.3 3.2-0.7 1.6-1.9 4.9-2.6 7.4-0.8 2.5-1.9 7.2-2.6 10.4-1.1 5.2-1.2 8-1.5 26.9l-0.3 21.1c-21.3 0.3-24.4 0.5-24.6 1-0.2 0.3 0.9 2.7 2.4 5.2 1.6 2.5 3.8 5.9 4.9 7.6l2 3 15.3 0.3c0.4 25.7 0.6 33.2 0.7 33.2 0 0.1 3.9 0.1 8.5 0l8.4-0.1c0.5-25.6 0.7-33.2 0.7-33.2 0.1-0.1 5.7-0.2 12.4-0.2h12.3c0 24.9 0.2 32.4 0.3 32.9 0.2 0.6 1.7 0.8 8.8 0.8 8.5 0 8.6 0 8.9-1.2 0.1-0.7 0.2-38 0.1-82.9-0.1-72.1-0.2-81.7-1-81.8-0.4-0.1-4 1.4-8 3.4zm86.4-2.7c-0.1 0.4-0.3 38.2-0.3 83.9 0 45.7 0 83.8 0 84.6 0 1 0.3 1.5 1 1.5 0.5 0 2.8-0.9 5.2-2 2.3-1.1 6.8-3.5 9.9-5.3 3.1-1.8 7.5-4.8 9.9-6.6 2.3-1.8 6.2-5.3 8.7-7.7 2.4-2.4 5.8-6.1 7.4-8.3 1.7-2.2 3.6-4.7 4.2-5.6 0.6-0.9 2.4-3.9 3.9-6.7 1.4-2.8 3.5-7.3 4.5-10.1 1.1-2.8 2.4-7 3-9.4 0.6-2.3 1.5-7.1 1.9-10.5 0.5-3.5 0.9-9.5 0.9-13.4 0-3.9-0.4-9.7-0.8-12.9-0.5-3.2-1.4-8.3-2.2-11.2-0.7-3-2.1-7.3-3-9.6-1-2.4-2.8-6.4-4.2-9-1.3-2.5-4-6.9-5.9-9.6-1.9-2.7-6.2-7.7-9.6-11.1-3.4-3.3-7.6-7.1-9.3-8.2-1.7-1.2-4.4-3-5.9-4-1.5-1-4.4-2.8-6.5-3.9-2-1.1-5.6-2.9-7.9-3.9-2.2-1-4.2-1.8-4.3-1.8-0.1 0-0.4 0.3-0.6 0.8z"/>
		<path id="Path 3" class="s1" d="m95.1 96.5c-1.3 1.4-3.5 3.8-4.8 5.5-1.3 1.6-3.7 5.1-5.4 7.7-1.7 2.6-4.1 7.2-5.4 10.1-1.4 3-3 7.7-3.8 10.4-0.7 2.8-1.6 7.8-1.9 11-0.3 3.4-0.5 12.3-0.4 21.1l0.1 15.2h24.6c0.2-64.8 0.1-83.5-0.1-83.5-0.3 0-1.5 1.1-2.9 2.5zm116.4-2.2c-0.2 0.2-0.4 23.4-0.4 53.3 0.1 29 0.3 53.2 0.5 53.5 0.3 0.5 1.5-0.3 3.9-2.9 1.9-2 4.6-5.2 6-7.1 1.3-1.9 3.6-5.4 5.1-7.7 1.4-2.4 3.7-7.2 5.1-10.7 1.3-3.5 2.9-8.6 3.4-11.2 0.7-3.4 0.9-7.4 1-13.4 0-6.2-0.3-9.7-1-13-0.5-2.5-1.7-6.7-2.6-9.4-0.8-2.6-2.9-7.3-4.5-10.4-1.6-3.1-4.8-8.1-7.1-11.2-2.3-3.1-5.3-6.6-6.6-7.9-1.3-1.2-2.5-2.1-2.8-1.9z"/>
	</g>
</svg>