<svg version="1.2" xmlns="http://www.w3.org/2000/svg" viewBox="0 0 300 300" width="300" height="300">
	<title>i (1)</title>
	<style>
		.s0 { fill: #e30004 } 
		.s1 { fill: #f6e5e4 } 
	</style>
	<g id="Background">
		<path id="Path 0" class="s0" d="m0 74.8c0 59.7 0.1 74.8 0.3 74.8 0.1 0 1.3-0.4 2.6-0.8 1.3-0.4 4.6-1.5 7.2-2.3 2.6-0.8 6.3-2 8.2-2.6 1.9-0.6 5.5-1.8 8.1-2.6 2.6-0.9 5.8-1.9 7.1-2.3 1.3-0.4 4.4-1.4 6.8-2.2 2.4-0.8 6.2-2 8.5-2.7 2.3-0.7 5.6-1.8 7.5-2.4 1.9-0.6 4.3-1.4 5.5-1.8 1.2-0.4 4.1-1.3 6.6-2.1 2.5-0.8 5.9-1.9 7.5-2.4 1.7-0.5 5.2-1.7 7.8-2.5 2.6-0.9 6.1-1.9 7.6-2.4 1.5-0.5 4.2-1.4 5.8-1.9 1.7-0.5 5.4-1.7 8.3-2.7 2.9-0.9 7.3-2.3 9.8-3.1 2.5-0.8 5.9-1.9 7.6-2.4 1.7-0.6 4-1.3 5.1-1.7 1.1-0.4 2.9-0.9 4.1-1.3 1.2-0.4 2.9-0.9 3.8-1.2 0.9-0.3 3.5-1.1 5.6-1.8 2.1-0.7 4.4-1.4 5-1.6 0.6-0.2 3.4-1.1 6.1-2 2.8-0.9 5.2-1.6 5.6-1.7 0.3 0 0.5-0.2 0.5-0.3 0-0.1-0.2-0.2-0.3-0.3-0.2 0-6.2-1.8-13.2-3.9-7-2.1-14.6-4.3-16.7-5-2.1-0.6-5.9-1.8-8.3-2.5-2.4-0.7-4.7-1.4-5-1.4-0.3-0.1-0.6-0.3-0.6-0.3q-0.1-0.2 0-0.2c0.1 0 1.8 0.3 3.9 0.6 2 0.3 5.5 0.8 7.8 1.2 2.3 0.3 5.9 0.9 8.2 1.2 2.3 0.3 5.9 0.9 8 1.2 2.1 0.3 5.7 0.9 7.9 1.2 2.2 0.3 5.8 0.9 8.1 1.2 2.3 0.3 4.9 0.7 5.9 0.9 1 0.2 2 0.3 2.3 0.3 0.4 0 0.5-0.1 0.4-0.6 0-0.3-0.3-2.2-0.7-4.2-0.4-2-0.9-4.8-1.2-6.2-0.3-1.4-0.8-4.2-1.2-6.3-0.4-2.1-0.8-4.4-1-5.2-0.1-0.8-0.6-3.1-1-5.1-0.4-2-1-5.4-1.4-7.5-0.4-2.1-0.8-4.2-0.9-4.7-0.1-0.5-0.7-3.8-1.4-7.3-0.7-3.5-1.3-7.1-1.5-7.9-0.1-0.8-0.5-2.9-0.9-4.6-0.3-1.7-1-5-1.4-7.4-0.4-2.4-1.2-6.1-1.6-8.4-0.4-2.3-1.1-5.6-1.4-7.4-0.4-1.8-0.9-4.6-1.2-6.2-0.3-1.7-0.6-3.2-0.6-3.5v-0.5h-149.6zm150.2-74.5c0 0.2 0.3 1.5 0.7 3 0.4 1.4 1.2 4.6 1.9 7.1 0.7 2.5 2.2 8.2 3.4 12.8 1.2 4.6 2.5 9.5 2.9 11 0.4 1.5 0.8 3.1 1 3.6 0.1 0.5 0.6 2.2 1 3.8 0.4 1.6 1 3.8 1.3 5 0.3 1.2 1 3.6 1.5 5.5 0.5 1.9 1.4 5.5 2.1 8 0.7 2.5 1.6 6.1 2.1 7.9 0.5 1.8 1.4 5.4 2.1 7.9 0.7 2.5 1.4 5.1 1.5 5.7l0.3 1.1c0.5-1.1 1.1-3.2 1.8-5.3 0.7-2.1 1.4-4.4 1.6-5 0.2-0.6 0.9-2.9 1.6-5 0.7-2.1 1.9-5.9 2.6-8.3 0.8-2.4 1.6-4.9 1.8-5.5 0.2-0.6 1-3.1 1.8-5.6 0.8-2.5 1.6-5 1.8-5.6 0.2-0.6 0.4-0.9 0.4-0.7 0 0.2-0.5 3.1-1 6.4-0.6 3.3-1.1 6.5-1.2 7.1-0.1 0.6-0.6 3.5-1.1 6.4-0.5 2.9-1.8 10.7-2.9 17.4-1.1 6.7-2.1 12.5-2.2 13-0.1 0.5-0.1 0.9-0.1 1 0.1 0.1 1.3-0.2 2.7-0.6 1.4-0.3 4.2-1.1 6.3-1.7 2.1-0.6 5.3-1.5 7.1-2 1.8-0.5 4.8-1.3 6.7-1.8 1.9-0.5 4.2-1.1 5.1-1.4 0.9-0.3 4.2-1.2 7.2-2 3-0.8 6.6-1.8 8-2.2 1.4-0.4 4.8-1.3 7.7-2.1 2.9-0.8 6.5-1.8 8-2.2 1.5-0.4 4.5-1.2 6.5-1.8 2-0.6 4.5-1.2 5.5-1.5 1-0.3 2.5-0.7 3.3-0.9 0.8-0.2 2.6-0.7 4-1.1 1.4-0.4 3.2-0.9 4-1.1 0.8-0.2 3.1-0.9 5-1.4 1.9-0.5 4.9-1.4 6.5-1.8 1.7-0.5 3.5-1 4.1-1.1 0.6-0.2 1.7-0.5 2.5-0.7 0.8-0.2 2.2-0.6 3.2-0.9 1-0.3 3.5-1 5.5-1.5 2-0.6 4.5-1.2 5.5-1.5 1-0.3 3.2-0.9 5-1.4 1.8-0.5 3.3-0.9 3.5-0.9 0.1 0 0.2-6.1 0.2-29.7v-29.7c-141.3 0-149.8 0-149.8 0.3zm141.5 62.3c-4.2 1.5-8.1 2.8-8.7 3-0.6 0.2-3.7 1.2-6.8 2.3-3.1 1.1-7.9 2.7-10.7 3.6-2.7 1-7.6 2.6-10.8 3.7-3.2 1.1-9.7 3.3-14.4 4.9-4.7 1.6-9.6 3.3-10.9 3.7-1.3 0.4-5.4 1.8-9.3 3.2-3.8 1.3-8.9 3-11.2 3.8-2.3 0.7-7.4 2.5-11.3 3.8-3.9 1.3-8.3 2.8-9.8 3.3-1.5 0.5-2.8 1-2.8 1.1-0.1 0 6.2 1.7 14 3.7 7.7 1.9 16.2 4 18.7 4.7 2.5 0.7 5.1 1.3 5.7 1.5 0.6 0.2 2.5 0.7 4.2 1.1 1.7 0.5 3.2 0.9 3.3 1 0.1 0.2-0.2 0.2-1 0.1-0.7-0.1-3.7-0.4-6.7-0.8-3-0.4-7.7-1-10.5-1.4-2.7-0.4-6.3-0.9-7.9-1.1-1.6-0.2-7-1-12-1.7-5-0.7-10.4-1.5-12-1.7-1.7-0.3-3-0.5-3.1-0.4 0 0.1 0.3 2 0.7 4.4 0.5 2.4 1 5.3 1.2 6.5 0.2 1.2 0.7 3.4 0.9 4.8 0.3 1.4 0.7 3.4 0.8 4.3 0.2 0.9 0.6 3.1 0.9 4.7 0.3 1.7 0.8 4 1 5.3 0.2 1.3 0.5 2.7 0.6 3.2 0.1 0.5 0.4 1.9 0.6 3.1 0.2 1.2 0.8 4.6 1.4 7.6 0.6 3 1.3 7.1 1.7 9.2 0.4 2.1 1.7 8.8 2.8 15 1.2 6.2 2.1 11.4 2.1 11.6 0.1 0.3 0 0.4 0 0.4-0.1-0.1-0.2-0.2-0.2-0.3 0-0.2-0.3-1.2-0.6-2.4-0.3-1.2-1.4-4.9-2.3-8.4-1-3.5-2.2-8.1-2.8-10.2-0.6-2.1-1.4-5-1.8-6.3-0.4-1.3-1.1-3.9-1.6-5.8-0.5-1.9-1.2-4.2-1.4-5.1-0.3-0.9-1.2-4.4-2.1-7.6-0.9-3.2-2.1-7.5-2.6-9.5-0.6-2-1.4-4.9-1.8-6.5-0.5-1.6-0.9-3.2-1-3.5-0.1-0.3-0.6-2.1-1.1-4-0.5-1.9-1-3.5-1.1-3.7 0-0.1-0.3 0.4-0.5 1.2-0.3 0.8-1.2 4.2-2.2 7.4-0.9 3.2-1.9 6.4-2.1 7.1-0.2 0.7-0.6 1.8-0.8 2.6-0.2 0.8-0.5 1.9-0.7 2.4-0.1 0.6-0.5 1.8-0.8 2.8-0.3 0.9-0.7 2.4-1 3.4-0.3 0.9-1.2 3.9-2 6.8-0.9 2.9-1.8 6.1-2.1 7.1-0.3 1-1 3.3-1.5 5.1-0.5 1.8-1 3.2-1 3.3-0.1 0.1-0.1-0.1-0.1-0.3 0-0.3 0.2-1.6 0.4-2.9 0.2-1.4 0.6-3.5 0.8-4.8 0.2-1.3 0.6-3.7 0.9-5.5 0.3-1.8 0.7-4.6 1-6.4 0.3-1.8 0.7-4.5 1-6.2 0.3-1.6 0.8-4.7 1.1-6.8 0.3-2.1 0.8-4.9 1-6.3 0.2-1.4 0.5-3.3 0.7-4.3 0.2-1 0.6-3.5 0.9-5.6 0.3-2.1 0.7-4.3 0.8-5 0.1-0.7 0.2-1.2 0.1-1.3 0 0-1.7 0.5-3.7 1-2 0.6-4.6 1.3-5.6 1.5-1 0.3-3 0.8-4.3 1.2-1.3 0.4-4.1 1.2-6.1 1.7-2 0.6-4.4 1.2-5.2 1.4-0.8 0.2-1.9 0.5-2.4 0.7-0.5 0.1-2.1 0.6-3.6 1-1.5 0.4-3.8 1-5.2 1.4-1.4 0.4-3.4 1-4.6 1.3-1.2 0.3-4.8 1.3-8 2.2-3.2 0.9-6.8 1.9-8 2.2-1.2 0.3-4.6 1.3-7.6 2.1-3 0.8-6 1.7-6.6 1.8-0.6 0.2-2.9 0.8-5.1 1.4-2.2 0.6-5.1 1.4-6.4 1.8-1.3 0.4-4.4 1.2-6.9 1.9-2.5 0.7-6.1 1.7-8.1 2.2-2 0.6-4.3 1.2-5.1 1.4-0.8 0.2-2.9 0.8-4.6 1.3-1.7 0.5-3.8 1.1-4.6 1.3-0.8 0.2-1.9 0.5-2.5 0.7-0.5 0.1-1.9 0.5-3 0.8-1.1 0.3-3.4 0.9-5.1 1.4-1.7 0.5-4.9 1.4-7.2 2-2.3 0.6-5.1 1.4-6.3 1.7-1.2 0.4-3 0.8-3.9 1.1-0.9 0.3-3.5 1-5.7 1.6-2.2 0.6-5.8 1.6-8.1 2.2-2.3 0.6-5.1 1.4-6.3 1.7-1.2 0.4-3.1 0.9-4.1 1.2l-1.9 0.5-0.1 149.7h300c0-234.2 0-240-0.3-240-0.2 0-3.8 1.2-8 2.6z"/>
		<path id="Path 1" class="s1" d="m149.6 0.5c0 0.3 0.3 1.8 0.6 3.5 0.3 1.6 0.8 4.4 1.2 6.2 0.3 1.8 1 5.1 1.4 7.4 0.4 2.3 1.2 6 1.6 8.4 0.4 2.4 1.1 5.7 1.4 7.4 0.4 1.7 0.8 3.8 0.9 4.6 0.2 0.8 0.8 4.4 1.5 7.9 0.7 3.5 1.3 6.8 1.4 7.3 0.1 0.5 0.5 2.6 0.9 4.7 0.4 2.1 1 5.5 1.4 7.5 0.4 2 0.9 4.3 1 5.1 0.2 0.8 0.6 3.1 1 5.2 0.4 2.1 0.9 4.9 1.2 6.3 0.3 1.4 0.8 4.2 1.2 6.2 0.4 2 0.7 3.9 0.7 4.2 0.1 0.5 0 0.6-0.4 0.6-0.3 0-1.3-0.1-2.3-0.3-1-0.2-3.6-0.6-5.8-0.9-2.3-0.3-5.9-0.9-8.2-1.2-2.2-0.3-5.8-0.9-7.9-1.2-2.1-0.3-5.7-0.9-8-1.2-2.3-0.3-5.9-0.9-8.2-1.2-2.3-0.4-5.8-0.9-7.8-1.2-2.1-0.3-3.8-0.6-3.9-0.6q-0.1 0 0 0.2c0 0 0.3 0.2 0.6 0.3 0.3 0 2.6 0.7 5 1.4 2.4 0.7 6.2 1.9 8.3 2.5 2.1 0.7 9.7 2.9 16.7 5 7 2.1 13 3.9 13.2 3.9 0.1 0.1 0.3 0.2 0.3 0.3 0 0.1-0.2 0.3-0.5 0.3-0.4 0.1-2.8 0.8-5.6 1.7-2.7 0.9-5.5 1.8-6.1 2-0.6 0.2-2.9 0.9-5 1.6-2.1 0.7-4.7 1.5-5.6 1.8-0.9 0.3-2.6 0.8-3.8 1.2-1.2 0.4-3 0.9-4.1 1.3-1.1 0.4-3.4 1.1-5.1 1.7-1.7 0.5-5.1 1.6-7.6 2.4-2.5 0.8-6.9 2.2-9.8 3.1-2.9 1-6.6 2.2-8.3 2.7-1.6 0.5-4.3 1.4-5.8 1.9-1.5 0.5-5 1.5-7.6 2.4-2.6 0.8-6.1 2-7.8 2.5-1.6 0.5-5 1.6-7.5 2.4-2.5 0.8-5.4 1.7-6.6 2.1-1.2 0.4-3.6 1.2-5.5 1.8-1.9 0.6-5.2 1.7-7.5 2.4-2.3 0.7-6.1 1.9-8.5 2.7-2.4 0.8-5.5 1.8-6.8 2.2-1.3 0.4-4.5 1.4-7.1 2.3-2.6 0.8-6.2 2-8.1 2.6-1.9 0.6-5.6 1.8-8.2 2.6-2.6 0.8-6 1.9-7.4 2.4-2.1 0.6-2.7 0.9-2.7 1.2 0 0.3 0.2 0.2 2-0.3 1-0.3 2.9-0.8 4.1-1.2 1.2-0.3 4-1.1 6.3-1.7 2.3-0.6 5.9-1.6 8.1-2.2 2.2-0.6 4.8-1.3 5.7-1.6 0.9-0.3 2.7-0.7 3.9-1.1 1.2-0.3 4-1.1 6.3-1.7 2.3-0.6 5.5-1.5 7.2-2 1.7-0.5 4-1.1 5.1-1.4 1.1-0.3 2.5-0.7 3-0.8 0.6-0.2 1.7-0.5 2.5-0.7 0.8-0.2 2.9-0.8 4.6-1.3 1.7-0.5 3.8-1.1 4.6-1.3 0.8-0.2 3.1-0.8 5.1-1.4 2-0.5 5.6-1.5 8.1-2.2 2.5-0.7 5.6-1.5 6.9-1.9 1.3-0.4 4.2-1.2 6.4-1.8 2.2-0.6 4.5-1.2 5.1-1.4 0.6-0.1 3.6-1 6.6-1.8 3-0.8 6.4-1.8 7.6-2.1 1.2-0.3 4.8-1.3 8-2.2 3.2-0.9 6.8-1.9 8-2.2 1.2-0.3 3.2-0.9 4.6-1.3 1.4-0.4 3.7-1 5.2-1.4 1.5-0.4 3.1-0.9 3.6-1 0.5-0.2 1.6-0.5 2.4-0.7 0.8-0.2 3.2-0.8 5.2-1.4 2-0.5 4.8-1.3 6.1-1.7 1.3-0.4 3.3-0.9 4.3-1.2 1-0.2 3.6-0.9 5.6-1.5 2-0.5 3.7-1 3.7-1 0.1 0.1 0 0.6-0.1 1.3-0.1 0.7-0.5 2.9-0.8 5-0.3 2.1-0.7 4.6-0.9 5.6-0.2 1-0.5 2.9-0.7 4.3-0.2 1.4-0.7 4.2-1 6.3-0.3 2.1-0.8 5.1-1.1 6.8-0.3 1.7-0.7 4.4-1 6.2-0.3 1.8-0.7 4.6-1 6.4-0.3 1.8-0.7 4.2-0.9 5.5-0.2 1.3-0.6 3.4-0.8 4.7-0.2 1.4-0.4 2.7-0.4 3 0 0.2 0 0.4 0.1 0.3 0-0.1 0.5-1.5 1-3.3 0.5-1.8 1.2-4.1 1.5-5.1 0.3-1 1.2-4.2 2.1-7.1 0.8-2.9 1.7-5.9 2-6.8 0.3-1 0.7-2.5 1-3.5 0.3-0.9 0.7-2.1 0.8-2.7 0.2-0.5 0.5-1.6 0.7-2.4 0.2-0.8 0.6-1.9 0.8-2.6 0.2-0.7 1.2-3.9 2.1-7.1 1-3.2 1.9-6.6 2.2-7.4 0.2-0.8 0.5-1.3 0.5-1.2 0.1 0.2 0.6 1.8 1.1 3.7 0.5 1.9 1 3.7 1.1 4 0.1 0.3 0.5 1.9 1 3.5 0.4 1.6 1.2 4.5 1.8 6.5 0.5 2 1.7 6.3 2.6 9.5 0.9 3.2 1.8 6.7 2.1 7.6 0.2 0.9 0.9 3.2 1.4 5.1 0.5 1.9 1.2 4.5 1.6 5.8 0.4 1.3 1.2 4.2 1.8 6.3 0.6 2.1 1.8 6.7 2.8 10.2 0.9 3.5 2 7.2 2.3 8.4 0.3 1.2 0.6 2.2 0.6 2.3 0 0.2 0.1 0.3 0.2 0.4 0 0 0.1-0.1 0-0.4 0-0.2-0.9-5.4-2.1-11.6-1.1-6.2-2.4-12.9-2.8-15-0.4-2.1-1.1-6.2-1.7-9.2-0.6-3-1.2-6.4-1.4-7.6-0.2-1.2-0.5-2.6-0.6-3.1-0.1-0.5-0.4-1.9-0.6-3.2-0.2-1.3-0.7-3.7-1-5.3-0.3-1.6-0.7-3.8-0.9-4.7-0.1-0.9-0.5-2.9-0.8-4.3-0.2-1.4-0.7-3.6-0.9-4.8-0.2-1.2-0.7-4.1-1.2-6.5-0.4-2.4-0.7-4.3-0.7-4.4 0.1-0.1 1.4 0.1 3.1 0.4 1.6 0.2 7 1 12 1.7 5 0.7 10.4 1.5 12 1.7 1.6 0.2 5.2 0.7 7.9 1.1 2.8 0.4 7.5 1 10.5 1.4 3 0.4 6 0.7 6.7 0.8 0.8 0.1 1.1 0.1 1-0.1-0.1-0.1-1.6-0.5-3.3-1-1.7-0.4-3.6-0.9-4.2-1.1-0.6-0.2-3.2-0.8-5.7-1.5-2.5-0.7-11-2.8-18.7-4.7-7.8-2-14.1-3.7-14-3.7 0-0.1 1.3-0.6 2.8-1.1 1.5-0.5 5.9-2 9.8-3.3 3.9-1.3 9-3.1 11.3-3.8 2.3-0.8 7.4-2.5 11.2-3.8 3.9-1.4 8-2.8 9.3-3.2 1.3-0.4 6.2-2.1 10.9-3.7 4.7-1.6 11.2-3.8 14.4-4.9 3.2-1.1 8.1-2.7 10.8-3.7 2.8-0.9 7.6-2.5 10.7-3.6 3.1-1.1 6.3-2.1 7-2.4 0.7-0.2 4.8-1.6 9-3 4.7-1.6 7.8-2.7 7.8-2.8 0-0.2-0.1-0.3-0.2-0.3-0.2 0-1.7 0.4-3.5 0.9-1.8 0.5-4 1.1-5 1.4-1 0.3-3.5 0.9-5.5 1.5-2 0.5-4.5 1.2-5.5 1.5-1 0.3-2.4 0.7-3.2 0.9-0.8 0.2-1.9 0.5-2.5 0.7-0.6 0.1-2.4 0.6-4.1 1.1-1.6 0.4-4.6 1.3-6.5 1.8-1.9 0.5-4.2 1.2-5 1.4-0.8 0.2-2.6 0.7-4 1.1-1.4 0.4-3.2 0.9-4 1.1-0.8 0.2-2.3 0.6-3.3 0.9-1 0.3-3.5 0.9-5.5 1.5-2 0.6-5 1.4-6.5 1.8-1.5 0.4-5.1 1.4-8 2.2-2.9 0.8-6.3 1.7-7.7 2.1-1.4 0.4-5 1.4-8 2.2-3 0.8-6.3 1.7-7.2 2-0.9 0.3-3.2 0.9-5.1 1.4-1.9 0.5-4.9 1.3-6.7 1.8-1.8 0.5-5 1.4-7.1 2-2.1 0.6-4.9 1.4-6.3 1.7-1.4 0.4-2.6 0.7-2.7 0.6 0-0.1 0-0.5 0.1-1 0.1-0.5 1.1-6.3 2.2-13 1.1-6.7 2.4-14.5 2.9-17.4 0.5-2.9 1-5.8 1.1-6.4 0.1-0.6 0.6-3.8 1.2-7.1 0.5-3.3 1-6.2 1-6.4 0-0.2-0.2 0.1-0.4 0.7-0.2 0.6-1 3.1-1.8 5.6-0.8 2.5-1.6 5-1.8 5.6-0.2 0.6-1 3.1-1.8 5.5-0.7 2.4-1.9 6.2-2.6 8.3-0.7 2.1-1.4 4.4-1.6 5-0.2 0.6-0.9 2.9-1.6 5-0.7 2.1-1.3 4.2-1.5 4.6l-0.3 0.7c-0.4-1.7-1.1-4.3-1.8-6.8-0.7-2.5-1.6-6.1-2.1-7.9-0.5-1.8-1.4-5.4-2.1-7.9-0.7-2.5-1.6-6.1-2.1-8-0.5-1.9-1.2-4.3-1.5-5.5-0.3-1.2-0.9-3.4-1.3-5-0.4-1.6-0.9-3.3-1-3.8-0.2-0.5-0.6-2.1-1-3.6-0.4-1.5-1.7-6.4-2.9-11-1.2-4.6-2.7-10.3-3.4-12.8-0.7-2.5-1.5-5.7-1.9-7.2-0.4-1.4-0.7-2.7-0.7-2.9 0-0.2-0.1-0.3-0.3-0.3-0.2 0-0.3 0.2-0.3 0.5zm98.7 211.3v24.6h5.1v-49.2h-5.1zm-56.1-18.7v2.9l5.7-0.1 0.1-5.7h-5.8zm71.6 0l0.1 2.8h5.6l0.1-5.7h-5.8zm-231.4-1.7c-1.5 0.1-2.8 0.2-2.9 0.2 0 0 0 10.1 0 22.4v22.4c8.9 0.3 11.5 0.2 13.7 0.1 1.8-0.1 4.1-0.4 5.2-0.7 1.1-0.2 2.6-0.6 3.2-0.8 0.7-0.3 1.9-0.8 2.7-1.2 1-0.5 2.1-1.3 3-2.1 0.8-0.7 1.9-1.9 2.3-2.5 0.4-0.7 0.9-1.8 1.1-2.5 0.2-0.8 0.5-1.8 0.5-2.4 0.1-0.7 0.1-1.9-0.1-2.7q-0.2-1.6-0.9-3.1c-0.4-1-1.1-1.8-1.9-2.7-0.9-0.9-1.8-1.5-3-2.1-1-0.5-2.4-1-3.5-1.2-1-0.3-1.8-0.5-1.8-0.5 0-0.1 0.3-0.3 0.8-0.5 0.5-0.2 1.3-0.7 1.9-1.2 0.6-0.4 1.4-1.1 1.7-1.5 0.4-0.3 0.9-1.1 1.3-1.5 0.3-0.5 0.8-1.5 1-2.2 0.3-0.9 0.4-1.7 0.4-3 0-1-0.1-2.2-0.2-2.7-0.2-0.6-0.5-1.4-0.8-1.8-0.2-0.5-0.7-1.1-1-1.5-0.2-0.4-0.9-1-1.5-1.4-0.5-0.4-1.3-1-1.8-1.2-0.4-0.2-1.3-0.6-2-0.8-0.7-0.3-2.4-0.6-3.7-0.9-1.8-0.3-3.6-0.4-6.7-0.4-2.3-0.1-5.4 0-7 0zm50 10.4c-0.3 0-1.1 0.2-1.8 0.4-0.6 0.1-1.9 0.6-2.8 1-0.8 0.5-2.1 1.2-2.8 1.7-0.6 0.5-1.6 1.3-2.1 1.9-0.5 0.5-1.3 1.6-1.8 2.4-0.5 0.7-1 1.7-1.2 2.1-0.2 0.3-0.5 1.1-0.6 1.6-0.2 0.5-0.5 1.8-0.7 2.8-0.2 1.4-0.3 2.6-0.2 4.7 0.1 1.9 0.2 3.2 0.5 4.4 0.3 0.8 0.7 2.1 1 2.8 0.3 0.6 0.9 1.8 1.5 2.7 0.5 0.8 1.5 2 2.2 2.7 0.7 0.6 1.7 1.5 2.3 1.9 0.6 0.4 1.7 0.9 2.3 1.2 0.7 0.3 1.9 0.7 2.6 0.9 0.9 0.2 2.3 0.3 3.9 0.3 1.8 0 3-0.1 3.9-0.3 0.8-0.2 2.1-0.7 2.8-1 0.8-0.4 2-1.1 2.6-1.6 0.7-0.5 1.7-1.4 2.3-2 0.6-0.7 1.2-1.3 1.3-1.5 0.1-0.2 0.3-0.4 0.3-0.4 0.1-0.1 0.6-0.9 1-1.7 0.4-0.9 0.9-2.1 1.1-2.5 0.2-0.5 0.5-1.5 0.6-2.1 0.2-0.7 0.4-2.3 0.5-3.5 0-1.5 0-3-0.2-4.1-0.1-1-0.4-2.5-0.6-3.2-0.3-0.8-0.8-2.1-1.3-2.9-0.4-0.9-1-2-1.4-2.4-0.4-0.5-1.1-1.3-1.5-1.8-0.5-0.5-1.3-1.3-1.9-1.7-0.5-0.4-1.5-1-2.2-1.3-0.7-0.4-2-0.8-2.8-1.1-1-0.2-2.3-0.4-3.9-0.5-1.2 0-2.5 0-2.9 0.1zm65.6 0.3c-0.8 0.3-2.4 0.8-3.4 1.3-1 0.5-2.5 1.3-3.4 1.9-0.9 0.5-1.7 1-1.8 1 0 0-0.1-0.9-0.1-1.9v-1.9l-5 0.1-0.1 33.9 5.2-0.1-0.1-25.7c2-1.2 3.5-2.1 4.6-2.6 1.2-0.6 2.7-1.2 3.4-1.4 1-0.2 1.8-0.3 3-0.2 1.1 0.1 2 0.2 2.4 0.4 0.4 0.2 1 0.7 1.3 1 0.3 0.3 0.7 1 0.9 1.4 0.2 0.5 0.5 1.6 0.6 2.6 0.2 1 0.2 5.9 0.2 13.1v11.4l5.1 0.1v-26.5c3.6-1.8 5.4-2.6 6.2-2.9 1.4-0.4 2-0.5 3.9-0.5 2.2 0 2.4 0 3.4 0.6 0.6 0.3 1.3 0.8 1.5 1.2 0.2 0.3 0.6 1 0.8 1.7 0.4 1 0.4 1.5 0.5 13.7v12.7l5.1-0.1c0-20.5-0.1-26.9-0.1-27.3-0.1-0.5-0.5-1.6-0.9-2.4-0.4-0.9-1.2-1.9-1.8-2.5-0.5-0.5-1.4-1.2-2-1.5-0.5-0.2-1.5-0.6-2.3-0.8-0.9-0.2-1.8-0.3-3.2-0.2-1.4 0.1-2.4 0.3-3.9 0.8-1.1 0.4-2.5 1-3.3 1.3-0.7 0.4-2.1 1.1-3.1 1.6-1 0.6-1.8 1.1-1.9 1.1 0 0-0.2-0.3-0.3-0.6-0.1-0.3-0.6-0.9-1-1.3-0.4-0.5-1-1-1.4-1.3-0.3-0.2-1.2-0.7-2-1-1-0.4-1.8-0.5-3.4-0.6-1.6 0-2.3 0-3.6 0.4zm72.3-0.3c-0.2 0-1 0.2-1.8 0.4-0.7 0.2-2.1 0.7-3.1 1.2-1 0.5-2.3 1.3-3 1.9-0.6 0.6-1.5 1.5-2 2-0.4 0.4-1.2 1.4-1.6 2.2-0.4 0.7-1 1.7-1.2 2.3-0.2 0.5-0.6 1.4-0.7 2.1-0.2 0.6-0.4 1.9-0.6 3-0.1 1.1-0.2 2.6-0.1 3.8 0.1 1 0.3 2.3 0.4 3 0.1 0.6 0.4 1.6 0.6 2.3 0.2 0.6 0.7 1.9 1.1 2.8 0.5 0.8 1.3 2.1 1.8 2.8 0.5 0.6 1.5 1.6 2.2 2.2 0.8 0.6 2.1 1.5 3.1 1.9 1 0.5 2.5 1.1 3.3 1.2 1 0.3 2.5 0.4 3.9 0.4 1.5 0 2.9-0.1 3.8-0.3 0.7-0.2 1.9-0.6 2.5-0.8 0.7-0.3 1.7-0.9 2.3-1.2 0.6-0.4 1.7-1.3 2.5-2.1 0.7-0.7 1.8-1.9 2.2-2.6 0.5-0.8 1.2-2.2 1.7-3.2 0.4-1.1 0.9-2.7 1-3.6 0.3-1.4 0.4-2.4 0.3-4.8-0.1-2.4-0.2-3.6-0.6-4.7-0.2-0.9-0.7-2.3-1.1-3-0.3-0.8-1-2-1.5-2.6-0.5-0.7-1.2-1.6-1.7-2-0.4-0.5-1.1-1.1-1.5-1.5-0.4-0.4-1.5-1-2.3-1.5-0.9-0.4-2.2-0.9-3.1-1.2-1-0.2-2.3-0.4-3.9-0.5-1.3 0-2.6 0-2.9 0.1zm-94.1 0.3c-0.3 0.1-2 0.8-3.9 1.5-1.8 0.7-3.7 1.5-4.3 1.8-0.5 0.3-1.5 0.9-2.2 1.4-0.7 0.5-1.3 0.9-1.4 0.9 0 0-0.1-1.2-0.1-2.6l-0.1-2.5-5.1-0.1v34h5.2c-0.2-15.8-0.2-21.2-0.1-22.3l0.1-1.9c2.6-1.7 3.8-2.4 4.4-2.7 0.6-0.3 2.4-1 4.1-1.5 1.7-0.6 3.6-1.2 4.2-1.3 0.7-0.2 1.3-0.4 1.3-0.4 0 0-0.2-1-0.4-2.2-0.3-1.6-0.6-2.3-0.8-2.3-0.1 0-0.5 0.1-0.9 0.2zm66.3 0.4c0 0 0 7.7 0 17l-0.1 17h5.1v-34c-3.8 0-5 0-5 0zm71.6 0c0 0 0 7.7 0 17l-0.1 17 5.2-0.1v-33.8c-3.9-0.1-5.1-0.1-5.1-0.1zm-114.1 39.9c-0.3 0.1-0.3 2.2-0.2 13.8v13.6c3.1 0 3.3 0 3.3-0.3 0-0.2 0.1-5.7 0.1-12.3v-12c4.1 0 5.4 0.1 6.1 0.3 0.6 0.2 1.5 0.6 2 1 0.5 0.4 1.1 1.1 1.4 1.6 0.4 0.7 0.5 1.1 0.4 2.4 0 0.8-0.2 1.8-0.4 2.2-0.2 0.3-0.8 1.1-1.3 1.6q-1 1-2.7 1.8c-1 0.5-1.8 0.9-1.8 1 0 0.1 0.2 0.3 0.3 0.4 0.1 0.1 1.6 1.7 3.2 3.6 1.7 1.8 3.9 4.2 4.9 5.3 1.1 1.2 2.3 2.5 2.8 3l0.8 0.9c1.8-1.5 2.3-2 2.3-2.2 0-0.1-1.3-1.6-3-3.3-1.6-1.7-3.8-3.9-4.8-5-1-1.1-1.8-2-1.8-2.1 0-0.1 0.2-0.3 0.6-0.5 0.3-0.3 1.3-1.1 2.2-1.9 1.2-1.2 1.6-1.8 1.9-2.7q0.5-1.3 0.5-2.6c0-0.8-0.2-1.9-0.3-2.4-0.2-0.7-0.7-1.5-1.4-2.2q-1.1-1.2-2.3-1.8c-0.6-0.3-1.8-0.7-2.6-0.9-0.9-0.2-2.8-0.3-5.7-0.4-2.3 0-4.4 0-4.5 0.1zm33 6.4c-0.6 0.2-1.5 0.5-1.9 0.7-0.3 0.2-1.1 0.7-1.6 1.1-0.5 0.4-1.2 1.2-1.7 1.7-0.5 0.6-1.1 1.6-1.4 2.3-0.3 0.6-0.6 1.8-0.8 2.7-0.1 0.8-0.3 1.8-0.3 2.3 0 0.5 0.2 1.5 0.4 2.4 0.1 0.9 0.5 2.1 0.8 2.8 0.3 0.6 1 1.6 1.4 2.2 0.5 0.6 1.4 1.4 2.2 1.9 0.7 0.5 1.8 1.1 2.3 1.3 0.6 0.1 1.8 0.3 2.8 0.4 1.1 0.1 2.4 0 3-0.1 0.7-0.2 1.8-0.6 2.5-0.9 0.8-0.4 1.8-1.2 2.4-1.8 0.7-0.6 1.4-1.5 1.8-2.1 0.3-0.7 0.8-1.7 1-2.4 0.3-0.8 0.5-2.1 0.6-2.9 0.1-1.2 0-2.1-0.3-3.3-0.1-1-0.6-2.3-0.9-2.9-0.3-0.7-0.9-1.6-1.3-2.1-0.4-0.5-1.3-1.3-2-1.8-0.7-0.5-1.7-1.1-2.7-1.4-1.2-0.3-2-0.4-3.3-0.4-1 0-2.3 0.1-3 0.3zm74.1 0.1c-0.8 0.2-1.7 0.5-2.2 0.8-0.4 0.2-1.4 1-2.2 1.8-1.1 1-1.7 1.8-2.1 2.8-0.4 0.7-0.7 1.7-0.8 2.2-0.2 0.4-0.3 1.8-0.3 3 0 1.2 0.2 2.5 0.4 3.3 0.1 0.6 0.6 1.8 1 2.5 0.4 0.8 1.2 1.9 1.8 2.5 0.6 0.6 1.7 1.4 2.4 1.7 0.8 0.4 1.9 0.8 2.5 0.9 0.8 0.2 1.9 0.3 3 0.2 1.1-0.1 2.3-0.3 3-0.5 0.7-0.3 1.7-0.8 2.3-1.2 0.6-0.4 1.5-1.2 2-1.7 0.4-0.6 1.1-1.7 1.5-2.5 0.4-0.9 0.8-2.1 0.9-2.7 0.1-0.7 0.2-1.9 0.2-2.6 0-0.8-0.1-2-0.3-2.7-0.1-0.8-0.5-1.9-0.9-2.5-0.3-0.7-1-1.8-1.6-2.4-0.6-0.7-1.6-1.6-2.3-1.9-0.6-0.4-1.7-0.9-2.5-1.1-0.7-0.2-1.9-0.3-2.9-0.3-0.9 0-2.1 0.1-2.9 0.4zm-41.7 0.2c-0.7 0.1-2.1 0.3-3.1 0.6-0.9 0.2-2.2 0.7-3 1-0.7 0.3-1.7 1-2.3 1.4-0.6 0.4-1.4 1.2-1.8 1.7-0.4 0.5-1 1.5-1.4 2.2-0.4 0.9-0.6 1.5-0.6 2.9-0.1 1 0 2.1 0.1 2.7 0.2 0.5 0.5 1.4 0.7 2 0.3 0.5 1 1.5 1.6 2.1 0.6 0.7 1.5 1.5 2.1 1.9 0.6 0.3 1.4 0.8 1.8 1 0.4 0.1 1.3 0.4 1.9 0.6 0.7 0.3 1.7 0.5 2.3 0.6 0.6 0.2 2.1 0.3 3.4 0.4 1.4 0.1 2.4 0 2.5-0.1 0-0.1 0.1-0.7 0.2-1.3l0.1-1.2c-4.7-0.4-6.4-0.7-7.3-1-0.7-0.2-1.6-0.5-2-0.7-0.3-0.2-1-0.6-1.5-1-0.4-0.4-1.1-1.2-1.4-1.6-0.3-0.5-0.7-1.3-0.8-1.7-0.1-0.5-0.2-1.5-0.2-2.2q0-1.5 0.4-2.3c0.2-0.5 0.7-1.3 1-1.8 0.4-0.5 1.1-1.2 1.7-1.5 0.6-0.4 1.8-0.9 2.7-1.2q1.7-0.6 4.4-0.8l2.7-0.2c-0.2-1.6-0.3-2.2-0.3-2.4 0-0.3-0.1-0.3-1.2-0.3-0.7 0-1.9 0.1-2.7 0.2zm23.1 0c-0.8 0.1-2.2 0.3-3.2 0.6-0.9 0.2-2.3 0.7-3.2 1.2-0.8 0.4-1.9 1-2.4 1.5-0.5 0.4-1.2 1.2-1.7 1.7-0.4 0.6-1 1.6-1.3 2.2-0.4 0.9-0.5 1.3-0.5 3.3 0.1 2 0.1 2.2 0.8 3.7 0.4 0.8 1.1 1.9 1.6 2.5 0.5 0.5 1.4 1.3 2.2 1.8 0.7 0.4 2 1.1 2.9 1.4 1 0.3 2.4 0.7 3.1 0.8 0.8 0.2 2.4 0.3 3.6 0.3l2.2 0.1c0.3-2 0.4-2.6 0.3-2.7-0.1-0.1-0.5-0.1-0.9-0.1-0.4 0-1.7 0-2.9-0.2-1.1-0.1-2.5-0.3-3-0.4-0.5-0.1-1.4-0.5-2.1-0.8-0.8-0.4-1.7-1.1-2.3-1.5-0.5-0.5-1.1-1.4-1.4-1.9-0.4-0.9-0.5-1.3-0.5-3 0-1.8 0.1-2.2 0.6-3.1 0.3-0.6 0.9-1.4 1.4-1.9 0.5-0.4 1.2-1 1.7-1.2 0.5-0.3 1.5-0.7 2.2-0.9 0.8-0.2 2.4-0.5 3.6-0.6 1.3-0.2 2.5-0.2 2.8-0.2 0.4 0 0.4-0.2 0.4-0.8 0-0.4 0-1-0.1-1.4-0.2-0.7-0.2-0.7-1.3-0.6-0.6 0-1.7 0.1-2.6 0.2z"/>
		<path id="Path 2" class="s0" d="m36 195.7l-1 0.1c-0.1 3-0.2 10.6-0.2 18.8 0 8.2 0.1 15.5 0.1 16.1l0.2 1.3c2.8 0.2 5.3 0.1 7.3 0 2.1-0.1 4.5-0.4 5.5-0.6 1-0.2 2.3-0.7 3-1 0.7-0.3 1.7-1 2.3-1.5 0.7-0.7 1.3-1.4 1.7-2.3 0.5-1.2 0.6-1.5 0.6-3.2 0-1.5-0.1-2.1-0.5-2.9-0.2-0.5-0.8-1.4-1.2-2-0.4-0.5-1.1-1.2-1.6-1.6-0.5-0.3-1.5-0.8-2.3-1.1-1.3-0.5-1.7-0.5-5.7-0.5-4-0.1-4.4-0.1-4.5-0.4 0-0.2-0.1-0.9-0.2-1.5-0.1-0.6-0.2-1.3-0.2-1.6-0.1-0.6-0.1-0.6 0.7-0.6 0.4 0 1.7-0.1 2.9-0.3 1.8-0.2 2.5-0.4 3.7-0.9 0.8-0.4 2-1.1 2.5-1.6 0.6-0.5 1.2-1.4 1.5-1.9 0.3-0.6 0.7-1.6 0.8-2.2 0.3-1.1 0.3-1.5 0-2.5-0.1-0.7-0.4-1.5-0.5-1.8-0.2-0.4-0.6-0.9-0.9-1.2-0.3-0.4-1-1-1.5-1.3-0.6-0.4-1.5-0.8-2.1-1-0.6-0.2-2-0.4-3.2-0.6-1.2-0.2-3-0.3-4.2-0.3-1.2 0.1-2.5 0.1-3 0.1zm46.8 10.3c-0.5 0.1-1.3 0.3-1.8 0.5-0.5 0.2-1.3 0.6-1.7 0.9-0.4 0.3-1.3 1.1-1.9 1.8-0.8 0.7-1.5 1.8-2 2.9-0.4 0.9-1 2.2-1.1 2.9-0.3 1-0.4 2.1-0.4 4.6 0 2.5 0.1 3.6 0.4 4.6 0.2 0.7 0.6 1.9 1 2.7 0.4 0.8 1 1.9 1.5 2.4 0.5 0.6 1.4 1.4 2 1.8 0.5 0.5 1.5 1 2.2 1.3 0.8 0.4 1.6 0.5 3.2 0.6 1.6 0 2.4 0 3.3-0.3 0.7-0.2 1.6-0.5 2.1-0.8 0.5-0.3 1.3-0.9 1.9-1.3 0.5-0.5 1.3-1.4 1.8-2.1 0.4-0.7 1-1.8 1.3-2.5 0.3-0.7 0.7-2.1 0.9-3 0.3-1.3 0.3-2.3 0.2-4.2 0-1.6-0.2-3-0.5-4-0.2-0.8-0.7-2.1-1.1-2.9-0.4-0.8-1.2-2-1.9-2.7-0.6-0.7-1.6-1.6-2.2-1.9-0.6-0.4-1.8-0.9-2.7-1.1-0.9-0.2-2-0.4-2.6-0.4-0.5 0-1.4 0.1-1.9 0.2zm137.5 0.1c-0.7 0.1-1.6 0.5-2.2 0.8-0.5 0.3-1.5 0.9-2.1 1.5-0.6 0.5-1.3 1.3-1.7 1.8-0.3 0.5-0.8 1.4-1.1 1.9-0.2 0.6-0.6 1.5-0.8 2.2-0.2 0.7-0.5 1.9-0.6 2.7-0.1 0.8-0.2 2.4-0.1 3.6 0 1.2 0.3 2.8 0.5 3.6 0.2 0.8 0.7 2.2 1.1 3 0.5 0.9 1.3 2 2.1 2.8 0.8 0.9 1.8 1.6 2.6 2 0.7 0.3 1.8 0.7 2.4 0.8 0.6 0.1 2 0.2 3 0.2 1.4-0.1 2.2-0.3 3-0.6 0.7-0.3 1.7-0.8 2.2-1.3 0.6-0.4 1.5-1.3 2.1-2 0.5-0.6 1.2-1.8 1.6-2.5 0.3-0.7 0.7-2 0.9-2.8 0.3-1.1 0.4-2.2 0.4-3.9 0.1-1.3 0-2.9-0.2-3.6-0.1-0.7-0.4-1.8-0.7-2.6-0.2-0.8-0.7-1.9-1.1-2.6-0.4-0.6-1.2-1.7-1.8-2.3-0.6-0.6-1.6-1.4-2.3-1.7-0.7-0.4-1.8-0.8-2.5-1-0.7-0.2-1.8-0.3-2.4-0.3-0.6 0-1.6 0.1-2.3 0.3zm-35.9 45.1c-0.5 0.1-1.4 0.6-2 1-0.6 0.4-1.4 1.2-1.8 1.8-0.4 0.6-0.9 1.6-1.1 2.1-0.2 0.6-0.4 1.8-0.4 2.7-0.1 0.9 0 2.2 0.1 2.9 0.1 0.7 0.4 1.7 0.7 2.2 0.2 0.5 0.8 1.4 1.2 1.9 0.5 0.5 1.4 1.2 2 1.5 1.1 0.5 1.4 0.6 2.9 0.6 1.2 0 1.9-0.2 2.5-0.4 0.4-0.2 1.2-0.7 1.7-1.1 0.5-0.4 1.1-1.1 1.4-1.6 0.4-0.5 0.8-1.5 1-2.2q0.4-1.3 0.4-3c0-0.9-0.1-2.2-0.3-2.7-0.1-0.5-0.5-1.5-0.8-2.1-0.3-0.6-0.9-1.5-1.4-2-0.6-0.5-1.5-1.1-2-1.3-0.6-0.2-1.5-0.3-2.1-0.4-0.6 0-1.5 0-2 0.1zm74.2 0c-0.5 0.1-1.1 0.4-1.5 0.6-0.5 0.2-1.2 0.8-1.7 1.2-0.4 0.5-1.1 1.3-1.3 1.9-0.3 0.5-0.6 1.5-0.8 2.3-0.2 0.9-0.3 1.8-0.2 3 0 1 0.2 2.2 0.5 2.9 0.2 0.7 0.8 1.7 1.2 2.2 0.4 0.6 1.2 1.3 1.8 1.7 0.6 0.3 1.6 0.7 2.2 0.8 0.6 0.1 1.5 0.2 2.1 0.1 0.5-0.1 1.5-0.4 2-0.6 0.6-0.2 1.4-0.9 1.9-1.4 0.5-0.6 1.1-1.4 1.3-1.9 0.3-0.5 0.6-1.3 0.7-1.8 0.1-0.5 0.3-1.6 0.3-2.5 0-0.9-0.2-2.1-0.3-2.7-0.1-0.6-0.5-1.6-0.8-2.2-0.3-0.7-1-1.5-1.6-2.1-0.6-0.5-1.5-1.1-2-1.2-0.5-0.2-1.4-0.4-2-0.4-0.6 0-1.4 0-1.8 0.1z"/>
	</g>
</svg>