<svg version="1.2" xmlns="http://www.w3.org/2000/svg" viewBox="0 0 300 300" width="300" height="300">
	<title>j7qwph328ku78zsyxf95tg8obwefaca4</title>
	<style>
		.s0 { fill: #feffff } 
		.s1 { fill: #d91f24 } 
		.s2 { fill: #2c2b2a } 
	</style>
	<g id="Заливка сплошным цветом 1">
		<path id="Path 0" class="s0" d="m0 150v150h300v-300h-300z"/>
		<path id="Path 1" fill-rule="evenodd" class="s1" d="m246.5 15.4l0.1 193.6h-193.8v-96.7c0-53.2 0.1-96.8 0.2-96.9 0.1-0.1 43.7-0.1 193.5 0zm-36 229l0.1 11.4 30.9 0.2h-31zm-119.8 11.5c9.1 0 12.7 0.1 8.2 0.1-4.6 0-12 0-16.5 0-4.4 0-0.7-0.1 8.3-0.1zm119.9 9.5c0 1.4 0 3.9 0 5.5-0.1 1.6-0.1 0.4-0.1-2.6 0-3.1 0-4.4 0.1-2.9zm-0.1 14.7v1.9c0.1 1 0.1 1.9 0 2.1-0.1 0.3-1.9 0.3-15.5 0.2l15.4-0.1zm-46.2 3.7c0.3 0.3 3.1 0.4 20.7 0.5l-10.1 0.1c-9.5 0.1-10.2 0-10.6-0.4-0.3-0.4-0.3-0.5 0-0.2zm-79.9 0.5c14.4 0 20.3 0 13 0.1-7.2 0-19 0-26.1 0-7.2-0.1-1.3-0.1 13.1-0.1zm46.5 0c3.9 0 5.4 0 3.5 0.1-2 0-5.1 0-7 0-1.9-0.1-0.3-0.1 3.5-0.1z"/>
		<path id="Path 2" class="s2" d="m53.4 252.5c0 8.6 0.1 16.6 0.3 18.3 0.1 1.7 0.4 4 0.7 5.1 0.3 1.2 0.8 2.8 1.1 3.6 0.3 0.8 1 2.2 1.6 3.1l1.1 1.6h52.2v-6.8h-36.5v-14.5h33.1v-6.8c-25.1 0-32.5-0.1-32.7-0.1-0.4-0.2-0.4-1.1-0.4-6.1v-5.9h36.5v-6.8h-57zm64.1 1.5c0 13.4 0.1 17.3 0.4 19.4 0.2 1.4 0.6 3.4 1 4.4 0.3 1 0.8 2.3 1.1 3 0.4 0.6 1 1.7 1.4 2.3l0.9 1.1h15.5v-21.3c3.9 0 5.9 0.2 6.8 0.4 0.9 0.2 2.3 0.6 2.9 0.9 0.7 0.4 1.8 1.2 2.5 1.8 0.7 0.7 3.9 4.6 7.1 8.7 3.2 4.2 6.3 8 6.8 8.5l0.8 1 20.1-0.1c-2.1-2.7-5.1-6.6-8-10.3-2.9-3.7-6.3-8.1-7.7-9.9-1.6-2.1-2.3-3.2-2.2-3.4 0.1-0.2 4.1-5.4 8.9-11.5 4.8-6.2 8.8-11.3 8.9-11.5 0.1-0.3-2-0.4-10-0.4h-10.1c-8.9 11.6-12 15.4-12.7 15.9-0.6 0.6-1.9 1.4-2.8 1.9-1.7 0.8-1.8 0.8-6.5 0.8l-4.8 0.1v-18.7h-20.3zm72.7 1c0 15.5 0.1 18.1 0.5 19.9 0.2 1.1 0.7 2.9 1.1 3.9 0.4 1.1 0.9 2.3 1.3 2.9 0.3 0.5 0.8 1.3 1.2 1.7l0.7 0.9h15.2c0.3-4.4 0.3-9.2 0.2-13.5l-0.2-7.8h33.3v-6.9l-33-0.1v-11.8l36.4-0.1v-6.9h-56.8z"/>
		<path id="Path 3" class="s0" d="m102.5 43.2c0 0 1.1 2.2 2.4 4.9 1.3 2.7 3.1 6.8 4 9.1 1 2.3 2.4 6.3 3.2 8.8 0.8 2.5 2 6.4 2.6 8.7 0.5 2.2 1.4 6.2 1.9 8.9 0.5 2.7 1.1 6.4 1.3 8.3 0.2 1.9 0.5 5.1 0.7 7.1 0.1 2 0.2 7.1 0.2 11.2-0.1 4.8 0 7.7 0.2 7.9 0.1 0.1 0.5 0.2 0.9 0.2 0.6-0.1 0.7-0.4 1.4-2.5 0.4-1.3 1.2-4.1 1.7-6.3 0.6-2.2 1.4-5.7 1.8-7.9 0.5-2.1 1.1-5.6 1.4-7.6 0.3-2 0.7-5.5 0.9-7.8 0.2-2.2 0.6-6.6 0.7-9.7 0.2-3.3 0.2-8.9 0.2-13.5-0.1-4.4-0.3-10.1-0.5-12.8-0.1-2.7-0.3-5.3-0.4-6l-0.1-1.1c-19 0-24.5 0-24.5 0.1zm41.3 0.4c0 0.2-0.2 2.3-0.4 4.6-0.2 2.4-0.6 5.8-0.8 7.7-0.2 1.9-0.7 5.5-1 8-0.4 2.5-1.1 6.7-1.6 9.2-0.5 2.5-1.4 6.7-2.1 9.3-0.6 2.6-1.7 6.7-2.5 9.1-0.7 2.4-1.7 5.6-2.3 7.2-0.6 1.6-1.6 4.3-2.2 5.9-0.7 1.7-1.9 4.6-2.7 6.5-0.9 1.9-2.7 5.8-4.2 8.8-1.5 3-3.7 7.2-5 9.3q-2.2 4-2 4.4c0.1 0.2 0.4 0.5 0.6 0.6 0.3 0.1 0.7-0.1 1.3-0.7 0.4-0.5 2.8-3.6 5.3-6.9 2.5-3.3 6-8 7.7-10.4 1.7-2.4 4.7-6.7 6.7-9.7 1.9-3 4.7-7.3 6.2-9.6 1.4-2.3 3.9-6.5 5.5-9.2 1.6-2.8 3.7-6.5 4.8-8.4 1-1.9 3-5.8 4.4-8.6 1.4-2.8 3.6-7.3 4.8-10.1 1.3-2.7 3.3-7.4 4.6-10.2 1.2-2.9 2.4-5.8 2.6-6.3l0.5-1c-27.3 0-28.2 0-28.2 0.5zm46.8 1.7c-0.5 1-2.1 3.9-3.5 6.4-1.4 2.4-3.7 6.2-5 8.2-1.3 2.1-3.8 6-5.5 8.6-1.7 2.6-4.3 6.4-5.8 8.4-1.4 2-3.6 5-4.9 6.7-1.2 1.7-4.3 5.8-6.9 9.1-2.6 3.3-6.1 7.7-7.8 9.7-1.6 2-4.5 5.5-6.4 7.7-1.9 2.3-5.6 6.5-8.2 9.5-2.6 3-6.9 7.8-9.5 10.7-2.6 2.9-6.3 6.9-8.2 9-2 2.1-6.1 6.5-9.1 9.8-3 3.2-6.7 7.1-8.1 8.5-1.3 1.5-4.6 4.9-7.2 7.6-2.6 2.8-6.8 7.2-9.3 9.8-2.4 2.7-4.5 5-4.5 5.2 0 0.3 0.2 0.6 0.4 0.8 0.2 0.2 0.6 0.4 0.7 0.4 0.2 0 2.1-1.6 4.2-3.6 2.1-2 4.9-4.6 6.3-6 1.4-1.3 5.6-5.3 9.5-8.9 3.8-3.7 9.7-9.2 13.1-12.4 3.4-3.2 8.2-7.6 10.7-9.8 2.4-2.3 7-6.4 10.2-9.3 3.2-2.8 8.3-7.3 11.4-10 3.1-2.6 8.1-6.7 11-9.1 2.8-2.4 7.4-6.1 10.1-8.2 2.6-2.1 7.1-5.4 9.8-7.5 2.8-2 6.8-4.9 9-6.5 2.1-1.5 6.2-4.2 8.9-6 2.8-1.8 7.2-4.6 9.9-6.2 2.6-1.6 6.7-3.9 8.9-5.1l4.1-2.2 0.1-27.2h-27.5zm21.7 47.4c-3.4 1.5-7.7 3.4-9.6 4.2-1.8 0.8-5.7 2.7-8.8 4.2-3 1.4-7.4 3.7-9.8 5-2.4 1.2-6.7 3.7-9.6 5.3-2.9 1.7-7.2 4.2-9.5 5.7-2.3 1.4-6.8 4.3-10 6.5-3.2 2.1-7.5 5-9.6 6.5-2.1 1.5-6.7 5-10.4 7.7-3.6 2.7-6.7 5.2-7 5.5-0.3 0.4-0.4 0.6-0.2 1 0.2 0.3 0.5 0.6 0.7 0.6 0.3 0 2.3-1 4.4-2.3 2.2-1.2 5.9-3.2 8.3-4.4 2.4-1.2 6.4-3.1 8.8-4.2 2.5-1.1 5.9-2.5 7.5-3.1 1.7-0.7 4.8-1.8 7-2.6 2.2-0.7 5.5-1.8 7.5-2.4 1.9-0.5 5.4-1.5 7.7-2 2.4-0.6 6.4-1.5 9-2 2.6-0.5 6.8-1.2 9.3-1.6 2.5-0.4 6.7-0.9 9.2-1.2 2.5-0.3 6.2-0.6 8.2-0.8l3.7-0.4c0-21.7-0.1-28-0.2-28-0.2 0-3.1 1.3-6.6 2.8zm-28.2 41c-0.5 0.1-2.8 0.2-5 0.4-2.3 0.2-5.9 0.5-8.2 0.8-2.2 0.3-5.6 0.8-7.6 1.2-1.9 0.3-5.1 1-7.1 1.4-1.9 0.4-5.2 1.3-7.2 1.9-2 0.6-4 1.1-4.3 1.2-0.4 0.1-0.8 0.3-0.9 0.5-0.1 0.1-0.2 0.5-0.2 0.9l0.1 0.6c9.2-0.1 14 0 16.6 0.1 2.6 0.2 6.4 0.5 8.4 0.7 2 0.3 5.8 0.8 8.3 1.2 2.5 0.5 6.5 1.3 8.9 1.9 2.4 0.6 6.1 1.6 8.2 2.2 2.1 0.7 5.4 1.8 7.3 2.5 2 0.8 4.8 1.9 6.2 2.5 1.5 0.6 4.5 2 6.8 3.1 2.3 1.1 4.2 2 4.4 2 0.2 0 0.3-4.2 0.3-12.2v-12.1c-4.4-0.3-7.8-0.5-10.4-0.7-2.6-0.1-9-0.2-14.2-0.2-5.2 0-9.9 0.1-10.4 0.1z"/>
	</g>
</svg>