<svg version="1.2" xmlns="http://www.w3.org/2000/svg" viewBox="0 0 300 300" width="300" height="300">
	<title>327335</title>
	<style>
		.s0 { fill: #386299 } 
		.s1 { fill: #ffffff } 
	</style>
	<g id="Заливка сплошным цветом 1">
		<rect width="300" height="300" id="Слой 1" style="fill: #ffffff"/>
		<path id="Path 1" class="s0" d="m137.8 91.2c-3 1.1-7.4 3.8-9.8 6-2.5 2.2-5.8 6.4-7.2 9.3-1.5 3-2.8 6.2-2.7 7.2 0 1.6 1.1 1.8 9 1.8 9 0 9.1 0 10.7-3.1 0.8-1.8 3.1-4.4 5-5.9 1.9-1.4 5.4-2.9 7.7-3.3 3.2-0.5 5.6-0.1 9.3 1.6 2.8 1.2 5.1 2.7 5.1 3.3 0 0.6-3.1 1.1-7.2 1h-7.2c-10.3 13.2-13.3 17.3-13.3 17.6 0 0.3 4.5 0.5 9.9 0.4 5.4 0 10.3 0.1 10.9 0.3 0.6 0.2 1.2-0.1 1.3-0.7 0.2-0.7-3.7-1.2-9.8-1.3l-10.1-0.3 12.2-14.9 17 0.1c-4.1-4.4-6.9-6.3-8.8-7.1-1.9-0.8-5.2-1.4-7.4-1.4-2.6-0.1-5.7 1-9 3.1-2.8 1.8-5.7 4.3-6.3 5.6-0.7 1.3-1.8 2.7-2.4 3.1-0.7 0.4-4.3 0.5-8.1 0.3-3.8-0.2-7-0.5-7.1-0.7-0.1-0.2 0.6-2.2 1.6-4.5 1.1-2.4 3.6-6.2 5.7-8.5 2-2.4 6.3-5.4 9.5-6.9 4.1-1.8 7.5-2.6 12.1-2.5 4 0 8.2 0.8 11.2 2.1 2.6 1.2 6.6 3.9 8.8 6 2.1 2.2 5 6 6.3 8.4 1.8 3.5 2.4 6.3 2.4 12.5 0 5.7-0.6 9-2 11.6-1.1 2.1-3.5 5.6-5.3 7.8-1.8 2.3-5.9 5.4-9.2 6.9-4.5 2.2-7.3 2.8-12.7 2.8-5.2-0.1-8.3-0.8-12.3-2.8-2.9-1.5-6.9-4.6-8.9-6.8-2-2.3-4.5-6-5.6-8.4-1-2.3-1.9-5.1-1.9-6.1 0-1.3 0.8-1.8 2.9-1.9 2.4 0 3.2 0.8 4.8 4.3 1.2 2.9 3.5 5.3 6.9 7.5 4.3 2.8 5.9 3.2 10.5 2.9 4.2-0.2 6.4-1.1 9.5-3.5 2.2-1.8 4.2-3.9 4.5-4.8 0.2-0.8-0.9-0.2-2.6 1.5-1.7 1.8-4.7 3.8-6.8 4.7-2.3 0.9-5.3 1.2-7.9 0.8-2.4-0.3-6.1-2-8.3-3.8-2.4-1.9-4.4-4.7-5-6.9-1.1-3.5-1.3-3.7-5.9-3.7h-4.8c1.7 7 3.9 11.5 5.9 14.6 2.1 3.2 5.8 6.9 8.7 8.8 2.8 1.7 6.8 3.6 8.8 4.2 2.1 0.6 5.4 1 7.5 1 2 0 6.2-0.7 9.3-1.5 4-1.2 7.2-3.2 11.5-7.2 4.2-3.9 6.5-7.2 8-11.1 1.1-3.1 2-8 2-10.9 0-2.9-0.9-7.8-2-10.9-1.5-3.9-3.8-7.1-7.8-10.8-3.8-3.6-7.6-6-11.5-7.2-3.2-1.1-7.7-1.9-10.1-1.8-2.3 0-6.6 1-9.5 2.1zm-126.9 71.7c-1.9 0.3-2.4 1.1-2.4 3.5 0 3.1 0.2 3.2 5.5 3.5 3.3 0.1 5.7 0.8 5.9 1.6 0.2 0.9-1.1 1.3-3.9 1.3-4.1 0-4.3 0.2-4.3 3.2 0 3 0.2 3.2 4.5 3.2h4.5c-4.4 3.8-6.2 4.3-9.9 4-4.9-0.3-5-0.3-5.2 3.1l-0.3 3.5c10.9-0.1 14.7-0.7 17-1.9 2.1-1 4.8-3.5 6.2-5.6 1.5-2.3 2.4-5.2 2.4-7.9 0-2.4-0.9-5.4-1.9-6.8-1-1.5-3.4-3.3-5.3-4-1.9-0.8-5-1.3-6.9-1.3-1.9 0.1-4.6 0.4-5.9 0.6zm140.5 0.7c-1.9 0.7-4.3 2.1-5.3 3.1-1.8 1.8-1.6 1.9 4.2 1.9 3.3 0 6.8 0.2 7.7 0.5 1.1 0.3 1.6 2 1.6 5.3 0 2.6-0.5 5.7-1.1 6.9-0.6 1.2-2.1 2.1-3.7 2.1-1.6 0-2.9-0.7-3.2-1.9-0.3-1-0.3-3.4 0-5.3l0.5-3.4h-10.6c0 10.6 0.5 12.1 2.6 14.3 2.3 2.2 3.7 2.7 8.8 2.7 3.8 0 7.5-0.8 9.7-1.9 2-1 4.5-3.5 5.6-5.6 1.1-2 2-5.8 2-8.4 0-2.7-0.7-5.9-1.6-7.2-0.9-1.3-3.4-2.9-5.6-3.4-2.2-0.6-4.9-1.1-6.1-1-1.2 0-3.7 0.6-5.5 1.3zm-116.7 2.6c-0.4 1.6-1.1 6.2-1.7 10.3-0.6 4.1-1.4 8.7-1.6 10.3-0.5 2.9-0.4 3 4.8 3 4.8 0 5.3-0.3 5.3-2.4 0-1.3 0.3-3.5 0.5-4.8 0.4-1.8 1.3-2.4 3.7-2.4h3.2l-1.6 9.7 10.7-0.7c2.7-17.2 3.6-23.1 3.6-24.1 0.1-1.5-0.7-1.8-5-1.6-5 0.3-5 0.3-5.3 4.3-0.2 3.7-0.4 3.9-4 3.9h-3.7l1.6-8.5c-9.5 0-10 0.3-10.5 3zm29.8-1.4c-0.4 0.9-0.7 2.3-0.7 3.2 0 1.4 1.9 1.6 11.5 1.3l11.4-0.2 0.5-5.8c-19.9 0-22.3 0.3-22.7 1.5zm24.5 10.4c-1 6.5-1.8 12.5-1.8 13.2 0 0.9 1.7 1.4 4.8 1.4 3.3 0 5-0.5 5.3-1.6 0.3-0.9 0.6-2.6 0.6-3.7 0-1.8 0.7-2.2 4.2-2.2 2.4 0 6-0.7 8-1.6 2.6-1.1 4.2-2.8 5.4-5.5 0.9-2.2 1.4-5.3 1.1-6.9-0.4-1.6-1.6-3.4-2.8-4-1.1-0.6-6.8-1-12.6-1h-10.4zm30.7-10.6c-0.3 0.7-1.2 6-2.1 11.9-0.9 5.8-1.7 11.2-1.7 11.9 0 0.9 1.7 1.3 4.8 1.3 3.7 0 4.9-0.4 5.3-1.8 0.2-1 0.7-4 1.1-6.7 0.3-2.6 0.9-6 1.1-7.6 0.5-2.8 0.7-3 6.9-3 4.4 0 6.4-0.4 6.4-1.3 0-0.7 0.2-2.4 0.5-3.7 0.5-2.3 0.4-2.4-10.7-2.4-8 0-11.3 0.4-11.6 1.4zm54.7-0.8c0 0.2-0.7 5.1-1.6 10.8-0.9 5.7-1.8 11.4-2.1 12.7-0.5 2.2-0.1 2.4 4 2.4h4.5l3.1-19.6c1.2 8.2 1.6 12.6 1.6 15.1l0.1 4.5 9-0.5c5.8-14.3 7.6-18.4 7.8-18.3 0.1 0.2-0.2 2.7-0.8 5.6-0.5 2.9-1.2 7.1-1.6 9.3l-0.6 3.9c8.7 0 9.6-0.3 9.7-1.8 0-1 0.8-7 1.8-13.3l1.8-11.4h-14.9c-4 10.3-5.3 12.6-5.4 11.7-0.2-0.9-0.5-3.9-0.9-6.6l-0.6-5.1c-11.5 0-14.9 0.3-14.9 0.6zm39.9 0.1c-0.5 0.4-0.8 1.9-0.7 3.2 0.2 2.4 0.4 2.5 11.4 2.5 8.9 0 11.2-0.3 11.7-1.6 0.3-0.9 0.5-2.3 0.5-3.2 0-1.3-1.9-1.6-11-1.6-6 0-11.4 0.3-11.9 0.7zm25.6 1.7c-0.2 1.3-1.2 6.9-2.1 12.5-0.9 5.5-1.6 10.4-1.7 10.8 0 0.5 2.4 0.8 5.4 0.8h5.3v-7.4c11.4-0.5 13.2-1 15.4-3.2q2.8-2.6 3.4-7.4c0.6-4.2 0.3-5-1.9-6.6-2-1.5-4.7-1.9-12.9-1.9-9.9 0-10.4 0.1-10.9 2.4zm28.1 10.3c-3.5 7-6.4 13-6.4 13.3 0.1 0.3 2.1 0.5 4.6 0.5 3.9 0 4.8-0.4 6.4-3.2 1.5-2.5 2.5-3.1 5.6-3.1 3.2 0 3.8 0.4 4.5 3.2 0.7 3 1.1 3.2 5.8 3.2 4.7-0.1 5-0.3 4.6-2.5-0.3-1.3-1.3-6.4-2.2-11.4-0.9-4.9-1.9-9.8-2.2-10.8-0.4-1.5-1.7-1.9-7.3-1.9h-7zm-205.7 2.4c-0.4 3.1-1.1 6.9-1.5 8.5l-0.7 3 23.9-0.1 0.6-6.3c-10.4 0-13.4-0.4-13.4-0.8 0-0.5 0.6-1.3 1.3-2 0.8-0.6 3.3-1.1 5.7-1 2.3 0.1 4.8-0.3 5.6-0.9 0.8-0.7 1.4-2.2 1.3-3.6 0-2.3-0.3-2.3-11.1-2.3h-11zm149.5 1.8c-0.6 4.1-1.2 7.9-1.2 8.5 0 0.6 4.7 1.1 11.7 1.1h11.8v-6.4c-11.9 0-12.8-0.3-12.5-1.9 0.2-1.4 1.5-1.9 6.1-2.2 3.2-0.1 6.2-0.9 6.6-1.5 0.4-0.7 0.8-2.1 0.8-3.1 0-1.7-1.2-1.9-11-1.9h-11.1z"/>
		<path id="Path 2" class="s1" d="m99.6 171.2c-0.4 0.9-0.7 2.3-0.7 3.2 0 0.9 1 1.6 2.4 1.6 1.3 0 3-0.7 3.8-1.6 0.7-0.9 1-2.3 0.8-3.2-0.3-0.9-1.7-1.6-3.2-1.6-1.4 0-2.8 0.7-3.1 1.6zm149.2 1.2c-0.3 1.7 0.2 2.9 1.2 3.3 0.9 0.3 2.3 0.1 3.2-0.5 0.9-0.6 1.7-2.1 1.9-3.3 0.2-1.9-0.3-2.3-2.9-2.3-2.5 0-3.1 0.5-3.4 2.8zm29.6 0.4c-1.5 3.4-1.5 3.8 0.1 4.4 1 0.3 2.2 0.3 2.7 0 0.4-0.4 0.4-2.4-0.2-4.4l-0.9-3.7z"/>
		<path id="Path 3" class="s0" d="m139.3 93.6c-2 0.7-5.6 2.7-7.9 4.5-2.3 1.7-5.5 5.3-7.2 7.9-1.6 2.6-2.9 5.1-2.9 5.6 0 0.4 3 0.8 6.6 0.8 6.4-0.1 6.8-0.2 9.1-3.8 1.3-2 3.9-4.4 5.8-5.4 1.9-1 5.2-2.2 7.2-2.6 2-0.5 5.4-0.4 7.4 0.1 2.1 0.5 5.8 2.7 8.3 4.7 2.5 2.1 4.5 4.3 4.5 4.8 0 0.7-3.9 1.2-9.2 1.4-8.9 0.2-9.2 0.3-11.9 3.7l-2.8 3.5 30.3-0.1c-1.7-7-3.5-11.1-5.1-13.7-1.6-2.6-4.8-6-7.1-7.7-2.4-1.6-6-3.4-8-4-2.1-0.6-5.9-1-8.5-1-2.7 0-6.5 0.6-8.6 1.3zm4.4 28.8c-1 1.4 0.2 1.7 9 1.9l10.1 0.3c-3.1 5.7-5.8 8.8-8 10.6-3.1 2.5-5.2 3.2-10 3.5-4 0.3-7-0.1-9.2-1.2-1.7-0.9-4.4-2.8-5.8-4.2-1.5-1.3-3.4-4-4.3-5.9-0.8-1.9-2.2-3.4-2.9-3.4-0.7 0-1.3 1-1.3 2.1 0 1.2 0.9 4 2 6.1 1.1 2.2 4.1 5.9 6.7 8.3 2.6 2.3 6.6 4.8 8.9 5.5 2.3 0.7 6.7 1.3 9.8 1.3 3 0 7.4-0.7 9.5-1.6 2.2-0.9 5.6-2.8 7.5-4.2 1.9-1.5 4.6-4.7 6-7.1 1.5-2.5 3.2-6.6 3.8-9l1.1-4.6c-28.7 0-31.9 0.3-32.9 1.6z"/>
	</g>
</svg>