<svg version="1.2" xmlns="http://www.w3.org/2000/svg" viewBox="0 0 300 300" width="300" height="300">
	<title>c940mapejqnwxflrg177n7r1vk9zo7rc</title>
	<style>
		.s0 { fill: #ffffff } 
		.s1 { fill: #f61616 } 
		.s2 { fill: #020202 } 
	</style>
	<g id="Background">
		<path id="Path 0" class="s0" d="m0 150v150h300v-300h-300z"/>
		<path id="Path 1" class="s1" d="m61.8 82c-0.3 0.1-0.8 0.6-1 1.1-0.3 0.4-0.5 1.1-0.5 1.4 0 0.4 0.2 1 0.5 1.5q0.6 0.9 1.6 1.2c0.8 0.3 1.3 0.3 1.9 0 0.4-0.2 1-0.7 1.3-1.1 0.3-0.4 0.5-1 0.5-1.4 0-0.5-0.1-1.1-0.3-1.5-0.2-0.4-0.7-0.9-1.1-1.2-0.5-0.2-1.2-0.3-1.6-0.3-0.4 0-1 0.1-1.3 0.3zm-20.3 3.3c-0.5 0.3-1.1 0.8-1.2 1.1-0.2 0.3-0.3 1-0.3 1.5 0 0.7 0.2 1.2 0.8 1.8 0.7 0.7 1.1 0.9 2 0.9 0.7 0 1.3-0.2 1.9-0.7 0.4-0.4 0.8-1 0.9-1.5q0.2-0.9-0.2-1.9c-0.2-0.5-0.8-1.1-1.2-1.4-0.5-0.2-1.1-0.4-1.4-0.4-0.2 0-0.8 0.3-1.3 0.6zm40.6-0.1c-0.4 0.3-0.9 0.9-1.2 1.5-0.2 0.6-0.3 1.2-0.2 1.6 0.1 0.4 0.6 1.1 1 1.5 0.6 0.6 1.1 0.8 1.9 0.8 0.9 0 1.3-0.2 2-0.9 0.6-0.6 0.8-1.1 0.8-1.9 0-0.5-0.2-1.3-0.4-1.6-0.3-0.4-0.8-0.8-1.3-1.1-0.4-0.2-1-0.4-1.3-0.4-0.3 0-0.8 0.3-1.3 0.5zm-20.7 5.4c-0.7 0.4-1.5 1.1-1.9 1.6-0.4 0.6-0.6 1.4-0.6 2.1 0 0.6 0.2 1.6 0.5 2.1 0.2 0.5 0.9 1.2 1.4 1.6 0.7 0.4 1.4 0.6 2.4 0.6 0.9 0 1.7-0.2 2.3-0.5 0.5-0.4 1.1-1 1.4-1.5 0.4-0.5 0.6-1.4 0.6-2.2 0-0.8-0.2-1.5-0.6-2.2-0.4-0.5-1-1.1-1.3-1.4-0.4-0.3-1.2-0.6-1.8-0.7-0.9-0.1-1.5 0-2.4 0.5zm-16.7 2.5c-0.5 0.2-1.2 0.5-1.6 0.9-0.4 0.3-0.8 0.9-1 1.3-0.3 0.5-0.4 1.3-0.4 2 0 0.7 0.2 1.5 0.5 2.1 0.3 0.5 1 1.1 1.5 1.4 0.5 0.4 1.4 0.6 2.1 0.6 0.7 0 1.7-0.2 2.3-0.5 0.5-0.3 1.2-1 1.6-1.6 0.5-0.9 0.6-1.4 0.5-2.5-0.1-0.8-0.4-1.7-0.7-2.1-0.3-0.4-0.9-0.9-1.3-1.1-0.5-0.3-1.2-0.6-1.7-0.6-0.4-0.1-1.2-0.1-1.8 0.1zm34.3 0.1c-0.6 0.2-1.4 0.7-1.7 1.1-0.4 0.4-0.8 1.2-1 1.7-0.2 0.9-0.2 1.4 0.1 2.3 0.2 0.7 0.7 1.6 1.1 2 0.4 0.4 1.2 0.9 1.9 1.1 0.8 0.2 1.5 0.2 2.2 0 0.6-0.1 1.4-0.7 1.9-1.2 0.5-0.5 1-1.3 1.2-1.9q0.3-0.9 0-2.1c-0.1-0.6-0.6-1.4-1-1.8-0.4-0.5-1-0.9-1.2-1.1-0.2-0.1-0.9-0.2-1.4-0.3-0.5-0.1-1.4 0-2.1 0.2zm-55.8 1.2c-0.4 0.2-0.8 0.6-1.1 0.9-0.3 0.4-0.5 1.1-0.5 1.6 0 0.6 0.2 1.4 0.5 1.8 0.3 0.4 0.9 0.9 1.4 1 0.4 0.2 1.1 0.3 1.5 0.2 0.4-0.1 1-0.5 1.5-0.9 0.6-0.6 0.7-1.1 0.7-2 0-0.8-0.2-1.4-0.6-1.9q-0.6-0.7-1.7-0.8c-0.6-0.1-1.4 0-1.7 0.1zm76.8 0.6c-0.5 0.6-0.8 1.2-0.8 2 0 0.7 0.2 1.3 0.6 1.8 0.4 0.4 1.1 0.9 1.5 1q0.9 0.2 1.8-0.2c0.5-0.2 1.1-0.7 1.3-1 0.1-0.4 0.3-0.9 0.3-1.1 0.1-0.2 0.1-0.7 0.1-1-0.1-0.4-0.5-1-0.9-1.5-0.7-0.7-1.1-0.8-2-0.8-0.9 0-1.3 0.1-1.9 0.8zm-5.3 5.9c-0.5 0.2-1.2 0.5-1.5 0.8-0.3 0.2-0.7 0.9-1 1.5-0.5 0.8-0.6 1.4-0.4 2.4 0 0.6 0.3 1.5 0.6 1.9 0.3 0.4 1.1 1 1.7 1.3 0.6 0.4 1.4 0.6 1.9 0.6 0.4 0 1.3-0.2 1.9-0.5 0.6-0.2 1.3-0.8 1.6-1.1 0.3-0.4 0.6-1.2 0.8-1.8 0.2-0.8 0.2-1.4 0-2.1-0.2-0.5-0.7-1.3-1.1-1.8-0.4-0.4-1-0.9-1.3-1-0.3-0.1-0.9-0.3-1.4-0.4-0.4-0.1-1.2 0-1.8 0.2zm-66.6 0.6c-0.5 0.3-1.2 0.9-1.5 1.3-0.3 0.4-0.6 1.2-0.7 1.8-0.1 0.8 0.1 1.4 0.5 2.3 0.5 0.9 1.1 1.5 1.8 1.9 0.6 0.4 1.5 0.6 2 0.6 0.5 0 1.4-0.2 2-0.5 0.6-0.3 1.4-0.9 1.7-1.3 0.3-0.5 0.6-1.2 0.7-1.8 0.1-0.6 0-1.4-0.2-2-0.2-0.7-0.6-1.4-1-1.8-0.3-0.3-0.9-0.7-1.3-0.9-0.4-0.1-1.3-0.3-1.9-0.3-0.8 0-1.5 0.2-2.1 0.7zm32.7 0.9c-0.5 0.2-1.4 0.8-1.9 1.3-0.5 0.5-1 1.4-1.3 2.3-0.2 0.8-0.3 1.8-0.2 2.5 0 0.6 0.5 1.7 0.9 2.4 0.6 0.8 1.3 1.5 2 1.9 0.6 0.3 1.6 0.6 2.3 0.7 0.7 0.1 1.7 0 2.4-0.2 0.8-0.2 1.7-0.8 2.4-1.5 0.6-0.6 1.2-1.6 1.4-2.2 0.2-0.6 0.4-1.4 0.4-1.8 0-0.4-0.2-1.3-0.5-2-0.2-0.7-0.7-1.6-1.1-2-0.5-0.5-1.3-1-1.9-1.3-0.6-0.3-1.7-0.5-2.5-0.5-0.8 0-1.8 0.2-2.4 0.4zm-13.3 2.2c-0.9 0.5-1.8 1.2-2.3 1.9-0.6 0.8-0.8 1.6-0.9 2.8-0.2 1.5-0.1 1.9 0.6 3.2 0.6 1.1 1.2 1.8 2.1 2.3 0.9 0.6 1.5 0.8 2.9 0.8 1.1 0 2-0.1 2.7-0.5 0.6-0.3 1.4-0.9 1.7-1.3 0.4-0.3 0.9-1 1.1-1.6 0.4-0.7 0.5-1.4 0.4-2.8-0.1-1.4-0.3-2-0.9-2.9-0.4-0.6-1.2-1.4-1.9-1.7-0.7-0.4-1.8-0.8-2.6-0.8-1.1-0.1-1.7 0-2.9 0.6zm26.8-0.3c-0.6 0.2-1.5 0.8-2 1.3-0.5 0.5-1.1 1.4-1.4 1.9-0.2 0.5-0.4 1.6-0.4 2.4 0.1 0.9 0.3 1.9 0.6 2.5 0.3 0.6 0.8 1.3 1.2 1.7 0.3 0.3 1.1 0.8 1.6 1.1 0.6 0.3 1.5 0.5 2.5 0.5 1-0.1 1.9-0.3 2.6-0.6 0.6-0.3 1.4-0.9 1.7-1.3 0.4-0.3 0.9-1.1 1.1-1.6 0.2-0.6 0.4-1.7 0.4-2.3 0-0.7-0.2-1.8-0.4-2.3-0.2-0.6-0.8-1.4-1.2-1.9-0.4-0.4-1.3-1-1.9-1.3-0.7-0.3-1.7-0.5-2.2-0.5-0.6 0-1.6 0.2-2.2 0.4zm-66.3 5.1c-0.5 0.5-0.9 1.1-1 1.9-0.1 0.9 0 1.2 0.7 2 0.8 0.9 1 1 2.1 1 1 0 1.5-0.2 2-0.7 0.4-0.4 0.8-1.2 0.9-1.8 0.2-1.1 0.2-1.2-0.8-2.2-0.8-0.7-1.3-1-2-1-0.7 0-1.3 0.3-1.9 0.8zm106.7 0c-0.8 0.7-1 1-1 2.1 0 1 0.2 1.4 0.8 2 0.6 0.6 1 0.8 2 0.8 1 0 1.4-0.2 2-0.7 0.4-0.4 0.8-1.2 0.9-1.8 0.2-1.1 0.1-1.2-0.9-2.2-0.7-0.7-1.2-1-2-1-0.6 0-1.2 0.3-1.8 0.8zm-79 1.1c-0.6 0.3-1.5 1-2 1.5-0.5 0.6-1 1.5-1.2 2.1-0.2 0.6-0.3 1.4-0.3 1.7 0 0.4 0.2 1.2 0.4 1.8 0.2 0.7 0.8 1.7 1.5 2.3 0.8 0.8 1.6 1.3 2.4 1.5 0.6 0.2 1.6 0.3 2.2 0.2 0.7-0.1 1.7-0.4 2.3-0.7 0.6-0.2 1.4-1 1.8-1.6 0.5-0.6 1-1.6 1.1-2.2 0.2-0.8 0.2-1.5 0-2.5-0.2-0.8-0.6-1.8-1.1-2.4-0.4-0.5-1.3-1.2-2-1.6-0.8-0.4-1.7-0.6-2.6-0.6-0.8 0-1.9 0.2-2.5 0.5zm50 0.1c-0.6 0.3-1.3 0.8-1.6 1-0.3 0.3-0.8 1-1.1 1.6q-0.6 1.1-0.6 2.6c0 1 0.2 1.9 0.5 2.5 0.3 0.6 0.9 1.3 1.2 1.7 0.4 0.3 1.3 0.9 1.9 1.2 0.9 0.4 1.4 0.5 2.7 0.4 1.2-0.1 2-0.4 2.8-1 0.7-0.5 1.4-1.3 1.9-2.3 0.4-0.8 0.8-1.9 0.8-2.3 0-0.5-0.2-1.3-0.3-1.9-0.2-0.6-0.7-1.5-1.2-2.1-0.5-0.5-1.4-1.2-2-1.5-0.6-0.3-1.7-0.5-2.5-0.5-0.8 0-1.8 0.2-2.5 0.6zm-70.1 3.1c-0.6 0.4-1.2 1.1-1.5 1.7-0.3 0.5-0.5 1.4-0.5 2 0 0.5 0.2 1.3 0.4 1.8 0.2 0.5 0.8 1.2 1.3 1.6 0.5 0.4 1.5 0.8 2.2 0.8 0.8 0.1 1.6 0 2.2-0.3 0.6-0.3 1.3-0.9 1.7-1.4q0.7-0.9 0.8-2.3c0-0.9-0.1-1.6-0.4-2.3-0.3-0.5-0.9-1.2-1.3-1.5q-0.8-0.6-2.4-0.7c-1.3-0.1-1.7 0-2.5 0.6zm90.8-0.1c-0.5 0.3-1.2 0.8-1.5 1.2-0.3 0.3-0.6 1.2-0.6 1.9-0.1 0.7-0.1 1.7 0.1 2.3 0.2 0.6 0.7 1.3 1.3 1.8 0.8 0.5 1.5 0.8 2.5 0.8 1 0.1 1.6-0.1 2.5-0.5 0.6-0.4 1.3-1.1 1.6-1.7 0.4-0.6 0.5-1.3 0.4-2.3q-0.1-1.4-0.8-2.4c-0.3-0.5-1.1-1.1-1.6-1.3-0.4-0.2-1.3-0.3-1.9-0.3-0.6 0-1.5 0.2-2 0.5zm-44.9 3.3c-0.5 0.4-1.1 1-1.4 1.4-0.2 0.5-0.4 1.2-0.4 1.6 0 0.5 0.3 1.2 0.6 1.7 0.3 0.5 0.9 1.1 1.4 1.3 0.4 0.2 1.2 0.4 1.6 0.4 0.5 0 1.2-0.2 1.7-0.5 0.4-0.2 1-0.8 1.2-1.2 0.3-0.4 0.5-1.2 0.5-1.8 0-0.7-0.2-1.3-0.6-1.9-0.4-0.4-1.1-0.9-1.6-1.1-0.5-0.2-1.2-0.4-1.5-0.4-0.4 0-1 0.2-1.5 0.5zm-9.8 1.9c-0.5 0.4-1 1.1-1.1 1.7-0.2 0.6-0.2 1.3 0 1.9 0.1 0.4 0.5 1.1 0.9 1.4 0.3 0.4 1 0.8 1.4 0.9 0.5 0.2 1.3 0.1 1.9 0 0.6-0.1 1.3-0.6 1.7-1.1 0.6-0.6 0.7-1.1 0.7-2.2 0-1.2-0.1-1.5-1-2.4-0.8-0.8-1.1-0.9-2.3-0.9-1 0-1.6 0.1-2.2 0.7zm18.8-0.1c-0.4 0.3-0.9 0.9-1 1.2-0.2 0.4-0.3 1.1-0.3 1.6 0 0.5 0.2 1.3 0.6 1.8 0.4 0.7 1 1.1 1.7 1.4 1 0.3 1.3 0.3 2.4-0.2 0.9-0.4 1.4-0.8 1.7-1.5 0.3-0.6 0.5-1.3 0.5-1.6 0-0.3-0.2-0.9-0.4-1.4-0.2-0.5-0.8-1.1-1.2-1.4q-0.7-0.6-2-0.6c-0.9 0.1-1.5 0.2-2 0.7zm-43.4 0.9c-1 0.2-1.7 0.7-2.5 1.6-0.9 0.8-1.3 1.6-1.5 2.7-0.3 1.3-0.3 1.7 0.1 2.9 0.2 0.8 0.8 1.8 1.3 2.3 0.5 0.5 1.3 1.2 1.7 1.4 0.5 0.3 1.6 0.5 2.5 0.5 1.4 0 2-0.2 3-0.8 0.9-0.5 1.6-1.2 2-1.9 0.4-0.7 0.8-1.7 0.9-2.3 0.1-0.6 0-1.7-0.1-2.3-0.2-0.7-0.8-1.7-1.3-2.2-0.5-0.6-1.3-1.3-1.8-1.5-0.6-0.3-1.4-0.6-2-0.7-0.5 0-1.6 0.1-2.3 0.3zm69.5-0.1c-0.5 0.1-1.2 0.3-1.6 0.4-0.4 0.2-1.1 0.8-1.7 1.4-0.6 0.7-1.1 1.6-1.3 2.5-0.3 1-0.3 1.6 0 2.6 0.1 0.7 0.6 1.6 0.9 2.1 0.3 0.5 0.9 1.2 1.4 1.5 0.5 0.3 1.4 0.7 2.1 0.9 0.7 0.1 1.7 0.2 2.2 0.1 0.5-0.1 1.6-0.5 2.3-1 0.8-0.5 1.5-1.2 1.8-1.9 0.3-0.5 0.6-1.4 0.7-1.8 0.2-0.5 0.1-1.4 0-2.1-0.1-0.8-0.5-1.7-1-2.4-0.5-0.6-1.3-1.3-1.8-1.6-0.6-0.3-1.5-0.7-2-0.8-0.6 0-1.4 0-2 0.1zm-52.9 3.1c-0.4 0.3-1 0.8-1.3 1.3-0.4 0.7-0.5 1.3-0.4 2.2 0.1 0.9 0.4 1.5 1 2 0.5 0.4 1.3 0.9 1.8 1 0.5 0.1 1.3-0.1 1.9-0.3 0.6-0.3 1.3-0.9 1.6-1.4 0.3-0.5 0.6-1.2 0.6-1.7 0-0.5-0.3-1.2-0.6-1.7-0.3-0.5-0.9-1.1-1.4-1.4-0.4-0.2-1.1-0.4-1.6-0.4-0.4 0-1.1 0.2-1.6 0.4zm35.5 0.2c-0.5 0.3-1 0.8-1.1 1.1-0.2 0.3-0.3 1.1-0.3 1.7 0 0.8 0.2 1.5 0.6 2.1 0.3 0.5 1 1 1.5 1.2 0.4 0.2 1.2 0.2 1.8 0.1 0.5-0.1 1.2-0.4 1.5-0.6 0.3-0.3 0.7-0.8 0.9-1.1 0.2-0.4 0.3-1.1 0.3-1.7 0-0.7-0.2-1.5-0.4-1.9-0.3-0.4-0.9-0.9-1.3-1.1-0.4-0.2-1.2-0.4-1.7-0.4-0.5 0-1.3 0.3-1.8 0.6zm45.3 4.5c-0.3 0.2-0.8 0.7-1 1.1-0.2 0.3-0.4 1-0.4 1.5 0 0.6 0.2 1.2 0.6 1.8 0.4 0.4 1.1 0.9 1.5 1 0.4 0 1.2-0.1 1.8-0.3 0.7-0.3 1.2-0.8 1.5-1.4 0.3-0.5 0.4-1.2 0.3-1.8-0.1-0.5-0.5-1.2-1-1.6-0.5-0.4-1.2-0.7-1.8-0.6-0.5 0-1.1 0.1-1.5 0.3zm-10.1 1.8c-0.5 0.3-1.2 0.9-1.6 1.5-0.5 0.8-0.6 1.2-0.5 2.5 0 0.9 0.3 1.8 0.6 2.2 0.3 0.4 1 1 1.5 1.3 0.6 0.3 1.5 0.6 2.1 0.6 0.7 0 1.5-0.2 2.1-0.6 0.5-0.3 1.2-0.9 1.5-1.3 0.2-0.4 0.5-1.3 0.6-2 0.1-0.8 0-1.5-0.3-2.2-0.2-0.5-0.8-1.3-1.3-1.6q-0.9-0.7-2.3-0.8c-1-0.1-1.7 0-2.4 0.4zm-78 0.9c-0.9 0.9-1.1 1.2-1.1 2.3 0 1.1 0.1 1.5 0.9 2.4 0.9 0.9 1.1 1 2.4 1 0.9 0 1.6-0.2 2.1-0.6 0.5-0.3 1-1.1 1.2-1.7 0.4-0.9 0.4-1.2 0-2.2-0.2-0.6-0.8-1.3-1.4-1.7-0.5-0.4-1.3-0.6-2-0.6-0.9 0-1.3 0.2-2.1 1.1zm49.5-0.6c-0.5 0.4-1.1 1.1-1.3 1.6-0.3 0.7-0.4 1.4-0.3 1.9 0.1 0.5 0.4 1.1 0.6 1.4 0.2 0.3 0.8 0.8 1.3 1 0.6 0.3 1.3 0.5 1.6 0.5 0.3 0 0.9-0.2 1.4-0.4 0.5-0.2 1.2-0.8 1.4-1.2 0.3-0.5 0.5-1.3 0.5-1.8 0-0.6-0.1-1.3-0.3-1.6-0.1-0.4-0.7-0.9-1.2-1.3-0.5-0.3-1.3-0.6-1.8-0.6-0.6 0-1.4 0.2-1.9 0.5zm15.3 2.2c-0.6 0.3-1.5 1-2 1.5-0.5 0.6-1 1.5-1.1 2.1-0.2 0.6-0.3 1.4-0.3 1.7 0 0.4 0.1 1.2 0.3 1.8 0.1 0.6 0.6 1.5 1.1 2 0.5 0.6 1.4 1.3 2 1.6 0.6 0.3 1.6 0.5 2.5 0.5 0.8 0 1.9-0.3 2.5-0.5 0.7-0.3 1.5-1 2-1.6 0.5-0.6 1-1.7 1.2-2.4q0.3-1.2 0-2.4c-0.1-0.6-0.4-1.6-0.7-2-0.2-0.5-0.7-1.1-1.1-1.4-0.5-0.3-1.2-0.8-1.8-1-0.5-0.2-1.5-0.4-2.2-0.4-0.7 0-1.7 0.3-2.4 0.5zm-10.9 6.2c-0.4 0.3-1.1 1-1.3 1.6-0.3 0.6-0.4 1.4-0.3 1.9 0.1 0.5 0.6 1.3 1 1.8 0.7 0.8 1 0.9 2.4 0.9 1.3 0 1.6-0.1 2.3-0.8 0.6-0.6 1-1.2 1.1-2q0.1-1.1-0.3-2c-0.3-0.5-0.9-1.1-1.4-1.4-0.5-0.3-1.3-0.6-1.7-0.6-0.5 0-1.3 0.3-1.8 0.6zm-29.1 3.8c-0.4 0.2-1.2 0.5-1.8 0.7-0.5 0.3-1.4 0.8-2 1.3-0.6 0.5-1.3 1.6-1.9 2.7-0.7 1.6-0.9 2.2-0.9 3.8q0 2 0.6 3.2c0.3 0.7 1 1.8 1.6 2.5 0.6 0.7 1.7 1.5 2.5 1.9 1.2 0.7 1.7 0.8 3.9 0.8 2.2 0 2.7-0.1 3.9-0.8 0.7-0.4 1.9-1.2 2.5-1.9 0.6-0.7 1.3-1.8 1.6-2.5 0.4-0.8 0.6-1.8 0.6-3.3 0-1.8-0.1-2.3-0.8-3.7-0.5-0.9-1.3-2-1.8-2.5-0.6-0.5-1.6-1.2-2.3-1.5-0.7-0.4-1.9-0.7-3-0.8-1 0-2.2 0-2.7 0.1zm42.5 3c-0.6 0.2-1.4 0.7-1.9 1.2-0.4 0.4-1 1.2-1.3 1.8-0.4 0.9-0.5 1.5-0.5 2.9 0.1 1.3 0.3 1.9 1 2.9 0.5 0.7 1.3 1.4 2.1 1.8q1.2 0.6 2.7 0.6c0.8 0 1.8-0.1 2.3-0.3 0.5-0.2 1.3-0.8 1.9-1.4 0.5-0.5 1.1-1.3 1.3-1.9 0.2-0.5 0.4-1.5 0.4-2.2 0-0.7-0.3-1.7-0.5-2.4-0.3-0.6-1-1.5-1.6-2-0.5-0.5-1.5-1-2-1.2-0.6-0.1-1.4-0.2-1.9-0.2-0.5 0-1.3 0.2-2 0.4zm-25.5 0.4c-0.6 0.3-1.5 0.8-1.9 1.3-0.4 0.4-0.9 1.4-1.1 2.2-0.3 0.8-0.3 1.8-0.2 2.5 0.1 0.6 0.4 1.5 0.6 2 0.3 0.5 1.1 1.3 1.8 1.7 1.1 0.7 1.6 0.9 3 0.9 1.2-0.1 2-0.2 2.8-0.7 0.6-0.3 1.4-1.1 1.9-1.7 0.4-0.7 0.8-1.6 0.9-2.4 0.1-0.7 0-1.7-0.2-2.3-0.2-0.6-0.7-1.6-1.2-2.1-0.5-0.5-1.4-1.2-2-1.4-0.6-0.3-1.6-0.5-2.2-0.5-0.6 0-1.6 0.2-2.2 0.5zm80.5 4.7c0 3 0.1 4.3 0.1 2.8 0.1-1.5 0.1-3.9 0-5.4 0-1.5-0.1-0.4-0.1 2.6zm-41.3-3.5c-0.3 0.1-0.9 0.6-1.4 1-0.4 0.4-0.9 1.2-1 1.8q-0.3 1 0 2.2c0.2 0.7 0.7 1.5 1.3 2.1q0.9 0.9 2.1 1c0.9 0.2 1.5 0.1 2.6-0.4 1-0.6 1.5-1 2-2 0.5-0.9 0.6-1.5 0.5-2.3-0.1-0.6-0.5-1.5-0.8-2-0.3-0.5-1-1.1-1.5-1.3-0.5-0.3-1.5-0.5-2.1-0.5-0.7 0-1.4 0.2-1.7 0.4zm-25.9 1.1c-0.5 0.4-1 1-1.2 1.5-0.2 0.4-0.3 1.2-0.2 1.8 0.1 0.5 0.4 1.3 0.7 1.7 0.4 0.5 1 0.9 1.8 1q1.2 0.3 2 0.1c0.4-0.2 1.2-0.7 1.6-1.2 0.6-0.6 0.7-1.1 0.7-2.1 0-0.7-0.2-1.5-0.4-1.9-0.3-0.4-0.9-0.9-1.3-1.2-0.4-0.2-1.2-0.3-1.8-0.3q-1.1 0-1.9 0.6zm35.9 0.5c-0.4 0.4-0.8 1-1 1.5-0.1 0.5-0.1 1.2 0 1.7 0.1 0.4 0.6 1 1 1.3 0.4 0.3 1.3 0.6 1.9 0.6 0.8 0 1.2-0.2 1.8-0.9 0.6-0.7 0.8-1.2 0.8-2 0-0.8-0.2-1.3-0.6-1.8-0.4-0.5-1-0.8-1.9-0.9-1-0.1-1.4 0-2 0.5zm-36.7 8.4c-0.5 0.3-1.1 0.8-1.5 1.4-0.5 0.7-0.6 1.1-0.5 2.1 0.1 1 0.3 1.5 1.1 2.2 0.9 0.7 1.3 0.9 2.3 0.9 1 0 1.4-0.2 2.2-0.9 0.8-0.7 1.1-1.2 1.2-2.2 0.1-0.9-0.1-1.5-0.4-2.1-0.3-0.4-1-1-1.6-1.3-0.5-0.2-1.2-0.5-1.5-0.5-0.3 0.1-0.9 0.2-1.3 0.4zm11.1 1.4c-0.6 0.3-1.4 0.7-1.8 1-0.4 0.2-1 1-1.3 1.6-0.4 0.6-0.7 1.5-0.8 2.2-0.1 0.7 0 1.6 0.2 2.5q0.5 1.4 1.6 2.4c0.6 0.6 1.4 1.2 1.8 1.3 0.4 0.2 1.4 0.3 2.2 0.3 1 0 2-0.2 2.6-0.5 0.6-0.3 1.5-1 2-1.6 0.4-0.6 1-1.7 1.2-2.4 0.1-0.6 0.2-1.6 0.1-2.2-0.1-0.5-0.5-1.5-1-2.2-0.4-0.7-1.3-1.5-1.8-1.9-0.6-0.3-1.7-0.7-2.5-0.7-0.9-0.1-1.8 0-2.5 0.2zm12.4 6c-0.5 0.3-1.1 1-1.4 1.5-0.4 0.5-0.6 1.4-0.6 2.1 0 0.9 0.2 1.6 0.6 2.2 0.4 0.5 1 1.2 1.4 1.5 0.3 0.3 1.1 0.6 1.6 0.7 0.7 0.1 1.4 0 2.3-0.5 0.8-0.3 1.6-0.9 1.9-1.4 0.3-0.5 0.6-1.4 0.7-1.9 0.1-0.6 0-1.4-0.2-2.1-0.3-0.6-0.9-1.4-1.4-1.8-0.6-0.5-1.3-0.7-2.4-0.8-1.2-0.1-1.8 0.1-2.5 0.5zm-77.9 1.7c-0.8 0.7-0.9 0.9-0.9 2.4 0 1.4 0.1 1.8 0.7 2.4 0.4 0.4 1.2 0.9 1.7 1 0.8 0.2 1.3 0.2 2-0.1 0.5-0.2 1.2-0.7 1.5-1 0.3-0.4 0.7-1.1 0.8-1.5 0.1-0.5 0-1.2-0.1-1.7-0.2-0.5-0.7-1.2-1.1-1.6-0.7-0.6-1.2-0.8-2.3-0.8-1.1 0-1.5 0.2-2.3 0.9zm49.3-0.2c-0.5 0.5-1 1.2-1.2 1.8-0.1 0.8-0.1 1.4 0.1 1.9 0.1 0.4 0.5 1.1 0.9 1.4 0.3 0.4 0.9 0.8 1.4 0.9 0.5 0.1 1.3 0.1 1.9 0 0.6-0.2 1.3-0.6 1.7-1.1 0.6-0.6 0.7-1.1 0.7-2.2 0-1.2-0.1-1.5-1-2.4-0.8-0.8-1.1-1-2.3-1-1 0-1.6 0.2-2.2 0.7zm38.9 2.8c-0.3 0.2-0.8 0.7-1 1-0.2 0.4-0.4 1.1-0.4 1.5 0 0.5 0.1 1.1 0.4 1.5 0.2 0.3 0.8 0.8 1.2 1 0.5 0.2 1.2 0.4 1.6 0.4 0.4 0 1-0.3 1.6-0.9 0.8-0.8 1-1.3 1-2 0-0.7-0.2-1.2-1-1.9-0.7-0.7-1.2-1-1.9-1-0.5 0-1.1 0.2-1.5 0.4zm-98.1 1.7c-0.5 0.2-1.3 0.7-1.6 1-0.4 0.4-0.9 1.1-1.3 1.8-0.3 0.6-0.6 1.6-0.6 2.5 0 0.9 0.2 1.8 0.7 2.7 0.5 1 1.1 1.7 2 2.2 0.7 0.4 1.8 0.8 2.6 0.9 1.1 0.2 1.7 0.1 3-0.5 1.2-0.6 1.8-1 2.4-2.1 0.5-0.7 0.9-1.7 1-2.3 0.1-0.5 0-1.6-0.3-2.5-0.2-1-0.7-1.8-1.3-2.4-0.5-0.5-1.4-1.1-2-1.3-0.5-0.2-1.6-0.4-2.3-0.4-0.7 0-1.8 0.2-2.3 0.4zm68.7 0.1c-0.6 0.3-1.5 1-2 1.6-0.5 0.6-1 1.6-1.2 2.2-0.1 0.6-0.2 1.6-0.1 2.2 0.1 0.6 0.5 1.7 1 2.4 0.6 1 1.2 1.5 2.4 2.1 1.3 0.6 1.9 0.7 3 0.6 0.8-0.1 1.9-0.5 2.6-0.9 0.6-0.4 1.4-1.1 1.7-1.6 0.3-0.5 0.7-1.4 0.9-2.1 0.2-0.8 0.2-1.4 0-2.5-0.2-0.8-0.7-1.8-1.2-2.4-0.5-0.6-1.5-1.3-2.1-1.6-0.6-0.3-1.7-0.5-2.5-0.5-0.7 0-1.9 0.2-2.5 0.5zm-51.4 1.8c-0.4 0.2-0.9 0.7-1.2 1.2-0.3 0.4-0.6 1.2-0.6 1.7 0 0.6 0.3 1.4 0.7 2.1 0.5 0.6 1.1 1.1 1.6 1.2 0.5 0.2 1.3 0.2 1.8 0.1 0.4 0 1.1-0.3 1.5-0.6 0.3-0.2 0.8-0.7 1-1.2 0.2-0.4 0.4-1.1 0.4-1.6 0-0.5-0.3-1.3-0.6-1.8-0.3-0.4-0.8-0.9-1.1-1.1-0.4-0.2-1.2-0.4-1.8-0.4-0.6 0-1.4 0.2-1.7 0.4zm35 0.5c-0.9 0.9-1 1.1-1 2.3q0 1.4 0.5 2.1c0.3 0.5 0.9 0.9 1.2 1.1 0.4 0.1 1 0.3 1.3 0.3 0.3 0 0.9 0 1.2 0 0.4 0 1.1-0.5 1.6-1 0.7-0.8 0.9-1.2 0.9-2.1 0-0.6-0.1-1.5-0.4-1.9-0.2-0.5-0.8-1-1.2-1.3-0.5-0.2-1.4-0.4-2-0.4-0.9 0-1.3 0.2-2.1 0.9zm-26.8 3.9c-0.6 0.4-1.1 1.1-1.3 1.8-0.4 1.1-0.4 1.2 0.1 2.3 0.3 0.6 0.9 1.4 1.4 1.7 0.4 0.3 1.2 0.5 1.6 0.5 0.4 0 1.2-0.2 1.6-0.4 0.5-0.2 1.2-0.8 1.4-1.2 0.3-0.5 0.5-1.3 0.5-1.9 0-0.5-0.2-1.3-0.4-1.8-0.2-0.4-0.8-1-1.2-1.2-0.5-0.2-1.3-0.4-1.8-0.4-0.5 0-1.4 0.3-1.9 0.6zm19.3-0.4c-0.4 0.2-0.9 0.7-1.3 1.1-0.6 0.7-0.7 1.2-0.7 2.1 0 1.1 0.1 1.5 0.9 2.3 0.7 0.8 1.1 1 2.1 1.1 1 0.1 1.5 0 2.2-0.4 0.5-0.3 1.1-1 1.3-1.6 0.2-0.5 0.4-1.2 0.4-1.6 0-0.3-0.2-1-0.5-1.5-0.4-0.5-1-1.1-1.4-1.3-0.5-0.2-1.2-0.4-1.6-0.4-0.5 0-1.1 0.1-1.4 0.2zm-9.2 1.5c-0.6 0.2-1.3 0.8-1.7 1.3-0.5 0.8-0.6 1.2-0.5 2.3 0.1 0.9 0.4 1.4 1.1 2.1 0.9 0.8 1.3 0.9 2.3 0.9 1.1 0 1.5-0.1 2.4-1 0.9-0.9 1-1.3 1.1-2.2 0-0.6-0.3-1.5-0.6-2-0.3-0.5-1-1.1-1.5-1.3-0.6-0.2-1.1-0.4-1.3-0.4-0.2 0-0.8 0.1-1.3 0.3zm-45.9 1.9c-0.6 0.2-1.4 0.8-1.7 1.3-0.3 0.4-0.6 1.1-0.7 1.6-0.1 0.5-0.1 1.3 0 1.9 0.1 0.6 0.5 1.4 1 1.9 0.4 0.6 1.3 1.1 2 1.3 0.9 0.3 1.5 0.3 2.3 0.1q1.1-0.3 2.2-1.5c1.1-1.2 1.1-1.2 1-2.9-0.1-1.5-0.2-1.9-1-2.7-0.5-0.5-1.4-1-1.9-1.2-0.6-0.2-1.3-0.4-1.5-0.4-0.3 0-1 0.3-1.7 0.6zm20.7-0.3c-0.6 0.2-1.5 0.6-2 0.9-0.5 0.4-1.2 1.1-1.6 1.7-0.4 0.7-0.8 1.7-0.8 2.3-0.1 0.6-0.1 1.6 0.1 2.3 0.2 0.6 0.7 1.6 1.3 2.3 0.6 0.6 1.5 1.3 2 1.6 0.6 0.2 1.7 0.3 2.6 0.3 0.9 0 1.9-0.2 2.4-0.4 0.4-0.2 1.2-0.9 1.8-1.6 0.6-0.7 1.1-1.7 1.3-2.4 0.2-1 0.1-1.7-0.1-2.8-0.3-1.1-0.8-1.9-1.5-2.6-0.7-0.7-1.6-1.2-2.4-1.5-0.8-0.2-1.6-0.4-1.7-0.3-0.2 0-0.8 0.1-1.4 0.2zm49.8 0.1c-0.6 0.2-1.5 0.7-2 1.1-0.6 0.4-1.3 1.3-1.6 1.9-0.3 0.8-0.6 1.7-0.5 2.6 0 0.8 0.1 1.7 0.2 2.1 0.2 0.4 0.6 1.1 1.1 1.6 0.4 0.5 1.2 1.2 1.6 1.4 0.5 0.2 1.3 0.5 2 0.6 0.6 0.1 1.6 0.1 2.2 0 0.7-0.2 1.6-0.7 2.4-1.5 0.8-0.6 1.6-1.6 1.8-2.3q0.4-1.1 0.3-2.5c-0.1-0.8-0.5-1.8-1-2.6-0.5-0.8-1.2-1.4-2-1.8-0.7-0.4-1.7-0.7-2.4-0.8-0.6-0.1-1.5 0-2.1 0.2zm20.5 0c-0.6 0.3-1.5 0.8-1.9 1.3-0.4 0.5-0.8 1.2-0.9 1.7-0.1 0.5-0.1 1.4 0 1.9 0.1 0.5 0.4 1.3 0.8 1.8 0.3 0.4 1.1 1 1.7 1.3 0.6 0.3 1.4 0.5 1.8 0.5 0.4 0 1.2-0.2 1.8-0.5 0.6-0.3 1.4-1 1.7-1.5 0.5-0.6 0.7-1.3 0.7-2.3 0-1-0.2-1.6-0.6-2.3-0.4-0.6-1-1.2-1.5-1.5-0.5-0.2-1.2-0.5-1.7-0.6-0.4-0.1-1.3 0-1.9 0.2zm-59.5 6.2c-0.6 0.3-1.5 1-2 1.6-0.5 0.5-1 1.5-1.2 2-0.1 0.6-0.2 1.4-0.2 1.8 0 0.4 0.1 1.1 0.2 1.7 0.2 0.6 0.8 1.6 1.4 2.2 0.5 0.6 1.4 1.3 2 1.5 0.5 0.2 1.5 0.4 2.3 0.4 0.7 0 1.8-0.2 2.3-0.4 0.6-0.3 1.4-0.7 1.7-1.1 0.4-0.3 0.9-1.1 1.2-1.7 0.4-0.7 0.6-1.6 0.6-2.6 0-1.1-0.1-1.9-0.6-2.8-0.4-0.7-1.3-1.6-1.9-2.1-1-0.7-1.6-0.8-2.9-0.9-1.3-0.1-2.1 0.1-2.9 0.4zm26.6-0.1c-0.4 0.1-1.1 0.6-1.7 1.1-0.5 0.5-1.1 1.4-1.4 1.9-0.3 0.6-0.5 1.7-0.6 2.4 0 0.7 0.2 1.8 0.4 2.3 0.3 0.5 0.7 1.3 1.1 1.8 0.3 0.4 1.1 1 1.7 1.3 0.7 0.3 1.7 0.5 2.4 0.5 0.7 0 1.7-0.1 2.2-0.3 0.6-0.2 1.4-0.7 1.9-1.2 0.5-0.5 1.2-1.3 1.5-1.9 0.3-0.6 0.5-1.6 0.5-2.4 0-0.7-0.2-1.8-0.5-2.4-0.3-0.6-0.9-1.4-1.3-1.8-0.5-0.5-1.3-1-1.9-1.2-0.5-0.3-1.6-0.4-2.3-0.4-0.7 0-1.7 0.1-2 0.3zm-65.6 1.2c-0.5 0.3-1.1 0.9-1.3 1.3-0.2 0.4-0.4 1-0.4 1.3 0 0.3 0.2 0.9 0.4 1.3 0.2 0.5 0.7 1 1.1 1.1 0.4 0.2 1.2 0.4 1.7 0.4 0.5 0 1.1-0.2 1.5-0.5 0.3-0.3 0.7-0.8 0.9-1.1 0.1-0.4 0.3-0.9 0.3-1.2 0-0.3-0.2-0.9-0.4-1.4-0.3-0.4-0.9-1-1.4-1.2-0.6-0.3-1.1-0.4-1.2-0.4-0.1 0-0.6 0.2-1.2 0.4zm107.5-0.3c-0.2 0.1-0.7 0.3-1.1 0.5-0.3 0.2-0.8 0.7-1 1.1-0.2 0.4-0.4 1-0.4 1.3 0 0.3 0.2 0.9 0.5 1.4 0.3 0.4 0.8 0.9 1.1 1.1 0.4 0.2 1.1 0.3 1.6 0.3 0.7 0 1.2-0.2 1.7-0.7 0.4-0.4 0.7-1 0.8-1.5 0.1-0.4 0.1-1.1 0-1.5-0.2-0.5-0.6-1.1-1-1.3-0.3-0.3-0.9-0.6-1.2-0.7-0.3 0-0.8 0-1 0zm-54.2 1c-0.7 0.2-1.6 0.5-2 0.9-0.5 0.3-1.1 1-1.5 1.4-0.3 0.5-0.7 1.4-0.9 2-0.2 0.6-0.3 1.5-0.2 2.2 0.1 0.6 0.5 1.6 0.8 2.2 0.4 0.5 1.1 1.3 1.6 1.7 0.6 0.4 1.4 0.8 2 1 0.5 0.1 1.3 0.2 1.8 0.2 0.4 0 1.5-0.3 2.3-0.7 1-0.5 1.6-1 2.3-2 0.4-0.7 0.9-1.8 1-2.4 0.1-0.7 0-1.6-0.3-2.5-0.3-0.9-0.9-1.8-1.5-2.4-0.6-0.5-1.3-1.1-1.6-1.2-0.3-0.1-1-0.3-1.6-0.4-0.5-0.1-1.5-0.1-2.2 0zm-33.7 4.6c-0.5 0.3-1.1 1-1.5 1.5-0.4 0.6-0.6 1.2-0.6 2.3 0 1 0.2 1.7 0.6 2.4 0.4 0.5 1.1 1.2 1.6 1.4 0.8 0.4 1.4 0.5 2.4 0.4 0.8 0 1.7-0.3 2.1-0.6 0.4-0.3 0.9-0.9 1.2-1.2 0.3-0.4 0.5-1.3 0.6-1.9 0.2-1 0.1-1.6-0.3-2.4-0.3-0.6-0.9-1.3-1.4-1.6-0.5-0.4-1.4-0.6-2.3-0.7-1.2-0.1-1.8 0-2.4 0.4zm65.8 0.1c-0.5 0.2-1.2 0.8-1.5 1.3-0.3 0.4-0.6 1.2-0.7 1.7q-0.2 1 0.4 2.3c0.3 0.7 0.7 1.4 1 1.7 0.3 0.2 1.1 0.6 1.7 0.8 0.6 0.2 1.5 0.2 2 0.1 0.6-0.1 1.4-0.5 2-0.9 0.5-0.4 1.1-1.2 1.3-1.7 0.2-0.5 0.4-1.2 0.4-1.6-0.1-0.5-0.3-1.3-0.7-2-0.3-0.7-1-1.5-1.4-1.7-0.5-0.4-1.4-0.6-2.3-0.6-0.8 0-1.7 0.2-2.2 0.6zm-50.1 7.9c-0.8 0.4-1.4 0.9-1.7 1.5-0.3 0.6-0.5 1.6-0.5 2.3 0 0.7 0.2 1.6 0.5 2.1 0.3 0.5 1 1.2 1.5 1.5 0.5 0.3 1.4 0.5 2.1 0.5 0.7 0 1.7-0.2 2.3-0.5 0.6-0.3 1.2-0.9 1.6-1.7 0.5-1 0.6-1.5 0.5-2.5-0.1-0.7-0.4-1.6-0.7-1.9-0.3-0.4-1-1-1.6-1.4-0.6-0.3-1.5-0.6-1.9-0.6-0.5 0-1.4 0.3-2.1 0.7zm34.7-0.3c-0.5 0.2-1.2 0.8-1.6 1.2-0.3 0.5-0.7 1.4-0.8 2-0.1 0.5 0 1.4 0.1 2 0.2 0.5 0.7 1.3 1.1 1.7 0.3 0.4 1 0.9 1.3 1 0.4 0.2 1.3 0.3 1.9 0.3 0.8 0 1.5-0.2 2.2-0.6 0.5-0.3 1.2-1.1 1.5-1.6 0.3-0.5 0.5-1.5 0.5-2.1 0-0.6-0.2-1.5-0.5-2.1-0.3-0.5-1.1-1.2-1.7-1.6-0.6-0.3-1.5-0.6-2-0.6-0.6 0-1.4 0.2-2 0.4zm-56.1 2.1c-0.6 0.6-0.8 1.1-0.8 2.1 0 1.1 0.1 1.3 0.8 1.9 0.6 0.5 1.2 0.7 2 0.7 0.9 0 1.4-0.1 2-0.7 0.5-0.6 0.7-1.1 0.7-2 0-0.9-0.1-1.3-0.8-2-0.7-0.6-1.1-0.8-2-0.8-0.9 0-1.3 0.2-1.9 0.8zm77.5 0c-0.6 0.6-0.8 1.1-0.8 1.9 0 0.9 0.1 1.3 0.8 2 0.6 0.6 1.1 0.8 1.9 0.8 0.7 0 1.5-0.2 1.9-0.5 0.4-0.2 0.8-0.9 0.9-1.4 0.2-0.7 0.2-1.2-0.1-1.8-0.2-0.5-0.6-1.1-1-1.3-0.4-0.3-1.2-0.5-1.7-0.5-0.9 0-1.3 0.2-1.9 0.8zm-38.8 0.8c-0.7 0.3-1.3 0.9-1.7 1.6-0.3 0.6-0.6 1.6-0.6 2.1 0 0.6 0.2 1.6 0.5 2.2q0.6 1.1 1.7 1.6c0.6 0.4 1.6 0.6 2.2 0.6 0.5 0 1.5-0.3 2.1-0.6 0.6-0.4 1.3-1.1 1.6-1.6 0.3-0.6 0.5-1.5 0.5-2.1 0-0.6-0.2-1.6-0.5-2.1-0.3-0.5-1-1.2-1.6-1.6-0.6-0.3-1.5-0.6-2.1-0.6-0.5 0-1.4 0.2-2.1 0.5zm-20.2 8.5c-0.7 0.7-1 1.2-1 2 0 0.7 0.2 1.3 0.7 1.9 0.6 0.7 0.8 0.8 2 0.8 1.2 0 1.6-0.1 2.1-0.7 0.4-0.3 0.8-1.1 0.9-1.6 0.1-0.7 0-1.2-0.4-1.9-0.3-0.5-0.9-1-1.3-1.2-0.4-0.1-1-0.3-1.4-0.3-0.4 0-1 0.4-1.6 1zm41-0.4c-0.5 0.3-1 0.8-1 1-0.1 0.3-0.2 0.9-0.2 1.4-0.1 0.4 0.1 1.1 0.4 1.6 0.3 0.4 0.8 0.8 1.2 1 0.3 0.2 1 0.3 1.4 0.3 0.4 0 1.1-0.3 1.5-0.6 0.5-0.3 0.9-1 1.1-1.5 0.2-0.7 0.2-1.2-0.2-2-0.2-0.5-0.7-1.1-1.2-1.3-0.5-0.3-1.1-0.5-1.5-0.5-0.3 0-1 0.3-1.5 0.6zm-20.2 3.1c-0.3 0.1-0.8 0.6-1 1.1-0.3 0.4-0.5 1.1-0.5 1.4 0 0.4 0.2 1 0.5 1.5 0.3 0.4 0.9 1 1.3 1.2 0.4 0.2 1.1 0.3 1.5 0.2 0.4-0.1 1-0.4 1.5-0.7q0.7-0.6 0.9-1.6c0.1-0.6 0-1.4-0.2-1.9-0.2-0.4-0.7-0.9-1.1-1.1-0.5-0.3-1.2-0.4-1.6-0.4-0.4 0-1 0.1-1.3 0.3z"/>
		<path id="Path 2" class="s2" d="m163.3 121.2c-0.2 0.1-1.3 0.3-2.5 0.5-1.1 0.2-3.2 0.7-4.7 1.1-1.4 0.5-3.4 1.3-4.4 1.7-1 0.5-2.7 1.3-3.7 1.9-1 0.6-1.9 1.2-1.9 1.4 0 0.1 1.5 2.3 3.3 4.7l3.4 4.4q1.8-1.1 3-1.8c0.9-0.5 2.4-1.2 3.4-1.6 1-0.4 2.6-0.8 3.7-1 1.2-0.2 3.3-0.3 5.2-0.2 2.1 0.1 3.8 0.3 5.1 0.8 1.1 0.3 2.7 1 3.6 1.4 0.9 0.5 2.2 1.5 2.9 2.2 0.7 0.7 1.6 1.9 2 2.7 0.5 0.9 0.9 2.2 1 3l0.2 1.5c-18.5 0-24 0-24 0.1-0.1 0.1-0.1 2.6-0.1 5.6l0.1 5.4h23.9c0 1.4-0.2 2.5-0.5 3.3-0.2 0.9-0.7 2.2-1.1 2.9-0.4 0.8-1.4 2.1-2.2 2.9-0.9 0.9-2.3 1.8-3.5 2.4-1.1 0.6-2.8 1.2-3.8 1.5-1.3 0.3-2.9 0.4-5.5 0.4-1.9 0-4.4-0.2-5.4-0.3-1-0.2-2.4-0.6-3.2-0.9-0.7-0.3-2.1-1-3-1.6l-1.7-1.1-7.7 8.7c1 0.7 2.7 1.6 4.4 2.5 1.7 0.8 4 1.8 5.3 2.2 1.2 0.4 3.5 0.9 5.1 1.2 2.2 0.3 3.9 0.4 6.9 0.3 2.3-0.1 5.1-0.4 6.4-0.7 1.3-0.2 3.5-0.8 4.9-1.3 1.4-0.4 3.5-1.4 4.7-2.1 1.2-0.8 3.1-2.2 4.2-3.3 1.1-1 2.6-2.8 3.4-3.8 0.8-1.1 1.9-2.9 2.5-4 0.6-1.2 1.4-2.8 1.7-3.6 0.3-0.9 0.8-2.6 1.1-3.8 0.3-1.2 0.7-3.5 0.8-5.1 0.1-1.8 0-4.1-0.2-5.9-0.2-1.6-0.6-3.8-0.9-5-0.3-1.1-1.1-3.3-1.9-4.8-0.8-1.6-2-3.6-2.7-4.6-0.8-1-2.3-2.7-3.4-3.8-1.2-1-2.9-2.4-3.9-3-1-0.5-2.7-1.3-3.9-1.7-1.1-0.3-3.1-0.8-4.3-1.1-1.4-0.3-3.9-0.5-6.9-0.6-2.6 0-4.9 0-5.2 0zm94.1 15.4c-4 8.5-8.1 17.1-9.1 19.1-0.9 2-2.2 4.6-2.7 5.8-0.6 1.2-1.8 3.7-2.6 5.4-0.9 1.8-2.4 5-3.4 7.1-1 2.2-1.8 4-1.8 4.1 0 0.1 3 0.2 6.6 0.2h6.7l3.6-7.5 21.5 0.2 3.4 7.3c10.4 0 13.5 0 13.5 0 0-0.1-1-2.1-2.1-4.6-1.2-2.4-2.5-5.1-2.9-6.1-0.5-0.9-2.9-5.9-5.4-11.2-2.5-5.3-7.3-15.4-10.6-22.4-5.3-11.1-6.2-12.9-6.7-12.9-0.5 0-1.6 2.2-8 15.5zm-52.1 13.7v28h13.9v-16.1c3.1 0 5.4-0.1 7-0.3 1.7-0.1 3.9-0.4 4.8-0.7 0.9-0.2 2.5-0.8 3.7-1.4q2-0.9 3.9-2.8c1.1-1 2.6-2.8 3.3-3.9 0.7-1.2 1.6-3.2 2.1-4.5 0.5-1.4 0.9-3.4 1-5 0.2-1.8 0.2-3.3 0-4.7-0.2-1.2-0.6-3-1-4-0.4-1.1-1.2-2.9-1.9-3.9-0.7-1.1-2-2.7-3-3.7q-1.7-1.7-3.8-2.7c-1.2-0.5-2.9-1.2-3.8-1.4-0.9-0.2-2.8-0.6-4.1-0.7-1.4-0.1-6.9-0.3-12.3-0.3h-9.8z"/>
		<path id="Path 3" class="s0" d="m219.2 142.2v8.9c5-0.2 7-0.4 7.6-0.6 0.6-0.2 1.7-0.9 2.4-1.6q1.3-1.3 1.7-2.5c0.2-0.8 0.3-2.5 0.3-4.5 0-2.5-0.1-3.4-0.6-4.4-0.3-0.7-0.9-1.6-1.5-2.1-0.5-0.4-1.5-1-2.2-1.3-0.9-0.4-2-0.6-4.4-0.7l-3.3-0.1zm45.7 7c-0.2 0.4-1.5 2.8-3 5.4-1.4 2.7-2.6 4.9-2.6 5-0.1 0 2.7 0.1 6 0.1 3.4 0 6.1-0.1 6.1-0.1 0-0.1-0.2-0.7-0.6-1.4-0.3-0.6-1.6-3-2.8-5.4-1.3-2.3-2.4-4.2-2.5-4.2-0.1 0-0.3 0.3-0.6 0.6z"/>
	</g>
</svg>