<svg version="1.2" xmlns="http://www.w3.org/2000/svg" viewBox="0 0 300 300" width="300" height="300">
	<title>aaf08bc0db3fb82752ae1f5dd5bc7c7d</title>
	<style>
		.s0 { fill: #fefefe } 
		.s1 { fill: #e71328 } 
		.s2 { fill: #2d2c2a } 
	</style>
	<g id="Background">
		<path id="Path 0" class="s0" d="m-19.2 150v150c19.8-0.1 23.1-0.3 20.9-0.5-2.4-0.2-4.5-0.8-6.9-2-2.2-1-4.4-2.7-6.1-4.4-1.5-1.5-3.4-3.9-4.1-5.2-0.7-1.4-1.7-3.8-2.1-5.4-0.7-2.7-0.8-16.5-0.8-132.3 0-115.4 0.1-129.5 0.8-132.2 0.4-1.6 1.4-3.9 2.1-5.2 0.7-1.2 2-3.1 2.9-4.2 0.8-1.1 2.7-2.8 4.2-3.8 1.4-1 3.5-2.1 4.6-2.5 1.1-0.4 3.1-1.1 4.4-1.5 2.4-0.7 2-0.7-8.7-0.7l-11.2-0.1zm317.5-148.8c1.9 0.6 4.3 1.6 5.4 2.1 1.1 0.6 3.2 2.1 4.6 3.4 1.5 1.3 3.4 3.6 4.3 5.1 0.9 1.5 2 4.1 2.4 5.7 0.7 2.7 0.8 16.4 0.8 132.7 0 88.9-0.2 130.5-0.6 132-0.2 1.3-1.1 3.5-1.8 4.9-0.7 1.5-2.5 4-4 5.6-1.9 2.1-3.8 3.5-6.4 4.8-3.5 1.7-3.9 1.8-10.4 2-3.7 0.2 166.3 0.4 377.6 0.4l384.2 0.1v-300l-759.6 0.1z"/>
		<path id="Path 1" class="s1" d="m0.2 1c-1.6 0.5-3.7 1.2-4.6 1.6-1 0.4-2.9 1.5-4.2 2.5-1.4 0.9-3.3 2.7-4.2 3.9-1 1.1-2.3 3.2-3 4.6-0.7 1.3-1.6 3.7-1.9 5.2-0.4 2-0.5 35.2-0.4 132.9l0.1 130.3c1.7 4.2 3.1 6.7 4.3 8.4 1.2 1.6 3.3 3.8 4.6 4.8 1.3 1 3.9 2.4 5.6 3.2l3.3 1.4c217.5 0.2 284.9 0 290.1-0.2l9.4-0.3c6.3-3.1 8.2-4.5 10.1-6.6 1.5-1.6 3.3-4.1 4-5.6 0.7-1.4 1.6-3.6 1.8-4.9 0.4-1.5 0.6-43.1 0.6-132 0-116.3-0.1-130-0.8-132.7-0.4-1.6-1.5-4.2-2.4-5.7-0.9-1.5-2.8-3.8-4.3-5.1-1.4-1.3-3.6-2.9-4.8-3.5-1.3-0.6-3.8-1.6-5.7-2.1l-3.5-1.1c-282.8 0.1-291.3 0.2-294.1 1z"/>
		<path id="Path 2" class="s0" d="m26.8 41.4c-0.6 0.2-1.6 1-2.2 1.7l-1.2 1.4c-0.2 42.5 0 52.1 0.3 52.5 0.3 0.3 1.8-0.6 4.5-2.7 2.3-1.8 8.2-6.3 13.2-10.1 5.1-3.8 11.2-8.5 13.6-10.4 2.5-1.8 6.4-4.8 8.8-6.5l4.3-3.2v-19.2l-3.4-3.7c-28.5-0.2-37.3 0-37.9 0.2zm76 0.5c-0.9 0.6-2 1.7-2.4 2.5-0.6 1.3-0.7 14.2-0.7 107.3 0 99.8 0 106 0.8 107.6 0.6 1.1 1.6 2.1 2.9 2.7 1.8 0.9 3 1 19.9 0.9l17.9-0.2c-0.1-111.8 0.1-144.4 0.3-144.5 0.2-0.1 2.5 3.1 5 7.3 2.6 4.1 7.1 11.5 10.2 16.4 3 4.8 8.8 14.3 12.9 20.9 4.1 6.7 11.8 19.2 17.2 27.9 5.3 8.7 12.7 20.6 16.3 26.4 3.5 5.8 10.8 17.7 16.2 26.4 5.4 8.7 10.2 16.3 10.8 16.9 0.6 0.7 1.7 1.5 2.4 1.9 1.1 0.6 4.9 0.7 19.8 0.7 16.5 0 18.5-0.1 20.3-0.9 1.5-0.7 2.2-1.4 2.9-3 0.8-1.9 0.8-8.2 0.8-107.4 0-92.5-0.1-105.5-0.7-107-0.4-1-1.5-2.2-2.4-2.8-1.5-0.9-2.4-0.9-17.7-0.9-12.7 0-16.5 0.1-17.5 0.6-0.8 0.4-1.8 1.3-2.4 2.1-1 1.4-1 2.3-1 73.1 0 39.4-0.1 71.7-0.2 71.7-0.2 0-4.1-6.3-8.9-13.9-4.7-7.7-12.1-19.8-16.5-26.8-4.3-7.1-13.2-21.5-19.7-32.1-6.5-10.6-13.9-22.7-16.5-26.9-2.6-4.2-5.8-9.5-7.3-11.8-1.4-2.3-4.5-7.4-7-11.4-2.4-3.9-6.4-10.5-8.9-14.5-2.5-4.1-5.1-8-5.8-8.7l-1.3-1.2c-37.5-0.3-38.2-0.2-39.7 0.7zm-40.9 51.8c-3.2 2.5-13.3 10.1-22.4 16.9l-16.5 12.4c0.2 118.1 0.4 135.2 0.8 136.5 0.4 1.2 1.3 2.1 2.6 2.9 2 1.1 2 1.1 19.8 1 15.9-0.1 17.9-0.2 19.1-1 0.7-0.5 1.6-1.6 2.1-2.4 0.6-1.3 0.7-11.7 0.6-86.1l-0.2-84.7z"/>
		<path id="Path 3" class="s1" d="m615.8 40.7c-2.6 0.4-6.9 1.2-9.6 2-2.7 0.7-6.6 1.9-8.7 2.8-2 0.8-5.8 2.6-8.4 3.9-2.5 1.4-6.2 3.6-8.1 4.9-1.9 1.3-5.8 4.6-8.6 7.3-2.9 2.6-7 7.2-9.2 10-2.1 2.9-5.1 7.4-6.5 10.1-1.4 2.7-3.3 6.9-4.2 9.3-1 2.5-2.2 6.4-2.8 8.7-0.6 2.3-1.4 6.4-1.8 9.1-0.4 2.7-0.7 7.5-0.7 10.6 0 3.1 0.3 7.9 0.7 10.6 0.4 2.7 1.2 6.8 1.8 9.1 0.6 2.4 1.8 6.2 2.8 8.7 0.9 2.4 2.8 6.5 4.2 9.1 1.3 2.6 3.1 5.7 4 6.9 0.8 1.2 2.8 3.9 4.5 5.9 1.6 2.1 4.3 5 5.9 6.6 1.7 1.6 4.7 4.2 6.7 5.9 2 1.6 5.7 4.1 8.1 5.6 2.5 1.5 6.5 3.5 9 4.6 2.6 1.1 7 2.7 9.9 3.5 2.9 0.8 7.5 1.8 10.2 2.2 2.8 0.4 7.9 0.7 11.4 0.7 3.5 0 8.7-0.3 11.6-0.7 2.8-0.4 7.2-1.3 9.6-1.9 2.5-0.7 6.6-2.1 9.1-3.2 2.6-1.1 6.3-2.8 8.2-3.9 1.9-1 5.2-3.1 7.4-4.6 2.2-1.5 6.6-5.3 9.9-8.6 3.3-3.3 7.2-7.6 8.7-9.6 1.4-2.1 3.3-4.8 4.1-6.2 0.8-1.3 2-3.7 2.7-5.2 0.8-1.5 2.1-4.4 2.9-6.5 0.9-2.1 2.2-6.4 3-9.6 0.8-3.2 1.7-8.2 2.1-11 0.3-2.9 0.4-8 0.2-11.6-0.1-3.5-0.6-8.4-1.1-10.9-0.4-2.4-1.3-6.2-2-8.5-0.6-2.2-2-6.1-3.1-8.6-1.1-2.5-3-6.3-4.3-8.5-1.2-2.2-3.5-5.6-5-7.7-1.5-2-5.2-6.1-8.2-9.1-3.6-3.6-7.4-6.7-10.9-9.1-3-2-7.1-4.4-9.1-5.4-2.1-1.1-5.8-2.7-8.4-3.6-2.6-1-6.8-2.2-9.4-2.8-2.6-0.6-6.4-1.2-8.5-1.5-2.1-0.3-6.4-0.5-9.6-0.5-3.2 0-7.9 0.4-10.5 0.7z"/>
		<path id="Path 4" class="s2" d="m371.4 46c-0.2 3.1-0.3 37.8-0.3 77.1 0 39.4 0.1 72.4 0.3 73.4l0.4 1.9h38.2v-63.7h67.1v63.7c5.8 0 13.9 0 21.7 0 7.9 0 14.9 0 15.5 0h1.1v-157.9h-38.3v61.6h-67.1v-61.6h-38.3zm369.2 73.4v78.9h31.6c0-89.2 0.1-92.7 0.8-92.6 0.5 0 1.4 1.4 2.2 3.3 0.7 1.8 3.4 8.1 5.9 14.1 2.5 5.9 5.5 13 6.8 15.7 1.2 2.8 3.1 6.9 4.2 9.2 1 2.3 2.8 6.1 3.8 8.4 1 2.3 3.8 8.3 6.1 13.3l4.2 9.1 22.8 0.3c3.9-8.3 8.2-17.5 12-25.9 3.9-8.5 8.3-18.3 9.8-22 1.6-3.7 4.6-10.9 6.7-16 2.3-5.3 4.3-9.4 4.6-9.4 0.5 0 0.7 9.1 0.8 46.1 0.1 25.4 0.2 46.2 0.3 46.2 0 0.1 7.1 0.2 15.6 0.3l15.5 0.2 0.3-158.2h-35.3c-17.3 38.4-24.7 55-27.5 61.7-2.8 6.6-7 16.5-9.3 21.8-2.6 6.3-4.4 9.8-4.8 9.7-0.3-0.1-2.9-5.5-5.7-12-2.8-6.5-7.1-16.5-9.6-22.2-2.4-5.7-9.4-21.3-15.5-34.6l-11.1-24.1-35.1-0.3zm190.9 0v79h122.4v-27.7l-86.1-0.2v-33.6l72.5-0.2-0.2-33.3-72.6-0.3 0.3-35.3 86.1-0.2v-27.1h-122.4zm-466.8 101.3c-0.9 0.3-3 1.8-4.6 3.3-2.2 2-3.4 3.7-5 7.1-1.2 2.5-2.8 6.7-3.5 9.4-1.1 4-1.3 6.1-1.4 11.1 0 6 0 6.3 1.5 9.2 1.1 2.1 2 3.2 3.4 4q2 1.1 4.4 1.1c1.5 0 3.4-0.4 4.6-1 1.2-0.5 3-1.9 4.2-3.1 1.1-1.1 2.6-3.3 3.3-4.8 1.1-2.3 1.3-3.3 1.3-7.6 0-3.9-0.2-5.3-1-6.7-0.5-0.9-1.5-2.3-2.3-3.1l-1.4-1.3c2.9-3.3 4.3-5.2 5-6.4 0.7-1.3 1.4-3 1.6-4 0.1-0.9 0.1-2.6-0.2-3.6-0.3-1-1.2-2.4-2-3.1-1.1-0.9-2-1.2-3.8-1.1-1.3 0-3.1 0.3-4.1 0.6zm475.2 0.7c-1.5 0.7-3.5 2.3-4.6 3.5-1.1 1.3-2.8 4-3.9 6.1-1 2.1-2.5 5.8-3.2 8.1-1 3.4-1.3 5.8-1.5 10.8-0.1 3.8 0 7.2 0.3 8.4 0.3 1 1 2.7 1.7 3.7 0.6 0.9 1.9 2.2 2.8 2.8 1.3 0.8 2.4 1.1 4.4 1.1 2.2 0 3.3-0.3 5.5-1.6 1.5-0.9 3.5-2.7 4.5-4.1 1-1.3 2.2-3.4 2.6-4.7 0.5-1.3 0.8-3.9 0.8-6.4-0.1-2.9-0.3-4.8-0.9-6.1-0.5-1.1-1.6-2.5-2.4-3.2-1-0.8-1.3-1.3-0.9-1.7 0.2-0.4 1.4-1.9 2.5-3.3 1.1-1.5 2.4-3.6 2.8-4.7 0.5-1.1 0.9-2.8 0.8-3.8 0-1-0.3-2.5-0.7-3.2-0.4-0.7-1.4-1.7-2.2-2.2-0.8-0.5-2.4-0.9-3.6-0.9-1.3 0-3.1 0.5-4.8 1.4zm-113.8 2.9c-0.3 0.2-0.9 1.2-1.4 2.3-0.4 1-1.4 2.2-2.1 2.7-0.7 0.4-2.2 0.8-3.3 0.8-1.1 0-2.6-0.4-3.4-0.9-0.8-0.4-1.5-1.5-1.7-2.3-0.2-0.9-0.6-1.8-0.9-2-0.2-0.3-1.1-0.4-1.9-0.3-0.9 0.1-1.6 0.5-1.8 1.1-0.2 0.6-0.1 1.7 0.5 2.9 0.4 1.1 1.7 2.7 2.7 3.5 1.7 1.3 2.4 1.5 5.4 1.6 2.5 0.2 4.2 0 6-0.7 1.9-0.7 2.8-1.4 4.1-3.4 0.9-1.3 1.6-2.9 1.6-3.4 0-0.6-0.3-1.3-0.7-1.6-0.3-0.4-1-0.6-1.6-0.6-0.5 0-1.2 0.1-1.5 0.3zm-221.6 10.9c-0.8 0.8-2.9 4.5-4.9 8.3-1.9 3.8-4.1 8.4-4.9 10.2-0.8 1.8-1.6 3.3-1.8 3.3-0.2 0-0.6-1-0.9-2.3-0.3-1.3-1-4.8-1.5-7.8-0.5-3-1.1-6.3-1.4-7.3-0.3-1-1-2.2-1.6-2.6-0.8-0.5-1.6-0.6-2.8-0.3-1 0.2-1.9 0.7-2.1 1.3-0.2 0.6-1 3-1.7 5.5-0.7 2.4-2.6 7.2-4.2 10.6-1.7 3.4-3.5 6.8-4.2 7.7-0.7 0.9-1.2 2-1.2 2.5 0 0.5 0.4 1.2 0.9 1.7 0.4 0.5 1.4 0.9 2.2 0.9 1 0 1.7-0.5 3.1-2.4 0.9-1.2 2.5-4.3 3.6-6.7 1-2.5 2.2-5.6 2.6-7.1 0.4-1.4 0.8-2.6 1-2.6 0.3 0 0.5 0.9 0.7 1.9 0.1 1 0.6 3.5 1 5.5 0.4 2.1 0.9 4.5 1.2 5.5 0.2 0.9 0.9 2.3 1.4 3.1 0.8 0.9 1.5 1.3 2.7 1.3 0.8 0 2.1-0.3 2.7-0.8 0.6-0.5 3.2-5.4 5.8-10.8 2.6-5.4 4.8-9.9 5-10 0.2 0 0.4 3.2 0.4 7.2 0 4 0.2 8.6 0.4 10.2 0.3 2.1 0.8 3.3 1.6 4.1 0.7 0.6 1.8 1.1 2.5 1.1 0.7 0 1.7-0.5 2.4-1.1 1-1 1.1-1.4 0.7-2.9-0.2-0.9-0.8-2.9-1.2-4.4-0.5-1.6-0.9-5.5-1-9.9-0.2-3.9-0.4-8.3-0.5-9.7-0.2-2-0.5-2.8-1.3-3.3-0.6-0.4-1.6-0.8-2.2-1-0.9-0.3-1.5 0-2.5 1.1zm153.6 0.5c-1.2 0.7-1.7 1.6-2.6 4.6-0.6 2-1.4 4.8-1.7 6.1-0.3 1.4-0.6 4.7-0.6 7.4 0 2.8 0.2 5.7 0.5 6.7 0.4 0.9 1.3 2.3 2 3.1 1.3 1.3 1.6 1.4 4.6 1.2 2.2-0.1 4-0.6 5.9-1.5 1.5-0.7 4.2-2.6 5.9-4.2 2-1.7 3.7-3.9 4.4-5.3q1.2-2.5 1.2-5.3c0.1-2.5 0-2.9-1.6-4.5-1-1-2.6-2-3.7-2.3-1.6-0.5-2.6-0.4-4.7 0.2-1.7 0.5-3.6 1.5-5.1 2.8-1.3 1.1-2.4 2-2.6 2-0.1 0 0.3-1.9 1-4.1 0.7-2.3 1.3-4.6 1.3-5.3 0-0.7-0.3-1.5-0.7-1.9-0.3-0.3-0.9-0.6-1.3-0.6-0.4 0-1.4 0.4-2.2 0.9zm-265.4 0.4c-0.7 0.4-1.4 1.2-1.5 1.8-0.1 0.6-0.5 5.1-0.8 10-0.3 4.9-0.9 11-1.2 13.6-0.4 2.5-1.3 7.4-2 10.7-0.7 3.3-1.3 6.7-1.3 7.5 0 1.1 0.4 1.7 1.4 2.3 0.7 0.4 1.8 0.7 2.3 0.5 0.6-0.1 1.4-0.9 1.9-1.6 0.4-0.8 1.1-3.9 1.6-7.1 0.4-3.1 0.9-6.7 1.1-8 0.2-1.3 0.5-2.4 0.6-2.4 0.2 0 0.6 0.3 1 0.8 0.5 0.5 1.6 0.8 3.2 0.7 1.7 0 3.4-0.4 5.4-1.4 1.9-0.9 4.2-2.7 6.3-4.8 2.2-2.3 3.8-4.5 4.9-6.9 1.3-2.7 1.7-4.2 1.8-7.1 0.2-3.1 0-4-0.8-5.3-0.6-0.9-1.7-2-2.4-2.5-0.8-0.4-2.3-0.8-3.3-0.8-1.2 0-3.1 0.6-4.7 1.5-1.4 0.8-3.9 2.8-5.5 4.5-1.6 1.7-2.9 3.3-2.9 3.6 0 0.2-0.2 0.5-0.4 0.5-0.2 0-0.3-2-0.2-4.4 0.2-3.9 0.1-4.4-0.8-5.4-0.6-0.6-1.4-1.1-1.7-1.1-0.3 0-1.2 0.4-2 0.8zm-109.6 0.4c-0.9 0.3-2.4 1.4-3.4 2.3-1.1 0.9-3 3.2-4.3 5.1-1.2 1.9-2.8 4.8-3.4 6.5-0.8 2-1.2 4-1.2 6.4-0.1 2.6 0.2 3.8 0.9 5.1 0.6 0.9 1.6 2.1 2.4 2.7 1.1 0.9 2.1 1.1 5.2 1 3 0 4.3-0.2 6.5-1.2 1.5-0.7 3.8-2.3 5.1-3.5q2.3-2.2 2.2-3.1c-0.1-0.6-0.6-1.1-1.3-1.1-0.6-0.1-2.4 0.6-3.9 1.6-2.3 1.4-3.5 1.8-6.3 2-3.4 0.3-3.5 0.3-4.4-1.1-0.9-1.3-0.9-1.8-0.5-4.2 0.3-1.4 1.3-4.2 2.2-6.1 0.9-1.9 2.6-4.4 3.8-5.7 1.7-1.8 2.1-2.1 2.7-1.6 0.3 0.4 1 1.7 1.4 3 0.6 2 0.9 2.3 2.2 2.5 1 0.1 1.7-0.2 2.1-0.8 0.3-0.5 0.6-1.8 0.6-3 0-1.1-0.4-3-1-4-0.5-1.1-1.5-2.4-2.1-2.8-0.6-0.4-1.8-0.7-2.6-0.7-0.8 0-2.1 0.3-2.9 0.7zm161.3 0.5c-1.4 0.6-3.6 2.3-5 3.9-1.5 1.5-3.4 4.3-4.2 6.1-1.3 2.6-1.7 4.2-1.8 7.1-0.1 2 0.1 4.5 0.4 5.5 0.3 1 1.1 2.5 1.9 3.4 0.7 0.8 2.3 1.8 3.5 2.3 1.6 0.5 3 0.7 4.7 0.4 1.4-0.2 3.6-0.8 5-1.4 1.3-0.7 3.4-2 4.6-3.1 1.2-1.1 2.5-2.6 2.9-3.4 0.4-0.9 0.6-2 0.4-2.6-0.2-0.6-0.6-1.1-1-1.1-0.4 0-1.8 0.9-3.1 2-1.3 1.1-3.3 2.5-4.3 3-1.1 0.5-3 1.1-4.2 1.2-1.9 0.2-2.4 0.1-3.6-1-0.8-0.7-1.4-1.7-1.4-2.2 0-0.6 0.9-1.1 3.4-1.9 1.8-0.6 4.5-1.9 6-3 1.5-1 3.4-2.8 4.3-3.9 0.9-1.2 1.9-3.1 2.2-4.2 0.4-1.6 0.4-2.6 0-4-0.3-1-1.2-2.4-2.1-3.1-1.1-0.9-2-1.2-3.8-1.2-1.4 0-3.3 0.5-4.8 1.2zm95.5 0.2c-1.5 0.7-3.7 2.4-4.9 3.8-1.2 1.3-3 4.1-3.9 6.2-1.6 3.3-1.8 4.1-1.8 7.8 0 3.3 0.2 4.7 1 6.2 0.5 1 1.7 2.4 2.7 3.1 0.9 0.6 2.7 1.2 3.9 1.4 1.4 0.2 3.2 0.1 4.7-0.3 1.4-0.3 3.4-1.1 4.5-1.7 1-0.6 3-2.3 4.3-3.7 1.9-2 2.3-2.8 2.2-4.1-0.1-0.9-0.4-1.7-0.9-1.7-0.4-0.1-2 0.9-3.7 2.3-1.8 1.6-3.9 2.8-5.4 3.2-1.4 0.5-2.9 0.8-3.5 0.8-0.5 0-1.5-0.4-2.3-1-0.8-0.6-1.4-1.5-1.4-2.2 0-1.1 0.4-1.4 2.6-2.1 1.5-0.4 3.5-1.2 4.6-1.8 1.1-0.5 3.1-2 4.4-3.2 1.3-1.3 2.8-3.2 3.3-4.3 0.5-1.1 0.9-2.8 0.9-3.8 0-1-0.3-2.5-0.7-3.2-0.4-0.8-1.4-1.8-2.2-2.2-0.8-0.5-2.4-0.9-3.6-0.9-1.3 0-3.1 0.5-4.8 1.4zm142.3-0.6c-0.4 0.4-0.8 0.8-0.7 0.8 0 0.1-0.7 4.1-1.5 9-0.8 4.9-1.5 10.3-1.5 12 0 1.7 0.3 3.6 0.5 4.3 0.3 0.7 1.1 1.4 1.9 1.5 0.8 0.2 1.8 0.1 2.6-0.3 1.2-0.7 1.2-0.9 1.2-6.7 0.1-4.3 0.4-7.1 1.2-10.8 0.7-2.7 1.3-5.9 1.4-7.1 0.2-1.8 0-2.4-0.7-2.9-0.5-0.3-1.5-0.6-2.2-0.6-0.8 0-1.7 0.4-2.2 0.8zm117.8 0.1c-1 0.4-3 2.3-4.6 4-1.9 2.1-3.7 4.8-5 7.4-1.7 3.5-2.1 4.9-2.2 7.9-0.2 3-0.1 4.1 0.7 5.7 0.5 1 1.6 2.3 2.4 2.9 1 0.7 2.4 1.1 4.7 1.2 2.2 0.1 3.9-0.1 5.4-0.7 1.2-0.4 3.3-1.5 4.7-2.4 1.3-0.9 2.9-2.4 3.5-3.3 0.6-0.9 1-1.9 0.9-2.3-0.1-0.3-0.7-0.6-1.2-0.6-0.5 0-2.7 0.9-4.7 2-2.9 1.6-4.2 2-6.3 2-2 0-2.8-0.2-3.6-1-0.8-0.9-0.9-1.5-0.7-3.9 0.2-1.8 1-4.2 2.3-6.7 1-2.2 2.7-4.8 3.7-5.8 1.1-1 2.2-1.8 2.5-1.7 0.4 0.1 0.9 1.1 1.3 2.3 0.3 1.2 0.9 2.5 1.2 2.9 0.3 0.3 1.1 0.6 1.8 0.5 0.7-0.1 1.5-0.7 1.9-1.4 0.5-0.9 0.6-2 0.4-3.6-0.2-1.8-0.7-2.8-2.1-4.3-1.6-1.7-2.2-2-3.6-2-1 0-2.5 0.4-3.4 0.9zm75.4 0.2c-1.2 0.5-3.3 2.1-4.7 3.5-1.3 1.4-3.1 3.9-4 5.5-0.8 1.7-1.8 4.3-2.1 5.9-0.4 1.7-0.5 4-0.4 5.2 0.1 1.2 0.6 3 1 3.8 0.5 0.9 1.5 2.2 2.2 2.9 0.7 0.6 2.2 1.4 3.3 1.7 1.2 0.4 3 0.5 4.5 0.3 1.3-0.2 3.5-0.9 4.9-1.5 1.4-0.7 3.2-1.9 4.2-2.6 0.9-0.8 2.2-2.4 2.8-3.6 0.8-1.6 1-2.5 0.6-3.1-0.2-0.5-0.8-0.8-1.2-0.8-0.4 0-2 1.1-3.6 2.4-1.5 1.4-3.8 2.9-5 3.3-1.2 0.4-2.8 0.7-3.5 0.7-0.6 0-1.8-0.4-2.6-1-0.7-0.6-1.3-1.5-1.3-2.1 0-0.9 0.4-1.3 2.1-1.8 1.1-0.4 3.4-1.3 4.9-2.1 1.6-0.8 3.7-2.3 4.8-3.4 1.1-1.1 2.4-2.9 3-4.1 0.5-1.1 1-2.9 1-3.9 0-1-0.4-2.5-0.8-3.3-0.4-0.9-1.4-1.8-2.2-2.3-0.8-0.4-2.4-0.7-3.6-0.7-1.1 0-3.1 0.5-4.3 1.1zm-286.1 0.3c-0.5 0.4-1.1 2-1.5 3.4-0.3 1.4-0.5 3.4-0.5 4.5 0 1-0.3 2.1-0.6 2.4-0.4 0.3-2.6 0.7-4.9 0.9-2.3 0.2-4.6 0.4-5 0.5-0.8 0.2-0.9-0.1-0.9-2.1 0-1.3 0.2-3.7 0.5-5.4 0.4-2.4 0.3-3.3-0.1-3.9-0.4-0.4-1.3-0.7-2.1-0.7-0.9 0-1.9 0.4-2.6 1.1-0.9 1-1.1 2.1-1.6 8.3-0.3 3.9-0.7 8.5-1 10.1-0.3 1.6-0.5 4.1-0.5 5.5 0 2.2 0.2 2.7 1.1 3.2 0.6 0.3 1.7 0.4 2.5 0.2 0.7-0.1 1.6-0.8 1.9-1.4 0.3-0.6 0.8-3 1-5.3 0.2-2.3 0.6-4.4 0.9-4.7 0.3-0.3 2.9-0.6 5.7-0.7l5.2-0.3c0 5.4 0.3 7.8 0.7 8.9 0.4 1.1 1.1 2.4 1.6 2.9 0.5 0.4 1.5 0.8 2.4 0.8 0.8 0 2-0.4 2.7-1 1-0.8 1.1-1.1 0.6-1.8-0.3-0.5-1-1.6-1.5-2.4-0.7-1.2-0.9-2.6-0.8-7.6 0-4.8 0.3-7.1 1.1-10 0.6-2.1 1.1-4.1 1.1-4.3 0-0.3-0.4-0.9-0.8-1.3-0.4-0.4-1.4-0.7-2.2-0.7-0.8 0-1.9 0.4-2.4 0.9zm42.2 0.2c-0.8 0.7-1.3 2-1.5 3.6-0.2 1.3-0.5 3.5-0.7 4.7l-0.4 2.2c-8.2 0.8-10.7 0.9-10.8 0.7-0.1-0.1 0.1-2.4 0.3-5.1 0.3-2.8 0.4-5.4 0.3-5.8q-0.4-0.9-2-0.9c-0.8 0-2.1 0.3-2.7 0.8-1 0.8-1.2 1.7-1.9 9.3-0.4 4.6-0.8 10.4-1 13-0.1 4.3-0.1 4.5 1 5.1 0.6 0.3 1.6 0.4 2.3 0.3 0.7-0.2 1.5-0.9 1.8-1.7 0.3-0.8 0.7-3.1 0.9-5.1 0.2-2.3 0.6-4 1-4.4 0.6-0.6 2.2-0.8 5.6-1l4.8-0.1c0.6 6 1.2 8.7 1.7 9.8 0.7 1.5 1.3 2.2 2.3 2.4 0.8 0.2 1.9 0.1 2.6-0.1 0.6-0.2 1.4-0.8 1.7-1.3 0.4-0.6 0.4-1.1-0.1-1.7-0.3-0.5-1-1.7-1.4-2.6-0.5-1.2-0.8-3.1-0.8-6.2 0.1-2.4 0.4-6.1 0.9-8.1 0.4-2.1 0.9-4.6 1-5.7 0.3-1.6 0.1-2.1-0.6-2.6-0.5-0.3-1.4-0.6-2.1-0.6-0.6 0-1.6 0.5-2.2 1.1zm275.4-0.5c-0.7 0.5-1 1.8-1.4 5.8-0.3 2.9-0.7 8.1-1 11.6-0.3 3.5-0.4 7.1-0.2 7.9 0.2 0.8 0.7 1.9 1.1 2.4 0.5 0.5 1.5 0.8 2.5 0.8 1.4 0 1.7-0.2 2.5-2.3 0.6-1.3 1.6-3.5 2.3-4.8 0.7-1.4 2.9-4.9 4.8-7.8 2-3 3.8-5.3 4.2-5.3 0.3 0 0.7 0.5 0.8 1.1 0.2 0.6 0.3 2.4 0.3 4.1 0 1.6 0.2 4.6 0.5 6.6 0.3 3.1 0.6 3.9 1.7 4.8 0.7 0.6 1.8 1.1 2.5 1.1 0.7 0 2-0.7 3-1.6q1.8-1.6 5.4-8.8c2.9-5.8 3.9-7.3 4.6-7.3 0.6 0 1 0.3 1 0.6 0 0.3 0.3 2.6 0.5 5.1 0.3 2.4 0.8 5.7 1.1 7.3q0.7 3 2 4.3c0.9 1 1.9 1.4 3 1.4 0.9 0.1 2.2-0.4 2.9-0.9 0.8-0.6 1.4-1.4 1.4-1.9 0-0.5-0.7-1.5-1.5-2.4-0.8-0.8-1.7-2.3-1.9-3.4-0.3-1.1-0.7-4-1-6.4-0.3-2.5-0.8-5.3-1.1-6.3-0.2-1-1-2.4-1.7-3.1-0.8-0.8-1.7-1.2-2.9-1.2-1 0-2.4 0.3-3.2 0.7-0.8 0.4-2.1 1.7-2.9 2.8-0.8 1.2-2.6 4.4-4 7.2-1.4 2.8-2.7 5.1-2.9 5.1-0.2 0-0.5-0.7-0.7-1.6-0.2-0.9-0.4-3.2-0.4-5.1 0-1.9-0.2-4.2-0.5-5.2-0.3-0.9-1-2.2-1.6-2.8q-1.1-1.2-2.8-1.1c-1 0-2.5 0.4-3.4 1-0.8 0.5-2.5 2.1-3.6 3.5-1.1 1.5-2.9 4.3-3.9 6.4-1.1 2.2-2.1 3.8-2.2 3.7-0.2 0 0.1-2.1 0.6-4.5 0.4-2.5 0.8-5.7 0.9-7.3q0-2.8-0.8-3.5c-0.4-0.4-1.3-0.9-1.9-1-0.7-0.2-1.6-0.1-2.1 0.3zm-586.6 0.6c-0.9 0.3-2.8 1.5-4.2 2.8-1.3 1.2-3.2 3.7-4.1 5.4-1 1.8-2 4.3-2.4 5.6-0.3 1.4-0.6 3.4-0.6 4.5 0 1.1 0.2 2.7 0.5 3.7 0.4 0.9 1.1 2.3 1.7 3.1 0.5 0.8 2 1.8 3.2 2.4 1.7 0.8 2.7 1 4.3 0.7 1.2-0.1 3.4-0.9 4.9-1.6 1.5-0.8 3.8-2.5 5.2-4 1.3-1.4 3-3.9 3.7-5.4 1.1-2.4 1.4-3.5 1.4-6.8 0-3.6-0.2-4.3-1.5-6.5-1-1.6-2.2-2.7-3.7-3.5-1.4-0.7-3-1.1-4.4-1.1-1.3 0.1-3 0.3-4 0.7zm386.9 0.6c-0.4 0.5-1 2-1.2 3.4-0.2 1.3-0.8 4.1-1.3 6.1-0.5 2.1-1.1 5.3-1.3 7.2-0.3 2.9-0.2 3.8 0.7 5.8 0.7 1.4 1.7 2.7 2.7 3.3 0.9 0.6 2.1 1 2.8 1 0.7 0 2.1-0.4 3.2-0.9 1.1-0.5 2.8-1.6 3.7-2.3 0.9-0.8 2.3-2.6 3.2-3.9l1.5-2.4c0.9 5.3 1.5 7.5 1.9 8.4 0.5 0.9 1.3 1.7 1.8 1.9 0.6 0.1 1.8-0.2 2.7-0.7 1-0.4 1.8-1.2 1.8-1.6 0-0.4-0.5-1.1-1-1.7-0.6-0.5-1.3-2.2-1.6-3.7-0.3-1.6-0.4-4.2-0.2-6.4 0.2-2 0.7-5.2 1.1-6.9 0.6-2.5 0.7-3.5 0.2-4.3q-0.5-1.1-1.9-1.2c-0.7 0-1.7 0.4-2.2 0.9-0.5 0.5-1.4 2.5-2 4.6-0.6 2-1.6 4.6-2.2 5.7-0.5 1-2.2 3.3-3.7 4.9-1.4 1.6-3.4 3.3-4.3 3.7-1.5 0.7-1.6 0.7-2.3-0.3-0.4-0.5-0.7-1.3-0.7-1.8 0-0.5 0.4-2.6 0.8-4.7 0.4-2.1 1.2-5 1.7-6.5 0.5-1.5 1-3.5 1.2-4.3 0.2-1.3 0-1.9-1-2.9-0.6-0.7-1.6-1.2-2.2-1.2-0.5 0-1.4 0.4-1.9 0.8z"/>
		<path id="Path 5" class="s0" d="m623.9 64.8c-0.9 0.6-4.1 3.3-7.2 6.1-3.1 2.8-5.8 5.1-6 5.1-0.2 0-0.3-1.5-0.3-3.2 0-2.9-0.2-3.4-1.5-4.7-1-1-2-1.5-3-1.5-1.1 0-2 0.5-3 1.5l-1.4 1.5v14.5c-3.6 3.5-8.3 7.6-12.6 11.4-4.3 3.8-8.8 7.8-9.9 8.9-1.2 1-2.3 2.6-2.4 3.4-0.3 1.1-0.1 1.8 0.6 2.7 0.5 0.7 1.5 1.6 2.1 2 1 0.6 1.4 0.6 2.9 0 1-0.4 3.2-2.1 4.9-3.7 1.7-1.6 3.2-2.9 3.3-2.7 0.1 0.1 0.3 11.7 0.3 25.6l0.2 25.5c2 3 3.4 4.3 4.4 4.8 1.6 0.8 4.1 0.8 31.3 0.8 27.2 0 29.8 0 31.4-0.8 1.1-0.6 2.3-1.7 3-3l1.2-2.1c0-45.4 0.1-50.8 0.6-50.8 0.3 0 2 1.3 3.7 3 1.7 1.6 3.7 3.1 4.4 3.4 1 0.4 1.8 0.4 2.9 0 0.8-0.3 1.7-0.9 2-1.4 0.4-0.4 0.7-1.6 0.7-2.5 0-1-0.4-2.2-0.9-2.8-0.5-0.6-2.9-2.9-5.5-5.2-2.5-2.3-5.5-4.9-6.7-5.9-1.1-0.9-5-4.4-8.7-7.6-3.6-3.3-7.4-6.6-8.4-7.4-0.9-0.8-4.6-4-8.1-7.2-3.5-3.1-7.2-6.4-8.2-7.2-1.1-1-2.4-1.7-3.2-1.7-0.8 0-2.1 0.5-2.9 1.2zm-159.8 162.7c-1 1.1-2.3 3-3 4.3-0.6 1.3-1.6 3.6-2.2 5.2-0.5 1.5-0.9 3.1-0.9 3.4 0.1 0.4 2.4-1.6 5.1-4.3 3.9-3.9 5.1-5.4 5.6-7 0.3-1.2 0.4-2.5 0.3-2.9-0.1-0.4-0.8-0.7-1.7-0.7-1 0-1.9 0.5-3.2 2zm476.5-0.2c-1 1-2.7 3.9-3.9 6.3-1.1 2.5-2.2 5-2.3 5.6-0.2 0.6-0.1 1.1 0.1 1.1 0.3 0 2.3-1.5 4.4-3.4 2.3-2.1 4.3-4.4 5.1-5.9 0.8-1.4 1.3-3.2 1.3-3.9-0.1-1.1-0.4-1.4-1.5-1.5-1.1-0.1-1.8 0.2-3.2 1.7zm-393.4 13.8c-0.4 0.2-1.6 1.1-2.6 2.1-1.1 1-2.6 3.1-3.4 4.6-0.8 1.6-1.3 3-1.1 3.2 0.1 0.2 1.1 0 2.3-0.4 1.1-0.5 2.9-1.5 3.9-2.3 1-0.7 2.2-2 2.8-2.8 0.6-0.8 1.1-2 1.1-2.6 0-0.6-0.5-1.3-1-1.6-0.6-0.3-1.1-0.5-1.1-0.5-0.1 0-0.5 0.2-0.9 0.3zm95.3 0.4c-1 0.4-2.5 1.7-3.5 3.1-1 1.3-2.1 3.2-2.4 4.3-0.4 1.1-0.5 2.1-0.4 2.1 0.2 0.1 1.4-0.2 2.6-0.7 1.4-0.5 3.4-1.9 4.7-3.2 1.8-1.8 2.4-2.8 2.5-4 0.1-1.3-0.1-1.8-0.7-2-0.5-0.2-0.9-0.3-1-0.3-0.1 0-0.9 0.3-1.8 0.7zm335.1 0c-0.9 0.3-2.3 1.5-3.1 2.6-0.7 1-1.9 2.9-2.5 4.2-0.7 1.3-1 2.4-0.8 2.6 0.2 0.1 1.4-0.1 2.7-0.6 1.2-0.5 3.3-1.9 4.6-3.1 1.9-1.8 2.4-2.6 2.5-4 0.1-1.3-0.1-1.9-0.7-2.1-0.5-0.2-0.9-0.3-1-0.3-0.1 0-0.8 0.3-1.7 0.7zm-470.3 1.4c-1.2 0.6-3.1 2.1-4.2 3.3-1 1.2-2.8 3.6-3.8 5.2-1.1 1.6-2.1 3.6-2.2 4.4-0.2 0.9-0.2 2 0 2.6 0.1 0.6 0.8 1.3 1.4 1.4 0.6 0.2 1.9 0.1 2.8-0.2 1-0.3 2.3-1.1 3-1.7 0.7-0.6 2-2.1 3-3.3 1-1.2 2.3-3.2 2.8-4.4 0.6-1.3 1.1-3.3 1.2-4.5 0.1-1.5-0.1-2.6-0.6-3.1-0.4-0.5-0.9-0.9-1-0.8-0.1 0-1.2 0.5-2.4 1.1zm-86.9 0.7c-0.9 0.8-2.3 2.9-3.3 4.8-1.4 2.9-1.7 4-1.7 6.7 0 2 0.3 3.6 0.8 4.3 0.4 0.6 1.2 1.1 1.9 1.1 0.6 0 1.9-0.4 3-0.9 1.1-0.5 2.6-1.6 3.3-2.3 0.7-0.8 1.9-2.5 2.5-3.7 0.8-1.6 1.1-3 1.1-5.2 0-2.4-0.2-3.4-1-4.5-0.8-1-1.5-1.4-3-1.5-1.6-0.2-2.3 0.1-3.6 1.2zm39.7 1.4c-1.6 1.2-3.2 2.6-3.6 3.1-0.3 0.5-0.6 2.1-0.6 3.8 0.1 1.6 0.4 4.1 0.9 5.4q0.8 2.5 2.1 3.1c1 0.4 1.5 0.4 2.9-0.2 1-0.4 2.1-1.2 2.6-1.8 0.5-0.6 1.2-2.1 1.6-3.3 0.4-1.2 0.8-3.6 0.8-5.2 0-1.9-0.4-3.7-1-5-0.6-1.4-1.3-2.1-1.9-2.1-0.5 0-2.2 1-3.8 2.2zm476.9-0.5c-1.2 1-2.7 2.2-3.3 2.7-1 0.9-1.1 1.4-1 5.6 0.1 3.9 0.3 4.9 1.1 6.1 0.8 0.9 1.6 1.4 2.8 1.5 1 0.1 2.1-0.1 2.9-0.7 0.7-0.6 1.7-2.1 2.4-3.4 0.9-1.9 1.2-3.3 1.2-6.1 0-2.9-0.2-4.1-1-5.5-0.5-0.9-1.4-1.7-1.9-1.8-0.5-0.1-2 0.7-3.2 1.6zm-172.2 3.6c-0.9 0.5-2.6 1.9-3.6 3.1-1.6 1.9-1.8 2.5-1.8 4.5 0 1.3 0.1 2.7 0.2 3.1 0.2 0.5 0.9 0.7 1.9 0.7 0.9 0 2.7-0.6 4-1.4 1.4-0.8 3.2-2.2 4.1-3.2 1-1 1.7-2.5 1.9-3.6 0.2-1.3 0-2.2-0.5-3-0.6-0.8-1.2-1.1-2.6-1.1-1 0-2.6 0.5-3.6 0.9z"/>
	</g>
</svg>