<svg version="1.2" xmlns="http://www.w3.org/2000/svg" viewBox="0 0 300 300" width="300" height="300">
	<title>pravtest-svg</title>
	<style>
		.s0 { fill: #ffffff } 
		.s1 { fill: #392414 } 
		.s2 { fill: #ed1921 } 
		.s3 { fill: #fff230 } 
	</style>
	<g id="Background">
		<path id="Path 0" class="s0" d="m0 150v150h300v-300h-300z"/>
		<path id="Path 1" class="s1" d="m194.6 235.1c-0.3 0-1.8 0.3-3.3 0.6-1.5 0.3-3.9 0.8-5.3 1.2-1.4 0.3-4.8 1.1-7.5 1.7-4.9 1-4.9 1-12.1 1.2-6.9 0.1-7.3 0.2-8.2 0.7-0.5 0.3-1.5 0.7-2.3 0.9-0.8 0.1-2.3 0.7-3.4 1.2-1 0.6-2.3 1.4-2.9 1.8-0.5 0.4-1.6 1.5-2.4 2.4-1.2 1.3-1.9 2.5-3.2 5.4-1.4 3.2-1.6 3.9-1.5 4.8 0.1 0.5 0.3 1.5 0.5 2 0.2 0.6 1 1.6 2.1 2.7 1 0.9 2.5 2.1 3.4 2.8 1.1 0.8 2.4 1.4 4.4 2.1l2.9 0.9c9.2 0.2 12.8 0.1 14.6-0.1 1.6-0.1 3.6-0.5 4.5-0.8 0.8-0.3 2.1-0.8 2.7-1.1 0.6-0.4 2.9-1.8 5.1-3.1 3.7-2.2 4.1-2.5 6.1-4.8 1.2-1.3 3.1-3.3 4.4-4.4 1.3-1.1 3.7-3.6 5.5-5.8 2.5-2.9 3.5-4.4 4.3-6q0.9-2.1 0.9-3.2c0-0.7-0.2-1.4-0.5-1.9-0.3-0.4-0.7-0.9-1.1-1.1-0.3-0.2-1.7-0.3-3.8-0.3-1.8 0-3.5 0.1-3.9 0.2z"/>
		<path id="Path 2" class="s2" d="m194.9 238.6c-1.1 0.4-3 1-4.4 1.3-1.3 0.3-3 0.7-3.7 0.9-0.7 0.3-3.2 0.8-5.6 1.3-2.3 0.4-5.1 1-6.2 1.2-1.3 0.4-2.9 0.5-4.9 0.5-1.6-0.1-3.8-0.2-4.8-0.3-1.4-0.1-2.4 0-4.5 0.4-1.5 0.3-3.2 0.8-3.8 1.1-0.5 0.3-1.7 0.9-2.5 1.3-0.9 0.5-2.5 1.8-3.9 3.2-1.3 1.3-2.7 2.9-3.2 3.6-0.8 1.1-0.9 1.5-0.9 2.7 0 0.9 0.1 1.7 0.3 2 0.3 0.3 0.9 1.2 1.5 1.9 0.8 1.1 1.4 1.5 2.3 1.9 0.7 0.3 2.1 0.8 3.1 1.1 1.3 0.5 2.8 0.8 5.2 1 1.8 0.1 4.7 0.2 6.3 0.2 1.6 0 4.2-0.2 5.7-0.3 1.6-0.2 3.3-0.6 4.2-0.9 0.9-0.4 2.2-0.9 3-1.1 0.8-0.3 2-0.9 2.7-1.4 0.6-0.5 2.8-2.3 4.7-4.1 2-1.7 4.4-3.9 5.3-4.9 0.9-0.9 2.6-2.8 3.7-4.1 1.2-1.3 2.5-2.9 3.1-3.6 0.6-0.7 1.4-1.8 1.9-2.5 0.4-0.7 0.8-1.6 0.8-2 0-0.3-0.1-0.8-0.3-1-0.2-0.1-0.9-0.3-1.7-0.3-1.1 0-2 0.3-3.4 0.9z"/>
		<path id="Path 3" class="s1" d="m228.4 232.7c-0.2 0-0.8 0.2-1.3 0.3-0.6 0.2-1.9 1-3 1.8-1.1 0.9-2.2 1.8-2.5 2.2-0.3 0.3-1.3 1.9-2.2 3.4-0.9 1.6-2 3.6-2.4 4.6-0.5 0.9-1.1 2.2-1.3 2.9-0.3 0.7-0.9 2.2-1.4 3.3-0.6 1-1.7 3.1-2.7 4.6-0.9 1.5-1.9 3.6-2.3 4.8-0.4 1.1-0.8 2.6-1 3.2-0.1 0.7-0.4 2.5-0.6 4l-0.4 2.9c1.2 4 2 6 2.5 6.9 0.5 1 1.2 2.3 1.5 2.9 0.4 0.7 0.9 1.2 1.7 1.6 0.6 0.3 1.7 1 2.4 1.5 1 0.6 1.8 0.9 3.2 1.1 1.8 0.3 1.9 0.3 3.9-0.5 1.1-0.5 2.2-1 2.5-1.2 0.3-0.2 2.2-1.9 4.3-3.9 2.7-2.6 4.6-4.7 6.8-7.5l3-4c2.3-7.1 2.8-9.1 2.8-9.9 0-0.7-0.2-3.6-0.5-6.4-0.3-3.4-0.7-6.1-1.1-7.8-0.4-1.4-0.9-2.8-1.2-3.2-0.2-0.3-0.7-1.2-1.1-1.9-0.4-0.7-1.2-1.8-1.8-2.5-0.6-0.6-1.8-1.6-2.6-2.1-1.2-0.9-1.6-1-3.2-1.1-1-0.1-1.9-0.1-2 0z"/>
		<path id="Path 4" class="s2" d="m227.3 236.9c-0.5 0.4-1.5 1.3-2.1 2-0.7 0.7-1.4 1.7-1.6 2.3-0.3 0.6-0.6 1.2-0.9 1.4-0.2 0.2-0.7 1.1-1.1 2-0.4 1-0.9 2.1-1.1 2.4-0.3 0.4-0.7 1.4-1.1 2.4-0.3 0.9-0.9 2.2-1.3 2.9-0.3 0.7-0.8 1.8-1 2.4-0.2 0.5-0.9 1.9-1.7 3.1-0.7 1.1-1.5 2.2-1.7 2.4-0.3 0.2-0.7 1-0.9 1.7-0.2 0.7-0.7 1.9-1.1 2.6-0.5 1-0.6 1.7-0.7 3.6-0.1 1.8 0 2.6 0.4 3.9 0.3 0.8 0.8 2.3 1.1 3.2 0.4 0.9 1.2 2.5 2 3.5 0.8 1 1.8 2.1 2.2 2.4 0.7 0.5 1.1 0.6 2.3 0.5 1-0.1 1.7-0.3 2.5-0.9 0.6-0.4 1.6-1 2.2-1.3 0.6-0.3 1.3-0.9 1.7-1.2 0.4-0.3 1.2-1 1.8-1.4 0.6-0.4 1.9-1.6 2.9-2.7 0.9-1 2.2-2.5 2.8-3.3 0.5-0.8 1.3-2 1.6-2.7 0.3-0.7 0.9-1.8 1.3-2.3 0.4-0.6 0.7-1.3 0.7-1.6 0-0.3 0.4-1.4 0.9-2.6 0.5-1.1 1-2.8 1.2-3.7 0.1-0.9 0.2-2.4 0.2-3.2 0-0.9-0.2-2.5-0.5-3.7-0.3-1.1-0.8-3.4-1.2-5-0.3-1.6-0.8-3.4-1.1-3.9-0.3-0.5-0.9-1.5-1.4-2.3-0.5-0.8-1.6-1.9-2.4-2.5-1.3-1-1.7-1.1-2.7-1.1-0.8 0-1.4 0.2-2.2 0.7z"/>
		<path id="Path 5" class="s1" d="m214.3 20.3c-0.9 0.2-2 0.5-2.3 0.6-0.3 0.2-1.3 0.5-2.2 0.7-1 0.2-2 0.4-2.4 0.4-0.4 0-1.4 0.1-2.3 0.4-0.8 0.2-2.1 0.6-2.8 0.9-0.7 0.3-2.1 0.6-3 0.8-0.9 0.1-2.3 0.5-3.1 0.9-0.8 0.3-1.6 0.6-1.8 0.6-0.2 0-1.2-0.9-2.2-1.9-1.3-1.4-2.2-2.2-3.4-2.7-1.4-0.6-1.7-0.7-3.6-0.5-1.3 0-2.7 0.3-3.9 0.8-1 0.3-2.6 0.8-3.7 1-1.1 0.2-2.6 0.7-3.4 1.1-0.8 0.3-1.6 0.6-1.7 0.6-0.1 0-0.8 0.2-1.6 0.5-0.8 0.2-2.1 1-3 1.6-0.9 0.7-2 1.7-2.5 2.3-0.6 0.6-1.2 1.4-1.4 1.9-0.3 0.7-0.4 1.2-0.2 2.9 0.2 2 0.1 2.1-0.6 2.9-0.6 0.7-1.1 1-2.7 1.3-1 0.3-2.4 0.8-2.9 1.2-0.6 0.4-1.6 0.9-2.4 1.1-0.7 0.2-1.6 0.7-2 1-0.5 0.3-1.5 1-2.4 1.4-0.8 0.4-1.9 1.1-2.4 1.4-0.5 0.4-1.8 1.3-2.8 2.2-1.1 0.8-2.5 2.1-3.2 2.9-0.8 0.8-1.6 1.9-1.9 2.4-0.4 0.9-0.4 1.2-0.2 2 0.2 0.5 0.6 1.9 0.9 3.1 0.4 1.2 0.9 2.7 1.2 3.3 0.3 0.7 0.8 2.4 1.1 3.8 0.3 1.4 0.7 3 0.9 3.5 0.2 0.6 0.6 1.5 0.8 2.1 0.2 0.6 0.7 2.1 1 3.4 0.4 1.3 1 3.7 1.4 5.3 0.4 1.7 0.8 3.4 0.8 4 0 0.5 0.3 1.9 0.7 3.2 0.5 1.2 0.9 3 1.1 3.9 0.2 1 0.5 2.4 0.8 3.3 0.3 0.8 0.7 2.4 1 3.6 0.3 1.1 0.8 2.9 1 4 0.3 1 1.3 5.1 2.1 8.9 0.9 3.8 2 8.8 2.5 11 0.5 2.2 1.1 4.8 1.3 5.9q0.5 1.8 0.2 2.1c-0.1 0.1-0.5 0.2-0.7 0.1-0.3-0.1-1.2-1.2-2-2.3-0.9-1.1-1.6-2.2-1.7-2.3-0.1-0.2-0.7-0.9-1.2-1.6-0.5-0.8-1.4-2.7-2.2-5-1-2.8-1.6-4-2.2-4.6-0.5-0.5-1.5-1.3-2.2-1.8-1.1-0.8-1.8-1-2.8-1.1-1.2-0.1-1.4 0-3 1.3-1.1 0.7-2.1 1.9-2.7 2.7-0.6 0.9-1.1 2-1.2 2.7-0.1 0.6-0.1 2-0.1 3.1-0.1 1.1 0.1 2.4 0.3 3 0.3 0.5 0.6 1.5 0.8 2.1 0.3 0.8 0.3 1.3 0.1 1.6-0.1 0.3-1 0.9-1.9 1.3-0.8 0.4-2.2 1.2-3 1.7-0.8 0.6-1.9 1.7-2.6 2.3-0.6 0.7-1.4 2-1.7 2.7-0.6 1.2-0.7 1.7-0.5 3.1 0.1 1.3 0.4 1.9 1.2 3.1 0.5 0.8 1.2 1.7 1.5 2 0.4 0.3 0.8 0.8 1 1.2 0.2 0.4 0.3 1.5 0.3 2.6 0 1 0.2 2.3 0.4 2.8 0.2 0.5 0.8 1.3 1.3 1.9 0.5 0.6 1.2 1.4 1.6 1.9 0.4 0.5 1 1.5 1.4 2.1 0.3 0.6 0.8 1.5 1.1 1.9 0.3 0.3 1.5 1.3 2.6 2.1 1.2 0.8 2.5 1.6 3 1.7 0.5 0.1 1.4 0.2 2 0.2 0.6 0 1.4-0.1 1.8-0.2 0.4-0.2 1.2-0.7 1.9-1.3 0.6-0.5 2.1-1.8 3.2-2.9 1.2-1 2.5-2.1 3-2.4 0.5-0.3 1.4-0.8 1.9-1.3 0.6-0.5 1.3-1 1.6-1.1 0.4-0.2 1-0.3 1.4-0.3 0.4 0 1 0.2 1.3 0.5 0.3 0.3 0.6 0.8 0.6 1.1 0.1 0.3 0.4 1.9 0.8 3.4 0.5 2.2 0.8 4.2 1 8.7 0.2 3.2 0.5 6 0.5 6.2 0.1 0.2 0.3 2.8 0.5 5.7 0.1 2.9 0.4 8.2 0.5 11.7 0.1 3.6 0.4 9.5 0.5 13.2 0.1 3.7 0.3 10.5 0.5 15.1 0.2 4.6 0.3 8.8 0.4 9.3 0.1 0.4 0.5 1.2 1 1.8 0.7 0.7 1.2 1 2.5 1.4 0.9 0.2 5.7 0.8 10.7 1.2 6.8 0.6 11.4 0.9 18.7 1.1 7.9 0.1 10.4 0.1 13.6-0.2 2.1-0.2 8.8-0.8 14.8-1.4 6-0.6 11-1 11.1-0.9 0.1 0 1 0 2-0.1 1-0.2 2.9-0.5 4.1-0.8 1.3-0.3 3.4-0.7 4.8-0.9 1.3-0.2 2.9-0.7 3.6-1 0.6-0.3 1.5-1 1.9-1.4 0.4-0.5 0.8-1.2 0.9-1.6 0.1-0.3 0.1-3.6 0-7.1-0.1-3.6-0.3-7.8-0.5-9.5-0.1-1.6-0.3-5.3-0.4-8.2-0.2-2.9-0.4-6.6-0.5-8.2-0.2-1.5-0.4-3.4-0.5-4.2 0-0.8-0.2-4.1-0.4-7.4-0.1-3.3-0.3-7.6-0.5-9.7-0.1-2-0.3-5.2-0.5-7-0.1-1.7-0.4-4.4-0.5-5.9-0.1-1.5-0.4-4.9-0.6-7.5-0.2-2.6-0.4-5.9-0.4-7.2 0-2.2 0-2.4 0.7-3.2 0.4-0.4 1.2-1 1.9-1.4 0.6-0.3 2-1.3 3.2-2.2 1.1-0.9 2.6-2.3 3.2-3.1 0.6-0.7 1.3-1.8 1.6-2.3 0.2-0.5 0.5-1.5 0.6-2.3 0.1-0.8 0-2.6-0.1-4-0.2-1.4-0.6-3.3-0.9-4.1-0.3-0.9-0.8-2.6-1.1-3.8-0.2-1.2-0.7-2.8-1-3.5-0.3-0.7-1-2.4-1.6-3.7-0.9-2.4-1-2.5-1.1-7.1-0.2-3.2-0.4-5.1-0.6-6-0.3-0.7-1-1.9-1.6-2.7-0.7-1.1-1.4-1.7-2.3-2.2-0.9-0.4-1.7-0.6-2.7-0.6-0.7 0-1.6 0.1-2 0.2-0.3 0.2-1.2 0.7-1.9 1.2-0.6 0.5-1.4 0.9-1.7 0.8-0.3 0-0.6-0.3-0.8-0.7-0.2-0.3-0.4-1.4-0.6-2.4-0.1-1-0.5-2.4-0.8-3.1-0.3-0.7-0.7-2.4-0.9-3.8-0.2-1.3-0.6-3.2-0.8-4.2-0.2-1-0.6-2.5-0.9-3.3-0.3-0.8-0.6-2.4-0.7-3.5-0.2-1.2-0.6-2.9-0.9-3.9-0.4-1-0.9-3.3-1.2-5.1-0.3-1.9-0.9-4.2-1.2-5.2-0.3-1-0.8-2.9-1.1-4.4-0.3-1.4-0.8-3.2-1.1-3.9-0.3-0.8-0.8-2.7-1.1-4.4-0.3-1.7-0.8-3.4-1-3.9-0.2-0.5-0.5-1.2-0.6-1.6-0.2-0.3-0.5-1.5-0.6-2.6-0.2-1-0.8-3.3-1.3-5-0.6-1.7-1.1-3.5-1.2-4-0.1-0.5-0.5-1.6-1-2.3-0.4-0.8-1.1-1.8-1.6-2.2-0.4-0.5-1.2-0.9-1.7-1-0.5-0.1-2.4-0.2-4.3-0.2-2 0-4.3 0.2-5.2 0.4z"/>
		<path id="Path 6" class="s2" d="m244.5 149.1c-1.2 0.4-3.8 1.2-5.8 1.7-2 0.5-3.8 0.9-4.1 0.9-0.3 0-1.2 0.2-2 0.5-0.8 0.3-2.6 0.7-4.1 0.9-1.5 0.2-4.6 0.7-7 1.2-2.3 0.4-5.8 1-7.7 1.3-2 0.2-4.2 0.5-4.9 0.5-0.8 0-2.3 0.2-3.3 0.4-1 0.2-3 0.5-4.5 0.6-1.5 0.1-5.3 0.4-8.4 0.7-4 0.2-8.4 0.3-14.9 0.3-7.9-0.1-9.3 0-9.6 0.3-0.3 0.3-0.4 1.1-0.1 5.4 0.1 2.8 0.3 8.1 0.5 11.9 0.1 3.8 0.3 10.1 0.4 14.1 0.2 4.5 0.4 7.6 0.6 8.1 0.2 0.6 0.4 4 0.5 9.7 0.2 4.9 0.4 10.4 0.5 12.4 0.1 2.8 0.2 3.8 0.6 4.4 0.3 0.4 0.9 0.8 1.8 1.1 0.8 0.2 1.8 0.3 2.3 0.3 0.6 0 3.3 0.3 6.1 0.7 2.8 0.4 7.3 0.8 9.9 0.9 2.6 0.2 7.6 0.4 11.1 0.4 3.5 0.1 8.5 0 11.2-0.1 2.7-0.2 6.1-0.5 7.5-0.7 1.5-0.2 4.4-0.5 6.5-0.7 2.1-0.2 5.4-0.6 7.2-0.7 1.9-0.2 4-0.5 4.7-0.7 0.7-0.2 2.1-0.4 3.1-0.6 1-0.1 3-0.4 4.5-0.5 1.5-0.2 3.1-0.4 3.6-0.6 0.5-0.1 1.4-0.6 2.1-1.2l1.1-0.9c-0.3-7.9-0.4-11.7-0.6-13.6-0.1-1.9-0.4-5.1-0.5-7-0.1-1.9-0.3-4.3-0.4-5.3-0.1-1-0.2-4.3-0.4-7.5-0.1-3.1-0.4-7.6-0.5-9.9-0.2-2.4-0.4-5.2-0.6-6.4-0.2-1.1-0.5-3.2-0.5-4.7-0.1-1.5-0.4-6-0.6-10-0.3-5-0.5-7.4-0.8-7.8-0.3-0.4-0.6-0.6-1.3-0.6-0.6 0-2 0.4-3.2 0.8z"/>
		<path id="Path 7" class="s0" d="m142.2 113.5c-0.3 0.3-0.7 1.4-1 2.3l-0.6 1.8c0.8 3.6 1.1 4.9 1.1 5.2 0 0.3 0.3 1.5 0.7 2.7 0.6 1.9 0.7 2.2 0.3 2.5-0.2 0.3-0.6 0.4-0.8 0.4-0.3 0-1.2 0.2-2 0.4-0.8 0.3-1.8 0.7-2.2 1-0.4 0.3-1.4 0.9-2.2 1.3-0.8 0.5-1.8 1.3-2.3 1.9-0.7 0.9-0.8 1.3-0.8 2.3 0 0.7 0.1 1.7 0.3 2.3 0.2 0.5 0.7 1.3 1.2 1.6 0.4 0.4 1.1 1 1.5 1.4 0.6 0.6 0.7 0.7 0.5 1.9-0.1 0.7-0.3 1.9-0.3 2.7 0 1.2 0.1 1.6 0.6 2.1 0.4 0.4 1.2 1 1.8 1.4 0.9 0.5 1.1 0.8 1.2 1.6 0.1 0.6 0.3 1.3 0.5 1.6 0.1 0.4 0.7 1.2 1.2 1.8 0.6 0.7 1.7 1.6 2.6 2 0.8 0.5 1.9 0.9 2.4 0.9 0.6 0 1.2-0.3 2.2-1.1 1-0.8 1.3-1.3 1.3-1.6-0.1-0.4-0.4-0.6-1.3-0.7-1-0.2-1.3-0.4-1.6-0.9q-0.3-0.6 0-0.9c0.1-0.1 0.7-0.4 1.2-0.6 0.6-0.2 1.2-0.5 1.3-0.7 0.2-0.2 0.1-0.7 0-1.1-0.2-0.5-0.7-1.2-1.1-1.6-0.5-0.6-1.2-1-1.9-1.2-0.8-0.2-1.4-0.2-2.3 0-0.8 0.2-1.3 0.6-2 1.3-0.5 0.8-1 1.1-1.4 1.1-0.6 0-0.7-0.1-0.7-0.9 0-0.7 0.2-1.1 0.8-1.7 0.5-0.5 1.2-1 1.7-1.2 0.4-0.3 1.2-0.6 1.7-0.8 0.8-0.3 1.2-0.3 2.1 0 0.7 0.1 1.5 0.2 2.2 0 0.6-0.1 1.3-0.4 1.4-0.6 0.2-0.3 0-0.8-0.8-1.9-0.6-1-1.3-1.6-1.7-1.8-0.4-0.1-1.1-0.6-1.6-1.2-1-1-1-1-2.9-1-1 0-2-0.1-2.2-0.2-0.3 0-0.4-0.4-0.4-0.7 0-0.4 0.2-0.8 0.5-1q0.6-0.3 2.8-0.1c2 0.2 2.3 0.1 2.9-0.3 0.4-0.3 0.7-0.8 0.7-1.1 0-0.3-0.1-0.7-0.3-1-0.3-0.4-0.2-0.6 0.1-1 0.5-0.4 0.6-0.4 1.7 0.8 1 1.2 1.1 1.4 1 2.2-0.1 0.5-0.2 1.3-0.2 1.7 0.1 0.3 0.2 1 0.5 1.5 0.2 0.5 0.8 1.5 1.4 2.3 0.6 0.8 1 1.7 1 2.2q0 0.7-0.6 1.4c-0.6 0.6-0.7 0.8-0.7 2.4 0 1.6 0.1 1.8 1 2.8 0.7 0.7 1.2 1 1.7 1 0.4 0 1.1-0.4 1.8-1 0.7-0.6 1.4-1.1 1.6-1.1 0.2 0 0.8-0.3 1.2-0.7 0.5-0.4 1.3-1 1.8-1.2 0.6-0.2 1.1-0.7 1.3-1 0.1-0.4 0.1-1.7-0.1-4.3-0.3-3.1-0.5-4-1.2-5.4-0.6-1.5-0.9-1.8-2.1-2.4-1.1-0.7-1.4-1-2.2-2.6-0.5-1-0.9-2.1-0.9-2.3 0-0.2-0.9-1.5-2.1-2.9-1.6-1.9-2.1-2.8-2.3-3.7-0.2-0.7-0.6-1.8-1-2.5-0.4-0.8-0.9-1.8-1.1-2.4-0.2-0.5-0.9-1.7-1.7-2.5-1.3-1.4-1.5-1.5-2.5-1.5-0.8 0-1.2 0.2-1.7 0.6z"/>
		<path id="Path 8" class="s1" d="m154.9 135.5c-0.2 0.1-0.4 0.6-0.4 0.9 0.1 0.4 0.4 1 0.7 1.3q0.7 0.7 1.1 0.5c0.2-0.1 0.4-0.6 0.4-1.1 0-0.5-0.2-1.2-0.3-1.4-0.1-0.3-0.5-0.6-0.7-0.6-0.3 0-0.6 0.2-0.8 0.4z"/>
		<path id="Path 9" class="s0" d="m248 93.4c-1 1.2-1.5 2.1-1.8 3-0.2 0.8-0.5 2.6-0.6 4.1-0.1 2.1 0 2.9 0.3 3.6 0.2 0.5 0.8 1.5 1.3 2.2 0.5 0.7 0.9 1.5 0.9 1.9 0.1 0.4-0.1 0.9-0.3 1-0.3 0.3-0.7 0.3-1.2 0.1-0.4-0.1-1.5-0.8-2.3-1.4-0.8-0.7-1.8-1.3-2.1-1.4-0.4-0.1-1.9 0-3.4 0-1.5 0.1-3.1 0.3-3.7 0.5-0.6 0.2-1.3 0.5-1.5 0.7-0.3 0.2-0.8 1-1.2 1.8-0.5 0.8-0.8 1.7-0.8 2.3 0 0.5 0.3 1.3 0.7 1.9 0.4 0.6 1 1.1 1.4 1.3 0.3 0.1 1.5 0.5 2.5 0.9 1.1 0.4 2 0.9 2 1 0.1 0.1 0.4 0.2 0.7 0.1 0.3 0 1 0.2 1.5 0.4 0.6 0.3 1.1 0.6 1.2 0.8 0.1 0.1-0.1 0.5-0.5 0.7-0.5 0.5-1 0.5-3.3 0.4-1.5-0.1-3.1-0.2-3.5-0.3-0.7-0.2-0.9-0.1-1.9 1.1-0.9 1-1.1 1.3-1 1.9 0.1 0.4 0.6 1.4 1 2.2 0.7 1.2 1.1 1.6 2.2 2.1 0.8 0.3 1.5 0.7 1.6 0.9 0.1 0.2 1 0.7 2.1 1.1 1.1 0.6 1.8 1.1 1.8 1.3 0 0.2-0.3 0.6-0.7 0.8-0.5 0.3-1 0.4-2 0.2-0.7-0.1-1.7-0.2-2.2-0.2-0.8 0-0.9 0-1 0.7 0 0.6 0.2 1.1 0.8 2 0.5 0.6 1.5 1.5 2.2 2 0.7 0.4 1.9 1.1 2.7 1.4 1 0.4 1.7 0.5 2.8 0.4 0.8-0.1 2.1-0.4 2.9-0.8 0.7-0.3 1.8-0.7 2.3-0.8 0.5 0 1.4-0.3 2-0.7 0.7-0.3 1.9-0.9 2.8-1.3 0.8-0.5 2.4-1.5 3.4-2.3 1.1-0.8 2.2-1.9 2.5-2.4 0.3-0.6 0.8-1.7 1-2.5 0.4-1.3 0.4-1.5 0-3.1-0.2-0.9-0.6-2.9-0.8-4.4-0.2-1.6-0.6-3.3-1-4.1-0.3-0.8-0.8-2.1-1-2.9-0.2-0.8-0.5-1.8-0.7-2.3-0.3-0.5-0.8-1.4-1.1-2.1-0.7-1.1-0.7-1.2-0.6-4.1 0.1-1.6 0.1-4-0.1-5.2-0.1-1.2-0.4-2.5-0.6-2.9-0.2-0.5-0.8-1.3-1.3-2-0.7-1-1-1.2-1.9-1.2-1-0.1-1.1 0-2.5 1.6z"/>
		<path id="Path 10" class="s2" d="m163.6 55.6c-0.6 0.2-1.5 0.6-1.9 0.9-0.5 0.2-1.5 0.9-2.2 1.4-0.8 0.5-1.7 1.3-2 1.8-0.3 0.5-1 1.4-1.5 2.1-0.5 0.6-1 1.5-1.2 2-0.1 0.5-0.4 1.2-0.7 1.6-0.2 0.3-0.6 1.3-0.9 2.2-0.2 0.8-0.5 2.4-0.6 3.5-0.1 1 0 2.9 0.2 4.1 0.2 1.7 0.5 2.6 1.3 4.3 0.6 1.1 1.6 2.8 2.3 3.7 0.6 0.9 2 2.5 3 3.5 1 1 2.2 2.1 2.7 2.4 0.5 0.3 1.5 0.9 2.2 1.2 1.1 0.7 1.6 0.8 4.2 0.9 2.2 0.1 3.6 0 5-0.3 1.5-0.3 2.3-0.7 2.9-1.2 0.4-0.4 1.2-0.9 1.6-1.1 0.4-0.3 1.2-0.9 1.8-1.6 0.6-0.6 1.7-1.8 2.4-2.8 0.8-0.9 1.3-1.8 1.3-2 0-0.1 0.5-1.2 1-2.3l1-2c0.1-6.8 0.1-8.8-0.2-9.7-0.1-0.8-0.7-2.4-1.3-3.6-0.7-1.4-1.6-2.8-2.6-4-1-1.1-2.4-2.2-3.8-3.1-1.7-1.1-2.6-1.5-4.2-1.8-1.3-0.2-3.2-0.4-5.3-0.4-1.8 0-3.8 0.2-4.5 0.3z"/>
		<path id="Path 11" class="s0" d="m165.4 60c-2.1 0.7-3.1 1.2-3.6 1.8-0.4 0.4-0.7 1-0.7 1.3 0 0.3 0.3 1.5 0.6 2.5 0.7 1.8 0.7 2 0.4 2.8-0.2 0.5-0.8 1.1-1.3 1.4-0.5 0.3-1.6 0.8-2.5 1.2-0.8 0.3-1.7 0.8-2 1q-0.4 0.5-0.4 1.6c0 0.6 0.2 1.6 0.5 2.3 0.3 0.7 0.6 1.9 0.8 2.7 0.2 0.8 0.6 1.6 0.9 2 0.4 0.4 0.9 0.5 1.7 0.5 0.5 0 1.5-0.2 2.2-0.6 0.7-0.3 1.6-0.7 2-0.7q0.7-0.2 1.3 0.2c0.5 0.3 0.9 1.2 1.4 2.4 0.4 1.1 0.8 2.3 0.9 2.7 0.1 0.4 0.5 1 0.8 1.5 0.4 0.4 0.9 0.7 1.2 0.7 0.3 0 1.3-0.3 2.2-0.6 1-0.4 2.4-0.9 3.2-1.2 0.8-0.3 1.6-0.7 1.9-1 0.3-0.2 0.4-0.8 0.4-1.4 0-0.6-0.3-1.8-0.8-2.7-0.6-1.4-0.7-1.9-0.6-2.7 0.1-0.6 0.4-1.1 0.7-1.3 0.3-0.2 1.1-0.5 1.6-0.7 0.6-0.2 1.4-0.4 1.8-0.6 0.5-0.2 1.1-0.6 1.5-0.9 0.6-0.4 0.7-0.8 0.7-1.6 0-0.6-0.1-1.3-0.2-1.7-0.2-0.4-0.5-1.6-0.8-2.7-0.3-1-0.7-2.3-0.8-2.7-0.2-0.4-0.6-0.8-0.8-0.9-0.3-0.2-0.8-0.3-1.3-0.3-0.5 0-1.3 0.4-2 0.8-0.8 0.5-1.5 0.8-2.2 0.8-0.7 0-1.2-0.2-1.4-0.5-0.3-0.2-0.9-1.6-1.3-3-0.5-1.4-1.1-2.8-1.4-3-0.2-0.3-0.7-0.5-1-0.5-0.3 0.1-1.9 0.5-3.6 1.1z"/>
		<path id="Path 12" class="s3" d="m214.5 24.7c-1.7 0.2-4.1 0.6-5.3 0.9-1.1 0.3-2.3 0.7-2.5 0.8-0.3 0.2-1.5 0.4-2.6 0.6-1.2 0.2-2.6 0.6-3.3 0.9-0.6 0.3-2.3 0.8-3.8 1.2-1.4 0.3-3.1 0.8-3.6 1.1-0.6 0.3-2 0.8-3 1.1-1.1 0.3-2.6 0.8-3.4 1.1-0.9 0.3-2.5 0.9-3.7 1.3-1.2 0.3-2.5 0.8-2.9 1-0.3 0.2-1.9 0.8-3.6 1.2-1.6 0.5-3.2 1-3.5 1.2-0.3 0.2-1.4 0.6-2.5 0.9-1.1 0.3-2.5 0.7-3.1 1.1-0.6 0.3-2.1 0.8-3.3 1.1-1.2 0.4-2.6 0.9-3.2 1.2-0.6 0.3-1.7 0.7-2.6 1-0.9 0.3-2 0.8-2.5 1.1-0.5 0.4-1.5 0.9-2.3 1.2-0.8 0.3-1.8 0.9-2.3 1.2-0.5 0.4-1.4 1-1.9 1.3-0.6 0.2-2 1.4-3.2 2.5-1.2 1.1-2.2 2.2-2.3 2.6-0.1 0.3 0.2 1.4 0.9 3 0.6 1.3 1.1 3 1.2 3.7 0.1 0.8 0.7 2.9 1.4 4.8 0.8 2.4 1.3 3.5 1.6 3.5 0.2 0 0.6-0.4 0.8-0.9 0.3-0.5 0.5-1.2 0.5-1.7 0-0.4 0.4-1.4 0.9-2.3 0.5-0.8 1.1-1.9 1.2-2.3 0.2-0.4 1.3-1.7 2.4-2.9 1.1-1.1 2.5-2.4 3.1-2.8 0.6-0.5 2-1.3 3.2-1.9 1.9-0.9 2.6-1.1 4.7-1.4 1.3-0.1 3.3-0.2 4.5-0.1 1.4 0.2 2.6 0.4 3.9 1 1 0.4 2.2 0.9 2.7 1 0.5 0.2 1.9 1 3.1 1.8 1.2 0.8 2.8 2.2 3.7 3.1 0.8 0.9 2.1 2.6 2.8 3.8 0.7 1.2 1.2 2.3 1.2 2.4 0 0.2 0.4 1.7 0.8 3.3 0.4 1.7 0.8 3.7 0.9 4.6 0.1 0.8 0.1 2.2-0.1 3.1-0.1 0.8-0.6 2.8-0.9 4.4-0.4 1.6-0.9 3.1-1.3 3.6-0.3 0.4-0.8 1.3-1.2 2-0.3 0.6-1.4 2.1-2.4 3.2-1 1.1-2.7 2.6-3.7 3.3-1 0.8-2.6 1.7-3.5 2-0.9 0.4-2 0.8-2.5 1.1-0.5 0.2-1.6 0.6-2.4 0.7-0.8 0.1-2.2 0.1-3.6-0.1-1.2-0.1-2.6-0.4-3.1-0.7-0.5-0.3-1.5-0.8-2.3-1.1-0.8-0.3-1.9-0.9-2.4-1.3-0.6-0.5-1.8-1.6-2.6-2.4-0.8-0.9-1.9-1.8-2.3-2.1-0.5-0.4-1-0.6-1.3-0.6-0.4 0-0.4 0.2-0.3 1.1 0 0.6 0.4 1.9 0.7 2.9 0.4 1 0.8 2.6 0.9 3.6 0.2 1 0.6 2.7 1 3.7 0.3 1.1 0.7 2.9 0.9 4.1 0.1 1.1 0.4 2.9 0.6 4 0.3 1 0.7 2.8 1 3.8 0.4 1.1 0.7 2.9 0.8 4 0.1 1.2 0.5 3.3 0.9 4.7 0.4 1.4 1 4.1 1.2 5.9 0.2 1.9 0.5 4.1 0.7 4.9 0.1 0.9 0.5 2.4 0.9 3.4 0.3 1 0.6 2.9 0.7 4.1 0.1 1.3 0.4 3.2 0.7 4.3 0.2 1.1 0.5 2.8 0.6 3.9 0.1 1 0.4 2.9 0.6 4.1 0.2 1.2 0.5 2.5 0.7 2.8 0.2 0.3 0.8 0.6 1.4 0.7 0.5 0.1 6.3 0.1 12.8 0 6.6 0 13.4-0.2 15.3-0.4 1.8-0.1 5.2-0.5 7.6-0.8 2.3-0.2 5.4-0.7 6.8-0.9 1.5-0.2 3.6-0.5 4.8-0.6 1.2-0.2 3.6-0.6 5.3-0.9 1.7-0.4 4.6-0.9 6.5-1.2 1.8-0.3 4.1-0.8 5.1-1.1 1-0.3 2.8-0.7 4-1 1.3-0.2 3.1-0.7 4.2-1 1-0.3 2.9-0.8 4-1.1 1.6-0.4 2.3-0.7 3-1.4 0.7-0.7 1-1.2 1-1.7 0-0.4-0.2-0.8-0.6-1.1-0.5-0.3-0.8-0.3-3 0.1-1.5 0.2-3.2 0.3-4.4 0.2-1.1 0-2.3-0.3-2.9-0.5-0.5-0.3-1.5-1-2.3-1.6-0.8-0.6-1.8-1.6-2.3-2.1-0.5-0.6-1.2-1.5-1.6-2-0.4-0.4-0.8-1.1-1-1.4-0.1-0.3-0.3-1.6-0.4-2.8-0.2-2-0.3-2.4-0.9-3.3-0.5-0.6-0.9-1.6-1-2.2-0.2-0.7-0.3-1.8-0.3-2.5 0-0.9 0.2-1.6 0.8-2.7 0.4-0.9 0.8-1.8 0.8-2.2 0-0.3-0.3-1.1-0.7-1.7-0.6-0.9-0.8-1.5-0.8-2.9-0.1-1.1 0-2.3 0.2-3.1 0.3-1 0.7-1.7 2-3 1.5-1.5 2-1.8 4.1-2.6 1.4-0.5 3-0.9 4.2-1 1.7-0.2 2.1-0.3 2.7-1l0.7-0.7c-0.2-4.2-0.4-6.1-0.6-7-0.1-0.8-0.4-2.2-0.7-3.1-0.3-0.8-0.7-2.3-0.9-3.3-0.2-1-0.6-3.2-1-4.9-0.3-1.7-0.8-3.8-1.1-4.7-0.3-0.8-0.7-2.4-0.8-3.5-0.1-1-0.5-2.9-0.9-4.1-0.5-1.4-0.9-3.4-1.2-5.6-0.3-2.8-0.5-3.6-1.2-5.1-0.7-1.5-1-2.3-1.2-4.4-0.1-1.7-0.4-3.2-0.8-4.2-0.4-0.8-0.9-2.4-1.1-3.5-0.2-1-0.5-2.2-0.6-2.7-0.2-0.4-0.5-1.3-0.8-1.9-0.3-0.6-0.7-2.3-1-3.6-0.2-1.4-0.7-3.3-1.1-4.3-0.4-1-0.9-2.8-1.2-4-0.2-1.2-0.6-2.7-0.9-3.2-0.2-0.6-0.5-1.3-0.6-1.6-0.1-0.3-0.4-0.8-0.8-1.2-0.6-0.7-0.7-0.7-3-0.7-1.4 0-3.9 0.2-5.7 0.4z"/>
		<path id="Path 13" class="s2" d="m226.2 91.3c-0.3 0.4-0.6 1.2-0.7 1.6-0.1 0.4-0.8 1.9-1.6 3.3-0.8 1.5-2 3.5-2.8 4.6-0.8 1-1.9 2.5-2.6 3.2-0.7 0.7-2.2 1.9-3.3 2.8-1.1 0.8-2.9 2.1-3.9 2.7-1 0.6-1.9 1.1-2 1.1-0.1 0-1 0.4-2.1 0.9-1 0.5-2.7 1.1-3.8 1.4-1 0.3-2.3 0.7-2.8 0.9-0.5 0.2-2 0.5-3.2 0.7-1.4 0.2-3.7 0.2-5.3 0.2-1.7-0.1-3.7-0.4-4.6-0.6-0.8-0.2-2.6-0.8-4-1.2-1.3-0.5-3.4-1.3-4.6-1.9-1.2-0.6-2.9-1.6-3.8-2.1-0.8-0.6-1.9-1.5-2.3-1.9-0.6-0.7-1-0.8-1.9-0.8-0.7 0-1.4 0.1-1.5 0.3-0.2 0.2-0.3 0.8-0.3 1.3 0 0.8 0.2 1.2 1.1 2.1 0.6 0.6 2.3 2 3.7 3.1 1.5 1.1 3.4 2.3 4.3 2.7 0.9 0.3 1.8 0.8 2.1 0.9 0.3 0.2 1.1 0.5 1.8 0.8 0.7 0.2 1.9 0.5 2.6 0.7 0.7 0.1 2.3 0.4 3.5 0.5 1.2 0.1 2.9 0.3 3.9 0.3 0.9 0 3.4-0.3 5.5-0.6 3-0.4 4.7-0.8 7.6-1.8 2.1-0.7 4.8-1.8 6-2.4 1.2-0.6 3-1.7 4-2.3 1-0.7 3-2.3 4.4-3.6 1.4-1.3 3.2-3.3 4.1-4.5 0.9-1.1 2.2-2.9 2.8-4 0.6-1 1.4-2.6 1.8-3.4 0.3-0.9 0.8-1.9 1-2.2 0.3-0.4 0.5-1 0.6-1.5 0.2-0.5 0.1-1-0.2-1.5-0.4-0.6-0.6-0.7-1.7-0.7-1.2 0-1.4 0.1-1.8 0.9z"/>
		<path id="Path 14" class="s1" d="m208.3 38.5c-0.6 0.1-2.2 0.5-3.4 1-1.4 0.4-3.2 1.3-4.3 2.1-1.1 0.7-2.7 1.9-3.5 2.8-0.9 0.8-2.2 2.4-3 3.5-1 1.6-1.6 2.9-2.5 5.5-1 3-1.1 3.6-1.1 5.7 0 1.9 0.2 2.8 0.8 4.7 0.4 1.2 0.9 3 1.1 3.9 0.3 0.9 0.7 2 0.9 2.3 0.3 0.4 0.7 1.2 1.1 1.8 0.3 0.7 1.4 2.1 2.4 3.2 1 1.2 2.4 2.4 3 2.7 0.7 0.4 1.6 1 2.2 1.4 0.6 0.4 1.7 1 2.6 1.2 0.8 0.3 1.9 0.7 2.4 0.9 0.6 0.4 1.6 0.5 4.3 0.5 2.9 0 3.7-0.1 4.5-0.5 0.5-0.3 1.6-0.7 2.4-1 0.7-0.2 1.6-0.6 1.9-0.9 0.3-0.2 1.1-0.8 1.8-1.2 0.7-0.4 2.4-1.9 3.7-3.3 1.2-1.4 2.4-2.9 2.5-3.2 0.1-0.4 0.6-1.5 1.2-2.5 0.7-1.3 1-2.3 1.2-4 0.3-1.6 0.3-3.3 0.1-6.4-0.1-2.4-0.4-4.7-0.5-5.1-0.2-0.4-0.6-1-0.8-1.3-0.3-0.3-0.8-1.2-1.1-2.2-0.4-0.9-1.2-2.3-1.8-3.2-0.7-0.9-2-2.3-3-3.2-1-1-2.4-2.1-3.2-2.6-0.8-0.5-2.6-1.3-4-1.7-1.8-0.6-3.4-0.9-4.7-1-1.1-0.1-2.5 0-3.2 0.1z"/>
		<path id="Path 15" class="s2" d="m206.5 42.7c-0.6 0.2-1.3 0.5-1.5 0.6-0.2 0.2-1.2 0.7-2.2 1.2-1.3 0.7-2.3 1.4-3.5 2.7-0.9 1-2 2.4-2.4 3.2-0.5 0.8-1 1.9-1.3 2.4-0.5 1-0.6 1.6-0.7 5.9 0 3.8 0 5.1 0.4 6.4 0.2 0.9 0.7 2.1 1 2.6 0.3 0.5 0.7 1.2 0.8 1.6 0.1 0.3 0.8 1.3 1.4 2.1 0.7 0.9 1.9 2.1 2.7 2.7 0.7 0.6 2 1.5 2.9 2 0.8 0.5 2.1 1 2.8 1.2 0.7 0.1 3 0.2 5.2 0.2 3.1-0.1 4.1-0.2 4.8-0.6 0.5-0.2 1.4-0.7 2.1-1.1 0.6-0.4 1.8-1.4 2.7-2.2 0.9-0.7 1.8-1.7 1.9-2 0.2-0.4 0.6-1.1 1-1.6 0.4-0.5 1.1-1.8 1.6-2.9 0.4-1.2 0.9-2.5 1-3 0.1-0.5 0.3-2.2 0.3-3.8 0-1.9-0.2-3.2-0.5-4.1-0.2-0.7-0.5-1.4-0.6-1.5-0.1-0.2-0.4-1-0.7-1.9-0.3-0.8-0.9-1.9-1.3-2.4-0.4-0.5-0.9-1.2-1.1-1.6-0.2-0.3-1-1.3-1.8-2.1-0.8-0.8-2.2-1.8-3-2.2-0.8-0.4-2-1-2.7-1.4-1-0.5-1.6-0.6-4.6-0.6-2.2-0.1-3.9 0-4.7 0.2z"/>
		<path id="Path 16" class="s0" d="m218.9 52.1c-0.3 0.2-1.4 0.6-2.4 0.9-1 0.3-3.3 1-5.2 1.6-1.8 0.5-4.8 1.4-6.6 2-1.8 0.5-3.9 1.2-4.7 1.5-1 0.2-1.7 0.7-2 1.1-0.3 0.3-0.5 0.9-0.5 1.3 0 0.3 0.3 1.3 0.7 2.2 0.4 0.8 1 2.2 1.2 3.1 0.3 0.8 0.7 1.8 1 2.1 0.3 0.3 0.9 0.7 1.4 0.7 0.5 0.1 1.3 0 2.5-0.6 1-0.4 2.8-1 3.9-1.3 1.1-0.3 3.4-1 5.1-1.5 1.6-0.5 4.1-1.3 5.5-1.8 1.4-0.4 2.9-0.9 3.4-1 0.4-0.1 1-0.4 1.3-0.7 0.4-0.4 0.6-0.9 0.6-1.3 0-0.4-0.2-1.3-0.5-2.1-0.3-0.7-0.9-2.3-1.3-3.5-0.4-1.2-1.1-2.4-1.4-2.7-0.3-0.2-0.7-0.4-0.9-0.4-0.2 0-0.7 0.2-1.1 0.4z"/>
		<path id="Path 17" class="s2" d="m182.9 23.9c-0.6 0.2-2 0.5-3.2 0.7-1.3 0.3-2.9 0.8-3.8 1.3-0.8 0.4-2.1 0.8-2.8 0.9-0.8 0.1-1.7 0.4-2.1 0.8-0.4 0.3-1.2 0.8-1.7 1.2-0.6 0.4-1.4 1.2-1.8 1.8-0.5 0.8-0.8 1.5-0.8 2.1 0 0.7 0.2 1 0.7 1.4 0.5 0.3 1.1 0.5 1.7 0.5 0.5 0 1.3-0.3 1.9-0.6 0.6-0.3 1.7-0.7 2.5-0.9 0.7-0.2 2.1-0.7 3.1-1.1 0.9-0.4 2.6-0.9 3.7-1.1 1.1-0.2 2.8-0.8 3.8-1.2 0.9-0.4 2.4-0.9 3.3-1 1-0.2 1.9-0.5 2.2-0.7 0.2-0.3 0.5-0.9 0.6-1.5 0.1-0.8 0-1.1-0.4-1.4-0.2-0.2-1.1-0.7-1.9-1-0.8-0.4-1.9-0.6-2.7-0.6-0.7 0-1.7 0.2-2.3 0.4z"/>
	</g>
</svg>