<svg version="1.2" xmlns="http://www.w3.org/2000/svg" viewBox="0 0 300 300" width="300" height="300">
	<title>Без имени-1</title>
	<style>
		.s0 { fill: #080707 } 
		.s1 { fill: #d3b16b } 
	</style>
	<g id="Background">
		<path id="Path 0" class="s0" d="m0 150v150h300v-300h-300z"/>
		<path id="Path 1" fill-rule="evenodd" class="s1" d="m68 72.6l1.8 2.1c1 1.2 2.2 2.2 2.7 2.2 0.5 0 1.3 0.2 1.9 0.5 0.9 0.5 0.9 0.6-1 2.4-1.1 1-2.1 2.4-2.3 3.1-0.2 0.8-0.1 1.6 0.5 2.2 0.4 0.4 1.3 0.8 2 0.8 0.7 0 2-0.3 2.8-0.7 1-0.5 1.5-1.1 1.5-1.9 0-0.6 0.2-1.4 0.6-1.8 0.4-0.3 1.2-0.6 1.8-0.5 0.7 0.1 1.4 0.6 1.6 1.2 0.3 0.6 0.2 1.5-0.3 2.5-0.4 0.8-0.7 1.8-0.7 2.2 0 0.4 0.3 1.3 0.8 1.9 0.4 0.6 1.2 1.2 1.8 1.2 0.7 0 1.6-0.4 2-0.9 0.5-0.5 0.9-1.7 1-2.6 0.1-1 0.6-2 1.1-2.3 0.6-0.4 1.1-0.4 1.7 0 0.5 0.3 1 1.1 1 1.8 0.1 0.7-0.3 1.6-1 2.4-1 1-1.1 1.7-1.4 7.9-0.2 6.5-0.3 6.8-1.2 6.5-0.6-0.2-2.5-0.7-4.3-1.2-2.6-0.6-5.5-0.8-14.6-0.8-8.5 0-12 0.2-14.3 0.8-1.6 0.4-3.3 0.9-3.8 1.1-0.6 0.3-0.7-0.7-1-6.4-0.2-6.1-0.3-6.9-1.3-7.9-0.6-0.7-1.2-1.7-1.2-2.2 0-0.6 0.3-1.3 0.8-1.7 0.4-0.3 1.2-0.5 1.7-0.3 0.8 0.2 1 0.6 1 2 0 1.2 0.4 2.1 1.3 3 0.7 0.7 1.6 1.3 2 1.3 0.4 0 1.1-0.4 1.5-0.8 0.4-0.4 0.9-1.3 1.1-1.9 0.1-0.6-0.1-1.9-0.4-2.9-0.4-0.9-0.7-2.1-0.6-2.6 0.1-0.5 0.7-1 1.3-1.2 0.7-0.2 1.5 0.1 2 0.7 0.5 0.5 0.9 1.3 0.9 1.7 0 0.5 0.5 1.3 1.1 1.7 0.6 0.4 1.8 0.7 2.7 0.7 0.8 0 1.8-0.3 2.1-0.6 0.4-0.3 0.6-1.3 0.6-2.1 0-1.1-0.6-2.1-2-3.4-1.9-1.8-1.9-1.9-1-2.4 0.6-0.3 1.4-0.5 1.9-0.5 0.5 0 1.5-0.9 2.3-2.1zm2.6 30.1c5.7 0.1 9.9 0.5 12.4 1 2 0.5 4 1.2 4.4 1.5 0.4 0.3 0.6 1.3 0.5 2.3-0.1 1.2-0.4 1.7-0.9 1.6-0.4-0.1-2.5-0.6-4.5-1-2.8-0.6-6.6-0.8-14.6-0.8-8.2 0-11.7 0.2-14.6 0.9-2.1 0.4-3.9 0.8-4.1 0.8-0.2 0-0.4-0.9-0.4-4l3.6-0.9c2-0.4 5-1 6.7-1.2 1.6-0.2 6.8-0.3 11.5-0.2zm-3 12.4c2.2 0 5.5 0.3 7.2 0.7 1.7 0.4 4.1 1.2 5.3 1.8 1.1 0.6 2.9 1.9 3.9 3 0.9 1 2.4 3 3.2 4.5 0.8 1.5 2 3.1 2.6 3.6 0.7 0.5 1.2 1.1 1.2 1.3 0 0.2-0.6 0.7-1.3 1.1-0.7 0.4-2 2.1-3 3.8-1 1.6-2.6 3.7-5.8 6.3l1.9 1c1.1 0.6 2.6 1.7 3.3 2.4 0.8 0.8 2.3 2.7 3.2 4.4 1 1.6 2.3 3.5 4 5.2l-1.2 0.8c-0.6 0.4-1.8 2-2.7 3.6-0.9 1.6-2.1 3.6-2.8 4.5-0.6 0.9-2.3 2.4-3.8 3.4-1.4 0.9-4.2 2.2-6.1 2.8-2.1 0.6-4.9 1-6.8 1-1.8 0-4.3-0.3-5.5-0.7-1.3-0.5-2.6-0.8-3.1-0.8-0.4 0-1.2 0.8-1.7 1.8-0.6 1-2.3 3.2-3.8 4.7-2.3 2.4-3.2 3-5.3 3.4-1.8 0.4-3.5 0.4-10.1-0.6l0.7-1.3c0.7-0.9 0.8-1.9 0.5-4.2-0.2-1.9-0.8-3.7-1.5-4.7-0.7-1.1-2-2-3.8-2.6-1.4-0.6-3.6-1-4.7-1-1.3 0-3.2 0.5-4.7 1.2-1.4 0.7-3.2 2-4.1 3-0.9 1-2.2 3-3 4.4-0.7 1.5-1.7 4.4-2.2 6.5-0.6 2.4-1 5.5-1 8.6 0 2.7 0.3 6.1 0.6 7.6 0.3 1.4 1.3 4.2 2.2 6.1 0.9 1.9 2.6 4.5 3.8 5.7 1.2 1.3 3.1 2.7 4.2 3.2 1.3 0.6 3.2 0.9 5.3 0.9 2.6 0 3.9-0.3 6.3-1.4 1.9-1 3.5-2.2 4.4-3.4 0.7-1.1 1.6-2.6 1.9-3.5 0.4-1 0.4-1.9 0-3-0.3-0.8-0.5-1.9-0.5-2.4 0-0.5 0.2-0.9 0.5-0.9 0.2 0 2.5 0.8 5 1.7 3 1 4.6 1.9 4.6 2.4 0 0.4-0.8 1.1-1.6 1.5-0.9 0.4-2.3 1.8-3.2 3.2-0.9 1.4-2.5 3.4-3.6 4.5-1.1 1.1-3 2.4-4.2 3-1.3 0.5-4.3 1.2-6.8 1.4-3.7 0.4-5.1 0.4-7.8-0.3-1.8-0.5-4.3-1.4-5.5-2.2-1.3-0.7-3.3-2.3-4.6-3.6-1.2-1.2-2.9-3.5-3.8-5-0.9-1.6-2.1-4.4-2.7-6.3-0.6-1.9-1.4-4.5-1.8-5.7-0.5-1.4-1.2-2.4-2.3-3.1-0.9-0.6-1.3-1-0.9-1 0.4 0 1.2-0.5 1.8-1.1 0.6-0.7 1.6-3 2.2-5.2 0.6-2.2 1.6-5.1 2.3-6.5 0.6-1.4 2.1-3.8 3.3-5.3 1.2-1.5 3.5-3.6 5.2-4.6 1.7-1.1 4.3-2.3 5.8-2.8 1.5-0.5 2.8-0.9 2.9-1 0-0.1-0.4-1-1-2-0.7-1.3-1.1-2.7-1.1-4.2 0-1.2 0.5-3.1 1-4.2 0.5-1.1 1.6-2.3 2.4-2.7 0.9-0.4 2.5-0.8 3.6-0.8 1.1 0 2.6 0.3 3.4 0.8 1.1 0.7 1.3 1.3 1.3 2.9 0 1.5-0.3 2.4-1.2 3.3-0.7 0.7-1.7 1.2-2.3 1.2-0.5 0-1.5-0.5-2.1-1.1q-1-1.1-0.8-2.5c0.1-0.8-0.1-1.3-0.3-1.2-0.3 0.1-0.8 0.7-1.2 1.4-0.3 0.6-0.6 1.9-0.6 2.8 0 1.2 0.5 2.1 1.8 3.4 0.9 1 2.2 1.8 2.8 1.8 0.7 0 2-0.3 3.1-0.5 1.1-0.4 3.1-1.7 5.2-3.7 1.9-1.7 4.6-3.7 5.9-4.4 2.1-1 3.4-1.2 6.6-1.2 2.2 0 4.5 0.1 5.1 0.3 1.1 0.4 1.2 0.3 1.2-2.9 0-3.1-0.1-3.3-1.7-4.3-0.9-0.6-1.7-1.2-1.9-1.3-0.1-0.1 0.6-0.8 1.7-1.7 1-0.8 1.9-1.9 1.9-2.5 0-0.5-0.3-1-0.5-1-0.3 0-2.3 0.9-4.4 1.9-2.3 1-4.3 1.6-4.8 1.5q-0.9-0.4-0.6-1.4 0.2-1-1.1-2.1c-0.7-0.6-1.6-1.7-2-2.5-0.4-0.8-0.7-2.3-0.7-3.5 0-1.2 0.3-3 0.6-4.1 0.4-1.1 1.7-3.1 2.9-4.5 1.2-1.4 3.3-3.1 4.5-3.8 1.3-0.7 3.4-1.7 4.8-2.2 1.5-0.5 4-0.8 6.5-0.8zm32.7 27.1c0.5 0 1.8 0.2 2.9 0.5 1 0.2 2.8 1.3 4 2.4 1.2 1.1 2.6 2.2 3.3 2.5 0.6 0.3 1.3 0.6 1.6 0.6 0.3 0 1.7-1.2 3.3-2.8 1.6-1.6 3-2.6 3.5-2.5 0.6 0.2 0.7 1.8 0.7 10.1 0 5.5 0.3 10.2 0.5 10.8 0.3 0.5 1 1 1.6 1 0.5 0 1.5-0.7 2.2-1.5 1.2-1.4 1.3-1.9 1.3-13.1h-1.3c-0.7 0-1.4-0.2-1.5-0.5-0.1-0.3 1.2-2 3-3.8 1.8-1.8 3.6-3.2 4-3.2 0.7 0 0.8 1.5 0.8 9.9 0 8 0.1 10.1 0.7 11 0.5 0.8 1.2 1.1 1.9 1.1 0.7-0.1 1.6-0.9 2.3-2.2 1-1.8 1.1-2.6 1-7.3-0.1-5.1-0.2-5.2-1.3-5.1-0.6 0.1-1.2-0.2-1.3-0.6-0.2-0.5 0.4-1.4 1.3-2.2 0.9-0.7 2.3-2.1 3.2-3 0.8-0.9 1.8-1.7 2.1-1.6 0.5 0 0.6 2.5 0.6 21.6l1.3 1.2c0.7 0.7 1.3 1.6 1.3 2 0 0.6-0.8 0.8-3.6 0.8-3 0-3.5-0.1-3.5-0.9 0-0.5-0.1-1-0.2-1.2-0.2-0.2-1.1 0.2-2.2 0.9-1.5 1-2.2 1.2-3.9 1-1.2-0.2-2.5-0.8-3.2-1.6-1.2-1.2-1.3-1.2-2-0.4-0.4 0.4-1.4 1.1-2.2 1.5-0.7 0.4-2 0.7-2.9 0.7-1 0-2-0.5-5-3.5v-7.3c0-5.5-0.1-7.3-0.6-7.4-0.4 0-0.9 0-1.3 0-0.3 0.1-0.7-0.2-0.8-0.6-0.2-0.5-0.6-0.8-1.1-0.8-0.4 0-0.9 0.5-1.2 1-0.3 0.6-0.5 4.1-0.5 7.8 0 6.5 0 6.8 1.2 8.3 0.7 0.8 1.2 1.7 1 2-0.1 0.3-1.7 0.5-3.5 0.5-2.8 0-3.3-0.1-3.5-1-0.1-0.6-0.4-1-0.6-1-0.2 0-1 0.5-1.6 1q-1.3 1-3.7 1c-2 0-2.6-0.3-4.1-1.6-1.1-1.2-1.7-2.3-2-3.8-0.2-1.3 0-2.9 0.3-4 0.4-1 1.4-2.5 2.4-3.2 1-0.8 3.4-2.1 5.3-2.9 3.5-1.4 3.5-1.4 3.6-3.5 0.1-1.7-0.1-2.4-1.1-3.4-0.7-0.7-1.5-1.2-1.9-1.2-0.3-0.1-1.2 0.4-1.9 0.9-1 0.8-1.1 1.2-0.7 1.9 0.3 0.5 1.1 1 1.8 1.1 0.7 0.1 1.4 0.4 1.6 0.6 0.2 0.3-0.7 1.3-2 2.3-1.3 1-2.6 1.7-2.8 1.7-0.2 0-0.8-0.2-1.4-0.5-0.5-0.3-1.2-1.3-1.5-2.4-0.5-1.4-0.5-2.3 0-3.7 0.3-1.1 1.1-2.3 1.9-2.9 0.8-0.5 1.8-1 2.4-1.2 0.5-0.1 1.4-0.2 2-0.3zm54 0c1 0 2.5 0.4 3.4 1 0.9 0.5 2.1 1.9 2.6 3 0.6 1.1 1.4 2 1.8 2 0.4 0 0.9 0.3 1 0.8 0.2 0.5-1.7 2-12.8 9.2l0.3 2.2c0.2 1.2 0.7 2.8 1.2 3.6 0.6 1.2 1.2 1.6 2.7 1.7 1.4 0.1 2.2-0.2 3.4-1.3 0.9-0.8 1.7-2.2 2-3.4 0.2-1.1 0.4-3 0.4-4.1 0-1.9 0.2-2.2 1.2-2 1 0.1 1.1 0.3 1 3.3-0.1 2.2-0.6 4.1-1.3 5.5-0.6 1.3-1.9 2.8-2.9 3.4-1.2 0.8-2.4 1.2-4 1.2-1.6 0-2.8-0.4-4.2-1.4-1-0.7-2.6-2.5-3.5-3.9-1.4-2.2-1.6-3-1.7-6.8-0.2-3.2 0-4.8 0.7-6.5 0.5-1.2 1.6-3 2.4-4 0.9-0.9 2.2-2.1 3-2.6 0.9-0.5 2.3-0.9 3.3-0.9zm-119.6 27.6c0.9 0 1.9 0.4 2.5 1.1 0.6 0.7 1.1 1.7 1.1 2.4 0 0.7-0.3 1.7-0.7 2.2-0.5 0.8-1 0.9-2.5 0.7-1.7-0.3-1.9-0.2-2.1 0.8-0.2 0.6-0.3 2.2-0.3 3.5 0 1.3 0.3 2.9 0.6 3.5 0.3 0.6 1.2 1.6 3.2 3.3l-1.7 1.7c-1.6 1.7-1.6 1.7-1.6 6.8 0 2.8-0.2 5.8-0.5 6.5-0.3 0.8-1 1.7-1.4 2-0.5 0.4-1.5 0.7-2.4 0.7-0.8 0-2-0.5-2.6-1-0.7-0.6-1.1-1.6-1.1-2.5 0-0.9 0.2-2 0.5-2.5 0.3-0.8 1-1.1 2.2-1.1 1.4 0 1.9 0.3 2.1 1.2 0.2 0.9 0.4 1 0.7 0.4 0.3-0.5 0.5-2.6 0.5-4.8 0-3.9-0.1-4.1-3.5-7.3l3.5-3.3v-6.1c0-5.5 0.1-6.3 1-7.2 0.6-0.5 1.7-1 2.5-1zm226.4 12.6c0.3 0 1.4 0.2 2.5 0.5 1.1 0.3 2.6 1 3.3 1.6 0.7 0.5 1.5 1.5 1.8 2.1 0.4 0.6 0.7 1.8 0.7 2.7 0 0.9-0.3 2.1-0.6 2.7-0.3 0.7-0.9 1.3-1.2 1.5-0.4 0.3-0.7 0.8-0.7 1.2 0 0.4 0.4 1 1 1.2 0.5 0.3 1.3 1.2 1.7 2 0.5 0.9 0.8 2.2 0.8 3.1 0 0.8-0.5 2.4-1 3.5-0.8 1.5-1.7 2.3-3.7 3.3-1.4 0.6-3.4 1.2-4.4 1.2-0.9 0-2.6-0.2-3.6-0.5-1-0.3-2.2-1-2.6-1.6-0.5-0.7-1.7-1.8-4.8-3.9l1.2-1c1.2-1 1.3-1.3 1.3-6.3 0-5.2 0-5.3-1.4-6.1-1.3-0.8-1.3-0.8-0.4-1.3 0.6-0.3 2.1-1.5 3.4-2.7 1.4-1.2 3-2.4 3.8-2.5 0.8-0.2 1.6-0.4 1.9-0.5 0.3-0.1 0.7-0.2 1-0.2zm-116 0.5c1.2 0 2.8 0.3 3.6 0.7 0.7 0.3 1.7 1.4 2.1 2.3 0.4 0.9 1.4 2.1 2.1 2.6 0.8 0.5 1.4 1.1 1.4 1.4 0 0.3-2.8 2.3-6.3 4.5-3.4 2.2-6.3 4.3-6.3 4.7 0 0.3 0 1.1 0 1.6 0.1 0.6 0.4 2 0.8 3.2 0.6 1.6 1.1 2.2 2.1 2.4q1.4 0.3 3.1-0.6c1.1-0.6 2.1-1.8 2.7-3 0.5-1.1 0.9-3.2 0.9-4.6 0-2.1 0.2-2.7 0.9-2.9 0.5-0.2 1 0 1.2 0.3 0.3 0.4 0.3 2 0.1 3.7-0.2 1.7-0.5 3.6-0.8 4.3-0.2 0.7-1.3 2.1-2.3 3.1-1 1.1-2.5 2-3.4 2.2-0.8 0.2-2.2 0.2-3.1 0-0.9-0.2-2.6-1.1-3.7-2.2-1.2-1-2.7-3.1-3.4-4.6-0.9-2.1-1.2-3.7-1.2-6.3 0-3.1 0.2-4 1.7-6.8 1.1-2 2.4-3.7 3.7-4.6 1.4-1 2.5-1.4 4.1-1.4zm61.7 0.1c1.4 0.1 2.7 0.7 4.3 2 1.2 0.9 2.7 1.9 3.1 2.1 0.5 0.1 0.9 0.5 0.9 0.7 0.1 0.2-1.2 1.5-2.7 3-1.6 1.4-3.1 2.6-3.4 2.5-0.3-0.1-0.6-1.3-0.6-3.2 0-1.9-0.3-3.4-0.8-3.9-0.4-0.5-1.2-0.9-1.8-0.8-0.5 0-1.2 0.4-1.6 0.9-0.3 0.4-0.8 2.1-1.1 3.6-0.3 1.5-0.5 4.6-0.5 6.8 0 2.2 0.3 5 0.6 6.2 0.4 1.3 1.2 2.7 1.9 3.2 1.2 1 1.2 1 3.2 0 1.2-0.5 2.5-1.7 3-2.7 0.5-0.9 1.1-3.1 1.3-4.8 0.2-2.6 0.4-3.2 1.1-3.2 0.7 0 0.9 0.5 0.9 2.4 0 1.3-0.3 3.5-0.7 4.9-0.5 1.8-1.3 3.1-2.8 4.4-1.7 1.7-2.3 1.9-4.4 1.9-1.4 0-3-0.4-3.9-1-0.8-0.5-2.2-1.8-3.1-2.8-0.9-1.1-2-3.3-2.4-5-0.7-2.2-0.8-3.8-0.6-5.8 0.2-1.5 0.8-3.6 1.3-4.7 0.5-1.2 1.7-2.9 2.7-4 1-1.1 2.4-2.2 3-2.4 0.6-0.2 2-0.4 3.1-0.3zm75.3-0.1c1 0 2.5 0.3 3.2 0.7 0.8 0.3 2.1 1.4 2.9 2.3 0.8 1 1.8 2.6 2.4 3.6 0.5 1.1 1 3.2 1.2 4.8 0.2 2 0.1 3.8-0.5 5.7-0.4 1.5-1.4 3.7-2.3 4.9-0.8 1.1-2.3 2.6-3.2 3.1-1.1 0.8-2.2 1-3.8 0.9-1.3-0.1-3-0.7-3.8-1.2-0.8-0.6-2.3-2.2-3.1-3.5-1.1-1.6-1.8-3.5-2.2-5.5-0.2-1.7-0.3-4.1 0-5.5 0.2-1.4 0.7-3.1 1-3.8 0.4-0.7 1.1-1.9 1.7-2.7 0.6-0.8 1.9-2 2.8-2.6 1.1-0.8 2.5-1.2 3.7-1.2zm-220.2 0.5v9.8c0 5.4 0.1 10.2 0.4 10.7 0.2 0.4 0.8 1 1.2 1.2q0.9 0.4 2.1-0.7c0.7-0.7 1.6-2.2 2-3.4 0.5-1.7 0.6-3.5 0.4-6.4-0.3-3.8-0.5-4.2-1.4-4.2-0.5 0-1.1-0.1-1.3-0.4-0.3-0.2 1.1-1.8 2.9-3.5 1.9-1.7 3.7-3.1 4-3.1 0.6 0 0.7 2.1 0.7 21.6l1.3 1.2c0.7 0.7 1.2 1.5 1.2 1.8 0 0.3-1.5 0.5-3.5 0.5-3 0-3.5-0.1-3.5-0.9 0-0.5-0.2-1-0.4-1.2-0.2-0.2-1.1 0.3-2 1.1-1.2 1.1-2.1 1.5-3.6 1.5-1.7 0-2.4-0.3-5.6-3.5v-15.1h-1.2c-0.7 0-1.4-0.2-1.5-0.4-0.1-0.2 1-1.7 2.6-3.4 1.8-2 3.3-3.2 5.2-3.2zm25.2 0c1 0 2.3 0.2 2.8 0.5 0.7 0.5 1 0.5 1.3 0 0.2-0.3 0.7-0.5 1.2-0.5 0.5 0 2.3 1.4 4 3.1 1.7 1.8 3 3.3 2.8 3.5-0.2 0.2-0.9 0.4-2.7 0.4v7.4c0 7.3 0 7.5 1.3 8.7 0.7 0.7 1.3 1.4 1.2 1.6 0 0.2-2.2 0.4-5 0.4-3 0-5-0.2-5-0.5 0-0.3 0.6-1.1 1.2-1.8 1.1-1 1.3-1.7 1.3-4.5 0-1.8-0.2-3.3-0.5-3.3-0.3 0-1 0.2-1.6 0.5-0.8 0.3-1.6 1.5-2.6 4.1-0.7 2.1-1.3 4.1-1.3 4.6 0 0.8-0.6 0.9-4.1 0.9-2.8 0-4-0.2-4-0.6 0-0.4 0.6-0.9 1.3-1.3 0.8-0.4 1.8-1.9 4.9-8.4l-1.3-1.3c-0.7-0.6-1.5-2.1-1.9-3.2-0.3-1.1-0.4-2.9-0.3-3.9 0.2-1.1 0.7-2.5 1.2-3.2 0.5-0.8 1.6-1.8 2.4-2.3 0.8-0.5 2.4-0.9 3.4-0.9zm21.6 0c0.7 0 0.9 0.4 0.9 1.5 0 0.8 0.2 1.6 0.4 1.7 0.2 0.2 0.8-0.2 1.3-0.8 0.6-0.6 1.6-1.3 2.4-1.7 0.9-0.4 1.8-0.5 3-0.2 0.9 0.3 2.3 1.1 4.4 3.2l1.4-1.3c0.8-0.8 2-1.6 2.8-1.9 1.1-0.4 1.8-0.3 3.1 0.2 1.1 0.5 2.3 1.6 3 2.8 0.7 1.1 1.6 2.1 2.1 2.3 0.6 0.2 0.5 0.5-0.5 1.7-1.2 1.4-1.3 1.9-1.3 6.9 0 3 0.2 6.2 0.5 7.1 0.3 0.9 1 1.8 1.5 2.1 0.6 0.3 0.9 0.7 0.8 1-0.2 0.3-1.9 0.5-7.3 0.5v-10.2c0-6.4-0.2-10.4-0.6-10.8-0.3-0.5-1-0.6-1.7-0.4-0.7 0.2-1.9 1.3-2.8 2.7-1.4 2.3-1.5 2.6-1.5 8.3 0 3.4 0.3 6.4 0.6 7 0.3 0.6 0.9 1.3 1.3 1.5 0.4 0.2 0.7 0.7 0.7 1.1 0 0.7-0.9 0.8-4.8 0.8-2.9 0-4.8-0.2-4.8-0.5 0-0.3 0.6-1.1 1.3-1.9 1.2-1.4 1.3-1.5 1.2-9.7 0-4.5-0.2-8.5-0.4-8.9-0.2-0.4-0.9-0.6-1.5-0.5-0.8 0.1-1.8 1-4.7 5.2l0.2 6.7c0.1 6.2 0.2 6.7 1.3 7.6 0.6 0.6 1.1 1.2 1.1 1.5 0 0.3-2 0.5-5 0.5-2.8 0-5-0.2-5-0.4 0-0.2 0.7-1.1 1.5-2 1.5-1.6 1.5-1.7 1.5-7.5 0-3.3-0.2-6.4-0.3-7.1-0.2-0.8-0.6-1.1-1.5-1.1-0.7 0-1.2-0.2-1.2-0.5 0-0.3 1.3-1.8 2.8-3.5 1.6-1.6 3.3-3 3.8-3zm57.1 0c2.2 0 2.8 0.2 4.2 1.6 0.9 0.9 2.1 2.3 3.7 4.7l1.7-1.3c1-0.7 2.6-2.1 3.5-3.2 1-1 2.2-1.9 2.7-1.8 0.7 0 0.9 0.5 0.9 4.5 0 3.7 0.1 4.5 0.7 4.5 0.4 0 0.9-0.2 1-0.5 0.2-0.3 1.2-0.5 2.3-0.5 1.1 0 2.8 0.4 3.8 0.9 1.1 0.5 2.5 1.8 3.3 2.9 1.1 1.5 1.4 2.6 1.4 4.4 0 1.3-0.4 3.2-0.9 4.2-0.4 1-1.6 2.5-2.5 3.3-0.9 0.8-2.6 1.6-3.7 1.9-1.6 0.4-2.8 0.4-4.7-0.1-1.7-0.4-3.3-1.3-4.8-2.7-1.2-1.1-2.6-2.2-3-2.3-0.5-0.2-0.4-0.5 0.6-1 1.1-0.5 1.4-1.1 1.5-2.4 0.1-1 0.1-3.7-0.1-10.1h-1.9c-1 0-2.2 0.3-2.5 0.6-0.4 0.5-0.6 2.8-0.6 7.4 0 6.7 0 6.9 1.3 8.1 0.7 0.7 1.2 1.4 1.2 1.6 0 0.2-2.2 0.4-5 0.4-3 0-5-0.2-5-0.5 0-0.3 0.5-1.1 1.2-1.8 1.3-1.2 1.3-1.3 1.3-10.1 0-6.6-0.2-9.1-0.6-9.6-0.4-0.3-1-0.6-1.3-0.6-0.4 0-0.8 0.7-1.1 1.6-0.3 0.9-0.7 4.6-1.1 8.2-0.3 3.6-0.9 7.6-1.3 9-0.3 1.4-1.1 3-1.7 3.5-0.8 0.8-1.7 1.1-3.9 1.1-2.3 0-2.8-0.2-2.6-0.8 0.1-0.4 0.6-2.4 1.2-4.4 0.9-3.1 1.2-3.6 2.2-3.6 0.8 0 1.1 0.2 1 0.8-0.1 0.5 0.2 1 0.6 1.1 0.5 0.1 0.9-0.4 1.2-1 0.2-0.7 0.3-2.8 0.3-4.8 0-2.9-0.1-3.9-0.9-4.6-0.5-0.4-1.3-1.1-1.9-1.4-0.9-0.6-0.9-0.7 0-1.2 0.4-0.3 1.1-0.9 1.5-1.3 0.3-0.5 1.4-1.7 2.4-2.8 1.7-1.7 2.1-1.9 4.4-1.9zm58.2 0.1c1-0.1 1.2 0.1 1.2 1.3-0.1 0.7 0.1 1.5 0.3 1.7 0.2 0.2 1.1-0.3 1.9-1.1 0.9-0.9 2.2-1.6 2.9-1.8 0.8-0.1 2.1 0.1 2.9 0.5 0.8 0.4 1.8 1.2 2.1 1.8 0.4 0.5 0.9 1 1.2 1 0.3 0 1.2-0.7 2.1-1.5 1.2-1.1 2.1-1.5 3.5-1.5 1.1 0 2.3 0.3 2.7 0.6 0.5 0.4 1.7 1.7 4.5 5.4l-1 1c-0.9 0.9-1 1.7-1 7.5 0 6.3 0 6.6 1.2 7.8 0.7 0.7 1.3 1.5 1.3 1.8 0 0.3-1.5 0.5-7 0.5l-0.1-10.2c0-5.6-0.1-10.4-0.3-10.8-0.2-0.4-1-0.6-1.6-0.5-0.8 0.1-1.9 1-4.6 4.4v6.8c0 6.6 0.1 6.8 1.3 8 0.7 0.7 1.2 1.5 1.2 1.8 0 0.3-1.9 0.5-4.7 0.5-2.9 0-4.8-0.2-4.8-0.5 0-0.3 0.6-1.1 2.5-3l-0.3-8.7c-0.1-4.8-0.4-8.9-0.7-9.2q-0.5-0.5-1.6 0.2c-0.7 0.3-1.8 1.6-2.6 2.7-1.3 2.1-1.4 2.3-1.2 8.8 0.1 6.6 0.1 6.7 1.5 7.8 0.9 0.7 1.2 1.4 1 1.8-0.3 0.4-1.7 0.6-5.1 0.5-2.6-0.1-4.8-0.4-4.9-0.7-0.1-0.2 0.4-1.1 1.1-1.8 1.2-1.4 1.2-1.6 1.2-16l-1.2 0.1c-0.7 0.1-1.4-0.1-1.5-0.5-0.2-0.3 1-1.9 2.6-3.5 1.7-1.7 3.4-3 4-3z"/>
		<path id="Path 2" class="s0" d="m65.8 89.3l-1.7 1.2c8.4-0.1 8.5-0.1 6.9-0.8-0.9-0.4-1.8-1-1.9-1.3-0.1-0.2-0.5-0.4-0.9-0.4-0.3 0-1.4 0.6-2.4 1.3zm-1.9 29.5c-1.4 0.5-3.2 1.1-4 1.5-0.7 0.4-2.1 1.4-3 2.2-0.9 0.9-1.8 2.5-2.1 3.6-0.3 1.1-0.4 2.5-0.2 3.2 0.2 0.6 0.7 1.7 1.2 2.5 0.6 0.8 1.8 1.6 2.9 1.9 1 0.4 2.2 0.5 2.7 0.3 0.7-0.2 0.9-0.9 0.9-2.5 0-1.1-0.3-2.4-0.6-2.7-0.4-0.4-1-0.7-1.5-0.7-0.6 0-0.9-0.4-0.9-1.2 0-0.7 0.3-1.3 0.6-1.3 0.4 0 3-1.1 5.8-2.5 2.8-1.4 5.4-2.4 5.7-2.2 0.2 0.1 0.5 0.5 0.5 1 0 0.4-0.6 1.1-1.3 1.5-1 0.5-1.4 1.4-1.8 3.6-0.3 1.6-0.4 3.2-0.2 3.5 0.2 0.5 0.9 0.3 2.8-0.6l2.5-1.3c-1.8-2.5-1.8-2.6-0.8-3.5q1-1.1 2.2-0.8c0.6 0.2 1.4 0.9 1.8 1.6 0.7 1 0.7 1.5 0.2 2.6-0.4 0.7-1.5 1.7-2.4 2.2-1 0.5-2.9 1.4-4.2 2-2.3 1-2.4 1-2.4 3.4 0 1.3 0.3 2.6 0.6 3 0.5 0.4 1.8 0.6 3.7 0.5 1.7 0 3.6-0.2 4.3-0.5 0.7-0.2 2-1.2 2.9-2.1 0.9-1 1.8-2.7 2.1-3.7 0.3-1 0.5-2.9 0.5-4 0-1.2-0.3-2.9-0.7-3.8-0.3-0.9-1.5-2.4-2.6-3.4-1.1-0.9-2.9-2.1-4-2.6-1.1-0.5-3.5-1-5.3-1.1-2.1-0.2-4.1 0-5.9 0.4zm5.5 25.2c-1.1 0.7-1.2 1-1.1 5.7l0.1 4.8c3.1 2.7 4 3.7 4 3.9 0 0.2-1 0.7-2.2 1-1.4 0.4-3.1 1.6-4.9 3.3-2.6 2.5-2.7 2.7-1.7 3.2 0.5 0.3 2.7 0.7 4.7 0.8 2.9 0.2 4.5 0.1 6.6-0.6 1.8-0.7 3.5-1.7 5.1-3.2 1.4-1.5 2.5-3.1 2.8-4.4 0.4-1.1 0.6-3 0.6-4.2 0-1.3-0.3-3.3-0.7-4.6-0.4-1.2-1.5-2.9-2.4-3.8-0.9-0.8-2.4-1.8-3.4-2.1-1-0.3-2.8-0.6-4-0.6-1.3 0-2.8 0.4-3.5 0.8zm82.6 1.9c-0.4 0.6-1 2.4-1.2 4.1-0.3 1.7-0.5 3.4-0.5 3.9 0 0.5 0.2 0.9 0.6 0.9 0.3 0 1.6-0.7 2.7-1.5 2.1-1.5 2.2-1.7 2.2-4.1 0-1.3-0.2-2.9-0.5-3.5-0.3-0.5-1-1-1.5-1-0.6 0-1.4 0.5-1.8 1.2zm-101.2 7.1c-1.3 0.4-2.8 1.3-3.5 1.9-0.7 0.6-2 2.7-2.9 4.6-0.9 2-1.7 3.8-1.7 4.1 0 0.2 1.2 1.4 2.8 2.6 1.5 1.2 3.4 2.3 4.2 2.5 1 0.3 1.7 0.2 2.3-0.4 0.4-0.4 0.8-1 0.8-1.3 0-0.5-0.3-0.5-1.3 0-1.1 0.5-1.4 0.5-2.3-0.4-0.5-0.6-1-1.5-1-2.2 0-0.6 0.6-1.4 1.2-1.9 0.7-0.5 1.6-0.7 2.5-0.5 0.7 0.2 1.8 0.8 2.4 1.3q1 1 1 3c0 1.7-0.3 2.4-1.7 3.7-0.9 0.9-2.2 2-2.9 2.5l-1.2 0.8c2 0.1 3.4-1 5.5-3.1 2.1-2 3.8-4.4 5-6.9 1.5-2.9 1.9-4.4 2-6.5v-2.7c-3.5-0.9-5.5-1.3-6.7-1.5-1.4-0.2-3.2 0-4.5 0.4zm50.5 2.5c-1 0.7-2.1 2-2.6 2.8-0.4 0.8-0.7 2.1-0.7 2.9 0 0.7 0.3 1.8 0.6 2.3 0.4 0.6 1.1 0.8 1.9 0.7 0.7-0.1 1.7-0.8 2.4-1.9 0.8-1.3 1.2-2.5 1.2-4.6 0-1.6-0.2-3-0.5-3.1-0.2-0.2-1.3 0.3-2.3 0.9zm42.8 30c-0.4 0.3-1.1 1.2-1.5 2.1-0.5 0.9-1 2.8-1.2 4.4-0.2 1.8-0.1 2.8 0.2 3.1 0.4 0.2 1.6-0.3 2.9-1.1 1.2-0.9 2.4-2 2.5-2.7 0.2-0.6 0.2-1.9 0-2.9-0.1-0.9-0.7-2.1-1.2-2.6-0.7-0.6-1.1-0.7-1.7-0.3zm136.4 0.6c-0.6 0.6-1.3 1.8-1.6 2.6-0.3 0.8-0.6 4.1-0.7 7.3 0 4.8 0.2 6.1 1 7.7 0.5 1.1 1.3 2.2 1.7 2.5 0.4 0.3 1.4 0.3 2.1 0.1 0.9-0.1 1.8-0.9 2.3-1.9 0.7-1.3 0.9-2.9 0.9-7.9-0.1-3.5-0.3-7.1-0.7-8.2-0.3-1-1.1-2.2-1.7-2.6-0.6-0.4-1.4-0.8-1.7-0.8-0.3 0-1 0.5-1.6 1.2zm-22 0.1c-0.6 0.6-0.8 1.7-0.7 4.3v3.5c2.5 0 3.5-0.5 4.3-1.3 0.9-1 1.2-1.8 1.2-3.6 0-1.3-0.3-2.7-0.6-3.1-0.4-0.3-1.2-0.6-2-0.6-0.7 0-1.7 0.4-2.2 0.8zm-171.3 0.4c-0.8 0.6-1 1.5-1.2 4.4-0.1 3.1 0 3.9 0.8 4.6 0.5 0.5 1.3 0.9 1.9 0.9 0.5 0 1.4-0.4 1.9-0.9 0.6-0.6 0.8-1.7 0.9-3.9 0-2.3-0.3-3.3-1-4.4-0.6-0.7-1.3-1.4-1.7-1.4-0.3 0-1.1 0.3-1.6 0.7zm96.3 8.7c-1.3 1.2-1.3 1.3-1.1 5.8 0.2 3.8 0.4 4.6 1.3 5.2 0.5 0.4 1.5 0.7 2.1 0.7 0.6 0 1.6-0.4 2.1-1 0.8-0.8 1-1.6 1-4.4 0-1.8-0.2-4.2-0.5-5.1-0.3-1-0.8-1.9-1.1-2.1-0.3-0.2-1-0.4-1.5-0.4-0.5 0-1.5 0.5-2.3 1.3zm74.3 5.2c0 3.4 0.2 4.2 1 5 0.5 0.6 1.5 1 2.1 1 0.7 0.1 1.6-0.4 2.2-1 0.7-0.8 1-1.8 1-4 0-2.2-0.3-3.2-1-4-0.8-0.8-1.6-1-3.2-1h-2.1z"/>
	</g>
</svg>