<?xml version="1.0" encoding="utf-8"?>
<!-- Generator: Adobe Illustrator 28.0.0, SVG Export Plug-In . SVG Version: 6.00 Build 0)  -->
<svg version="1.1" id="Слой_1" xmlns="http://www.w3.org/2000/svg" xmlns:xlink="http://www.w3.org/1999/xlink" x="0px" y="0px"
	 viewBox="0 0 425 425" style="enable-background:new 0 0 425 425;" xml:space="preserve">
<style type="text/css">
	.st0{fill:#F3F4F6;}
	.st1{fill:#B3B3B3;}
</style>
<g id="Background">
	<path id="Path_0" class="st0" d="M0,212.5V425h425V0H0V212.5z"/>
	<path id="Path_1" class="st1" d="M226,20.7c-2.5,0.9-6.9,3.2-9.9,5.2s-6.7,5.4-8.3,7.6s-3.8,6.5-5,9.5c-1.4,3.7-2.1,7.8-2.1,12.5
		c-0.1,5.2,0.6,8.6,2.4,13c1.3,3.3,3.8,7.7,5.4,9.8c1.7,2.1,5.3,5.3,8,7.1c2.8,1.8,7.3,4,10,5c2.8,0.9,7.5,1.6,10.5,1.6
		s7.8-0.7,10.5-1.7c2.8-0.9,6.6-2.6,8.5-3.8c1.9-1.2,5.2-3.9,7.3-6.1c2.1-2.1,5-6.4,6.5-9.4c2.1-4.4,2.8-7.3,3-14
		c0.3-7,0-9.6-1.9-14.5c-1.5-3.8-4.2-8-7.5-11.5c-3.4-3.7-7.2-6.5-11.5-8.5c-5-2.3-8.1-3-13.9-3.2C233,19.1,229,19.6,226,20.7z
		 M107.5,70c-3.8,0.4-10.2,1.7-14,3c-3.8,1.2-10.4,4-14.5,6.2s-10,5.9-13,8.3c-3,2.3-7.6,6.4-10.1,9.1s-6.3,7.6-8.4,10.9
		c-2.1,3.3-4.7,8.4-5.7,11.3c-1,2.8-1.8,7.5-1.8,10.2c0,2.8,0.7,6.7,1.5,8.8c0.9,2,2.7,5.3,4,7.2s4.3,4.9,6.7,6.6
		c2.4,1.8,6,4.1,8.1,5.3c2,1.1,3.8,2.1,4,2.1c0.1,0.1,3.8-4.3,8.2-9.7c4.4-5.4,19.8-24.3,34.3-42C121.2,89.5,133,74.8,133,74.5
		s-1.2-1.1-2.7-1.9c-1.6-0.8-5-1.7-7.8-2.1c-2.7-0.4-5.7-0.8-6.5-0.9C115.2,69.4,111.4,69.6,107.5,70L107.5,70z M160,80.7
		c-3.2,1.6-8.6,5.9-13,10.3c-4.2,4.1-15.2,16.7-24.6,28s-20.3,24.6-24.3,29.5S89.4,160,87.6,163c-1.7,3-4,7.7-5.1,10.5
		c-1.2,3.2-1.9,7.5-1.9,12c0,5.7,0.5,7.8,2.6,11.5c1.5,2.5,4.4,6.2,6.5,8.2s6.7,5.2,10.3,7c3.6,1.9,15.3,6.3,26,9.7
		c10.7,3.5,25.9,8.4,33.8,11c13.4,4.3,14.4,4.8,16.2,8.1c1.1,1.9,5.2,10.3,9.1,18.5c3.9,8.3,8.4,17.7,9.9,21s6,12.5,9.9,20.5
		s7.9,15.4,8.8,16.6c1,1.1,3.6,3.3,5.8,4.8c2.7,1.8,5.3,2.7,8,2.6c2.2,0,5.5-0.9,7.3-2c1.7-1.1,4.1-3.5,5.2-5.3
		c1.7-2.6,2-4.5,1.7-9.7c-0.3-5.7-2.6-11.9-17.4-48.5c-9.3-23.1-17.7-43.5-18.6-45.3c-0.9-1.7-3.2-4.2-4.9-5.5c-1.8-1.3-6-3.5-9.3-5
		s-13.8-6-23.4-10c-9.6-3.9-17.6-7.6-17.7-8.2c-0.2-0.6,6.8-9.8,15.7-20.5c8.8-10.7,18.7-22.5,22-26.3c4-4.5,6.6-6.7,8.2-6.7
		c1.2,0,17.3,4.9,35.7,11c18.4,6,41.4,13.4,51,16.5c9.6,3,18.7,5.5,20.3,5.5c1.5,0,3.9-0.6,5.5-1.4c1.5-0.8,3.8-2.6,5.2-4.1
		c2.1-2.3,2.5-3.6,2.5-9c0-5.7-0.3-6.7-3-9.5c-1.6-1.6-6.8-4.7-11.5-6.6c-4.7-2-11.4-5-15-6.7c-3.6-1.6-11.9-5.3-18.5-8.2
		c-6.6-2.9-18.3-8.1-26-11.5s-16.2-7.2-19-8.4c-2.7-1.3-8.4-3.8-12.5-5.6c-4.1-1.8-11.3-5-16-7.2s-11.9-5.1-16-6.4
		s-8.8-2.4-10.5-2.4C166.9,78,163,79.2,160,80.7z M322.5,195.1c-3.3,0.5-8.9,1.8-12.5,2.8c-3.6,1.1-9.6,3.7-13.5,5.8
		c-4.4,2.4-10.1,6.9-15.6,12.3c-5.6,5.6-9.9,10.9-12.5,15.5c-2.1,3.8-4.9,10.4-6.3,14.5c-2.1,6.5-2.5,9.3-2.5,21.5
		c0,12.2,0.4,15,2.5,21.5c1.4,4.1,4.2,10.6,6.3,14.5c2.5,4.5,6.9,10,12.5,15.5c7.1,7.1,10.3,9.4,18.1,13.2
		c5.2,2.6,12.6,5.4,16.5,6.3s11.3,1.7,16.5,1.7s12.6-0.8,16.5-1.7c3.9-0.9,11.1-3.6,16-6c6-2.9,11.3-6.5,15.9-10.7
		c3.8-3.5,8.8-9,11.2-12.3c2.3-3.3,5.5-8.7,6.9-12c1.5-3.3,3.5-9.6,4.6-14c1-4.4,1.9-11.6,1.9-16s-0.9-11.6-1.9-16
		c-1.1-4.4-3.1-10.7-4.6-14c-1.4-3.3-4.6-8.7-6.9-12c-2.4-3.3-7.2-8.7-10.8-12c-3.6-3.3-10.1-7.9-14.4-10.2
		c-4.4-2.3-11.3-5.1-15.4-6.2c-4.1-1-10.9-2.1-15-2.4C331.9,194.4,325.8,194.6,322.5,195.1L322.5,195.1z M82.5,254.6
		c-3.8,0.8-11,3.4-16,5.8c-4.9,2.5-11.6,6.5-14.7,9c-3.2,2.6-8.4,8.1-11.6,12.3c-3.1,4.3-7,10.7-8.6,14.3c-1.6,3.6-3.7,9.9-4.7,14
		c-1.1,4.1-1.9,11.2-1.9,15.7c0,5.2,0.8,11.4,2.1,16.5c1.1,4.6,3.4,11.2,5,14.8c1.7,3.6,5.4,9.6,8.3,13.5c3,3.9,8.7,9.6,12.7,12.7
		c4.1,3.1,10.3,7,13.9,8.7c3.6,1.6,10.2,3.9,14.8,5c5.1,1.3,11.3,2.1,16.5,2.1c4.7,0,11.6-0.9,16.2-2c4.4-1.1,11.6-3.7,16-5.9
		c4.4-2.2,10.9-6.4,14.5-9.3c3.6-3,8.6-8.3,11.2-11.8c2.6-3.6,6.3-10.1,8.4-14.5c2-4.4,4.3-11.3,5-15.3c0.8-3.9,1.4-10.3,1.4-14.2
		c0-3.9-0.6-10.3-1.4-14.3c-0.8-3.9-2.7-10.1-4.2-13.7s-4.4-9-6.3-12c-1.9-3-6.3-8.2-9.6-11.5s-8.5-7.7-11.5-9.6s-8.4-4.8-12-6.3
		c-3.6-1.5-9.8-3.4-13.7-4.2c-4-0.8-10.8-1.4-15-1.3C93,253.1,86.3,253.8,82.5,254.6L82.5,254.6z"/>
	<path id="Path_2" class="st0" d="M318.5,225.8c-2.8,1-6.4,2.6-8,3.5c-1.6,0.8-5,3.3-7.4,5.4c-2.4,2.1-5.6,5.6-7.2,7.8
		c-1.5,2.2-3.7,6.7-5,10c-1.8,4.7-2.3,8-2.4,15c0,6.5,0.6,10.4,2,14c1,2.7,3.5,7.4,5.4,10.4c2,3,5.4,7,7.6,8.8
		c2.2,1.9,6.9,4.9,10.5,6.6c6.2,3,7.1,3.2,18,3.2s11.8-0.2,18.3-3.3c4-1.9,8.8-5.3,11.9-8.5c2.9-2.9,6.7-7.9,8.5-11.2
		c1.7-3.3,3.7-8.9,4.3-12.5c0.9-4.8,0.9-8.4,0.1-13.8c-0.7-4.3-2.4-9.7-4.3-13.5c-1.7-3.4-5.4-8.5-8.2-11.3c-3-2.9-8-6.5-12.1-8.4
		c-6.3-3.1-8-3.4-17-3.7C325.6,224,322.4,224.4,318.5,225.8L318.5,225.8z M87.2,283.6c-2.8,0.8-7.1,2.4-9.4,3.6
		c-2.4,1.1-6.8,4.5-9.8,7.3c-3.3,3.2-6.8,7.8-8.7,11.6c-1.7,3.5-3.7,9.3-4.3,12.9c-0.9,5-0.9,8.1,0,13.5c0.6,3.9,2.3,9.5,3.8,12.5
		c1.4,3.1,5.2,8.1,8.6,11.6c3.5,3.4,8.5,7.2,11.6,8.6c3,1.5,8.4,3.2,12,3.8c5,0.9,8.1,0.9,13.5,0c3.9-0.6,9.7-2.4,13-4
		c3.7-1.7,8.2-5.1,11.6-8.7c3.3-3.3,6.9-8.3,8.5-11.8c1.5-3.3,3.2-8.9,3.8-12.5c0.7-4.7,0.7-8.3-0.2-13c-0.6-3.6-2.4-9.2-4-12.5
		s-5.2-8.4-8-11.3c-2.9-2.8-7.4-6.3-10.2-7.7c-2.7-1.4-7.6-3.2-10.7-4c-3.2-0.8-8-1.5-10.8-1.4c-2.7,0-7.4,0.7-10.2,1.5H87.2z"/>
</g>
</svg>
