<?xml version="1.0" encoding="utf-8"?>
<!-- Generator: Adobe Illustrator 28.0.0, SVG Export Plug-In . SVG Version: 6.00 Build 0)  -->
<svg version="1.1" id="Слой_1" xmlns="http://www.w3.org/2000/svg" xmlns:xlink="http://www.w3.org/1999/xlink" x="0px" y="0px"
	 viewBox="0 0 550 550" style="enable-background:new 0 0 550 550;" xml:space="preserve">
<style type="text/css">
	.st0{fill:#F3F4F6;}
	.st1{fill:#B3B3B3;}
</style>
<g id="Background">
	<path id="Path_0" class="st0" d="M0,275v275h550V0H0V275z"/>
	<path id="Path_1" class="st1" d="M194.5,80.1c-3.4,0.5-9.2,2.5-13.5,4.6c-4.8,2.4-9.7,5.9-13.6,9.8c-3.4,3.3-6.8,7.3-7.7,9
		c-0.8,1.7-6.8,15.8-13.2,31.5s-12,28.8-12.4,29.2c-0.3,0.5-5.3-0.5-11.1-2.1c-5.8-1.6-12.2-3.1-14.3-3.5c-2-0.3-5.6-0.1-8,0.5
		c-2.3,0.6-5.6,2.6-7.3,4.3c-1.7,1.7-3.6,4.9-4.3,7.1c-0.6,2.2-1.1,7.9-1.1,12.8v8.7c-14.3,10.6-21.8,17-25.9,21.1
		c-4,4.1-9.9,10.8-13,14.9c-3.1,4.1-7.5,10.7-9.8,14.5c-2.2,3.8-5.4,10.2-7.1,14c-1.7,3.9-4.2,10.4-5.5,14.5
		c-1.4,4.1-3.3,11-4.1,15.3c-0.9,4.2-2,12.5-2.5,18.5c-0.5,5.9-0.5,15.6-0.1,21.7c0.5,6.1,1.6,14.6,2.5,19s2.8,11.6,4.2,16
		c1.4,4.4,4.1,11.4,6,15.5c1.9,4.1,5.1,10.2,7.1,13.5c1.9,3.3,6.3,9.6,9.6,14c3.4,4.4,9.2,11.2,13.1,15c3.8,3.9,10.6,9.7,15,13.1
		c4.4,3.3,10.7,7.6,14,9.6s10.3,5.5,15.5,7.8s13.3,5.3,18,6.6c4.7,1.4,12.8,3.2,18,4s15.3,1.5,22.5,1.5s16.4-0.5,20.5-1.1
		s10.4-1.8,14-2.7c3.6-0.9,10.3-2.9,15-4.5s13-5.3,18.5-8.1c5.5-2.8,14.3-8.4,19.5-12.3c5.2-3.9,13.1-10.9,17.5-15.5
		s10.6-11.8,13.6-15.9c3.1-4.1,7.8-11.8,10.6-17c2.7-5.2,6.1-12.3,7.4-15.8l2.4-6.2H442c0,33.1,0,33.6,2.7,38.9
		c1.9,3.6,4.2,6.4,7,8.3c2.4,1.5,6.7,3.3,9.5,3.9c3.2,0.7,12.3,1,22.8,0.8c17.3-0.4,17.6-0.4,22.8-3.4c3.5-1.9,6.4-4.6,8.3-7.5
		c1.6-2.5,3.2-5.9,3.5-7.5s0.3-32.5,0.1-68.5c-0.3-54-0.7-66.8-2-73c-0.8-4.1-2.3-10.4-3.2-14s-3.2-10.8-5-16
		c-1.9-5.2-3.5-10.1-3.5-10.7c0-0.8,1.4-1.3,3.7-1.3c2.2,0,6.2-1.2,9.3-2.7c3.5-1.8,6.5-4.3,8.2-6.8c1.6-2.3,3.3-6.6,3.9-10
		c0.7-3.5,0.9-9.6,0.5-14.5c-0.5-6.1-1.3-9.6-2.9-12.3c-1.2-2.1-3.8-4.8-5.7-6c-2.5-1.6-5.1-2.2-9-2.1c-3,0-10.7,1.5-17,3.3
		s-11.6,3.1-11.7,2.9c-0.1-0.2-5.3-12.7-11.6-27.8c-6.2-15.1-12.6-29.9-14.3-32.9c-1.6-2.9-5.6-7.9-8.9-10.9c-3.4-3.1-9.1-7-13-8.9
		c-4-1.9-10-3.7-14-4.3c-4.4-0.6-47.5-0.9-114.5-0.9C248.9,79.2,197.8,79.6,194.5,80.1L194.5,80.1z"/>
	<path id="Path_2" class="st0" d="M202,99.7c-2.9,1.1-6.5,3.7-10,7.2c-5.3,5.4-5.9,6.7-16.8,33.3c-6.1,15.3-11.2,28.2-11.2,28.8
		s3.1,1,7.3,1c3.9,0,11.3,0.7,16.2,1.4c4.9,0.8,11.9,2.2,15.5,3.1c3.6,1,11,3.5,16.5,5.6s14.3,6.4,19.5,9.5s13.1,8.4,17.5,11.9
		s10.5,8.8,13.5,11.9l5.5,5.6c169.8,0,183-0.2,186.3-1.5c2.1-0.8,4.5-2.8,5.4-4.5c1-1.6,1.8-4.3,1.8-6s-2.3-8.7-5.1-15.8
		c-2.8-7-10.9-26.9-18.1-44.2c-7.1-17.3-14-33.3-15.2-35.5c-1.3-2.2-3.9-5.2-5.7-6.7c-1.9-1.4-5.4-3.5-7.9-4.7
		c-4.5-2-5.3-2.1-107.5-2C218,98.2,206,98.3,202,99.7L202,99.7z M152.5,213.7c-1.7,0.2-6.6,1.3-11,2.3s-11.8,3.5-16.5,5.5
		s-12.1,6-16.5,9c-4.4,2.9-10.9,8.2-14.4,11.7s-8.6,9.2-11.3,12.8c-2.7,3.6-6.9,10.6-9.4,15.5c-2.4,4.9-5.6,13.1-7.1,18
		c-2.5,8.4-2.7,10.3-2.7,27.5c0,17.3,0.2,19.1,2.7,27.5c1.6,4.9,4.4,12.4,6.3,16.5c2,4.1,5.5,10.4,7.9,14c2.3,3.6,7.4,9.7,11.1,13.5
		c3.8,3.9,9.6,9.1,12.9,11.5s9.1,6.1,13,8.1c3.8,2.1,9.5,4.7,12.5,5.8c3,1.1,8.4,2.8,12,3.8c5,1.3,10.4,1.7,23.5,1.8
		c14.7,0,18.2-0.3,25.5-2.3c4.7-1.3,12.1-3.9,16.5-5.8s11.6-5.9,16-8.8c4.4-3,11.6-9.1,16-13.7s9.8-11.1,12-14.4
		c2.1-3.3,5.3-8.9,7.1-12.5c1.7-3.6,4.1-9.2,5.2-12.5s2.8-10.5,3.8-16c1.2-7.3,1.5-12.9,1.1-21c-0.3-6.7-1.6-14.9-3.1-21
		c-1.5-5.7-4.7-14.3-7.5-20c-2.7-5.5-7.6-13.4-10.9-17.5c-3.2-4.1-8.3-9.8-11.3-12.6c-3-2.7-8.1-6.8-11.4-9.1
		c-3.3-2.2-8.9-5.5-12.5-7.3s-9.7-4.4-13.5-5.7c-3.9-1.3-10.8-3-15.5-3.8c-4.7-0.9-12.8-1.4-18-1.4
		C159.8,213.2,154.1,213.5,152.5,213.7L152.5,213.7z M394,268.8c-1.9,0.9-4,2.8-4.7,4.2c-0.9,1.7-1.3,8-1.3,19.8
		c0,12.9,0.4,18,1.4,20.4c0.8,1.8,2.8,3.9,4.3,4.6c2.1,1,11.3,1.2,39.1,1l36.4-0.3c4.8-5.5,4.8-5.8,4.8-25.2
		c0.1-19.5,0-19.8-2.3-22.3c-1.3-1.4-3.9-2.8-5.8-3.3c-1.9-0.4-18-0.7-35.9-0.7C401.1,267,397.1,267.2,394,268.8z"/>
	<path id="Path_3" class="st1" d="M217,253.9c-1.4,0.4-3.5,1.4-4.8,2.2c-1.3,0.8-6.7,7.3-12,14.4s-17.7,24-27.5,37.5
		c-9.9,13.5-18.2,24.9-18.6,25.3c-0.3,0.5-8-4.5-17.1-11.1c-9.1-6.5-18-12.7-19.7-13.6c-1.8-0.9-5.5-1.6-8.3-1.6
		c-2.7,0-6.2,0.6-7.7,1.4c-1.6,0.8-4,2.7-5.5,4.3c-1.5,1.5-3.2,4-3.7,5.5c-0.6,1.6-1.1,4.6-1.1,6.8c0,2.2,0.6,5.5,1.4,7.2
		c0.7,1.8,2.9,4.7,4.7,6.4c1.9,1.7,13.1,10.1,24.9,18.6c11.8,8.6,23.1,16.3,25,17.3c2.6,1.3,5.3,1.7,10.7,1.4
		c6-0.3,7.8-0.9,11.4-3.4c3-2.1,12.8-14.6,34.1-43.5c16.4-22.3,31.4-42.8,33.2-45.5c1.9-2.8,3.8-6.8,4.1-9c0.5-2.5,0.2-5.5-0.6-8
		c-0.7-2.2-2.5-5.3-3.9-6.9s-4.3-3.8-6.5-4.7c-2.2-1-5.3-1.8-7-1.8S218.4,253.5,217,253.9L217,253.9z"/>
</g>
</svg>
