<svg version="1.2" xmlns="http://www.w3.org/2000/svg" viewBox="0 0 1024 1024" width="1024" height="1024">
	<title>Carted_ico-svg</title>
	<style>
		.s0 { fill: #b5b5b5 } 
		.s1 { fill: #ffffff } 
	</style>
	<path id="Слой 1" class="s0" d="m0 0h1024v1024h-1024z"/>
	<path id="Path 0" fill-rule="evenodd" class="s1" d="m600.2 126.1l6.3 1.7c3.4 1 9.2 3.1 12.8 4.9 3.6 1.8 9.2 5 12.5 7.2 3.1 2.2 8.7 7 12.4 10.7 3.6 3.7 7.8 8.7 9.3 11.2 1.6 2.6 5.1 10.1 7.9 16.8 2.8 6.6 11.2 26.4 32.2 76.2h79.7c75.3 0 80 0.1 82.9 1.5 1.7 0.7 4 2.4 5.3 3.8 1.2 1.4 2.5 3.9 3 5.7 0.4 2.2 0.7 10.7 0.5 23.3-0.2 19.6-0.2 19.8-2.1 22.8-1.1 1.7-3.4 4-8.2 7.1l-54.1 0.4v239.4c0 160.2-0.3 242.3-0.8 248-0.4 4.7-1.4 11.2-2 14.4-0.7 3.3-2.3 9.4-3.8 13.6-1.4 4.3-4 10.6-5.7 14-1.7 3.5-5.3 9.6-8 13.7-2.7 4.1-8 10.4-11.6 14.1-3.7 3.6-9.3 8.3-12.4 10.4-3.3 2.1-7.8 4.6-10.2 5.7-2.3 1-7.3 2.6-17.5 5.2h-434.2l-7.3-1.9c-4.1-1.1-10.4-3.4-14-5.2-3.7-1.8-9.5-5.6-12.8-8.3-3.5-2.8-7.9-7-9.9-9.3-2-2.2-5.5-6.7-7.8-10-2.3-3.1-5.8-8.9-7.8-12.8-2-3.8-4.6-10-5.9-13.6-1.4-3.7-3.1-9.9-4-14-0.9-4-2-11.1-2.4-15.6-0.6-5.6-0.8-84.1-0.8-487.8l-53.6-0.4-3.3-2.4c-1.8-1.3-4-3.7-4.9-5.4-1.5-2.9-1.7-4.6-1.8-22.6-0.2-12.1 0-20.7 0.5-22.8 0.5-1.8 1.8-4.3 3-5.7 1.2-1.4 3.5-3.1 5.2-3.8 3-1.4 7.6-1.5 161.8-1.5l17.5-41.5c9.6-22.7 18.8-44 20.5-47.2 1.7-3.3 4.8-8 6.9-10.5 2-2.6 5.6-6.2 7.9-8.2 2.2-1.9 6.3-5 9.1-6.9 2.8-1.9 7.7-4.7 11-6.3 3.1-1.6 8.7-3.9 12.3-5 3.7-1.1 9-2.4 11.8-2.8 2.7-0.3 43.2-0.5 174.6-0.3zm-175.5 68.5c-0.7 0.9-6.6 14.2-13.1 29.9-6.5 15.6-12 28.8-12.2 29.3-0.2 0.8 22.6 1 112.1 1 89.6 0 112.4-0.2 112.1-1-0.2-0.5-5.6-13.7-12.1-29.3-6.5-15.7-12.4-29.1-13.1-29.9-0.7-0.8-2.2-1.9-3.4-2.5-1.8-1-15.4-1.1-83.3-1.1-69 0-81.4 0.2-83.4 1.1-1.3 0.6-2.9 1.8-3.6 2.5zm-138.2 366.9c0.2 228.7 0.3 242.5 1.6 247.2 0.7 2.8 2.7 7.9 4.4 11.3 1.6 3.5 4.3 7.8 5.8 9.6l2.8 3.3h420.9c4.4-5.1 6.9-9.4 8.6-12.9 1.6-3.4 3.6-8.3 4.3-10.8 1.4-4.4 1.5-16.5 1.7-247.3l0.1-242.5h-450.4zm96.2-145.7c18.2 0 21 0.2 23.8 1.4 1.7 0.8 4 2.6 5.1 4.1 1.1 1.4 2.4 3.9 2.9 5.3 0.7 2.1 0.9 40.6 0.9 149.5 0 105.1-0.3 147.5-0.9 149.8-0.5 1.8-2.2 4.4-4.1 6.3-2.6 2.6-4 3.3-7.8 4.1-3.2 0.7-10.5 0.8-22.6 0.7-16.7-0.2-18.1-0.4-21.2-2-1.9-1-4-2.7-4.9-3.9-0.8-1.2-1.9-3.3-2.4-4.9-0.4-1.7-0.7-55.4-0.3-300.8l2.2-3.1c1.2-1.8 3.6-3.9 5.4-4.9 3.1-1.5 4.4-1.6 23.9-1.6zm128.8 0c17.8 0 20.6 0.2 23.3 1.4 1.8 0.8 4.1 2.6 5.3 3.9 1.2 1.4 2.5 3.8 3 5.3 0.5 2 0.7 50.1 0.3 300.4l-2.1 3c-1.1 1.7-3.6 3.9-5.5 5-3.2 1.9-3.8 1.9-21.2 2.2-11 0.1-19.6 0-22.3-0.6-3.2-0.6-5.3-1.6-7.3-3.4-1.7-1.4-3.6-3.9-4.4-5.6-1.3-3-1.3-9.9-1.3-151.2-0.1-132.1 0.1-148.3 1.1-150.9 0.7-1.6 2-3.7 2.9-4.7 0.9-1.1 3.1-2.6 4.8-3.4 2.8-1.2 5.4-1.4 23.4-1.4zm128.4 0c18.3 0 20.5 0.2 23.3 1.5 1.7 0.8 4.2 3 7.8 8.1l0.4 299.6-1.8 3.6c-1.2 2.3-3 4.2-9.4 8.1l-17.5 0.3c-11.8 0.1-19.1 0-22.3-0.7-3.7-0.8-5.2-1.5-7.9-4.1-1.9-1.9-3.5-4.5-4-6.3-0.7-2.3-0.9-44.6-0.9-149.5 0-103.3 0.2-147.2 0.9-149.3 0.4-1.7 1.6-4.2 2.5-5.5 1-1.3 3.3-3.1 5.2-4.1 3.3-1.6 4.2-1.7 23.7-1.7z"/>
</svg>