<svg version="1.2" xmlns="http://www.w3.org/2000/svg" viewBox="0 0 1024 1024" width="300" height="300">
	<title>img_79669</title>
	<style>
		.s0 { fill: #ffffff } 
	</style>
	<rect width="1024" height="1024" id="Слой 1" style="fill: #435c59"/>
	<path id="Path 0 copy" fill-rule="evenodd" class="s0" d="m169.8 140c55.2 0 55.7 0 62.9 2 4 1.1 9.1 3.1 11.3 4.4 2.3 1.3 6.3 4.3 9 6.8 2.7 2.4 6.5 6.8 8.4 9.8 2 3 4.9 9.7 6.6 14.9 1.7 5.3 3.5 11.6 4.1 14.1 0.6 2.5 2.4 13.9 4.1 25.3 1.7 11.5 3.9 26.8 5 34 1.1 7.2 2.1 13.6 2.3 14.3 0.3 0.9 61.8 1.1 303.5 1.1 250.8 0 304.3 0.3 309.9 1.3 3.8 0.6 9.3 2.1 12.3 3.1 3 1.1 8.2 3.9 11.7 6.2 3.4 2.4 7.8 6.4 9.7 8.9 1.9 2.4 4.3 7 5.3 10.1 1 3.3 1.8 8.1 1.8 11.4-0.1 3.1-0.6 8.7-1.3 12.4-0.7 3.8-9.6 30.5-20.4 61.1-10.6 29.9-22.2 63.1-25.8 73.8-3.7 10.7-11 31.7-16.4 46.7-5.3 14.9-11.3 30.6-13.4 34.8-2.1 4.3-5.4 10.2-7.4 13.2-2 2.9-5.9 7.6-8.6 10.4-2.8 2.7-7.3 6.3-10 7.9-2.7 1.6-7.8 3.9-11.3 5.1-3.4 1.3-9.5 2.7-13.3 3.2-4.8 0.7-78.4 1-466.1 1l0.4 2.9c0.3 1.6 2.9 18.9 5.9 38.3 3 19.4 5.4 35.6 5.4 36 0 0.4 101.6 0.8 451.4 1.1l5.9 2c3.3 1.1 8.1 3.6 10.7 5.6 3.5 2.8 5.5 5.3 7.7 9.8 2.6 5.6 2.9 7.1 3.2 16.1 0.3 7.1-0.1 11.7-1.1 15.9-0.8 3.2-2.8 8.5-4.4 11.6-1.6 3.2-4.4 7.1-6.1 8.7-1.8 1.6-5.6 3.9-14 7.3h-239.1c-200.9 0-239.9-0.2-244.1-1.3-2.7-0.7-7-2.2-9.5-3.5-2.5-1.2-6.7-3.9-9.4-6-2.7-2-7.2-6.6-10-10-2.8-3.5-7.1-10.5-9.7-15.4-2.5-5-5.9-12.8-7.5-17.2-1.6-4.5-3.7-11.2-4.6-15-1-3.7-5.5-26.3-10-50.2-4.5-23.9-13.2-70.2-19.4-102.8-6.2-32.6-14.7-78.1-19-101-4.3-22.9-13.4-70.6-32.6-170.2l-37.1-0.5c-36.5-0.4-37.3-0.5-42.6-2.6-4.2-1.7-7.1-3.8-12.7-9.5-5.4-5.4-8.2-9.2-10.7-14.1-1.9-3.9-4.1-10.5-5.1-15.4-1-4.8-2.1-11.9-2.4-15.9-0.4-5.3-0.2-8.8 0.9-13.1 0.9-3.3 2.6-7.7 4-10 1.3-2.2 3.8-5.6 5.6-7.5 1.8-2 4.6-4.4 6.4-5.5 1.7-1 5.6-2.8 8.6-3.9 5.3-1.9 6.3-1.9 61.1-2zm132.5 206.1c0.4 2.4 7.1 37.4 14.9 77.8 7.8 40.5 14.4 73.7 14.7 73.9 0.2 0.3 102.3 0.6 226.7 0.8l226.3 0.4 58.4-154.9c-80.9-0.9-202.8-1.4-323.1-1.7l-218.7-0.7zm430.4 412.7c8.5 0.3 13.7 0.9 19 2.3 4 1.1 10.1 3.3 13.6 4.9 3.4 1.6 8.7 4.6 11.7 6.6 3 2.1 8.4 6.7 11.9 10.4 3.5 3.7 8 9.1 9.9 12.1 1.9 3 4.6 8.1 6.1 11.3 1.4 3.3 3.5 9.2 4.5 13.2 1.6 5.7 1.9 9.6 1.9 19-0.1 9-0.5 13.4-2 19-1.1 4-3.8 10.9-6 15.4-2.2 4.5-6.2 11-8.8 14.5-2.7 3.5-7.9 8.9-11.6 12-3.7 3.1-9.8 7.2-13.6 9.2-3.7 1.9-8.8 4.3-11.3 5.3-2.5 1-8.8 2.7-14 3.7-5.3 1.1-11.8 1.9-14.5 1.9-2.8 0-9.3-1-14.5-2.1-5.2-1.2-13-3.8-17.2-5.7-4.2-2-9.7-5-12.2-6.7-2.5-1.7-7.4-5.7-10.8-9-3.4-3.2-7.9-8.4-10.1-11.3-2.1-3-5.5-8.9-7.5-13.2-2-4.2-4.6-11.3-5.6-15.8-1.7-6.9-1.9-10.1-1.6-20.4 0.4-11.2 0.7-13 3.7-21.7 1.8-5.3 5.3-12.7 7.6-16.6 2.4-4 6.6-9.6 9.3-12.6 2.8-3.1 7.3-7.2 10-9.3 2.7-2.1 7.6-5.3 10.9-7.1 3.2-1.8 8.9-4.2 12.6-5.5 3.8-1.3 9.1-2.7 11.8-3.2 2.7-0.5 10.3-0.7 16.8-0.6zm-364.3-2.1c2.9 0 8.4 0.4 12.2 0.9 3.9 0.5 10.7 2.2 15.2 3.6 4.5 1.5 11.3 4.5 15.2 6.8 3.8 2.2 9.9 6.8 13.5 10.2 3.7 3.4 8.8 9.5 11.6 13.4 2.7 3.9 6.3 10.4 8 14.4 1.7 4 3.9 10.9 4.8 15.4 0.9 4.4 1.7 11.2 1.7 14.9 0 3.7-0.5 9.4-1 12.7-0.5 3.2-2 9.1-3.4 13.1-1.3 4-4.3 10.5-6.5 14.4-2.4 4.2-7.1 10.4-11.3 14.9-4 4.2-10.5 9.8-14.5 12.4-4 2.7-10.7 6.3-14.9 8-4.3 1.7-10.2 3.6-13.2 4.3-3 0.7-10.5 1.2-16.7 1.1-8.7 0-13.1-0.5-19-2-4.3-1.1-11-3.6-15-5.5-4-1.9-10.5-5.9-14.5-8.9-3.9-3-9.1-7.6-11.3-10.3-2.3-2.7-5.6-6.9-7.2-9.4-1.7-2.5-4.6-7.8-6.5-11.7-1.8-4-4.1-9.9-5-13.2-1.2-4.5-1.6-9.1-1.6-19.9 0.1-13.3 0.2-14.5 2.9-22.6 1.6-4.8 4.8-12.1 7.2-16.3 2.6-4.6 7.2-10.6 11.6-15.2 4-4.2 9.7-9.3 12.7-11.3 2.9-1.9 8.2-4.9 11.7-6.6 3.5-1.6 8.6-3.6 11.3-4.4 2.8-0.8 7.7-1.9 10.9-2.3 3.2-0.4 8.2-0.8 11.1-0.9z"/>
</svg>