<?xml version="1.0" encoding="utf-8"?>
<!-- Generator: Adobe Illustrator 28.0.0, SVG Export Plug-In . SVG Version: 6.00 Build 0)  -->
<svg version="1.1" id="Слой_1" xmlns="http://www.w3.org/2000/svg" xmlns:xlink="http://www.w3.org/1999/xlink" x="0px" y="0px"
	 viewBox="0 0 454 454" style="enable-background:new 0 0 454 454;" xml:space="preserve">
<style type="text/css">
	.st0{fill:#F3F4F6;}
	.st1{fill:#B3B3B3;}
</style>
<g id="Background">
	<path id="Path_0" class="st0" d="M0,227v227h454V0H0V227z"/>
	<path id="Path_1" class="st1" d="M242,16.2c-2.6,1.2-5.6,3.8-7.2,6.2c-1.6,2.3-3.1,5.2-3.3,6.6c-0.3,1.4-4,27.1-8.3,57.2l-7.7,54.8
		l-43,43.1c-7-4-11.4-5.4-14.5-5.7c-4.7-0.5-6.3-0.2-11,2.3c-3.6,1.8-6.5,4.3-8.5,7.1c-2.7,3.9-3,5.2-3,11.6c0,6.2,0.4,7.8,2.8,11.4
		l2.7,4.2c-18.2,19.4-23.5,25-23.5,25s-2.7-1.4-6-3c-3.3-1.7-7.5-3-9.5-3c-1.9,0-5.1,0.4-7,1c-1.9,0.5-5.4,2.5-7.7,4.5
		c-2.9,2.3-4.9,5.1-6,8.3c-1.2,3.4-1.5,6.2-1,10.2c0.4,3.4,1.7,7,3.3,9.5l2.6,4c-13.7,13.2-19.4,18.6-21.4,20.5l-3.7,3.5
		c-5.9-4-9.2-5.7-11.1-6.3c-1.9-0.7-4.6-1.2-6-1.2s-4.2,0.5-6.3,1c-2,0.6-5.5,2.7-7.8,4.8c-2.2,2-4.7,5.5-5.6,7.7
		c-0.9,2.5-1.4,6.2-1.1,9.7c0.2,4.4,1,6.6,3.5,10.2L30,326c-9.9,10.5-13.5,15.2-14.4,17.3c-1.4,3.2-1.6,9.3-1.6,42.5
		c0,38.7,0,38.7,2.3,43.2c1.3,2.5,4.2,5.8,6.6,7.5l4.3,3c73.7,0.5,78.8,0.4,82.8-1.1c3.6-1.3,8.3-5.6,23.6-21.3l19.1-19.6
		c11.5,6.2,13.9,6.9,18.3,6.8c3.6,0,6.9-0.7,9.5-2c2.2-1.2,5-3.2,6.2-4.5c1.2-1.2,2.9-4,3.7-6c0.9-2.1,1.6-5.8,1.6-8.3
		s-0.7-6.2-1.6-8.2c-0.8-2.1-2.5-4.8-3.7-6.1l-2.2-2.3l25-24.7c10.2,5.6,13.9,6.8,16.3,6.8c2,0,5.5-0.9,7.7-1.9s5.2-3.1,6.7-4.7
		s3.4-4.6,4.2-6.7c0.9-2,1.6-5.7,1.6-8.2s-0.5-5.7-1.2-7.3c-0.7-1.5-2.1-4-3.3-5.5l-2-2.9c5.4-5,11.1-10.3,16-15.2l9-8.7
		c10.5,5.4,13.3,6.1,17.2,6.1c3.2,0,6.8-0.8,9-1.9c2.1-1.1,5-3.2,6.5-4.8c1.5-1.5,3.4-4.5,4.2-6.6c0.9-2,1.6-5.2,1.6-7
		c0-1.7-0.5-4.9-1-7c-0.6-2-2.1-5.1-3.5-6.7s-2.5-3.3-2.5-3.8c0-0.4,3.5-4.2,7.7-8.5l7.8-7.7c101.6-14.5,113.9-16.5,117.5-18.3
		c2.5-1.2,5.6-3.9,7.2-6.2c1.6-2.2,3.3-6.3,3.8-9c0.8-3.9,0.7-6.2-0.6-10.5c-1.5-5.4-3.6-7.5-87.7-91.8
		C295,47.5,264.1,17.3,261.5,16c-2.5-1.2-6.1-2-9.5-2C248.4,14,245,14.7,242,16.2L242,16.2z"/>
	<path id="Path_2" class="st0" d="M266.6,83.5c-0.3,1.7-2.4,16-4.6,32l-4.1,29l51.6,51.6c44.9-6.3,59.2-8.4,60.8-8.9
		c2.6-0.7,0.7-2.8-50.2-53.7C268.9,82.2,267.2,80.6,266.6,83.5L266.6,83.5z M222.7,193.7l-11.8,11.8l46.6,27.6l14.6-14.6
		c-28-27.9-36.5-36.1-36.9-36.3C234.8,182.1,229.1,187.3,222.7,193.7z M167.5,250c-6.6,6.5-11.8,12.1-11.5,12.3
		c0.3,0.2,9.7,5.7,21,12.2s21.4,12.4,22.5,13.1c1.8,1.2,3.1,0.2,14.9-10.9l12.9-12.2C191,244,180.3,238,180,238
		S174.1,243.4,167.5,250L167.5,250z M110.7,305.8l-11.8,11.7l47.5,27c17.5-18.6,22.6-24.2,22.6-24.5s-10-6.2-22.3-13.2
		c-12.2-7-22.7-12.8-23.2-12.8C122.9,294,117.2,299.3,110.7,305.8z M62.2,355.3l-6.2,6.2l0.5,36l36,0.5l22.8-21.5
		C79.4,355.2,68.9,349,68.7,349C68.6,349,65.6,351.8,62.2,355.3L62.2,355.3z"/>
</g>
</svg>
