<?xml version="1.0" encoding="utf-8"?>
<!-- Generator: Adobe Illustrator 28.0.0, SVG Export Plug-In . SVG Version: 6.00 Build 0)  -->
<svg version="1.1" id="Слой_1" xmlns="http://www.w3.org/2000/svg" xmlns:xlink="http://www.w3.org/1999/xlink" x="0px" y="0px"
	 viewBox="0 0 1024 1024" style="enable-background:new 0 0 1024 1024;" xml:space="preserve">
<style type="text/css">
	.st0{fill:#F3F4F6;}
	.st1{fill:#B3B3B3;}
</style>
<g id="Background">
	<path id="Path_0" class="st0" d="M0,512v512h1024V0H0V512z"/>
	<path id="Path_1" class="st1" d="M340.5,22.9c-140.2,0.7-150.5,0.9-157,2.6c-3.8,1-9.9,3-13.5,4.6c-3.6,1.5-9.6,4.5-13.4,6.6
		c-3.7,2.1-9.7,6.2-13.2,9.1c-3.5,2.8-8.5,8-11,11.5c-2.5,3.4-6.1,9.1-7.9,12.7s-4.7,10.4-6.4,15.3L115,94
		c0,634.5,0.4,809.8,1,821.5c0.8,17.1,1.3,21.1,3.5,27.8c1.4,4.2,3.5,9.6,4.6,12c1.2,2.3,3.9,6.7,5.9,9.7c2.1,3,6.6,8.2,10.1,11.5
		c3.5,3.4,7.7,7,9.4,8.2c1.7,1.1,7.1,4.1,12,6.6c4.9,2.6,11.1,5.1,13.8,5.7c2.6,0.5,10.4,1.5,17.4,2c7.8,0.7,90,1.5,208.3,2
		c107.5,0.5,244.3,0.7,304,0.4s114.4-1,121.5-1.5c10.1-0.7,15-1.6,22-4c5-1.7,12.1-4.9,16-7.1c3.9-2.3,8.1-5,9.5-6
		c1.4-1.1,5.1-4.5,8.4-7.6c3.2-3.1,7.8-8.4,10.1-11.7c2.4-3.3,5.9-9.4,7.9-13.5c1.9-4.1,4.5-11.3,5.7-16l2.2-8.5
		c0.6-575.1,0.4-762-0.1-786.5c-0.9-44.3-0.9-44.5-3.6-52.3c-1.4-4.2-3.8-10.1-5.2-13c-1.5-2.8-5-8.6-7.9-12.7s-7.9-10-11.1-13.1
		c-3.3-3.1-9-7.6-12.9-10.1s-10.1-5.9-14-7.6s-10.1-3.6-14-4.2c-3.9-0.6-14.6-1.5-24-2c-9.4-0.6-86.3-1.2-171-1.4
		C559.8,22.4,423,22.5,340.5,22.9L340.5,22.9z"/>
	<path id="Path_2" class="st0" d="M180.3,87.8l-5.2,4.7L174,206h185V83l-173.5,0.1L180.3,87.8z M419,144.5V206h430
		c-0.1-67.8-0.5-92.9-1-99.5c-0.7-8.3-1.6-12.9-2.8-14.9c-0.9-1.6-2.8-3.8-4.2-4.8c-2.1-1.7-5.1-2.1-19-2.9
		c-9.1-0.4-103.5-0.8-209.8-0.9H419V144.5z M174.4,600.2l0.7,333.3c5,4.1,7.7,5.7,9.4,6.1c1.6,0.4,149.3,0.9,328.2,1L838,941l11-11
		V267H173.7L174.4,600.2z"/>
	<path id="Path_3" class="st1" d="M498.5,117.3c-2.8,1.3-6.5,4-8.3,6c-1.7,2.1-4.1,5.5-5.2,7.7s-2.3,6.8-2.6,10.3
		c-0.5,4.3-0.2,7.9,0.9,11.7c0.8,3,3.1,7.5,4.9,10c2.1,2.8,5.5,5.6,8.9,7.3c3.3,1.7,7.7,3,11.4,3.4c4.1,0.3,7.8,0,11.5-1.1
		c3-0.9,7.7-3.3,10.4-5.4c3.1-2.2,6-5.6,7.5-8.7c1.9-3.6,2.7-6.9,3-12.5c0.3-6.3,0-8.4-2.1-13c-1.3-3-4-7.1-5.9-9.1
		s-5.9-4.9-8.9-6.3c-4.4-2.1-7-2.6-13-2.6C505.2,115,502.3,115.6,498.5,117.3z M622.5,116.6c-2.2,0.9-5.7,3-7.9,4.7
		c-2.1,1.8-5.1,5.8-6.7,9.2c-2.3,4.6-3,7.5-3,12.5c-0.1,3.6,0.4,8.4,1,10.8c0.6,2.3,2.6,6.1,4.4,8.4c1.7,2.3,5,5.4,7.2,6.9
		s6.3,3.3,9,4c2.8,0.6,7.3,0.9,10,0.7c2.8-0.3,7.4-1.6,10.4-2.9c3.1-1.4,7.1-4.2,9.2-6.6c2.2-2.4,4.6-6,5.4-8
		c0.9-2.1,1.8-5.8,2.2-8.3c0.3-2.5,0-7-0.7-10s-2.2-7.1-3.5-9c-1.2-1.9-3.5-4.8-5.1-6.4s-5.2-3.9-7.9-5.2c-3.9-1.9-6.6-2.4-12.5-2.3
		C629.9,115.1,624.7,115.8,622.5,116.6L622.5,116.6z M744.5,116.8c-2.2,1-5.8,3.4-8,5.4c-2.2,1.9-5.1,5.9-6.5,8.9
		c-2,4.3-2.4,7-2.4,13.4c0,6.1,0.5,9.1,2.2,12.8c1.2,2.6,3.7,6.2,5.5,8c1.7,1.8,5.5,4.3,8.2,5.7c4.1,2,6.5,2.5,13,2.5
		c6.6,0,9-0.5,13.5-2.7c3.1-1.4,7.2-4.5,9.3-7c2-2.3,4.4-6.3,5.2-8.8c0.9-2.5,1.5-7.2,1.5-10.5s-0.7-8.2-1.7-11
		c-1.1-3.3-3.4-6.7-6.7-10.1c-3.4-3.3-6.8-5.6-10.1-6.7c-2.9-1-8-1.7-12-1.7C751,115,747.1,115.7,744.5,116.8z M483.5,330.6
		c-1.6,0.3-8.2,1.4-14.5,2.5s-16.7,3.3-23,5s-17.1,5.1-24,7.6s-18.4,7.3-25.5,10.7c-7.1,3.4-18.9,9.9-26,14.3s-18.2,12.1-24.5,16.9
		c-6.3,4.9-17.7,15-25.3,22.4c-7.6,7.4-13.8,13.8-13.7,14.2c0,0.5,0.6,0.5,1.2,0c0.9-0.5,1-0.3,0.5,0.5c-0.4,0.7-1.1,1.1-1.7,0.8
		c-0.6-0.3-3.2,2.1-5.8,5.2c-2.7,3.2-7.3,9.2-10.3,13.3c-3.1,4.1-7.6,10.6-10.1,14.5s-6.9,11.3-9.8,16.5s-6.8,12.9-8.7,17
		c-1.9,4.1-5.1,11.6-7,16.5c-1.9,5-5,13.7-6.8,19.5s-4.5,16.4-5.9,23.5s-3.1,17.5-3.8,23c-0.6,5.5-1.2,19-1.2,30s0.6,24.3,1.3,29.5
		s1.9,13.3,2.7,18s3.1,14.4,5.1,21.5c1.9,7.1,5.5,18.2,8,24.5c2.5,6.3,7.3,17.1,10.7,24c3.5,6.9,8.2,15.6,10.6,19.5
		c2.3,3.9,6.4,10.3,9.1,14.2c3.3,4.9,5.3,7.1,6.2,6.6c0.8-0.5,1-0.4,0.5,0.5c-0.5,0.7,2.1,4.9,6.9,10.9c4.2,5.4,13.3,15.4,20.2,22.3
		c7,6.9,17.1,16.2,22.6,20.6c5.5,4.4,14.7,11.2,20.5,15c5.8,3.9,14.6,9.3,19.5,12.1c4.9,2.9,12.8,6.9,17.5,9.1
		c4.7,2.2,12.6,5.5,17.5,7.5c4.9,1.9,14.2,5.1,20.5,7s15.8,4.4,21,5.5s13.8,2.6,19,3.3c5.7,0.8,19.2,1.3,34,1.3
		c17.8,0,27.9-0.5,37-1.7c6.9-1,17.9-3.1,24.5-4.7c6.6-1.6,16.3-4.3,21.5-6s13.3-4.7,18-6.7c4.7-1.9,14.1-6.4,21-9.9s17.7-9.8,24-14
		s14.2-9.7,17.5-12.2s8.7-6.8,12-9.6c3.3-2.7,11.6-10.7,18.6-17.6c6.9-6.9,15.9-16.8,20-22c4.2-5.2,10.7-14.2,14.6-20
		c3.8-5.8,9.4-15,12.4-20.5s7.8-15.2,10.6-21.5s7-17.1,9.3-24c2.2-6.9,5.2-16.8,6.5-22s3.1-13.8,4-19c0.8-5.2,1.9-16.7,2.4-25.5
		c0.5-9.1,0.5-23.3,0-33c-0.4-9.4-1.5-21-2.4-26s-2.7-13.5-4.1-19c-1.4-5.5-4.1-14.7-6-20.5c-2-5.8-5.4-14.8-7.6-20
		c-2.2-5.2-6-13.3-8.3-18s-6.6-12.6-9.5-17.5c-3-4.9-7.8-12.4-10.7-16.5c-3-4.1-6.7-9.3-8.4-11.5s-5.1-6.5-7.7-9.5
		c-2.6-3-8.7-9.7-13.7-14.9c-4.9-5.1-14-13.5-20-18.5c-6-5.1-14.8-12-19.5-15.3c-4.7-3.4-11.4-7.9-15-10.1s-10.8-6.2-16-9
		s-14.7-7.3-21-10s-16.7-6.6-23-8.6c-6.3-2.1-15.1-4.6-19.5-5.7s-13.4-2.9-20-4c-9.7-1.7-17.1-2.2-39-2.4
		C498.6,330.3,485.1,330.4,483.5,330.6L483.5,330.6z"/>
	<path id="Path_4" class="st0" d="M473.5,391.6c-4.9,0.8-13.9,2.7-20,4.3c-6.1,1.7-15.3,4.5-20.5,6.4s-14.7,6-21,9.2
		s-15.3,8.3-20,11.4s-11.9,8.3-16,11.5c-4.1,3.3-12,10.5-17.5,16c-5.6,5.6-12.8,13.5-16.1,17.6c-3.4,4.1-9.1,12-12.7,17.5
		s-8.5,14-11,19c-2.4,4.9-6,13.3-8,18.5s-4.7,13.8-6,19c-1.4,5.2-3.2,13.5-4.1,18.5c-0.8,5-2.1,15.1-2.7,22.5
		c-0.7,8-0.9,20.2-0.6,30c0.3,9.1,1.3,21.7,2.2,28c0.9,6.3,2.9,16.5,4.5,22.5c1.5,6,4.4,15,6.3,20s5.7,13.5,8.4,19
		c2.8,5.5,6.9,13.1,9.3,17c2.3,3.8,7.4,11.3,11.3,16.5s12.7,15.1,19.6,22c7,7,17,15.6,22.6,19.6c5.5,3.9,12.7,8.6,16,10.6
		s9.8,5.5,14.5,7.8c4.7,2.4,13.4,6.2,19.5,8.6c6.1,2.4,16.9,5.9,24,7.9c9.8,2.7,16.3,3.8,26.5,4.5c7.4,0.5,20,1,28,1s21-0.5,29-0.9
		c9.6-0.6,17.9-1.8,24.5-3.5c5.5-1.4,15.4-4.4,22-6.7c6.6-2.2,17.9-7,25-10.6c7.1-3.5,17.3-9.3,22.5-12.8s12.3-8.6,15.7-11.4
		c3.6-2.9,6.8-4.8,7.5-4.4c0.7,0.3,1,0.2,0.6-0.3s4.3-6.1,10.5-12.5c6.1-6.3,14.4-16,18.2-21.5c3.9-5.4,8.7-12.6,10.7-15.9
		c2-3.3,6.1-11.2,9.1-17.5c3.1-6.3,7.3-16.7,9.5-23s5.3-16.5,6.8-22.5l2.9-11c0-66.7-0.4-78.6-1.3-83c-0.8-3.3-2.7-10.8-4.3-16.8
		c-1.6-5.9-4.5-14.9-6.5-20c-2-5-6-13.9-8.9-19.7c-2.9-5.8-7.4-13.9-10-18s-7.3-10.9-10.4-15c-3.1-4.1-9.4-11.5-14.1-16.4
		c-4.7-4.9-12.5-12.3-17.5-16.4c-5-4.2-13.3-10.4-18.5-13.8s-15.6-9.3-23-13c-7.5-3.7-20-8.8-28-11.4s-18.5-5.5-23.5-6.4
		c-5-0.8-14-2-20-2.6c-6-0.5-21.1-1-33.5-0.9C491.1,390.2,479.1,390.7,473.5,391.6L473.5,391.6z"/>
	<path id="Path_5" class="st1" d="M492,422c-4.7,0.5-14.1,2.3-21,4.1c-6.9,1.7-17,4.9-22.5,7.1s-13.4,5.8-17.5,8s-11.3,6.5-16,9.6
		c-4.7,3-11.6,8-15.5,11c-3.9,3.1-11.2,9.9-16.4,15.1c-5.2,5.3-12.5,13.7-16.2,18.6c-3.8,4.9-9.8,13.9-13.4,20
		c-3.6,6-8.7,16.4-11.4,23c-2.8,6.6-6.4,17.4-8.1,24s-3.6,17.4-4.2,24c-0.8,9-0.8,14.3,0.1,21c0.8,6.5,1.8,10,3.6,12.8
		c1.4,2,4.4,5.1,6.7,6.8c2.4,1.6,6.5,3.7,9.3,4.5c2.7,0.8,7.1,1.4,9.7,1.4c2.7,0,7.2-0.9,10-2c2.9-1.1,6.8-3.2,8.5-4.5
		c1.8-1.4,4.4-4.9,5.8-7.8c1.6-3.3,3-9.1,4-16.2c0.8-6,2.2-15.5,3-21s2.6-14,4-19s4.6-13,6.9-18c2.4-5,7-12.6,10.3-17
		s9.5-11.3,13.9-15.4c4.3-4,10.8-9.3,14.4-11.7c3.6-2.3,10.6-6.1,15.5-8.2c4.9-2.2,13.7-5.1,19.5-6.6c5.8-1.4,16.8-3.3,24.5-4.2
		c7.7-0.8,16.6-2.2,19.7-3c3.2-0.7,7.5-2.4,9.5-3.7c2.1-1.3,5.2-4.6,7-7.3c2.1-3.2,3.5-7,4.1-10.9c0.5-3.4,0.5-8.2,0-11
		c-0.4-2.8-1.8-7-3.1-9.4c-1.2-2.5-4-6-6.2-7.8c-2.2-1.9-6.3-4-9-4.8c-2.8-0.8-8.6-1.6-13-1.9C504.1,421.4,496.7,421.6,492,422
		L492,422z"/>
</g>
</svg>
