<?xml version="1.0" encoding="utf-8"?>
<!-- Generator: Adobe Illustrator 28.0.0, SVG Export Plug-In . SVG Version: 6.00 Build 0)  -->
<svg version="1.1" id="Слой_1" xmlns="http://www.w3.org/2000/svg" xmlns:xlink="http://www.w3.org/1999/xlink" x="0px" y="0px"
	 viewBox="0 0 980 980" style="enable-background:new 0 0 980 980;" xml:space="preserve">
<style type="text/css">
	.st0{fill:#F3F4F6;}
	.st1{fill:#B3B3B3;}
</style>
<g id="Background">
	<path id="Path_0" class="st0" d="M0,490v490h980V0H0V490z"/>
	<path id="Path_1" class="st1" d="M479,82.8c0,0.4-1.7,1.3-3.7,2.1c-2.1,0.8-9.5,5.8-16.4,11c-6.9,5.3-16.3,12.5-21,16
		c-4.6,3.5-20.1,15.4-34.4,26.5c-14.3,11-30.3,23.4-35.5,27.6c-5.2,4.1-12.2,9.6-15.5,12.1s-21.8,16.6-41,31.4
		c-19.3,14.8-48.3,37-64.5,49.5c-16.2,12.4-38.9,29.8-50.5,38.7c-11.6,8.8-21.7,16.6-22.5,17.4s-9.4,7.5-19,15
		c-9.6,7.4-22.9,17.7-29.5,22.7c-6.6,5-28.4,21.8-48.5,37.2c-20.1,15.4-40.7,31.2-45.9,35.2c-5.1,4-11,9.1-13,11.4
		c-2,2.2-4.6,6.6-5.9,9.7c-1.6,4.1-2.2,7.8-2.2,13.2c0,4.9,0.7,9.3,1.9,12.7c1.1,3,4.1,7.7,6.9,10.8c2.7,3,7.1,6.7,9.8,8.2
		c2.7,1.4,7.6,3.2,10.9,3.8c4.5,0.9,7.5,0.9,12,0.1c3.3-0.6,7.8-2,10-3.1s12.8-8.7,23.5-17c10.7-8.2,19.8-15,20.2-15
		c0.5,0,0.9,92.6,1,205.8l0.3,205.7c3.7,7.7,7.1,12.4,9.9,15.4c3.1,3.2,7.5,6.5,11.1,8.2l6,2.9c550.6,0,710.5-0.3,710.5-0.8
		c0-0.4,1.9-1.4,4.2-2.2c2.5-0.9,6.6-3.8,9.8-7c3.1-3,6.6-7.5,7.8-10s2.5-6.3,2.9-8.5s0.8-95.9,1-208.3
		c0.2-112.3,0.4-204.3,0.5-204.4c0.2-0.1,3.7,2.3,7.8,5.4s14.9,11.3,24,18.2c15.1,11.5,17.1,12.7,23.5,14.3c6,1.4,8,1.5,14,0.4
		c3.9-0.7,9.2-2.4,11.9-3.9s6.9-4.9,9.3-7.7c2.4-2.7,5.1-7,6-9.5s2-4.9,2.5-5.5c0.5-0.5,0.8-4.1,0.8-8c0-4.7-0.8-8.9-2.3-13
		c-1.3-3.4-4.1-7.9-6.7-10.8c-2.5-2.8-9.2-8.6-15-13.1c-5.8-4.4-10.7-8.3-11-8.6c-0.3-0.3-2.8-2.3-5.5-4.6
		c-2.8-2.2-13.5-10.5-23.9-18.5c-10.4-7.9-23.7-18-29.5-22.5c-5.8-4.4-21-16-33.6-25.8c-12.6-9.7-25.9-19.9-29.5-22.6
		c-3.6-2.8-17.1-13.1-30-23s-26.8-20.6-30.9-23.7c-4.1-3.2-8-6.4-8.8-7c-0.7-0.7-1.5-1.3-1.8-1.3s-3.3-2.3-6.8-5
		c-3.4-2.8-7.2-6-8.5-7c-1.2-1.1-2.7-2-3.2-2s-1.1-0.3-1.3-0.7c-0.1-0.5-2.9-2.9-6.2-5.6c-3.3-2.6-17.5-13.5-31.5-24.2
		c-14-10.8-28.4-21.8-32-24.6c-3.6-2.7-16.6-12.7-29-22.2s-23.7-18.1-25.1-19.2c-1.5-1.1-12-9.2-23.4-18s-22.8-17.6-25.4-19.5
		c-2.6-1.9-5.5-4.3-6.6-5.2c-1.1-0.9-4.9-3.9-8.5-6.7c-3.6-2.8-7-5.4-7.5-5.9c-0.5-0.4-4.4-3.4-8.5-6.6s-10.2-7.1-13.5-8.7
		c-5.4-2.6-7-2.9-15.8-2.9C483.4,82,479,82.3,479,82.8L479,82.8z"/>
	<path id="Path_2" class="st0" d="M466.4,181.3c-12.2,9.5-36.2,28-53.5,41.2c-17.2,13.2-31.8,24.5-32.3,25c-0.6,0.6-3.8,3.1-7.1,5.5
		c-3.3,2.5-6.2,4.8-6.5,5.2c-0.3,0.3-3.7,3-7.6,6c-3.9,2.9-18.1,13.7-31.5,24S287.1,319.6,267,335s-46.1,35.3-57.8,44.3
		c-11.7,8.9-21.2,16.5-21.2,16.9c0,0.5-0.4,0.8-1,0.8c-0.5,0-2.8,1.4-5,3l-4,3v424c232.4,0,259-0.3,259-1.3c0-0.6-0.9-7.1-1.9-14.2
		c-1.1-7.1-2.5-19.5-3.2-27.5c-0.7-8.8-0.9-21.4-0.5-32c0.3-9.6,1.2-22,2-27.5s2.2-13.4,3.1-17.5s3-11.8,4.6-17
		c1.7-5.2,3.9-11.4,5-13.8c1-2.3,1.9-4.5,1.9-5c0-0.4,1.7-4.1,3.8-8.2c2.1-4.1,4.5-8.6,5.4-10c1-1.4,1.5-2.8,1.3-3.3
		c-0.3-0.4-2.9-1.4-5.7-2.3c-2.9-0.9-6.8-2.2-8.5-3c-1.8-0.8-3.6-1.4-4-1.4c-0.5,0-6.4-2.9-13.3-6.3c-6.9-3.5-15-7.9-18-9.8
		c-3-1.8-8.8-5.7-12.7-8.6c-4-2.9-11-8.8-15.4-13.1c-4.5-4.2-10.9-11.1-14.3-15.2c-3.4-4.1-7.3-9.3-8.7-11.5
		c-1.5-2.2-4.2-6.7-6.2-10c-1.9-3.3-4.7-8.4-6.1-11.3c-1.4-2.8-4.4-10.5-6.5-17c-2.2-6.4-4.9-16.2-6-21.7s-2.5-15.9-3.2-23
		c-0.6-7.5-0.8-17.8-0.5-24.5c0.4-6.3,1.4-16.4,2.3-22.5c0.8-6.1,2.6-15.1,3.9-20s3.5-10.6,4.9-12.5c1.3-1.9,3.8-4.3,5.5-5.3
		c2-1.1,5.1-1.7,9.8-1.7c3.7,0,11,0.7,16.2,1.5c5.2,0.9,12.9,2.5,17,3.7c4.1,1.1,8,2.1,8.7,2.2c0.6,0,1.5,0.4,2,0.9
		c0.4,0.4,1.4,0.7,2.1,0.7c0.6,0,2.9,0.7,5,1.6c2,0.9,7.5,3.5,12.2,5.7c4.7,2.3,12.8,6.9,18,10.3s13.1,9.3,17.5,13.1
		c4.4,3.8,11.6,11.2,15.9,16.4c4.4,5.2,10.6,13.5,13.9,18.4c3.2,4.9,8.4,14.2,11.5,20.5c3.2,6.4,6.2,12.9,6.9,14.5
		c0.6,1.7,1.6,4.7,2.2,6.7c0.6,2.1,1.4,3.8,1.9,3.8c0.4,0,2.3-1.6,4.2-3.6s7.5-6.8,12.5-10.6c5-3.9,12.8-9,17.5-11.3
		c4.7-2.4,13-5.9,18.5-7.8s14.3-4.4,19.5-5.5c5.2-1.2,14.5-2.6,20.5-3.3c6-0.6,16.9-0.9,24-0.7c10.2,0.4,13.8,0.9,16.5,2.4
		c1.9,1,4.1,2.6,4.8,3.4s2,2.6,2.9,4c1,1.4,1.9,4.1,2.1,6c0.2,1.9-0.6,8.4-1.8,14.5c-1.2,6-3.6,15-5.2,20c-1.7,5-4.9,13-7.2,18
		c-2.4,5-6.2,12.1-8.6,16c-2.3,3.9-7,10.6-10.4,15c-3.3,4.4-9.9,11.8-14.6,16.5c-4.7,4.7-13,11.9-18.5,16.1
		c-5.5,4.1-14.5,10.2-20,13.4s-14,7.8-19,10.1s-13,5.6-18,7.4c-5,1.7-13,4.2-18,5.6c-7.5,1.9-9.4,2.9-11.7,5.6
		c-1.5,1.8-4.7,6.7-7.2,10.8s-6.1,11.1-8.1,15.5c-1.9,4.4-4.8,12.4-6.5,17.7c-1.6,5.4-2.8,10.3-2.5,10.8s2.9-1.4,5.8-4.3
		c2.8-2.8,8.1-7.3,11.7-9.8c3.6-2.6,9-6,12-7.6s8.9-4,13-5.3c6.8-2.3,9.1-2.5,24-2.5c16,0,16.8,0.1,26,3.3
		c5.2,1.8,10.7,4.2,12.3,5.2c1.5,1.1,3,2,3.5,2c0.4-0.1,2.4,1.7,4.5,4s4.1,5.8,4.8,8.2c0.6,2.4,0.7,5.7,0.3,7.3s-1.4,4.1-2.2,5.5
		s-2.7,4.3-4.1,6.5c-1.4,2.2-2.8,4.2-3.1,4.5s-1.3,1.7-2.3,3.2c-0.9,1.6-3.6,4.9-5.9,7.4c-2.4,2.6-6.5,7-9.3,9.8
		c-2.7,2.8-7.9,7.4-11.5,10.1c-3.6,2.7-10.3,6.9-15,9.3c-4.7,2.4-11.6,5.2-15.5,6.3c-3.9,1.2-11.7,2.3-17.5,2.6
		c-7.9,0.4-12.6,0.1-19-1.2c-4.7-1-9.6-2.4-11-3.1c-1.4-0.8-3.3-1.4-4.2-1.4c-1.4,0-1.8,0.8-1.8,3.7c0,2.1,0.5,7.8,1,12.8
		c0.6,5,2,14.6,3.1,21.5c1.2,6.9,2.6,12.8,3.3,13.2c0.6,0.4,73.2,0.8,161.4,0.8H797V400c-34.5-26.4-47.2-36.2-50.5-38.8
		c-3.3-2.6-6.5-5-7-5.4s-3.5-2.7-6.5-5.1c-3-2.3-8.6-6.7-12.5-9.7s-20-15.5-36-27.8c-16-12.2-31.9-24.5-35.5-27.2
		s-16-12.3-27.5-21.2c-11.5-8.8-22.9-17.5-25.1-19.2c-2.3-1.7-13.5-10.3-24.9-19.1c-11.5-8.8-23.8-18.3-27.4-21
		c-3.6-2.8-9.3-7.3-12.7-10c-3.3-2.8-7.1-5.7-8.4-6.5c-1.2-0.8-3-2.2-3.9-3.1c-0.9-0.8-7.6-6.1-14.8-11.7
		c-7.3-5.6-13.9-10.2-14.5-10.1C489.1,164.1,478.5,171.9,466.4,181.3L466.4,181.3z"/>
</g>
</svg>
