<svg version="1.2" xmlns="http://www.w3.org/2000/svg" viewBox="0 0 500 500" width="500" height="500">
	<title>icon</title>
	<style>
		.s0 { fill: #ebe6cd } 
		.s1 { fill: #0d1015 } 
		.s2 { fill: #9f855c } 
	</style>
	<g id="Background">
		<path id="Path 0" class="s0" d="m0 250v250h500v-500h-500z"/>
		<path id="Path 1" class="s1" d="m97.5 146.9c-12.4 12.1-21.8 26.1-20.9 31.3 0.8 5.2 8.4 7.6 17.1 5.4 14.7-3.7 15.7 0 15.6 56.6 0 33.3 2.6 77.3 5.9 97.8 5.8 36.8 6.2 37.2 35.2 37.1l29.3-0.1v-250c-51.9 0-65.5 5.7-82.2 21.9zm186.4-11c-9.3 5.7-22.3 18.8-29 29-6.7 10.3-12.3 26.6-12.4 36.3-0.3 14.9 3.8 17.5 27 17.5 19.6 0 29.6-4.4 35.2-15.6 4.3-8.6 13.1-15.6 19.5-15.6 6.5 0 14.4 5.5 17.6 12.1 4.2 8.8-8.8 26.8-46.8 64.5-46.3 46-52.7 55.9-52.7 81.6l-0.1 29.3h164v-62.5l-74.2 0.6c68-72.1 74.2-83.7 74.1-108-0.1-16.1-6.3-36.8-13.7-46-7.4-9.1-21.4-20.6-31.1-25.4-9.6-4.8-27.2-8.6-39-8.4-11.9 0.1-29.1 4.9-38.4 10.6zm-82.1 105.9c-14 11.6-16.4 18.1-10.4 28.2 4.3 7.2 13.9 17.1 21.4 22 10.9 7 17 5.4 31.2-8.4 11.6-11.2 15.7-21.3 11.9-29.3-3.3-6.6-12.7-15.6-20.9-19.8-11.4-5.8-19.5-4-33.2 7.3z"/>
		<path id="Path 2" class="s0" d="m278.7 165.7c-20.6 20.9-22.5 25.5-11.1 27.4 7.5 1.2 20.7-4.8 29.3-13.4 8.6-8.6 20.9-15.6 27.3-15.6 6.5 0 18.8 7 27.4 15.6 8.6 8.6 15.6 19.1 15.6 23.4 0 4.3-24.5 33.3-54.5 64.5-30 31.1-54.6 61.9-54.8 68.3-0.2 8.1 11.4 13.6 36.9 17.7 20.5 3.2 50.4 5.9 66.5 5.8 24.1 0 29.3-2.8 29.3-15.6 0-14-5.2-15.7-48.8-15.6l-48.8 0.1c75.1-75.6 90.7-98.1 93.5-115.4 3.4-20.8-0.1-29.6-19.3-48.8-13.9-14-31.6-23.5-43.6-23.5-12.3 0-29.7 9.8-44.9 25.1z"/>
		<path id="Path 3" class="s2" d="m132.8 250c0 96.4 0.8 101.6 15.6 101.6 14.9 0 15.7-5.2 15.7-101.6 0-96.4-0.8-101.6-15.7-101.6-14.8 0-15.6 5.2-15.6 101.6zm89.9 23.4c-6.5 0-11.8-5.2-11.8-11.7 0-6.5 5.3-11.7 11.8-11.7 6.4 0 11.7 5.2 11.7 11.7 0 6.5-5.3 11.7-11.7 11.7z"/>
	</g>
</svg>