<?xml version="1.0" encoding="utf-8"?>
<!-- Generator: Adobe Illustrator 28.0.0, SVG Export Plug-In . SVG Version: 6.00 Build 0)  -->
<svg version="1.1" id="Слой_1" xmlns="http://www.w3.org/2000/svg" xmlns:xlink="http://www.w3.org/1999/xlink" x="0px" y="0px"
	 viewBox="0 0 548 548" style="enable-background:new 0 0 548 548;" xml:space="preserve">
<style type="text/css">
	.st0{fill:#F3F4F6;}
	.st1{fill:#B3B3B3;}
</style>
<g id="Background">
	<path id="Path_0" class="st0" d="M0,274v274h548V0H0V274z"/>
	<path id="Path_1" class="st1" d="M270.5,18.9c-1.6,0.4-4.1,1.5-5.5,2.4c-1.4,0.8-3.6,3.5-5,5.9l-2.5,4.3c0,63,0.1,65.2,2,68.9
		c1.1,2.2,3.5,5.1,5.4,6.5c2.8,2.1,4.5,2.6,9.6,2.6s6.8-0.5,9.6-2.6c1.9-1.4,4.3-4.3,5.4-6.5c1.9-3.7,2-5.9,2-36.4V31.5
		c-3.9-6.7-6.4-9.5-8-10.5c-1.6-0.9-4.6-2-6.5-2.3S272.1,18.5,270.5,18.9z M103.1,88.2c-3.1,1.6-5.1,3.6-6.8,6.8
		c-1.3,2.5-2.3,6-2.3,7.7c0,1.8,0.7,5,1.6,7c1,2.5,9.1,11.4,23.2,25.6c12.9,13,23.3,22.6,25.7,23.7c2.2,1.1,5.5,2,7.3,2
		c1.7,0,4.7-0.6,6.5-1.3c1.7-0.8,4.7-3.1,6.4-5.3c1.8-2.1,3.5-5.5,3.9-7.4c0.3-1.9,0.1-5.3-0.5-7.5c-0.9-3.3-5-7.9-24.8-27.7
		c-13.1-13-25-24.2-26.5-24.8c-1.6-0.5-4.3-1-6.1-1C108.9,86,105.5,87,103.1,88.2L103.1,88.2z M431.3,87.5
		c-1.8,0.8-13.6,11.8-26.3,24.5c-19.9,19.9-23.1,23.6-24.1,27.2c-0.6,2.4-0.8,5.9-0.5,7.8c0.4,1.9,2.1,5.3,3.9,7.4
		c1.7,2.2,4.7,4.5,6.5,5.3c1.7,0.7,4.7,1.3,6.5,1.3c1.7,0,5-0.9,7.2-2c2.4-1.1,12.8-10.7,25.7-23.7c14.1-14.2,22.2-23.1,23.2-25.6
		c0.9-2,1.6-5.2,1.6-7c0-1.7-1-5.2-2.3-7.7c-1.7-3.2-3.7-5.2-6.8-6.8c-2.4-1.2-6-2.2-7.9-2.2C436.1,86.1,433,86.7,431.3,87.5
		L431.3,87.5z M254.5,135.5c-4.4,0.6-11.4,2.1-15.5,3.3c-4.1,1.1-11.3,3.7-16,5.7c-4.7,1.9-11.6,5.4-15.5,7.7
		c-3.8,2.3-10.6,6.9-15,10.3c-4.4,3.5-10.5,8.9-13.6,12.1c-3,3.3-8.2,9.5-11.5,13.9s-8,12.1-10.6,17s-6,13.1-7.7,18
		c-1.6,4.9-3.8,12.4-4.7,16.5c-0.9,4.2-1.8,14.2-2.1,22.5c-0.4,11-0.1,17.6,1.1,24.7c0.9,5.4,3,14.2,4.7,19.5
		c1.7,5.4,5.3,14.1,7.9,19.3c2.7,5.2,7.1,12.6,9.8,16.5s9.6,12.4,15.2,19c5.7,6.6,13,15.6,16.3,20s7.3,10.7,9,14
		c1.6,3.3,3.6,7.8,4.5,10c1,2.6,1.7,9.6,2.1,20.7c0.6,16.6,0.6,16.6,3.6,20.3c1.7,2.1,4.6,4.6,6.5,5.6c3.3,1.8,6.4,1.9,51,1.9
		c47.2,0,47.5,0,51.9-2.3c2.5-1.2,5.3-3.7,6.4-5.7c1.8-3,2.2-5.8,2.8-19c0.4-9.4,1.3-17.1,2.2-19.5c0.8-2.2,2.8-6.7,4.5-10
		c1.6-3.3,5.2-9.1,7.9-13c2.8-3.9,10.8-14,17.9-22.5s14.8-18.2,17-21.5c2.3-3.3,6.2-10.1,8.6-15c2.5-4.9,6-13.4,7.7-18.8
		c1.7-5.3,3.8-14.1,4.7-19.5c1.2-7.3,1.5-13.5,1.1-25.2c-0.4-10-1.3-18.5-2.6-24c-1-4.7-3.1-11.9-4.6-16s-4.8-11.6-7.3-16.5
		c-2.6-4.9-7.3-12.6-10.6-17c-3.3-4.4-8.5-10.6-11.5-13.9c-3.1-3.2-9.2-8.6-13.6-12.1c-4.4-3.4-10.7-7.8-14-9.8
		c-3.3-1.9-9.6-5.2-14-7.2s-11.8-4.8-16.5-6.1c-4.7-1.4-12.8-3.2-18-3.9c-5.2-0.8-14.4-1.4-20.5-1.4
		C267.5,134.2,258.9,134.8,254.5,135.5L254.5,135.5z M34.5,252.4c-2.2,1.3-4.9,3.9-6,5.8c-1.2,2.1-1.9,5.2-1.9,8.3
		c0,3.3,0.7,6.2,2,8.5c1.2,1.9,3.9,4.6,6,6l3.9,2.5h67c6.1-3.9,8.7-6.4,9.9-8c1.4-2.1,2-4.7,2-8.5c0.1-3.9-0.5-6.5-2.1-9
		c-1.2-1.9-3.9-4.5-6-5.7c-3.7-2.2-4.5-2.2-37.3-2.3H38.5L34.5,252.4z M439.5,252.4c-2.2,1.3-4.9,3.9-6,5.8
		c-1.3,2.2-1.9,5.1-1.9,8.8c0,3.8,0.6,6.4,2,8.5c1.2,1.6,3.8,4.1,6,5.5l3.9,2.5h67c6-3.9,8.7-6.6,9.9-8.5c1.3-2.3,2-5.2,2-8.5
		s-0.7-6.2-2-8.5c-1.2-2-4-4.5-6.5-5.7c-4.3-2.2-5.2-2.3-37.4-2.3h-33L439.5,252.4z M147,372.7c-1.5,0.3-11.6,9.5-26.4,24.1
		c-13.3,13.2-24.4,25.1-25.2,26.9s-1.4,4.9-1.4,6.8s0.9,5.3,2,7.5s3.5,5,5.3,6.2c1.9,1.3,5.3,2.4,8.2,2.6c3.7,0.3,6.1-0.1,9-1.6
		c2.3-1.2,13.5-11.6,26.1-24.4c17.6-17.7,22.4-23.1,23.4-26.3c0.7-2.2,1-5.6,0.7-7.5c-0.4-1.9-1.7-5.1-2.9-7
		c-1.3-1.9-3.6-4.2-5.3-5.2c-1.6-0.9-4.8-1.9-7-2.2C151.3,372.4,148.4,372.4,147,372.7L147,372.7z M391.5,373.5
		c-2.2,0.8-4.9,2.3-5.9,3.2c-1,1-2.7,3.6-3.7,5.8c-1,2.2-1.9,5.2-1.9,6.7s0.7,4.5,1.6,6.5c1,2.5,9.2,11.5,23.2,25.6
		c12.2,12.3,23.4,22.7,25.7,23.9c2.9,1.5,5.3,1.9,9,1.6c2.9-0.2,6.3-1.3,8.3-2.6c1.7-1.2,4.1-4,5.2-6.2s2-5.6,2-7.5s-0.6-5-1.4-6.8
		s-11.9-13.6-25.2-26.8c-19.6-19.4-24.5-23.7-27.4-24.3c-1.9-0.3-3.9-0.6-4.5-0.6C396,372,393.7,372.7,391.5,373.5L391.5,373.5z
		 M227.5,458.9c-1.6,0.4-4.6,1.6-6.5,2.8c-1.9,1.2-4.4,3.6-5.4,5.5c-1.2,2-1.9,5.2-2,8.3c0,3.3,0.7,6.2,2.1,8.5
		c1.2,1.9,4.1,4.6,6.5,6l4.3,2.5c93,0,95.2-0.1,98.9-2c2.1-1.1,5-3.6,6.5-5.5c2.1-2.9,2.6-4.6,2.6-9.6s-0.5-6.7-2.6-9.5
		c-1.4-1.9-4.3-4.3-6.5-5.4c-3.7-1.9-6.1-2-49.4-2.2C251,458.2,229.2,458.5,227.5,458.9L227.5,458.9z M244.5,499
		c-2.2,1.1-5.1,3.7-6.4,5.7c-1.7,2.7-2.4,5.3-2.5,8.8c0,3.4,0.6,6.1,2,8.5c1.2,1.9,3.7,4.5,5.5,5.7c3.3,2.2,4.2,2.2,30.7,2.3
		c22.2,0,27.7-0.3,30.2-1.5c1.7-0.8,4.1-3,5.5-4.8c1.5-2,2.7-5.2,3.1-8.2c0.5-4.1,0.1-5.8-1.9-9.5c-1.7-3.2-3.7-5.2-6.8-6.8
		c-4.2-2.2-5.3-2.3-29.9-2.2C250.5,497,248.2,497.1,244.5,499L244.5,499z"/>
	<path id="Path_2" class="st0" d="M262.5,168.6c-1.6,0.3-6.1,1.2-10,2c-3.8,0.8-10.4,2.9-14.5,4.6c-4.1,1.6-10.4,4.7-14,6.8
		s-9.4,6.3-13,9.3c-3.6,2.9-9.2,8.7-12.5,12.8c-3.4,4.1-7.7,10.3-9.7,13.9c-2.1,3.6-5.1,10.1-6.7,14.5c-1.6,4.4-3.7,12.1-4.6,17
		c-1.3,6.9-1.6,11.9-1.2,21.5c0.4,7.6,1.4,15.2,2.5,19.5c1.1,3.9,2.7,8.8,3.5,11s2.8,6.7,4.4,10c1.7,3.3,5.8,9.6,9.1,14
		c3.4,4.4,10.8,13.6,16.7,20.5c5.8,6.9,13,16.1,16,20.5c2.9,4.4,7.1,11.6,9.3,16s5,11.1,6.2,15c1.1,3.9,2.4,10.5,2.8,14.8l0.7,7.7
		h53c1.3-11.2,3-18.4,4.6-23.2c1.6-4.9,4-10.9,5.3-13.5c1.3-2.7,5.5-9.5,9.4-15.3s12.6-17,19.3-25c6.7-8,14.1-17.2,16.4-20.5
		s5.5-8.5,7-11.5s3.4-7.3,4.2-9.5c0.9-2.2,2.4-7.1,3.5-11c1.1-4.3,2.1-11.9,2.5-19.5c0.4-9.6,0.1-14.6-1.2-21.5
		c-0.9-4.9-3-12.6-4.6-17s-4.6-10.9-6.7-14.5c-2-3.6-6.3-9.8-9.7-13.9c-3.3-4.1-8.9-9.8-12.5-12.8c-3.6-2.9-9.4-7.1-13-9.2
		c-3.6-2.1-9.2-5-12.5-6.4s-9.6-3.5-14-4.7c-5.5-1.4-11.9-2.2-20.5-2.5C271.1,168.3,264.1,168.4,262.5,168.6L262.5,168.6z"/>
</g>
</svg>
