<svg version="1.2" xmlns="http://www.w3.org/2000/svg" viewBox="0 0 400 400" width="400" height="400">
	<title>mob_filter</title>
	<style>
		.s0 { fill: #ffffff } 
	</style>
	<path id="Path 0 copy 2" fill-rule="evenodd" class="s0" d="m208.4 0.1c67.5 0 129.1 0.1 136.7 0.3 13 0.3 14.1 0.4 17.9 1.4 2.1 0.6 5.5 1.8 7.5 2.6 2 0.8 5.2 2.6 7.3 3.9 2.2 1.5 5.3 4.1 7.8 6.5 2.2 2.3 5.1 5.6 6.2 7.4 1.2 1.8 3.1 5.1 4.2 7.4 1.2 2.5 2.2 5.2 2.5 7.1 0.4 1.7 0.9 6.5 1.2 10.6 0.4 6 0.5 38.1 0.5 155.6 0 111.6-0.1 149.1-0.5 152.6-0.3 2.6-0.9 6.4-1.5 8.4-0.6 2-2.1 5.7-3.3 8.1-1.2 2.5-3.2 6-4.6 7.8-1.3 1.8-3.9 4.6-5.7 6.3-1.7 1.7-4.5 3.9-6 5-1.6 1-4.7 2.8-7 3.9-2.2 1.2-5.1 2.4-6.3 2.7-1.2 0.4-4 0.8-6.1 1.1-2.1 0.2-12.1 0.6-22.1 0.8-11.9 0.3-63.8 0.4-150.8 0.3-97-0.1-134.4-0.3-139.2-0.7-3.5-0.2-7.9-0.7-9.5-1.1-2-0.3-4.7-1.3-7.8-2.8-2.6-1.3-6-3.2-7.5-4.2-1.6-1.1-4.5-3.4-6.4-5.2-1.9-1.9-4.5-4.8-5.8-6.6-1.2-1.7-3.1-4.8-4.1-6.9-1-2-2.2-4.8-2.7-6.3-0.4-1.4-1.1-3.8-1.5-5.3-0.5-2-0.7-6.8-1-19.8-0.3-10.8-0.4-67.7-0.3-153.2 0.1-101.4 0.3-137.7 0.7-142.3 0.3-3.4 0.7-7.4 1.1-9 0.3-1.6 1.5-4.8 2.7-7.3 1.2-2.5 3.3-6 4.6-7.8 1.3-1.8 3.4-4.4 4.8-5.8 1.4-1.4 3.7-3.6 5.2-4.7 1.4-1.2 4.1-3 5.9-4.1 1.8-1.1 4.7-2.5 6.5-3.2 1.8-0.7 4.7-1.6 6.4-2.1 2.8-0.7 4.8-0.8 25.1-1.1 12.1-0.1 77.3-0.3 144.9-0.3zm-165.4 25.8c-4.8 2.4-7.2 4.1-8.9 5.6-1.5 1.4-3.5 3.7-4.4 5-0.9 1.4-2.2 3.6-2.7 4.9l-1.1 2.5-0.2 312.4c3.5 6.8 4.6 8.3 7.3 11.1 2.8 2.8 4.3 3.8 7.3 5.4l3.8 1.9h312.6c4-2 6.1-3.2 7.4-4.1 1.2-0.8 3.3-2.7 4.7-4.2 1.3-1.4 3.3-4.2 4.4-6.2l1.9-3.7v-312.8c-3.5-6.8-4.5-8.3-7.3-11.1-2.8-2.8-4.3-3.8-7.3-5.4l-3.8-1.9c-230.1 0.1-300.7 0.3-305.3 0.4zm109.2 24.2c1.9 0.1 5.1 0.4 7 0.7 1.9 0.4 5.1 1.2 7.1 1.9 2 0.7 5.3 2.1 7.4 3.1 2 1.1 5 2.9 6.7 4.2 1.7 1.3 4.3 3.7 5.9 5.3 1.6 1.7 3.8 4.5 4.9 6.3 1.2 1.8 3.1 5.1 4.2 7.3 1.1 2.3 2.3 4.9 2.5 5.9 0.4 1.4 0.7 1.7 1.6 1.9 0.6 0.2 29 0.4 63.1 0.6 45.5 0.2 62.9 0.4 65.1 0.8 1.7 0.3 3.7 0.8 4.5 1.2 0.8 0.4 2 1.5 2.7 2.5 0.8 1 1.6 2.5 2 3.3 0.3 0.8 0.7 2.2 0.8 3.2 0.2 1 0.1 2.9-0.1 4.1-0.3 1.4-1.1 3.2-2 4.7-1.2 1.8-2.1 2.7-3.4 3.4-1 0.4-3.2 1.1-4.9 1.3-2.2 0.4-20 0.6-65.1 0.8-48.5 0.2-62.2 0.3-62.9 0.7-0.5 0.3-0.9 0.8-0.9 1.2 0 0.3-1.2 2.9-2.7 5.8-1.4 2.8-3.6 6.6-4.7 8.4-1.2 1.8-3.7 4.8-5.5 6.6-1.8 1.8-4.6 4.2-6.3 5.3-1.7 1.2-4.7 3-6.8 4-2 1-5 2.3-6.7 2.9-1.7 0.5-4.5 1.3-6.3 1.7-2.2 0.5-5.1 0.7-9 0.7-3.9 0-6.8-0.2-9-0.7-1.8-0.4-4.6-1.2-6.3-1.7-1.7-0.6-4.7-1.9-6.7-2.9-2.1-1-5.1-2.8-6.8-4-1.7-1.1-4.5-3.5-6.3-5.3-1.8-1.8-4.3-4.8-5.4-6.6-1.2-1.8-3.4-5.7-4.9-8.7-1.4-3.1-2.8-5.8-3-6.2-0.1-0.3-0.7-0.7-1.2-0.8-0.6-0.2-5.8-0.3-11.6-0.3-5.9-0.1-12.3-0.3-14.3-0.5-2-0.2-4.4-0.8-5.3-1.2-0.9-0.4-2.4-1.5-3.3-2.5-0.8-1-1.9-2.6-2.4-3.6-0.6-1.3-0.8-2.8-0.8-4.9 0-2.5 0.2-3.5 1-5.3 0.6-1.3 2-3.1 3-4 1.2-1.1 2.7-2 4-2.4 1.7-0.5 4.9-0.7 16.1-0.9 8.4-0.2 14.1-0.5 14.4-0.7 0.2-0.2 1.4-2.5 2.5-5.1 1.1-2.6 2.9-6.1 4-7.8 1-1.6 2.9-4.3 4.2-5.9 1.2-1.5 3.2-3.7 4.5-4.8 1.2-1.1 3.3-2.8 4.6-3.8 1.4-0.9 3.6-2.3 4.9-3.1 1.4-0.8 3.8-2 5.5-2.7 1.7-0.7 4.7-1.6 6.8-2.1 2-0.5 5.1-1 6.9-1.2 1.8-0.2 4.8-0.2 6.7-0.1zm-12.9 27.8c-1.5 0.7-3.9 2.5-5.9 4.4-2.6 2.5-3.6 3.8-4.9 6.4-0.8 1.8-1.8 4.4-2.2 5.8-0.3 1.3-0.6 3.8-0.6 5.5 0 1.7 0.3 4.1 0.6 5.5 0.4 1.3 1.4 3.9 2.2 5.7q1.6 3.3 4.1 5.8c1.4 1.4 3.5 3.2 4.8 4.1 1.3 0.8 3.4 1.8 4.6 2.2 1.4 0.5 3.9 0.9 6.4 1 2.5 0.2 5.2 0.1 7.1-0.3 1.8-0.3 4.2-1.1 5.9-1.9 2-1 3.9-2.5 6.2-4.8 1.8-1.8 3.8-4.3 4.5-5.5 0.7-1.2 1.6-3.4 2-4.9 0.4-1.6 0.7-4.3 0.7-6.9 0.1-2.4-0.2-5.3-0.5-6.6-0.3-1.2-1.1-3.3-1.8-4.7-0.7-1.3-2.7-3.8-4.3-5.6-1.7-1.8-4.1-3.8-5.4-4.6-1.2-0.7-3.7-1.7-5.5-2.2-2.4-0.6-4.4-0.8-7.7-0.8-2.5 0-5.2 0.3-6.1 0.6-0.9 0.2-2.8 1.1-4.2 1.8zm110.3 72.3c3.1 0 6.8 0.2 8.9 0.6 1.9 0.3 5 1.1 6.9 1.7 1.9 0.5 5.2 1.9 7.4 3 2.3 1.1 5.7 3.2 7.6 4.6 1.9 1.5 4.7 3.9 6.1 5.4 1.4 1.6 3.4 4 4.3 5.5 1 1.4 2.6 4.3 3.7 6.3 1.1 2 2.5 5 3.1 6.5 0.8 2.2 1.3 3 2.1 3.2 0.5 0.1 5.7 0.3 11.5 0.3 5.9 0 12.2 0.2 14.1 0.4 1.9 0.2 4.2 0.6 5.1 0.9 1 0.3 2.4 1.2 3.5 2.3 1 1.1 2.2 2.7 2.6 3.6 0.5 1 0.9 2.7 1 4.9 0.1 2.5 0 3.6-0.6 5.1-0.5 1-1.5 2.6-2.2 3.6-0.8 0.9-2.3 2.2-3.5 2.7-1.7 0.8-3 1.1-7.5 1.4-3.1 0.2-9.6 0.4-14.5 0.4-5 0.1-9.3 0.2-9.7 0.4-0.4 0.1-1.6 2.1-2.7 4.7-1 2.5-2.7 5.8-3.6 7.4-0.9 1.5-2.8 4.2-4.1 5.9-1.4 1.7-3.5 4.1-4.9 5.3-1.3 1.3-3.5 3.1-4.8 4.1-1.4 1-4.1 2.7-6.1 3.7-2.1 1.1-5.5 2.5-7.6 3.1-2.1 0.7-5.5 1.6-7.5 1.9-2.1 0.4-5.6 0.7-7.8 0.7-2.2 0-5.7-0.3-7.8-0.7-2-0.3-5.5-1.2-7.7-2-2.3-0.7-5.3-1.9-6.7-2.6-1.5-0.8-4.2-2.3-6-3.5-1.8-1.2-4.7-3.6-6.6-5.4-1.8-1.7-4.3-4.7-5.5-6.7-1.3-1.9-3.3-5.4-4.6-7.9-1.2-2.5-2.5-5.3-3.4-8.2l-61.7-0.2c-37.5-0.2-63.2-0.5-65.3-0.7-1.9-0.2-4.3-0.7-5.3-1-1.1-0.3-2.3-1.1-3.2-2.2-0.8-0.9-1.9-2.6-2.4-3.8-0.9-2-1-2.7-0.9-5.5 0.1-2.2 0.5-3.9 1-4.9 0.4-0.9 1.5-2.4 2.3-3.4 0.9-0.9 2.2-1.9 2.9-2.1 0.7-0.3 2.7-0.7 4.4-0.9 2.1-0.3 22.1-0.6 128.2-1l0.5-1.6c0.3-0.9 1.4-3.6 2.6-5.9 1.1-2.4 3-5.8 4.2-7.6 1.2-1.8 4-5.1 6.3-7.4 2.2-2.2 5.5-5 7.1-6.1 1.7-1.2 4.2-2.6 5.6-3.3 1.3-0.7 4.1-1.8 6.1-2.6 2-0.7 5-1.5 6.7-1.8 1.7-0.3 5.5-0.6 8.4-0.6zm-8.8 26.7c-1.2 0.6-3.3 1.9-4.7 2.8-1.3 1-3.3 2.8-4.4 4-1.1 1.2-2.6 3.5-3.4 5-0.7 1.6-1.6 4-2 5.4-0.3 1.3-0.6 4-0.6 5.9 0 1.9 0.3 4.5 0.6 5.9 0.4 1.3 1.3 3.8 2.1 5.5 1.1 2.2 2.4 3.9 4.6 6.1 2.1 2.1 4 3.6 6 4.6 1.5 0.8 3.9 1.7 5.3 1.9 1.5 0.4 4.2 0.5 7.3 0.4 3.7-0.2 5.5-0.4 7.4-1.1 1.3-0.5 3.4-1.6 4.7-2.4 1.2-0.8 3.3-2.6 4.7-4 1.4-1.4 3.1-3.8 4-5.5 1-2 1.8-4.2 2.2-6.3 0.4-2.2 0.5-4.5 0.4-7-0.2-2-0.6-4.8-1.1-6.3-0.4-1.5-1.7-3.9-2.8-5.5-1.1-1.6-3.1-3.8-4.4-5-1.3-1.2-3.4-2.7-4.7-3.3-1.2-0.7-3.4-1.5-4.9-1.8-1.4-0.4-4-0.7-5.7-0.8-1.7-0.2-4.2-0.1-5.7 0.1-1.5 0.2-3.7 0.9-4.9 1.4zm-91.4 73.3c3.2 0 7 0.2 9.1 0.6 1.9 0.3 5 1.1 6.9 1.7 1.9 0.5 5.2 1.9 7.4 3 2.3 1.1 5.7 3.2 7.6 4.6 1.9 1.5 4.7 3.9 6.1 5.4 1.4 1.6 3.4 4 4.3 5.5 1 1.4 2.8 4.6 4 6.9 1.2 2.4 2.7 5.5 4.2 9.4h55.3c30.4 0.1 59.3 0.2 64.3 0.4 4.9 0.2 10 0.6 11.2 0.9 1.8 0.3 2.6 0.8 4.1 2.3 1 1.1 2.2 2.7 2.6 3.6 0.5 1 0.9 2.7 1 4.9 0.1 2.8 0 3.5-0.9 5.5-0.5 1.2-1.6 2.9-2.4 3.8-0.9 1.1-2.1 1.9-3.2 2.2-1 0.3-3.4 0.8-5.3 1-2 0.2-28.4 0.5-64.7 0.7-33.7 0.1-61.5 0.4-61.9 0.6-0.4 0.1-0.7 0.5-0.7 0.7 0 0.3-1 2.7-2.2 5.3-1.2 2.5-3.2 6.2-4.4 8.1-1.3 1.9-3.8 5-5.5 6.9-1.8 1.9-4.6 4.5-6.3 5.7-1.7 1.3-4.7 3.2-6.7 4.2-2.1 1-4.9 2.3-6.4 2.8-1.4 0.5-4.1 1.3-5.9 1.7-2 0.5-5.3 0.9-8.8 1-4.1 0.2-6.4 0.1-9.4-0.4-2.1-0.4-5.7-1.3-7.9-2.1-2.3-0.7-5.3-1.9-6.7-2.6-1.5-0.8-3.9-2.1-5.4-3.1-1.4-0.9-4-2.9-5.7-4.3-1.7-1.5-4-4-5.2-5.5-1.1-1.6-3.2-4.9-4.6-7.3-1.4-2.5-3.2-6-3.9-7.8-0.8-1.9-1.7-3.4-2.1-3.5-0.4-0.2-4.8-0.3-9.9-0.4-5 0-11.6-0.2-14.5-0.4-4.3-0.3-5.7-0.6-7.4-1.4q-2.2-1-3.6-3c-0.8-1-1.7-2.8-2.1-4-0.5-1.4-0.6-2.9-0.5-5.1 0.2-2.3 0.4-3.5 1.3-4.9 0.5-1 1.8-2.5 2.7-3.3 0.9-0.9 2.4-1.7 3.4-2 1-0.3 4-0.6 6.8-0.8 2.8-0.2 8.3-0.4 12.1-0.4 3.8-0.1 8.2-0.2 12.6-0.6l1.1-3.1c0.7-1.6 1.7-4.1 2.4-5.5 0.6-1.3 2.1-3.8 3.2-5.5 1.1-1.7 3.5-4.6 5.3-6.5 1.7-1.9 4.6-4.5 6.2-5.8 1.7-1.3 4.5-3.2 6.3-4.2 1.8-1 4.9-2.4 6.8-3.1 1.9-0.7 5-1.6 6.9-2q3.5-0.8 9-0.8zm-8.6 26.7c-1.2 0.6-3.3 1.9-4.7 2.8-1.3 1-3.3 2.8-4.4 4-1.1 1.2-2.6 3.5-3.4 5-0.7 1.6-1.6 4-2 5.4-0.3 1.3-0.6 4-0.6 5.9 0 1.9 0.3 4.5 0.6 5.9 0.4 1.3 1.3 3.8 2.1 5.5 1.1 2.2 2.4 3.9 4.6 6.1 2.1 2.1 4 3.6 6 4.6 1.5 0.8 3.9 1.7 5.3 1.9 1.5 0.4 4.2 0.5 7.3 0.4 3.7-0.2 5.5-0.4 7.4-1.1 1.3-0.5 3.4-1.6 4.7-2.4 1.2-0.8 3.3-2.6 4.7-4 1.4-1.4 3.1-3.8 4-5.5 1-2 1.8-4.2 2.2-6.3 0.4-2.2 0.5-4.5 0.4-7-0.2-2-0.6-4.8-1.1-6.3-0.4-1.5-1.7-3.9-2.8-5.5-1.1-1.6-3.1-3.8-4.4-5-1.3-1.2-3.4-2.7-4.7-3.3-1.2-0.7-3.4-1.5-4.9-1.8-1.4-0.4-4-0.7-5.7-0.8-1.7-0.2-4.2-0.1-5.7 0.1-1.5 0.2-3.7 0.9-4.9 1.4z"/>
</svg>