<?xml version="1.0" encoding="utf-8"?>
<!-- Generator: Adobe Illustrator 28.0.0, SVG Export Plug-In . SVG Version: 6.00 Build 0)  -->
<svg version="1.1" id="Слой_1" xmlns="http://www.w3.org/2000/svg" xmlns:xlink="http://www.w3.org/1999/xlink" x="0px" y="0px"
	 viewBox="0 0 976 976" style="enable-background:new 0 0 976 976;" xml:space="preserve">
<style type="text/css">
	.st0{fill:#F3F4F6;}
	.st1{fill:#B3B3B3;}
</style>
<g id="Background">
	<path id="Path_0" class="st0" d="M0,488v488h976V0H0V488z"/>
	<path id="Path_1" class="st1" d="M727.5,31.6c-3.3,0.8-8.9,2.9-12.5,4.7c-4.1,2-9.1,5.8-13.6,10.2c-4.4,4.3-8.3,9.3-10.2,13
		c-1.6,3.3-28,74.6-58.5,158.5c-30.6,83.9-55.8,153.3-56.1,154.3c-0.5,1.5-2.2,1.7-16.1,1.7H545l-0.5-310.5
		c-3.4-8.5-6.8-13.6-9.7-16.9c-3.9-4.2-7.3-6.8-12.7-9.5l-7.5-3.6h-95.1c-8.9,4.3-13,7.6-16.3,11.2c-3.1,3.3-6.3,8.1-7.5,11.3
		l-2.2,5.5L393,374c-31,0-40-0.3-40-0.8c0-0.4-2-12.2-4.5-26.2s-6.5-37-9-51c-2.4-14-6.9-39.7-10-57c-3.1-17.9-6.9-35.6-8.6-41
		c-1.7-5.2-4.5-12.7-6.3-16.5c-1.8-3.9-9.5-17.8-17.1-31s-20.2-35-28-48.5s-16.7-29-19.9-34.5s-7.4-11.7-9.4-13.8
		c-2.1-2.1-5.4-4.7-7.5-5.8c-2-1-5.6-2.2-8-2.5c-2.3-0.3-6.1-0.1-8.5,0.5c-2.5,0.7-6,2.8-8.8,5.3c-2.5,2.4-5.4,6.1-6.5,8.3
		c-1.2,2.6-6.3,28.4-14.1,72l-12.1,68l-0.1,36C194.3,340.5,200,371.9,200,373c0,1.6-0.7,2-3.8,2c-2,0-6.2,0.7-9.2,1.6
		s-8.2,3-11.5,4.7c-3.3,1.8-8.7,5.9-12,9.2c-3.5,3.5-7.5,8.9-9.7,13c-2,3.9-4.3,9.7-5.2,13c-1.4,5.4-1.6,31-1.6,242
		c0,207.5,0.2,236.7,1.5,242c0.8,3.3,3.1,9.1,5,13c2.4,4.8,5.6,9.1,10.2,13.6c4,3.9,9.5,7.9,13.3,9.9c3.6,1.8,9.4,3.9,13,4.6
		c5.4,1.1,49.6,1.4,258,1.4c219.7,0,252.4-0.2,258.5-1.5c3.9-0.9,10.4-3.2,14.5-5.2c5.4-2.7,9.6-5.9,15-11.3
		c4.5-4.4,8.9-10,10.7-13.5c1.8-3.3,3.9-8.7,4.7-12c1.4-5.4,1.6-30.9,1.6-240.8c0-211.3-0.2-235.3-1.6-240.9
		c-0.9-3.5-2.8-8.8-4.2-11.8c-1.5-3.1-6-8.9-10.2-13.3c-5.6-5.9-9.3-8.8-14.5-11.3c-3.9-1.9-9.5-4.1-12.5-4.9s-7-1.5-8.8-1.5
		c-1.7,0-3.2-0.1-3.2-0.2c0-0.2,3.6-10.4,8-22.8s10.5-29.2,13.5-37.5c2.9-8.2,11-30.7,18-50c7-19.2,15.8-43.6,19.5-54
		s7.5-20.9,8.4-23.2c0.9-2.4,1.9-4.3,2.3-4.3c0.5,0,4.7,1.4,9.6,3.2c4.8,1.8,8.7,3.5,8.7,3.8s-8.1,22.7-18,49.8
		c-11.6,31.6-18,50.5-18,53c0,2,0.8,5.5,1.8,7.7s3.4,5.2,5.3,6.7c1.9,1.5,5.4,3.1,7.9,3.6c2.5,0.6,5.9,0.7,7.5,0.3
		c1.6-0.4,4.6-1.7,6.5-2.8c1.9-1.2,4.5-3.9,5.7-6s3.2-6.9,4.6-10.8c1.4-3.9,8.9-24.6,16.7-46s16.1-44.3,18.6-50.7
		c2.8-7.6,4.4-13.4,4.4-16.3c0-2.5-0.5-5.7-1.1-7.2c-0.5-1.6-2.2-4.1-3.7-5.6c-1.5-1.6-3.8-3.5-5.2-4.2s-10.4-4.1-20-7.5
		c-9.6-3.5-17.9-6.6-18.3-6.9c-0.5-0.3,2.8-10.7,7.3-23.1c4.9-13.8,8.5-25.4,9.2-30c0.7-5.5,0.7-9.5-0.1-14.7c-0.6-4-2-9.7-3-12.5
		c-1.1-2.9-3.9-8.2-6.3-11.7c-2.4-3.6-6.8-8.6-9.8-11.3c-3-2.6-8.2-6.1-11.5-7.8c-3.3-1.6-8.9-3.6-12.5-4.4
		c-3.6-0.9-9.6-1.5-13.5-1.5S730.8,30.8,727.5,31.6L727.5,31.6z"/>
	<path id="Path_2" class="st0" d="M732.2,70.1c-2.4,1.2-5.3,3.5-6.5,5.3c-1.1,1.7-5.5,12.6-9.7,24.3l-7.5,21.2
		c24.8,9.2,32.8,12,33.8,12.2c1.6,0.3,3.1-2.9,9.7-21.1c4.4-11.8,7.9-23.1,7.9-25s-0.8-5.3-1.8-7.5s-3.1-5.2-4.7-6.7
		c-1.6-1.5-4.1-3.2-5.7-3.7c-1.5-0.6-4.6-1.1-7-1.1C738.4,68,734.6,69,732.2,70.1z M431,222.5V374h76v-76c-42.6,0-45.4-0.2-48.8-1.9
		c-2-1-4.4-2.7-5.3-3.7c-0.9-1.1-2.4-3.5-3.4-5.4c-1.2-2.5-1.6-5.2-1.4-9.1c0.3-4.5,1-6.5,3.5-9.5c1.7-2.2,4.6-4.7,6.5-5.6
		c2.9-1.5,6.4-1.8,23.9-1.8c11.3,0,21.5-0.2,22.7-0.5l2.3-0.5v-75c-43.4-0.5-45.8-0.7-48.9-2.5c-1.9-1.1-4.8-3.7-6.5-5.9
		c-2.5-3-3.2-5-3.5-9.5c-0.3-4.2,0.2-6.6,1.7-9.6c1.1-2.2,2.8-4.8,3.8-5.7c1.1-0.9,3.6-2.4,5.6-3.2c3.1-1.3,8.1-1.6,25.8-1.6h22V71
		h-76L431,222.5z M229,110.7c0,0.5-2.7,16.1-6,34.8c-3.4,18.7-7,38.9-8.1,45s-2.3,13.9-2.7,17.5c-0.5,5.4-0.3,6.4,0.9,5.9
		c0.8-0.3,16.5-3.2,34.9-6.4s33.6-6,33.7-6.2c0.2-0.2-0.9-2.7-2.3-5.5c-1.4-2.9-12.8-23.4-25.3-45.5c-12.5-22.2-23.3-40.3-23.9-40.3
		c-0.7,0-1.2,0.3-1.2,0.8L229,110.7z M694.1,159.7c-0.5,1.5-2.6,7-4.5,12.2s-9.8,27.1-17.6,48.5c-7.9,21.4-16.6,45.5-19.5,53.5
		c-2.8,8-10.9,30-17.8,49c-6.9,19-13.9,38.2-15.6,42.8l-3.1,8.2h40.5C713.7,217,730.4,171,730.6,170.4c0.2-0.6-7.4-3.8-16.8-7.3
		c-9.5-3.4-17.6-6.2-18-6.2C695.5,156.9,694.7,158.1,694.1,159.7L694.1,159.7z M285.5,238.9c-1.7,0.5-17.6,3.4-35.5,6.6
		c-17.9,3.1-32.8,5.9-33.1,6.3c-0.4,0.3,0.8,8.9,2.6,19.1c1.8,10.2,4.9,27.9,7,39.5c2,11.6,5.2,29.6,7.1,40
		c1.9,10.4,3.6,20,3.9,21.3l0.5,2.2h77c-0.8-3.5-6-32.9-12-67.5c-6.1-34.6-11.3-64.2-11.5-65.8c-0.3-1.5-1.1-2.7-1.8-2.6
		C289.1,238,287.1,238.5,285.5,238.9L285.5,238.9z M195.1,413.8c-2.5,1.1-5.3,3.3-6.6,5.2c-1.2,1.9-2.6,4.5-3,5.9
		s-0.8,106.9-0.8,234.5c0,207.8,0.2,232.3,1.6,235c0.8,1.6,2.8,4.2,4.4,5.7c1.5,1.5,4,3.2,5.5,3.7c2,0.8,78.8,1.1,253.8,1.1
		s251.8-0.3,253.7-1.1c1.6-0.5,4.1-2.2,5.7-3.7c1.6-1.5,3.7-4.5,4.7-6.7c1.8-3.9,1.9-12.3,1.9-234c0-149.3-0.4-231.3-1-233.8
		c-0.6-2-2.2-5.1-3.8-6.9c-1.5-1.7-4.5-4-6.7-4.9c-3.8-1.8-15.1-1.9-254.5-1.9C207.6,411.9,199.4,412,195.1,413.8L195.1,413.8z"/>
	<path id="Path_3" class="st1" d="M309.5,603.4c-1.6,0.7-5.1,3.5-7.6,6.2c-2.7,2.9-4.9,6.3-5.3,8.4c-0.5,2.2-0.3,5.2,0.5,8
		c0.9,2.9,2.8,5.9,5.4,8.3c2.9,2.7,5.4,4,9,4.8c3.1,0.6,34.1,0.8,82.5,0.7c70-0.3,77.8-0.5,80.5-2c1.6-0.9,4.2-2.9,5.6-4.5
		c1.5-1.5,3.2-3.8,3.8-5c0.6-1.3,1.2-4.4,1.2-7c0.1-2.7-0.3-5.7-0.9-6.8c-0.5-1.1-3.1-3.9-5.6-6.2c-2.5-2.4-6.3-4.7-8.4-5.3
		c-2.3-0.6-32.7-1-80.7-1C328,602.1,311.9,602.3,309.5,603.4L309.5,603.4z M422.3,698.7c-1.3,0.2-4.3,2.6-6.8,5.4
		c-3,3.3-4.7,6.2-5.1,8.7c-0.4,2-0.3,5.1,0,6.7c0.4,1.7,1.8,4.7,3.1,6.8c1.4,2,4.4,4.7,6.8,6l4.2,2.2c159.5,0,160,0,164-2.1
		c2.2-1.2,5.4-3.8,7-5.9c2.3-2.8,3.1-5,3.4-8.9c0.2-3.7-0.2-6.2-1.7-9.1c-1.1-2.2-3.1-5-4.4-6.2c-1.2-1.2-3.5-2.6-5-3.2
		c-1.9-0.8-28.3-1.1-83-1C460.6,698.2,423.5,698.5,422.3,698.7z"/>
</g>
</svg>
