<?xml version="1.0" encoding="utf-8"?>
<!-- Generator: Adobe Illustrator 28.0.0, SVG Export Plug-In . SVG Version: 6.00 Build 0)  -->
<svg version="1.1" id="Слой_1" xmlns="http://www.w3.org/2000/svg" xmlns:xlink="http://www.w3.org/1999/xlink" x="0px" y="0px"
	 viewBox="0 0 1263 1263" style="enable-background:new 0 0 1263 1263;" xml:space="preserve">
<style type="text/css">
	.st0{fill:#F3F4F6;}
	.st1{fill:#B3B3B3;}
</style>
<g id="Background">
	<path id="Path_0" class="st0" d="M-1,631.5V1263h1263V0H-1V631.5z"/>
	<path id="Path_1" class="st1" d="M608.5,39.6c-4.4,0.8-12.5,3-18,4.8S577.6,49.2,574,51s-9.4,5.1-13,7.3s-10.1,6.8-14.5,10.2
		c-4.4,3.4-11.8,10.2-16.5,15.1s-15.5,17.2-24,27.4c-8.5,10.1-20,23.1-25.5,28.9c-5.5,5.7-13.6,13.3-18,16.8
		c-4.6,3.7-12.2,8.5-18,11.3c-5.5,2.6-12.3,5.4-15,6.1c-4,1.1-18.8,1.4-72,1.4c-65.3,0-67.3,0.1-78.8,2.3c-6.4,1.2-16.8,3.8-23,5.8
		c-6.1,2-16.4,6.3-22.7,9.5c-6.6,3.4-14.1,8.1-17.5,11.1c-3.4,2.9-8.3,7.9-11,11.1c-2.8,3.1-7.1,9.2-9.8,13.5
		c-2.6,4.2-6.5,12.2-8.7,17.7c-2.1,5.5-5,14.7-6.4,20.5s-3.3,15-4.2,20.5c-0.9,6.1-1.8,19.7-2.1,34.5c-0.4,17.5-0.1,30.8,1.1,46.5
		c0.9,12.1,1.6,28.5,1.6,36.5s-0.6,18.6-1.4,23.5c-0.7,4.9-2.3,11.3-3.5,14c-1.2,2.8-4.2,7.7-6.6,11c-2.3,3.3-8.5,10.1-13.6,15
		c-5.2,5-17.1,15.1-26.4,22.6s-21.5,17.8-26.9,23c-5.5,5.2-14.2,14.4-19.4,20.4c-5.2,6-12.6,15.7-16.4,21.5
		c-3.9,5.8-8.7,13.9-10.8,18s-5,10.9-6.5,15c-1.4,4.1-3.5,11.3-4.6,16s-2.2,13.9-2.5,20.5c-0.5,9.1-0.2,14.7,1.1,23
		c1,6,3.1,15,4.7,20c1.7,5,5.1,13,7.6,18c2.4,5,7,12.8,10.2,17.5c3.1,4.7,8.1,11.4,11.1,15c2.9,3.6,10.5,11.8,16.9,18.4
		c6.3,6.5,22.5,21.7,36,33.7s25.9,23.5,27.6,25.6s5.2,6.9,7.7,10.8c2.5,3.9,6,10.6,7.7,15c1.8,4.4,4.1,12,5.2,17
		c1.1,5.5,2.1,15.2,2.5,25c0.3,10.3-0.1,24.4-1.1,39.5c-0.9,12.9-1.6,30.7-1.6,39.5s0.5,19.8,1,24.5c0.6,4.7,2.1,13,3.4,18.5
		c1.3,5.5,4,14,6,19s5.7,12.6,8.3,17c2.5,4.4,6.7,10.7,9.2,14s7.4,8.8,10.8,12.3c3.5,3.4,10,8.9,14.5,12.2c4.6,3.4,13,8.5,18.8,11.4
		c5.8,3,13.9,6.6,18,8c4.1,1.5,12,3.6,17.5,4.7c7.8,1.6,13.8,2.1,27,2.1c11.3,0,25.4-0.9,42-2.7c13.7-1.4,31.1-2.8,38.5-3.2
		c8-0.3,17.6-0.1,23.5,0.6c5.5,0.6,13.4,2,17.5,3.2c4.1,1.1,11.1,3.8,15.5,6s11.6,6.6,15.9,9.7c4.4,3.1,13,10.7,19.1,16.7
		c6.2,6,20.4,21.8,31.7,35c11.3,13.2,24.4,27.7,29.2,32.3c4.7,4.5,12.1,10.8,16.3,14c4.3,3.1,11.2,7.6,15.3,9.9
		c4.1,2.2,11.5,5.7,16.5,7.6c5,2,13.6,4.5,19.2,5.6c6.9,1.4,14,2.1,21.5,2.1c6.2-0.1,14.7-0.7,18.8-1.4c4.1-0.8,11.7-2.8,16.7-4.5
		c5.1-1.7,13.2-5.1,18-7.5c4.9-2.4,13.5-7.5,19.3-11.4c5.8-3.8,15.7-11.4,22-16.8s16.7-15,23-21.4c6.3-6.3,18.8-19.6,27.8-29.5
		c8.9-9.9,19.7-20.8,24-24.3c4.2-3.4,10.6-7.8,14.2-9.7c3.6-1.8,9.5-4.5,13.2-5.9c3.8-1.4,10.7-3.5,15.5-4.5
		c4.9-1.1,13.1-2.5,18.3-3.1c6.3-0.8,24.9-1.2,54.5-1.1c25.6,0.1,50.2-0.3,57-0.9c6.6-0.6,16.7-2,22.5-3.2c5.8-1.1,14.3-3.4,19-5
		c4.7-1.7,11.7-4.6,15.5-6.5s9.5-5.1,12.5-7.2c3-2,8.8-6.8,12.9-10.6c4-3.8,9.7-10.6,12.6-15c3-4.4,6.7-11.2,8.4-15
		c1.6-3.9,4.1-10.8,5.4-15.5c1.4-4.7,3.2-13.2,4.1-19s1.9-18.6,2.2-28.5c0.4-10.9,0-32.8-1-55.5c-1-20.6-1.4-42-1.1-47.5
		s1.1-14,1.7-19s1.9-11.5,3-14.5c1-3,3.5-8.2,5.5-11.5s9.3-11.7,16.2-18.6c7.3-7.3,21.8-20,34.6-30.2c12.1-9.6,24.7-20.1,28-23.3
		c3.3-3.3,8.6-8.8,11.6-12.4c3.1-3.6,8.6-10.9,12.3-16.2c3.6-5.4,8.6-14,11-19c2.4-5.1,5.9-13.6,7.6-18.8c1.8-5.2,4.4-12.4,5.9-16
		c2.4-6.1,2.6-7.5,2.6-24c0-17-0.1-17.7-2.8-24c-1.6-3.6-4.4-10.5-6.3-15.5s-5.5-13-8-18c-2.6-5-6.6-12.1-9.1-16
		s-7.5-10.8-11.1-15.5s-14-16-23.1-25.1c-9.2-9.1-24.5-23.3-34.1-31.4c-9.6-8.2-20.4-17.8-23.8-21.4c-3.5-3.6-8.5-9.7-11.1-13.6
		s-5.7-9.6-6.9-12.7c-1.2-3.2-2.9-10-3.7-15c-0.8-5.1-1.5-14.7-1.5-21.3c0-6.6,1.2-23.5,2.6-37.5c1.9-17.6,2.7-31.1,2.7-43.5
		c0-12.1-0.6-21.6-1.7-29c-1-6.1-2.9-15.3-4.2-20.5c-1.4-5.2-4.5-14.2-6.9-20s-7.5-15.2-11.4-21c-4.5-6.8-10.2-13.7-16.2-19.6
		c-5.2-5-13.2-11.6-17.9-14.6c-4.7-3.1-10.8-6.7-13.5-8.1c-2.8-1.3-8.4-3.7-12.5-5.2s-12.5-3.8-18.5-5.1c-9-2.1-14.8-2.6-32-3.1
		c-14.9-0.4-28.4,0-46.5,1.2c-14,0.9-33.6,1.7-43.5,1.7s-22-0.5-27-1.2c-5-0.6-11.9-2-15.5-3.2c-3.6-1.1-8.1-2.8-10-3.8
		s-7.1-4.5-11.5-7.7c-4.4-3.3-12.5-10.7-18-16.4s-18.9-21.2-29.7-34.4s-23.6-28-28.5-32.9c-4.8-4.9-11.9-11.1-15.8-13.8
		c-3.9-2.8-11.5-7.2-17-10s-14.5-6.5-20-8.4c-5.5-1.8-14-4-19-4.9c-5.3-0.9-14.3-1.5-22-1.4C622.4,38.1,612.9,38.8,608.5,39.6
		L608.5,39.6z"/>
	<path id="Path_2" class="st0" d="M621,150.6c-3,1.4-8.4,4.9-12,7.8c-3.6,2.9-9.6,8.8-13.5,13.2s-12,14.1-18.1,21.5
		c-6.1,7.3-17.4,19.9-25.1,27.9c-7.7,8-17.9,17.9-22.7,22s-12.7,10.3-17.4,13.7c-4.8,3.4-13.9,8.9-20.2,12.2
		c-6.3,3.3-15.6,7.3-20.5,9s-13.3,3.9-18.5,5s-16.5,2.5-25,3c-11,0.7-22.3,0.7-39-0.2c-12.9-0.6-36.6-1.2-52.5-1.2
		c-24.8,0-29.8,0.3-34.8,1.8c-3.1,0.9-7.2,3-9,4.5c-1.7,1.6-4.3,5.3-5.7,8.3c-2.4,5.2-2.5,6.2-2.5,24.9c0,10.7,0.7,27.8,1.5,38
		c0.9,11,1.5,30.3,1.5,47.5c-0.1,23.6-0.4,30.9-1.9,39c-1,5.5-2.9,13.8-4.3,18.5c-1.3,4.7-3.7,11.6-5.3,15.5
		c-1.6,3.9-6.1,11.7-9.9,17.5s-10,14.3-13.8,19c-3.7,4.6-12,13.8-18.3,20.4c-6.3,6.5-16.5,16.5-22.5,22c-6.1,5.6-16.7,14.6-23.5,20
		c-6.9,5.5-17.5,14.9-23.5,21c-8.1,8.1-11.8,12.7-13.9,17.1c-2.4,5-2.8,6.9-2.4,11.5c0.3,3.2,1.8,8.4,3.7,12.5
		c1.8,3.9,5.1,9.5,7.3,12.5c2.3,3,8,9.5,12.7,14.4c4.7,4.8,16.3,15.2,25.6,23s21.9,18.2,28,23.2c6,4.9,15.3,13.2,20.6,18.4
		s11.7,12.6,14.2,16.5c2.4,3.9,6.5,11,9,16c2.4,5,5.8,13.3,7.5,18.5s4,14,5.1,19.5s2.6,17,3.2,25.5c1,12.2,0.9,24.4-0.1,57
		c-0.7,22.8-1.1,46.5-0.7,52.5c0.3,6,1.1,13.3,1.6,16c0.6,2.8,2.4,7,3.9,9.5c1.8,3,4.3,5.3,7.2,6.8c2.8,1.3,8.2,2.7,14,3.4
		c8.1,1.1,14.6,0.9,45-1c19.5-1.3,40.8-2.3,47.3-2.2c6.4,0,16.1,0.5,21.4,1.1c5.4,0.5,15.2,2.1,21.8,3.4c6.6,1.3,16.7,4,22.5,6
		s15,5.9,20.5,8.5c5.5,2.7,14.7,8,20.5,11.9c5.8,3.8,14.8,10.5,20,14.9c5.2,4.4,16.3,14.9,24.5,23.3c8.3,8.5,20.6,22.4,27.5,30.9
		c6.8,8.5,16.3,19.3,21,24s11.3,10.1,14.5,12c5,3,6.8,3.5,12,3.5c4.9,0,7.2-0.7,12.5-3.5c3.8-2.1,10.2-7,15.4-12
		c4.9-4.7,14.8-15.7,22-24.5s17.4-20.4,22.6-25.9c5.2-5.4,13.3-13.6,18-18.2s12.5-11.5,17.5-15.5s12.6-9.6,17-12.5
		c4.4-2.8,12.6-7.5,18.3-10.3c5.6-2.8,14.1-6.4,18.9-8.1c4.9-1.6,13.3-3.9,18.8-5.1c7.8-1.7,14.6-2.3,30.5-2.6
		c13.1-0.4,31.8,0.1,52,1.2c18.8,1.1,36.7,1.5,44.5,1.2c7.1-0.3,15.5-1.1,18.5-1.7c3-0.7,7.4-2.3,9.8-3.6c2.5-1.5,5.1-4.1,6.6-6.6
		c1.4-2.4,3-7.2,3.7-10.8c0.8-4.5,1-12.3,0.6-25.5c-0.3-10.5-1.1-31.1-1.8-46c-0.9-20.7-1-31-0.1-44c0.7-9.4,2.1-22.2,3.2-28.5
		c1.2-6.3,3.8-16.7,5.9-23c2.1-6.3,5.8-15.3,8.1-20s6.3-11.6,8.8-15.5c2.4-3.9,8.8-11.3,14.1-16.5s20.6-18.5,34.1-29.5
		s29.6-24.9,35.9-31c6.2-6,13.5-13.9,16.1-17.5c2.7-3.6,6.3-9.6,8.2-13.5c2.7-5.7,3.3-8.2,3.3-13.5c0-5.5-0.6-7.7-3.7-14
		c-2.1-4.1-6.6-11.1-10.1-15.5s-10.4-11.7-15.3-16.3s-19.7-17.2-32.9-27.9c-13.2-10.8-29.4-25.1-36-31.7c-8.9-8.9-13.3-14.3-17-20.6
		c-2.7-4.7-6.8-13-9.2-18.5c-2.3-5.5-5.6-15.4-7.3-22c-1.6-6.6-3.7-18.3-4.6-26c-1.4-12-1.5-19.2-0.8-51.5c0.5-20.6,0.9-46.7,0.9-58
		c0-17.7-0.3-21.3-1.9-26c-1.1-3-3.6-7.2-5.5-9.3c-2.2-2.3-5.8-4.7-9.1-5.9c-4.3-1.7-8.5-2.2-19-2.6c-7.8-0.2-23.6,0.3-37.5,1.3
		c-13.2,1-32.8,1.8-43.5,1.8c-13.3,0-23.3-0.5-31.5-1.7c-6.6-1-17-3-23-4.6c-6-1.5-15-4.3-20-6.1c-5-1.8-13.3-5.5-18.5-8.2
		s-13.1-7.3-17.5-10.2c-4.4-3-11.6-8.3-16-11.8s-13.6-12-20.3-18.8c-6.8-6.8-17-18.2-22.5-25.3c-5.6-7.1-14.1-17.5-18.8-23
		c-4.7-5.6-11.7-13-15.6-16.6c-3.8-3.6-9.6-7.9-12.9-9.7c-4.6-2.5-7.1-3.2-11.4-3.3C628.2,148,624.8,148.8,621,150.6L621,150.6z"/>
	<path id="Path_3" class="st1" d="M458.5,345.5c-3.3,0.7-9.4,2.6-13.5,4.2c-4.1,1.5-11.1,5.1-15.5,7.8c-5,3-11.8,8.7-18.1,14.9
		c-6.1,6.2-12.6,14-16.7,20.1c-3.6,5.5-8.8,14.7-11.5,20.5c-2.8,5.8-6.4,14.8-8.2,20c-1.7,5.2-4.1,13.3-5.2,18s-2.6,13.2-3.4,19
		c-0.7,5.8-1.4,14.8-1.4,20s0.7,14,1.5,19.5s2.4,13.4,3.6,17.5c1.1,4.1,3.6,11.3,5.6,16c1.9,4.7,5.3,11.6,7.5,15.5
		c2.3,3.9,6.5,10.3,9.4,14.2c3,4,9.1,11,13.7,15.4c4.5,4.5,12.2,10.8,17.2,14.1s11.5,7.3,14.5,8.8s9.3,4.1,14,5.8
		c4.7,1.6,12.3,3.8,17,4.8c5.9,1.3,12.7,1.8,22,1.8c11,0,15-0.4,21.3-2.2c4.2-1.2,10.5-3.4,14-4.8c3.4-1.4,10-5.1,14.7-8.2
		c4.6-3.2,11.8-9.1,16-13.3c4.1-4.1,10.3-11.6,13.8-16.5s8.7-13.6,11.7-19.4c2.9-5.8,6.9-14.9,8.9-20.3c2-5.3,4.7-14.3,6.1-20
		c1.4-5.6,3.3-15.6,4.2-22.2c1.4-10.4,1.5-13.5,0.4-23c-0.6-6-2.3-16.2-3.8-22.5c-1.4-6.3-3.9-15.3-5.5-20
		c-1.7-4.7-4.7-12.1-6.8-16.5s-6.6-12.3-10.1-17.5s-10.4-13.6-15.4-18.6c-4.9-5-12.4-11.3-16.5-14.1c-4.1-2.8-10.3-6.4-13.8-8.2
		c-3.4-1.7-10.1-4.4-14.9-6.1c-4.9-1.6-12.8-3.6-17.8-4.5c-5.1-0.8-14.2-1.5-21-1.4C469.9,344.1,461.8,344.7,458.5,345.5
		L458.5,345.5z M831.5,359c-3.3,1-8.9,3.8-12.5,6c-4.9,3.2-60.4,58.1-228.1,225.8C453.2,728.5,367.9,814.6,365.6,818
		c-1.9,3-4.5,8.2-5.7,11.5s-2.4,9.4-2.6,13.5c-0.3,5,0.1,9.9,1.2,14.5c0.9,3.8,3.2,9.9,5,13.5c1.9,3.6,5.8,9.2,8.7,12.4
		c2.9,3.3,8.4,8,12.3,10.6c3.9,2.5,9.9,5.6,13.5,6.8s9.6,2.5,13.5,2.8c4.8,0.4,9.2,0.1,14-1.1c3.9-0.9,9.7-3,13-4.7
		c5.2-2.7,37.1-34.2,229.4-226.2c151.2-151.1,224.6-225,227.2-229.1c2.2-3.3,4.9-8.5,6.1-11.5c1.7-4.3,2.2-7.7,2.2-16
		c0.1-8.3-0.4-11.8-2.1-17c-1.2-3.6-4-9.2-6.1-12.5s-6.4-8.5-9.5-11.5s-8.5-7.2-11.9-9.3c-3.5-2.1-8.5-4.5-11.3-5.4
		c-2.7-0.8-9.5-1.7-15-1.9C839.6,357.1,836.3,357.4,831.5,359L831.5,359z M748,639.6c-5.2,1.3-12.6,4-16.5,5.8
		c-3.9,1.9-10.6,6.1-15,9.3c-4.4,3.3-11.3,9.5-15.4,13.9c-4,4.3-10,11.9-13.3,16.9s-8.2,13.5-10.9,19s-6.6,15.4-8.8,22
		s-4.9,16.3-6,21.5s-2.5,13.3-3.1,18c-0.5,4.7-1,12.1-1,16.5s0.5,12,1.1,17s2.1,13,3.4,18c1.2,5,4.1,13.4,6.4,18.7
		c2.2,5.4,6.2,13.3,8.7,17.5c2.6,4.3,6.7,10.5,9.3,13.8c2.5,3.3,8.2,9.5,12.6,13.8c4.4,4.3,12,10.6,17,14s12.6,7.8,17,9.8
		c4.4,2.1,10.9,4.7,14.5,5.8c3.6,1.2,9.6,2.8,13.5,3.6s11.7,1.8,17.5,2.1c7.6,0.5,13.1,0.2,19.8-1c5-0.9,12.7-2.9,17-4.6
		c4.2-1.6,11.3-5.2,15.7-8.1c4.4-2.9,10.4-7.3,13.3-9.8c2.9-2.5,8.2-8,11.6-12.1c3.5-4.1,8.4-10.7,10.9-14.5s6.7-11.5,9.5-17
		c2.7-5.5,6.4-14,8.1-19c1.8-5,4.3-13.3,5.6-18.5s3.2-15.1,4.1-22c1.6-10.9,1.6-13.9,0.6-23.5c-0.7-6-2.4-16.2-3.9-22.5
		c-1.4-6.3-3.9-15.3-5.5-20c-1.7-4.7-4.7-12.1-6.8-16.5s-6.5-12-9.8-17s-9.1-12.3-12.8-16.4c-3.8-4.1-10.6-10.1-15.1-13.5
		c-4.4-3.4-11.6-8-16-10.3c-4.3-2.3-11.8-5.5-16.8-7.2c-5-1.6-13-3.7-18-4.5c-5-0.9-14.4-1.6-21-1.5
		C760.1,637.1,755.5,637.6,748,639.6L748,639.6z"/>
	<path id="Path_4" class="st0" d="M477,419.3c-2.5,0.7-6.8,2.6-9.5,4.2c-2.8,1.6-7,5-9.5,7.6s-6,7.1-7.8,10.1
		c-1.7,2.9-4.5,9.1-6.2,13.8c-1.6,4.7-3.4,12.3-3.9,17c-0.8,5.8-0.8,11.3-0.1,17.5c0.6,4.9,1.8,11.9,2.7,15.5c0.9,3.6,2.7,9.4,4,13
		s3.6,8.5,5.1,11c1.4,2.5,4.6,6.7,7.1,9.4c2.5,2.6,6.6,6,9.1,7.5c4,2.3,5.5,2.6,14,2.6c8.7,0,10.1-0.3,16-3.2
		c3.9-1.9,8.5-5.2,11.6-8.5c2.8-2.9,6.7-8.6,8.7-12.6c2.1-3.9,4.8-11.1,6.2-16c1.4-4.8,2.9-12.3,3.3-16.7c0.5-4.4,0.5-11.4,0-15.5
		c-0.4-4.1-1.9-11.6-3.3-16.5c-1.4-5-4.3-12.6-6.4-17c-2.2-4.4-5.9-10.3-8.4-13c-2.4-2.8-6.8-6.3-9.8-7.9c-4-2.2-7-3-11.9-3.3
		C484.4,418.2,479.5,418.6,477,419.3L477,419.3z M767.9,713.2c-3.6,1.3-8.9,4.1-11.7,6.3c-2.9,2.2-7.1,6.5-9.3,9.5
		s-5.4,8.2-6.9,11.5c-1.6,3.3-3.8,9.6-5,14c-1.5,5.9-2.1,11-2,19.5c0,8.6,0.6,14.2,2.5,22.5c1.5,6.5,4.3,14.7,6.8,20
		c2.8,6,6,10.9,9.7,14.8c3.3,3.6,7.7,6.9,11,8.4c4.9,2.4,6.4,2.6,14,2.2c6.6-0.4,9.7-1.1,14-3.3c3-1.5,7.7-4.8,10.3-7.4
		c2.7-2.6,6.3-7.2,8.1-10.2s4.2-8,5.4-11s2.8-8.2,3.6-11.5s1.9-9.6,2.5-14c0.6-5,0.6-10.8,0-15.5c-0.6-4.1-1.9-11.1-3-15.5
		c-1.2-4.4-4-12-6.4-17s-6.3-11.2-8.7-14c-2.5-2.7-6.7-6.2-9.4-7.7c-3.5-2-6.9-2.9-11.9-3.3C775.8,711,773.3,711.3,767.9,713.2
		L767.9,713.2z"/>
</g>
</svg>
