<svg version="1.2" xmlns="http://www.w3.org/2000/svg" viewBox="0 0 400 200" width="400" height="200">
	<title>9cec1298a5b6df6ec055409168954da1</title>
	<style>
		.s0 { fill: #ffffff } 
		.s1 { fill: #23423d } 
		.s2 { fill: #6b7b78 } 
	</style>
	<g id="Слой 1">
		<path id="Path 0" class="s0" d="m0 100v100h400v-200h-400z"/>
		<path id="Path 0" class="s1" d="m213 19.2c-0.8 0.5-2 1.5-2.7 2.1-0.7 0.7-1.6 1.9-2 2.7-0.7 1.3-0.8 2.1-0.9 6.5 0 4.3 0.1 5.2 0.8 6.7 0.5 0.9 1.3 2.1 1.9 2.8 0.7 0.6 2 1.5 3.1 2.1l1.9 1 162.4-0.2c2.3-1.2 3.6-2.2 4.4-3.1 0.7-0.8 1.6-2.1 2-2.7 0.4-1 0.6-2.3 0.6-6.4-0.1-4.5-0.2-5.4-0.8-6.7-0.4-0.8-1.4-2.1-2.2-2.8-0.8-0.8-2-1.7-2.6-2.2l-1.2-0.8-163.2 0.1zm4.1 47.3c-3 0.1-3.6 0.3-5 1.3-0.9 0.6-2.1 1.7-2.6 2.4-0.6 0.7-1.3 1.7-1.5 2.2-0.3 0.6-0.6 2.7-0.7 5.4-0.1 4 0 4.7 0.7 6.7 0.5 1.3 1.5 2.8 2.3 3.6 0.8 0.8 2.3 1.9 3.4 2.4l1.9 0.9h160.6c4.8-2.5 5.6-3.2 6.6-4.7 0.7-1 1.4-2.7 1.6-3.9 0.2-1.1 0.3-3.6 0.3-5.5q-0.2-3.6-0.9-4.9c-0.3-0.7-1.3-2-2.2-2.9-0.8-0.9-2.2-1.9-3-2.4l-1.5-0.8c-121.4-0.1-158.2 0-160 0.2zm46.7 47.6c-46 0.1-49.4 0.2-50.5 0.8-0.7 0.4-1.9 1.4-2.8 2.2-0.9 0.9-1.9 2.3-2.3 3.1-0.7 1.3-0.8 2.2-0.7 6.5 0 3.7 0.1 5.4 0.6 6.3 0.3 0.7 1.3 2.1 2.2 3 0.9 0.9 2.3 2 3.3 2.4l1.6 0.8c159.6 0 161.9-0.1 163.2-0.7 0.7-0.4 1.9-1.2 2.6-1.8 0.7-0.5 1.8-1.9 2.4-3 1.1-1.9 1.1-2.1 1.1-7 0-4.9 0-5.1-1.1-7-0.6-1.1-1.8-2.6-2.6-3.3-0.8-0.7-2.2-1.5-3.1-1.9-1.6-0.6-4.2-0.6-33.2-0.6-17.2 0-53.6 0.1-80.7 0.2zm-50.2 48.9c-1 0.6-2.2 1.4-2.8 1.8-0.6 0.5-1.6 1.8-2.3 2.9-1 1.9-1.1 2.1-1.1 7 0 4.9 0.1 5 1.1 7 0.7 1.1 1.8 2.6 2.7 3.3 0.8 0.7 2.3 1.5 3.3 1.9 1.7 0.5 7.6 0.6 82 0.7l80 0.1c3.1-1.8 4.4-2.8 5-3.3 0.6-0.6 1.5-1.7 2-2.7 1-1.6 1-1.9 1-6.8 0-4.6-0.2-5.5-0.8-6.8-0.5-0.9-1.5-2.3-2.3-3.1-0.8-0.8-2.3-1.8-3.2-2.2-1.6-0.8-2.5-0.8-82.3-0.8h-80.7z"/>
		<path id="Path 0" class="s2" d="m28.7 19.4c-1.8 0.8-3.3 1.9-5.3 4-2.2 2.2-3 3.3-3.7 5-0.4 1.3-1 3.3-1.2 4.5-0.2 1.4-0.2 10.1-0.1 24.2l0.3 21.9c2.1 4.1 3.6 6.2 4.9 7.5 1.8 1.8 2.9 2.5 5.2 3.5l3 1.2c38.4 0.3 46.7 0.2 48.8-0.1 1.8-0.3 3.9-0.9 5.3-1.5 1.4-0.7 3.1-2 4.4-3.3 1.3-1.3 2.5-3 3.2-4.5 0.8-1.6 1.2-3.4 1.4-5.2 0.2-1.6 0.3-9.1 0.3-16.7 0-7.7-0.1-17.7-0.3-22.2-0.2-8-0.3-8.2-1.3-10.2-0.6-1.1-2.1-3.1-3.3-4.3-1.3-1.3-3.4-2.8-4.9-3.6l-2.6-1.4h-51.7zm102.9-0.6c-0.9 0.3-2.4 0.9-3.5 1.5-1.1 0.5-2.9 1.9-4.1 3.1-1.2 1.2-2.5 3-3 4-0.5 1-1 2.9-1.2 4.1-0.2 1.2-0.3 12.4-0.3 24.8v22.6c2.1 4.3 3.5 6.2 4.8 7.5 1.3 1.3 2.9 2.5 4.6 3.3 1.7 0.8 3.6 1.3 5.3 1.5 1.4 0.2 12 0.3 23.6 0.3 11.8 0 22.1-0.2 23.6-0.4 1.6-0.2 3.6-0.8 5.2-1.6 1.6-0.8 3.4-2.1 4.6-3.2 1.1-1.1 2.5-3 3.1-4.3 0.7-1.3 1.2-3.3 1.4-5 0.2-1.5 0.4-11.8 0.4-22.8 0-16.4-0.1-20.6-0.6-22.7-0.3-1.4-1-3.5-1.5-4.6-0.6-1.2-2-2.9-3.3-4.1-1.2-1.1-3.3-2.6-4.6-3.2l-2.5-1.1c-45.1-0.2-50.9-0.1-52 0.3zm-103.1 96.9c-1.9 0.9-3.8 2.2-5 3.4-1.2 1.1-2.5 3-3.1 4.1-0.6 1.2-1.2 3-1.4 4.1-0.3 1.3-0.4 9.8-0.4 24.8l0.1 22.9c2.4 4.5 3.8 6.6 4.8 7.5 0.9 0.9 3 2.3 4.6 3.1 1.6 0.8 3.9 1.6 5 1.8 1.3 0.3 11.1 0.4 24.6 0.4 22.4 0 22.5 0 24.9-0.8 1.4-0.5 3.4-1.5 4.6-2.2 1.2-0.7 2.9-2.1 3.8-3.1 0.9-1.1 2.1-2.8 2.6-3.9 0.7-1.4 1.1-3.2 1.4-5.4 0.2-2 0.3-11.8 0.2-24.2-0.2-19.7-0.2-20.9-0.9-22.8-0.4-1.2-1.3-2.8-1.9-3.8-0.6-0.9-1.9-2.3-2.8-3.1-0.8-0.8-2.6-1.9-3.8-2.5-1.2-0.6-3.2-1.2-4.3-1.4-1.3-0.3-11.1-0.4-26.1-0.4h-24zm101.6-0.5c-1.2 0.6-3 1.6-4.1 2.3-1 0.8-2.5 2.4-3.4 3.6-0.8 1.2-1.9 3-2.3 3.9-0.8 1.7-0.8 2.3-0.8 26v24.2c2.2 4 3.5 6.1 4.4 7.1 1.2 1.4 2.3 2.2 4.6 3.3 1.7 0.8 4 1.6 5.1 1.8 1.2 0.3 9.5 0.5 24 0.5 13 0 22.8-0.2 24-0.4 1.2-0.2 2.9-0.8 4-1.2 1-0.5 2.7-1.5 3.9-2.4 1.1-0.8 2.6-2.3 3.4-3.3 0.7-1 1.7-2.9 2.2-4.1l0.8-2.2c0.1-45.1 0-46.6-0.6-48.5-0.4-1.2-1.3-3-2.1-4.1-0.7-1.1-2.2-2.7-3.2-3.5-1-0.8-2.9-2-4.3-2.6l-2.4-1.2-51-0.1z"/>
	</g>
</svg>