<svg version="1.2" xmlns="http://www.w3.org/2000/svg" viewBox="0 0 12500 2646" width="2000" height="423">
	<title>EnergomixLogo</title>
	<style>
		.s0 { fill: #fffeff } 
		.s1 { fill: #ffba00 } 
		.s2 { fill: #4a4a4c } 
	</style>
	<g id="Background">
		<path id="Path 0" class="s0" d="m0 1323v1323h12500v-2646h-12500z"/>
		<path id="Path 1" class="s1" d="m9152.5 221.1c-3.9 0.5-11 1.7-16 2.5-5 0.8-15.3 3.6-23 6.2-7.7 2.5-19.6 7.4-26.5 10.9-6.9 3.4-17.3 9.3-23.2 13-5.9 3.7-14.2 9.6-18.5 13-4.3 3.4-11.1 9.9-15.1 14.5-4 4.6-8.9 11.2-10.8 14.8-2 3.6-4.4 7.4-5.4 8.5-1 1.1-3.2 4.7-4.9 8-1.6 3.3-4.3 10.1-6 15-1.6 4.9-3.8 13.5-4.7 19-1.3 7.5-1.8 15.7-1.8 32.5 0 12.4 0.6 27.4 1.2 33.5 0.7 6.1 2.1 14.6 3.2 19 1.2 4.4 4.3 12.5 7 18 2.7 5.5 7.8 13.8 11.4 18.5 3.5 4.7 10.1 12.6 14.6 17.5 4.5 4.9 12.3 12.7 17.3 17.3 5.1 4.5 12.6 10.7 16.7 13.6 4.1 3 11.8 7.7 17 10.5 5.2 2.7 15.1 7.2 22 9.9 6.9 2.7 18.6 7.1 26 9.6 7.4 2.6 28.1 8.7 46 13.6 17.9 4.9 35.4 9.4 39 10.1 3.6 0.6 12.6 2.7 20 4.6 7.4 1.9 19.6 5.7 27 8.4 7.4 2.8 18 7.2 23.5 9.8 5.5 2.6 12.3 6.2 15 8.1 2.8 1.9 7.6 6.2 10.9 9.5 3.3 3.4 7 8.6 8.6 12 1.6 3.3 3.6 9.1 4.5 13 1.1 4.6 1.5 9.4 1.2 14-0.3 3.9-1.3 9.9-2.2 13.5-0.9 3.6-3 9-4.6 12-1.6 3-5.6 8.8-8.9 12.8-3.3 3.9-9.6 10-13.9 13.5-4.3 3.4-11.4 8.2-15.7 10.7-4.4 2.4-10.6 5.4-13.9 6.6-3.3 1.2-9.6 2.9-14 3.9-6.4 1.3-13.4 1.6-34.5 1.5-14.6 0-27.6-0.2-29-0.4-1.4-0.2-6.8-0.7-12-1.1-5.2-0.4-14-1.5-19.5-2.5-5.5-0.9-12.3-2.9-15-4.3-2.7-1.4-9.8-5.7-15.8-9.6-8-5.3-12.4-9.1-17.4-15-3.8-4.4-9-11.7-11.8-16.3-2.7-4.6-6.6-12.3-8.6-17.3-2.1-5-5.4-14.8-7.6-21.9l-3.8-12.9c-39.5 1.1-55.3 1.6-60.5 1.8-5.2 0.2-15.1 0.7-22 1-6.9 0.3-14.1 0.9-16 1.2-1.9 0.3-4.7 1.2-6.3 1.9-1.6 0.8-3 2.5-3.4 4.2-0.3 1.5-0.1 6.1 0.6 10.2 0.6 4.1 2.7 13.6 4.5 21 1.9 7.4 5.3 18.9 7.7 25.5 2.3 6.6 6.3 17 9 23 2.7 6 6.3 13.3 8 16 1.6 2.8 5.8 8.9 9.2 13.7 3.4 4.8 9.6 12.6 13.8 17.5 4.1 4.8 12 12.5 17.5 17.1 5.4 4.6 13.5 10.7 17.9 13.7 4.4 2.9 11.8 7.2 16.5 9.6 4.7 2.3 13.9 6.3 20.5 8.9 6.6 2.6 14.9 5.7 18.5 6.8 3.6 1.1 11.2 2.9 17 4 5.8 1.1 18.1 3 27.5 4.2 15.8 2.1 19.8 2.2 58 1.7 31-0.4 43.6-0.9 51.5-2.2 5.8-0.9 15.9-2.9 22.5-4.5 6.6-1.5 17.2-4.5 23.5-6.5 6.3-2.1 15.3-5.3 20-7.2 4.7-2 11.2-4.9 14.5-6.6 3.3-1.6 9.1-5.1 13-7.7 3.9-2.6 11-8.1 16-12.2 5-4.1 12.3-11 16.3-15.4 4-4.3 10.9-13.1 15.4-19.4 4.4-6.3 10.2-16 12.9-21.5 2.6-5.5 6.7-15.6 8.9-22.5 2.3-6.9 4.5-13.4 5.1-14.5 0.5-1.1 1.4-4.5 2-7.5 0.6-3 1.2-12.9 1.4-22 0.1-9.1-0.3-22.8-1-30.5-0.7-7.7-1.9-16-2.5-18.5-0.7-2.5-3.8-11.2-7-19.5-3.1-8.2-7.4-18.4-9.5-22.5-2.1-4.1-5.9-10.6-8.5-14.5-2.6-3.9-7.3-9.9-10.6-13.4-3.2-3.5-8.4-8.8-11.4-11.7-3-2.9-8.2-7.4-11.5-10.1-3.3-2.7-10.3-7.4-15.5-10.4-5.2-3.1-14.9-8.4-21.5-11.7-6.6-3.3-18.5-8.2-26.5-11-8-2.7-23.7-7.7-35-11-11.3-3.3-31.3-8.8-44.5-12.2-13.2-3.4-32.7-8.6-43.3-11.6-10.5-3-20.9-6.1-23-7-2-0.9-8.9-3.4-15.2-5.6-6.3-2.2-14.2-5.4-17.5-7.3-3.3-1.8-9.6-6-14-9.2-4.4-3.3-10.3-8.4-13.1-11.4-2.8-3-5.8-6.9-6.7-8.6-1-1.8-2.2-6.8-2.8-11-0.7-5.6-0.7-10 0-15.5 0.6-4.3 2-9.6 3.1-11.8 1.1-2.2 4.8-7 8.2-10.6 3.5-3.7 9.2-8.8 12.8-11.4 3.6-2.7 9.6-6.4 13.5-8.4 4.6-2.4 10-4.1 15.5-5.1 4.7-0.8 13-1.9 18.5-2.4 5.5-0.5 21.2-0.8 35-0.6 13.7 0.2 26.1 0.6 27.5 0.8 1.4 0.3 5.6 0.8 9.5 1.2 3.9 0.4 9.7 1.6 13 2.6 3.3 1 8.5 3.5 11.5 5.5 3 2.1 8.7 6.9 12.5 10.8 3.9 3.9 9.6 10.9 12.7 15.6 3.1 4.7 7.1 11.4 8.9 15 1.7 3.6 5.1 12.1 7.3 19l4.2 12.5c46.4-0.4 66.6-0.8 74.9-1.1 8.2-0.3 17.9-1 21.5-1.5 3.6-0.6 7.2-1.4 8-1.8 0.8-0.5 2.4-2.6 3.4-4.7 1.1-2.2 2.1-6.9 2.4-10.9 0.3-3.9 0-9.2-0.7-12-0.7-2.7-3.6-11.3-6.5-19-3-7.7-6.2-16.5-7.2-19.5-0.9-3-4.9-11.8-8.8-19.5-3.9-7.7-9.2-17-11.7-20.5-2.5-3.6-8.4-10.5-13-15.4-4.6-4.9-12-11.8-16.4-15.3-4.4-3.5-14.3-10.2-22-14.8-7.8-4.7-20-11-27.5-14.1-7.4-3-16.9-6.4-21-7.5-4.1-1.1-13.6-2.9-21-4-11.8-1.8-19.4-2.1-61.5-2.4-27.8-0.2-50.9 0-55 0.6zm-1381.5 1c-4.7 0.4-9.9 1.3-11.5 2.1-1.6 0.9-4 2.8-5.3 4.4-1.3 1.6-7.6 11-14.2 20.9-7.8 11.9-15.3 21.9-22.2 29.5-5.8 6.3-14.9 15.7-20.4 20.9-5.4 5.1-15.2 13.4-21.7 18.5-6.6 5-16.7 12.4-22.5 16.4-5.9 4-16.1 10.4-22.7 14.1-6.6 3.8-16.9 9.4-23 12.5-6.1 3.1-12.7 6.1-14.8 6.6-2 0.6-4.4 1.7-5.2 2.5-0.8 0.8-2 3.4-2.7 5.8-0.9 3-1.2 16.2-1.3 46.2 0 23.1 0.3 43.7 0.7 45.8 0.5 2 1.5 4.4 2.3 5.2 0.8 0.8 3.3 1.5 5.5 1.5 2.2 0 6.6-1 9.7-2.1 3.2-1.2 10.5-4.4 16.3-7.1 5.8-2.7 14.6-7.5 19.5-10.5 4.9-3.1 13.9-9 20-13.1 6.1-4.2 20-14.4 31-22.7 11-8.4 24.5-18.2 30-21.9 5.5-3.6 10.6-6.6 11.2-6.6 0.7 0 1.5 1.2 1.7 2.8 0.3 1.5 0.5 14.2 0.6 28.2 0.1 14 0.3 26.9 0.4 28.5 0.2 1.6 0.4 84.7 0.4 184.5l0.2 181.5c47.7 1.2 69.4 1.8 79 2.2 16.4 0.6 17.6 0.5 19.6-1.3 1.6-1.5 2.2-3.7 2.7-9.9 0.4-4.4 0.9-15 1.2-23.5 0.3-8.5 0.7-51.7 0.8-96 0.1-44.3 0.1-166.8-0.1-272.3-0.1-152.1-0.5-191.8-1.5-192.4-0.6-0.4-6.6-0.8-13.2-1-6.6-0.2-18.8-0.4-27-0.6-8.3-0.1-18.8 0.1-23.5 0.4zm678.7 1.7c-2 0.2-7.4 1.1-12 1.9-4.5 0.8-14.1 3-21.2 5-7.1 1.9-17.4 5.3-22.8 7.4-5.3 2.1-13.9 6-19 8.5-5 2.5-12.8 7-17.2 9.9-4.4 3-11.3 8.4-15.4 12.2-4.1 3.7-11.3 12-16.1 18.3-4.7 6.3-10.5 14.6-12.7 18.5-2.3 3.9-6.2 12-8.6 18-2.5 6.1-5.9 15.7-7.6 21.5-1.7 5.8-4 15.1-5.1 20.8-1.1 5.6-2 13.1-2 16.7 0 5.9 0.2 6.5 2.2 6.9 1.3 0.3 6.1 1 10.8 1.6 4.7 0.6 10.1 1.3 12 1.5 1.9 0.2 6.6 0.6 10.5 1 3.9 0.3 9 0.7 11.5 1 2.5 0.2 9.2 0.7 15 1 5.8 0.4 15.2 1 21 1.4 5.8 0.4 12.2 0.7 14.4 0.7l3.8-0.1c6.5-26.4 9.8-36.9 11.5-40.5 1.6-3.6 5.7-10.1 9-14.5 3.3-4.4 8-9.6 10.4-11.6 2.4-2 6.9-5.2 9.9-7.1 3-1.9 7.9-4.4 10.7-5.6 2.9-1.2 9.8-2.9 15.3-3.7 5.5-0.8 14.2-1.5 19.2-1.5 5.1 0 13.3 0.5 18.3 1.1 5 0.6 11.9 2.2 15.5 3.6 3.6 1.3 8.9 4.1 11.9 6.1 3 2 8.1 6.6 11.4 10.2 3.2 3.6 7.4 9 9.2 12 1.9 3 4.2 8 5.3 11 1 3 2.5 8.6 3.3 12.5 0.9 4.7 1.4 13.5 1.3 27-0.1 17.3-0.4 21.1-2.3 28-1.2 4.4-3.7 11.6-5.6 16-2 4.4-5 10.4-6.8 13.3-1.7 3-6.5 9.5-10.5 14.5-4 5.1-13 15.5-20 23.2-7 7.7-26.7 28.2-43.7 45.5-17 17.3-39.3 40.1-49.5 50.5-10.2 10.5-25.9 26.9-34.9 36.5-9.1 9.6-22.1 23.8-29 31.5-6.8 7.7-15.4 18-19.1 23-3.6 5-8.6 12.1-11.1 16-2.5 3.9-6.6 10.4-9.1 14.5-2.5 4.1-7.1 12.6-10.2 18.8-3.1 6.1-7.5 15.8-9.7 21.5-2.3 5.6-5.5 14-7.1 18.7-1.6 4.7-4.2 13.7-5.8 20-1.6 6.3-3.3 14.2-3.6 17.5-0.6 5.8-0.6 6 2 7.3 1.4 0.6 5 1.4 7.8 1.7 2.9 0.3 7.5 0.8 10.3 1.1 2.7 0.3 85.4 0.7 183.7 1l178.8 0.4v-113c-111.6 0-153.8-0.2-165.8-0.5-11.9-0.3-26.4-0.7-32.2-1-5.8-0.3-12.9-0.9-15.9-1.3-2.9-0.4-5.5-1-5.7-1.4-0.2-0.5 0.2-1.8 1-3 0.8-1.3 5.3-6.6 10.1-11.8 4.8-5.2 42.3-43.2 83.4-84.5 41.1-41.2 77.6-78.6 81.1-83 3.5-4.4 8.2-10.9 10.6-14.5 2.3-3.6 6.4-10.8 9.1-16 2.7-5.2 7.5-14.9 10.5-21.5 3.1-6.6 6.7-15.6 8.1-20 1.4-4.4 2.8-11.1 3.2-15 0.4-3.9 0.9-8.1 1.1-9.5 0.3-1.4 0.7-16.7 0.9-34 0.4-24.8 0.2-33.3-1-40-0.8-4.7-2.6-12.1-4.1-16.5-1.4-4.4-4.8-12.3-7.5-17.5-2.6-5.2-7-12.7-9.6-16.7-2.6-3.9-7.3-10.1-10.3-13.8-3-3.7-9.3-10.2-14-14.4-4.7-4.3-11.6-10.2-15.5-13.1-3.9-2.9-11.7-7.6-17.5-10.5-5.8-2.9-15-6.9-20.5-9-5.5-2-14-4.6-19-5.7-5-1.1-14.9-2.9-22-4-9.9-1.5-18.9-2.1-38-2.3-13.8-0.1-26.7 0-28.8 0.3zm1522 1.8c-0.1 0.1-15.7 0.4-34.7 0.7-19 0.4-34.6 0.8-34.6 0.9-0.1 0.2-0.4 22.4-0.8 49.3-0.3 27-0.8 67.2-1.1 89.5-0.3 22.3-0.7 64.6-1 94-0.3 29.4-0.7 65-1 79-0.3 14-0.7 34.3-1 45-0.3 10.7-0.8 25.6-1 33-0.3 7.4-0.8 17.5-1.1 22.5-0.3 5-1.2 13.3-2 18.5-1.1 7.3-2.4 11.6-5.8 18.5-2.4 5-7.1 12.6-10.3 17-3.3 4.4-8.2 10.3-11 13-2.7 2.8-8.3 7.3-12.4 10.2-4.1 2.8-9.2 5.9-11.4 6.9-2.2 0.9-7.8 2.3-12.5 3.1-5.5 0.9-19.9 1.5-41 1.8-17.9 0.2-36.1 0-40.5-0.5-4.4-0.6-11.8-2.2-16.5-3.6-4.7-1.4-13.4-5.1-19.3-8.2-6-3.2-12.9-7.3-15.5-9.2-2.5-1.9-7.1-7.2-10.2-11.7-3-4.5-8.9-14.6-13.2-22.5-6.1-11.5-8.1-16.3-10.1-24.8-1.4-5.8-2.8-13.2-3.1-16.5-0.3-3.3-0.8-41.1-1.1-84-0.3-42.9-0.8-89.2-1-103-0.2-13.7-0.8-62.8-1.2-109-0.4-46.2-0.8-89.5-0.8-96.2v-12.2c-15.5-0.5-37.3-0.7-58.5-0.8-21.2 0-40.2 0.1-42.3 0.3-3.3 0.4-3.7 0.7-4.2 3.7-0.2 1.7-0.7 10.4-1 19.2-0.3 8.8-0.5 74-0.5 145 0 71 0.2 135.5 0.5 143.5 0.2 8 0.7 27.1 1 42.5 0.3 15.4 0.8 33.4 1 40 0.3 6.6 0.8 15.2 1.1 19 0.3 3.9 1.2 12.2 2 18.5 0.7 6.3 2.1 16 3 21.5 0.9 5.5 2.5 13.6 3.6 18 1.1 4.4 3.8 12.5 5.9 18 2.2 5.5 5.4 12.5 7.1 15.5 1.7 3 6.2 9.8 10.1 15 3.8 5.2 10.9 14 15.6 19.4 4.7 5.5 12.6 13.7 17.6 18.3 5 4.6 9.2 8.3 9.5 8.3 0.3 0 4.8 2.3 10 5.1 5.2 2.9 13.1 6.8 17.5 8.6 4.4 1.9 13.2 5 19.5 6.8 6.3 1.9 24.1 6.1 39.5 9.4 15.4 3.3 31.1 6.5 35 7 3.9 0.5 13.1 1.2 20.5 1.6 9.9 0.5 19.4 0.1 35.5-1.4 12.1-1.1 28.1-3.2 35.5-4.6 7.4-1.4 16.6-3.3 20.5-4.1 3.9-0.8 11.5-2.9 17-4.5 5.5-1.7 15.5-5.3 22.2-8 6.8-2.7 15.3-6.4 19-8.3 3.8-1.8 10.4-6.2 14.8-9.7 4.4-3.5 12-10.2 16.9-14.9 4.9-4.7 11.4-11.6 14.5-15.5 3.2-3.8 8-10.4 10.8-14.5 2.7-4.1 6.4-9.9 8.2-12.7 1.7-2.9 4.2-7.9 5.5-11 1.3-3.2 3.3-8.7 4.4-12.3 1.2-3.6 3-10.1 4.1-14.5 1.1-4.4 2.7-11.8 3.5-16.5 0.8-4.7 1.7-11 2-14 0.3-3 0.8-10 1-15.5 0.3-5.5 0.8-20.8 1.1-34 0.4-13.2 0.8-30.7 1-39 0.2-8.2 0.4-89.9 0.5-181.5 0-91.6 0-167.1 0-167.7 0-1-4.2-1.2-18.1-1-9.9 0.1-18.1 0.3-18.2 0.3zm413.3 0.4c-3.6 0.5-7.7 1.3-9.3 1.9-1.5 0.6-2.7 1.7-2.8 2.4-0.1 0.6-0.2 2.6-0.4 4.2-0.2 1.7-0.4 120-0.4 263-0.1 143 0.2 272.9 0.7 288.8l0.7 28.7h103c1.2-38.4 1.5-78.8 1.5-114.5 0-35.7 0.2-77.1 0.5-92 0.2-14.9 0.7-48.6 1-75 0.3-26.4 0.7-54.7 1-63 0.3-8.2 0.8-19.1 1.1-24 0.4-4.9 0.8-9.3 1-9.7 0.2-0.5 1.1-0.2 2.1 0.5 0.9 0.6 3.3 3.5 5.3 6.2 2 2.8 6.9 9.7 10.7 15.5 3.9 5.8 8.7 13.2 10.8 16.5 2.1 3.3 11.1 17.9 20 32.5 9 14.6 20 32.4 24.5 39.5 4.6 7.1 14.8 23.6 22.8 36.5 8 12.9 21.2 34.5 29.5 48 8.2 13.5 17.4 28.4 20.3 33.3 3 4.8 7.8 12.6 10.7 17.5 3 4.8 10.5 17 16.7 27.2 6.2 10.2 20.5 33.7 31.9 52.2 11.3 18.6 23.3 38.4 26.6 44l6 10.3h112.8c-0.4-181.4-0.7-235.6-0.9-237.5-0.2-1.9-0.3-81.2-0.4-176.3 0-95-0.2-173.4-0.5-174.2-0.4-1.3-6.9-1.5-50.3-1.5h-49.7c-1.2 166.2-1.8 226-2 240-0.2 14-0.7 45.5-1 70-0.3 24.5-0.8 50.8-1 58.5-0.3 7.7-0.8 16.4-1 19.3-0.3 2.8-1 5.2-1.5 5.2-0.5 0-3.6-3.7-6.8-8.2-3.2-4.6-8.7-13-12.4-18.8-3.6-5.8-12.3-20-19.3-31.5-7-11.5-15.1-24.8-18-29.5-2.9-4.7-15.8-25.8-28.7-47-12.9-21.2-31.3-51.3-40.8-67-9.5-15.7-20.9-34.4-25.3-41.5-4.4-7.1-13-21.1-19-31-6.1-9.9-20.7-34-32.5-53.5-11.8-19.5-24.9-40.7-29.2-47-4.2-6.3-9.1-12.7-10.8-14.2-1.8-1.6-4.9-3.3-7-4-2.5-0.8-16.4-1.2-43.7-1.4-22-0.1-42.9 0.2-46.5 0.6zm1085.8-0.2c-7.3 0.2-7.8 0.3-7.8 2.5 0 1.2 3.1 16.1 6.9 33.2 3.8 17.1 10.6 47 15.1 66.5 4.4 19.5 10.9 47.2 14.5 61.5 3.5 14.3 8.7 35.7 11.5 47.5 2.8 11.8 6.7 28.9 8.6 38 1.9 9.1 4.9 22.8 6.6 30.5 1.7 7.7 5 20.8 7.3 29 2.4 8.3 7.3 28 11 44 3.6 16 8.2 35.1 10 42.5 1.9 7.4 9.7 40.3 17.4 73 7.7 32.7 16 68 18.5 78.5 2.5 10.5 5.7 23.3 7.1 28.5 1.4 5.2 3.1 10.3 3.8 11.2 0.7 1 3.8 2.3 7.2 3 4.3 1 19.5 1.3 54.5 1.3 40 0 49.4-0.3 53.9-1.5 3-0.8 6.1-2.4 7-3.5 0.9-1.1 3-6.5 4.8-12 1.7-5.5 6.1-22.1 9.7-37 3.6-14.9 10.4-41.2 15.1-58.5 4.8-17.3 21.7-81 37.7-141.5 15.9-60.5 32.1-121.7 35.8-136 3.8-14.3 7.8-29.4 9-33.5 1.2-4.1 3-9.4 4.1-11.8 1.3-2.9 2.5-4.2 3.9-4.2 1.3 0 2.7 1.3 3.9 3.8 1 2 3.5 8.9 5.4 15.2 2 6.3 11 39.4 20.1 73.5 9 34.1 21 79.8 26.6 101.5 5.6 21.7 12.6 49.2 15.6 61 3.1 11.8 7.1 27.1 9 34 1.9 6.9 4.8 16.5 6.4 21.5 1.6 5 6.1 21.6 10 37 4 15.4 10.1 39.3 13.6 53 3.6 13.8 7.4 27.8 8.4 31.3l2 6.2c8.9 1.2 32.9 1.5 59 1.5 26.1 0 50.5-0.3 54.3-0.7 6.1-0.7 6.8-1.1 7.8-3.5 0.6-1.6 2.6-9.1 4.5-16.8 1.9-7.7 8.6-35.4 14.9-61.5 6.4-26.1 13.1-54 15-62 1.9-8 8.9-37.5 15.5-65.5 6.6-28 13.1-55.7 14.5-61.5 1.3-5.8 6.5-27.6 11.5-48.5 5-20.9 11.1-46.1 13.6-56 2.5-9.9 8.1-34.2 12.5-54 4.3-19.8 9.1-40.9 10.6-47 1.4-6.1 3.8-14.4 5.3-18.5 1.6-4.1 4.7-16.3 7-27 2.3-10.7 5.3-23.3 6.7-28 1.4-4.7 3.3-9.6 4.1-11 0.9-1.4 2.2-2.8 2.9-3.2 0.7-0.5 2-2.4 2.8-4.3 1-2.3 1.5-6.7 1.5-12.7v-9.3c-14.3 0.2-39.9 0.6-66 1-26.1 0.4-47.8 1-48.2 1.3-0.3 0.4-2.5 9.5-4.8 20.2-2.2 10.7-6.6 31-9.6 45-3.1 14-10.7 48.7-16.9 77-6.3 28.3-12.7 57.8-14.4 65.5-1.6 7.7-5.5 26.6-8.5 42-3.1 15.4-6.7 32.1-8.1 37-1.4 5-3.9 14.2-5.6 20.5-1.6 6.3-6.5 29.3-10.9 51-4.4 21.7-8.4 41.2-9 43.3-0.5 2-2.1 4.9-3.4 6.5-2.2 2.6-2.5 2.6-4.7 1.1-1.8-1.2-3.3-4.6-6.1-13.5-2.1-6.5-6.2-22.3-9.2-34.9-3-12.6-8-34-11.1-47.5-3.1-13.5-7.4-30.4-9.5-37.5-2.1-7.1-4.6-14.9-5.4-17.2-0.9-2.4-3.6-14.3-6.1-26.5-2.5-12.3-5.4-25.2-6.4-28.8-1.1-3.6-2.9-9-4-12-1.1-3-4-15.6-6.6-28-2.5-12.4-6.6-28.4-8.9-35.5-2.4-7.1-6.8-23.6-9.9-36.5-3.2-12.9-8.6-35.9-12.1-51-3.5-15.1-7-30.2-7.7-33.5-0.7-3.3-1.5-6.3-1.8-6.7-0.3-0.4-26-0.9-57.1-1.2-33.3-0.3-60-0.1-65 0.5-4.7 0.5-9.6 1.5-11 2.2-2.2 1.1-3.1 3.5-8.2 23.7-3.2 12.4-9.2 35.3-13.4 51-4.1 15.7-17.2 64.9-29 109.5-11.8 44.6-24.5 92.5-28.4 106.5-3.9 14-10.2 37.9-14.1 53-3.9 15.1-8.2 31.8-9.6 37-1.4 5.2-3.4 12-4.6 15-1.1 3-2.9 6.3-3.9 7.3-1.2 1.1-2.2 1.4-3.1 0.8-0.6-0.5-2.4-4.9-3.9-9.7-1.5-4.9-5-19-7.7-31.4-2.8-12.4-8.9-40.3-13.6-62-4.8-21.7-10.8-49.6-13.5-62-2.7-12.4-9-40.8-13.9-63.3-5-22.4-14.1-64-20.2-92.5-6-28.4-12.1-56-13.4-61.2-1.3-5.2-3.3-12.1-4.4-15.2-1.2-3.3-3-6.2-4.1-6.8-1.1-0.6-5.3-1.5-9.3-2.1-4.1-0.6-23.4-1.2-45.7-1.3-21.2 0-42 0-46.3 0.2zm-424.7 0.7c-1.4 0.3-18.1 0.6-37.2 0.7-21.5 0.2-35.1 0.7-35.6 1.3-0.6 0.6-1.3 7.3-1.8 15-0.4 7.7-0.8 133-0.8 278.5-0.1 145.5 0 271.5 0.2 280l0.3 15.5c308-1.1 402.1-1.7 407.9-2 5.8-0.2 14.7-0.7 19.8-1 6.4-0.3 9.2-0.9 9.2-1.7 0-0.7 0-20.7 0-44.3-0.1-23.6-0.3-43.2-0.6-43.5-0.3-0.3-3.8-0.8-7.7-1.2-4-0.4-21.6-1-39.2-1.3-17.6-0.3-38.3-0.7-46-1-7.7-0.2-62.8-0.4-122.5-0.5h-108.5c0.3-54.6 0.5-84 0.5-100.5 0.1-16.5 0.6-36.1 1-43.5 0.5-7.4 1.1-14.7 1.4-16.3 0.5-2.3 1.2-2.8 4.9-3.2 2.3-0.2 17.9-0.7 34.7-1 16.8-0.3 54.8-0.7 84.5-1 29.7-0.3 66.4-0.7 81.5-1 15.1-0.3 39-0.8 53-1.1 14-0.4 26.6-1 28-1.4 2.2-0.6 2.6-1.4 3.3-7.1 0.5-3.5 1-22.6 1-42.4 0.1-19.8-0.1-37.2-0.5-38.8-0.5-1.5-1.6-2.9-2.5-3.2-1-0.2-11-0.7-22.3-0.9-11.3-0.3-54.5-0.8-96-1.1-41.5-0.3-81.6-0.8-89-1-7.4-0.3-19.8-0.7-27.5-1-7.7-0.3-16.2-0.8-19-1-2.7-0.3-7.5-0.7-10.5-0.9-3-0.3-9.5-0.8-14.5-1.1-5-0.4-9.7-0.8-10.5-1.1-1.3-0.3-1.5-8-1.2-62.6 0.1-34.3 0.2-62.7 0.2-63.3 0-0.7 21.3-1.1 61.3-1.3 33.6-0.2 73.8-0.5 89.2-0.7 15.4-0.3 58.5-0.5 95.8-0.5h67.7v-97c-83.3 0-162-0.2-228.5-0.4-66.5-0.3-122.1-0.3-123.5-0.1zm-2927.1 328.9c-0.2 0.2-17.5 0.7-38.4 1.1-20.9 0.4-39.4 0.8-41 1-1.6 0.1-4.2 0.3-5.8 0.4-2.3 0.1-2.9 0.7-4 4.4-0.9 3.1-1.2 16.3-1.2 49.9 0 25.1 0.2 45.8 0.5 46.1 0.3 0.3 18.5 0.7 40.5 1.1 22 0.3 68.7 0.6 103.7 0.6 35.1 0.1 64.2-0.3 64.7-0.7 0.6-0.4 1.6-4.4 2.2-8.8 0.6-4.4 1.2-22.2 1.4-39.5 0.2-17.3-0.1-35.1-0.6-39.5-0.4-4.4-1.4-9.3-2.1-10.9-0.7-1.6-2.4-3.3-3.8-3.9-1.5-0.6-24.9-1.1-59.1-1.3-31.1-0.2-56.8-0.2-57 0zm652.2 205l-0.1 56.6h104c-1-61.6-1.3-82.4-1.5-86-0.1-3.6-0.3-10.5-0.4-15.5l-0.1-9c-5.8-0.1-23.7-0.5-43.5-0.8-19.8-0.4-41-1-47.1-1.3l-11.1-0.7z"/>
		<path id="Path 2" fill-rule="evenodd" class="s2" d="m948 822.1c-9.1 0.4-20.1 1-24.5 1.3-4.4 0.4-12.3 1.2-17.5 1.7-5.2 0.6-19.6 2.6-32 4.5-12.4 1.9-32.4 5.4-44.5 7.9-12.1 2.4-29.9 6.4-39.5 8.9-9.6 2.4-24 6.5-32 9.1-8 2.6-21.3 7.2-29.5 10.2-8.3 3-20.9 7.8-28 10.8-7.1 2.9-18.9 7.8-26 11-7.1 3.1-20.6 9.5-30 14.2-9.4 4.7-20.1 10.3-24 12.5-3.9 2.3-15.1 8.9-25 14.8-9.9 6-23.9 14.7-31 19.5-7.1 4.8-22.7 16-34.5 24.8-11.8 8.9-25.6 19.7-30.5 24-4.9 4.4-18.6 17-30.4 28.1-11.7 11-28.1 27.3-36.5 36.1-8.3 8.8-20.5 22.1-27.1 29.5-6.6 7.4-16.7 19.1-22.5 26-5.7 6.9-15.6 19.5-21.9 28-6.3 8.5-17.4 24.3-24.6 35-7.2 10.7-16 24.5-19.6 30.5-3.7 6-10.1 17.3-14.4 25-4.2 7.7-11.7 21.7-16.5 31-4.8 9.3-12.3 25.3-16.7 35.5-4.4 10.2-9.7 23-11.8 28.5-2.1 5.5-4.3 13.4-5.1 17.5-0.7 4.1-1.4 12-1.4 17.5 0 7.3 0.5 11.7 2 16.5 1.1 3.6 3.3 8.9 5 11.7 1.6 2.9 6.3 8.7 10.3 12.9 3.9 4.2 10.3 9.7 14.2 12.2 3.9 2.6 10.1 5.7 14 7 5.5 1.9 9.1 2.4 16.5 2.4 5.2 0 12.9-0.8 17-1.6 4.1-0.9 10-3 13-4.6 3-1.7 7.6-4.7 10.1-6.7 2.5-2.1 5.9-5.4 7.6-7.3 1.7-1.9 5.4-7.1 8.4-11.5 3.3-5 7.8-14.2 12-24.5 3.6-9.1 9.7-23.7 13.4-32.5 3.7-8.8 11.7-26.3 17.9-39 6.2-12.7 13.8-27.5 17-33 3.3-5.5 12.4-19.7 20.4-31.5 8-11.8 17.9-26 22.1-31.5 4.1-5.5 13.7-17 21.2-25.5 7.5-8.5 20.5-22.7 29-31.4 8.5-8.8 20.6-20.7 26.9-26.4 6.3-5.8 17.5-15.5 24.9-21.6 7.3-6.1 18.1-14.8 24-19.4 5.8-4.6 16.5-12.3 23.6-17.1 7.1-4.9 19.8-12.9 28-17.8 8.3-4.9 20-11.7 26-15 6-3.4 16-8.6 22-11.6 6-3.1 17.8-8.3 26-11.8 8.3-3.4 23.5-9.3 34-13.1 10.5-3.8 25.5-9 33.5-11.4 8-2.5 24.9-7.2 37.5-10.4 12.6-3.3 29.8-7.3 38-9 8.3-1.7 21.5-4 29.5-5 8-1 21.9-2.4 31-3.2 10.4-0.8 33.9-1.3 63.5-1.3 25.9 0 52.8 0.4 60 0.8 7.2 0.4 17 1.2 22 1.8 5 0.5 14.4 1.9 21 3 6.6 1.1 19.2 3.6 28 5.5 8.8 1.9 25.5 5.9 37 9 11.5 3 29.5 8.4 40 11.8 10.5 3.5 24.8 8.8 32 11.9 7.2 3 18.2 7.8 24.5 10.7 6.3 2.9 17.6 8.4 25 12.3 7.4 3.8 18.2 9.6 24 12.9 5.8 3.4 14.5 8.6 19.5 11.6 5 3 14.8 9.4 22 14.1 7.2 4.8 19.5 13.4 27.4 19.1 7.9 5.8 19.4 14.5 25.6 19.5 6.2 5 17.1 14.2 24.1 20.6 7.1 6.4 20.8 19.7 30.4 29.5 9.6 9.9 22.7 24 29 31.4 6.4 7.4 15.2 18 19.6 23.5 4.4 5.5 11.9 15.2 16.6 21.5 4.7 6.3 11.9 16.7 16 23 4.1 6.3 11.5 18.2 16.5 26.5 4.9 8.2 11.8 20.4 15.3 27 3.4 6.6 8.3 15.6 10.8 20 2.5 4.4 7.1 11.8 10.2 16.5 3.1 4.7 7.2 9.8 9.1 11.4 1.9 1.6 4.9 3.5 6.7 4.3 1.7 0.7 6.2 1.7 10 2.2 3.7 0.6 10.7 1.2 15.7 1.5 5 0.3 16 0.8 24.5 1.1 8.5 0.2 23.2 0.7 32.5 1 9.3 0.2 30.7 0.8 47.5 1.1 16.8 0.4 32.4 0.7 34.7 0.8 2.3 0.1 4.3 0.3 4.6 0.6 0.3 0.3 0.7 39.7 1.1 87.5 0.3 47.8 0.8 115.3 1.1 150 0.3 34.7 0.7 84.2 1 110 0.3 25.8 0.8 76.7 1.2 113l0.7 66c9.5 11.6 15.9 18.4 20.2 22.5 4.9 4.7 10.4 8.8 14.4 10.8 3.6 1.8 9.7 3.9 13.5 4.7 3.8 0.8 11.7 1.9 17.5 2.4 5.8 0.5 30.8 0.9 55.5 0.9 24.8 0 61.9-0.3 82.5-0.8 20.6-0.5 41.8-1.2 47-1.5 5.2-0.4 12.9-1.2 17-1.9 4.1-0.7 9.1-2.1 11-3.1 1.9-1 5.9-4.1 8.9-6.9 3-2.8 7.5-8.3 10-12.1 3.2-4.8 5.1-8.9 5.9-13 0.6-3.3 1.6-11 2.1-17 0.6-6 1.3-18.7 1.6-28 0.3-9.3 0.8-22.6 1-29.5 0.2-6.9 0.7-45.3 1-85.5 0.3-40.2 0.7-87.2 1-104.5 0.3-17.3 0.7-66.8 1-110 0.3-43.2 0.8-93.3 1-111.5 0.2-18.2 0.4-35.1 0.5-37.8v-4.7h54c0 41.5 0.4 99.6 1 156 0.5 56.4 1.2 126.1 1.5 155 0.3 28.9 0.8 62.8 1 75.5 0.2 12.7 0.7 36.3 1 52.5 0.3 16.2 0.7 36.9 1 46 0.3 9.1 0.8 20.8 1 26 0.3 5.2 0.8 12 1.2 15 0.5 4 1.7 7 4.4 11 2 3 7 8.7 11.2 12.5 4.1 3.8 9.9 8.5 12.8 10.2 3 1.8 8.1 4.3 11.4 5.5l6 2.3c125.8-0.1 171.7-0.7 185.5-1.4 13.5-0.6 27.4-1.7 31-2.5 3.6-0.7 8.1-2.2 10-3.1 1.9-1 8.1-6.4 13.7-11.9 7.4-7.3 10.9-11.6 12.7-15.6 1.7-3.8 2.8-8.7 3.5-16 0.5-5.8 1.3-18.8 1.6-29 0.3-10.2 0.8-27.5 1-38.5 0.3-11 0.7-99.2 1-196 0.3-96.8 0.7-194 1-216l0.4-40c11.3 0.4 17.3 1.2 20.6 2.1 3.3 0.8 8.5 2.9 11.5 4.6 3 1.8 8.9 5.7 12.9 8.7 4.1 3.1 12.9 10.4 19.5 16.2 6.7 5.9 19.1 17.2 27.7 25 8.6 7.9 27.8 25.6 42.8 39.4l27.1 25c0.1 41.1 0.3 60.2 0.5 69 0.2 8.8 0.6 29 1 45 0.3 16 0.8 33.5 1.1 39 0.3 5.5 0.9 15 1.4 21 0.5 6 1.7 13.5 2.6 16.5 0.9 3 2.8 7.3 4.2 9.5 1.4 2.2 3.9 5.7 5.6 7.9 1.7 2.1 6.3 6.4 10.1 9.5 3.8 3.1 10.4 7.4 14.5 9.4 4.1 2 10 4.2 13 4.7 3 0.6 8.7 1 12.5 1 3.8 0 10.2-0.7 14-1.5 3.8-0.8 9.7-2.8 13-4.5 3.3-1.7 9.1-5.4 12.9-8.3 3.8-2.8 9.4-8.1 12.3-11.7 3-3.6 6.5-8.8 7.9-11.5 1.6-3.2 3.1-9 4.1-16 1.4-9.4 1.6-22.5 1.7-91 0.1-44-0.2-88.5-0.7-99-0.4-10.5-1.2-23.2-1.7-28.3-0.6-5.7-1.8-10.8-3.1-13.5-1.2-2.3-4.3-6.9-6.9-10.2-2.7-3.3-12.6-13.7-22.2-23-9.5-9.4-26.5-25.6-37.8-36-11.4-10.5-30.9-28.2-43.5-39.6-12.7-11.3-30.9-27.5-40.5-36-9.6-8.5-21.3-18.6-26-22.5-4.7-4-13.4-10.9-19.5-15.6l-11-8.4c-87.6 0.4-122.9 0.8-135 1.1-12.8 0.3-25.5 1.1-30.5 2-4.8 0.8-10.2 2.5-12.5 3.9-2.2 1.3-6.3 4.8-9.1 7.7-2.8 3-7 8.3-9.3 11.9-2.3 3.6-4.8 8.7-5.6 11.5-0.8 2.7-1.9 8.8-2.4 13.5-0.6 4.7-1.3 13.2-1.6 19-0.4 5.8-0.9 118.3-1.1 250-0.3 131.7-0.6 239.6-0.7 239.7-0.1 0.1-3.6 1-7.7 1.8-4.2 0.9-12.6 1.7-19 1.7-6.3 0.1-15.4-0.2-20.3-0.5l-8.7-0.7c-0.2-47.7-0.4-69.6-0.5-79.5-0.2-9.9-0.6-56.5-0.9-103.5-0.4-47-0.8-100.8-1.1-119.5-0.3-18.7-0.7-53.6-1-77.5-0.3-23.9-0.8-51.2-1-60.5-0.3-9.3-0.7-25.1-1-35-0.3-9.9-0.8-22-1.1-27-0.3-5-0.9-12.6-1.5-17-0.5-4.7-2-10.3-3.5-13.5-1.4-3-4-7.3-5.7-9.5-1.7-2.2-4.7-5.7-6.6-7.8-2-2.1-5.7-5-8.4-6.3-2.6-1.3-8-2.8-12-3.4-3.9-0.5-11.3-1.2-16.2-1.6-4.9-0.3-51.3-0.6-103-0.6-51.7 0-97.2 0.3-101 0.7-3.8 0.3-9.4 1-12.3 1.6-2.8 0.5-6.5 1.6-8.2 2.4-1.7 0.8-4.6 3.2-6.6 5.2-2 2.1-5.6 7-8.2 10.8-2.5 3.8-6 10.2-7.9 14-1.8 3.8-4 10.2-4.8 14-0.8 3.8-1.8 12.4-2.3 19-0.5 6.6-1 23-1.1 36.5-0.1 13.5-0.4 24.7-0.6 25-0.2 0.3-0.6 65.3-0.9 144.5-0.4 79.2-0.9 168.3-1.1 198-0.3 29.7-0.5 61.8-0.5 71.2v17.3h-54c-0.6-362.3-1.1-469.8-1.3-472.5-0.3-2.8-0.8-12.2-1.2-21-0.3-8.8-1.2-19.2-2-23-0.7-3.8-2.7-9.9-4.4-13.5-1.7-3.6-5.5-9.7-8.4-13.5-3-3.9-7.1-8-9.3-9.2-2.1-1.2-9.5-3.6-16.4-5.2-6.9-1.6-15.9-3.4-20-4-4.1-0.6-14.5-1.5-23-2-8.5-0.6-21.8-1.3-29.5-1.5-7.7-0.3-35.9-0.5-62.8-0.6h-48.7c-12.7-22.1-21.5-37-27.8-47.5-6.3-10.5-15.6-25.3-20.5-33-5-7.7-12.9-19.2-17.5-25.5-4.7-6.3-12.2-16-16.6-21.5-4.5-5.5-13.8-16.5-20.7-24.5-7-8-21.4-23.1-32-33.6-10.7-10.4-24.4-23.4-30.4-28.9-6-5.4-16.4-14.2-23-19.5-6.6-5.3-19.7-15.4-29-22.5-9.3-7-25.3-18.3-35.5-25-10.2-6.7-25.5-16.3-34-21.2-8.5-4.9-18.4-10.6-22-12.5-3.6-2-12.8-6.8-20.5-10.6-7.7-3.9-20.5-9.9-28.5-13.5-8-3.6-21.9-9.5-31-13.2-9.1-3.7-21.5-8.5-27.5-10.7-6-2.2-19.5-6.4-30-9.4-10.5-3.1-27.8-7.7-38.5-10.4-10.7-2.7-26.5-6.3-35-8-8.5-1.7-26.3-4.6-39.5-6.5-13.2-1.9-30.3-4.1-38-4.9-7.7-0.9-16.7-1.8-20-2-3.3-0.3-10.5-0.8-16-1.1-5.5-0.4-12-0.8-14.5-1-2.5-0.2-12.1-0.7-21.5-1-9.4-0.3-22.9-0.7-30-0.9-7.1-0.1-20.4 0.1-29.5 0.5zm4479.8 197.4c-0.2 0.1-6.8 0.5-14.8 0.9-8 0.3-18.6 1-23.5 1.6-5 0.5-11 1.2-13.5 1.5-2.5 0.4-10.8 1.5-18.5 2.6-7.7 1.1-17.1 2.7-21 3.5-3.9 0.8-10.6 2.4-15 3.4-4.4 1.1-14.8 3.9-23 6.4-8.3 2.4-20.2 6.5-26.5 8.9-6.3 2.5-16.9 6.8-23.5 9.7-6.6 2.9-17.6 8.1-24.5 11.6-6.9 3.5-19 10.4-27 15.5-8 5-19.5 12.6-25.5 17-6.1 4.3-16 12-22 17-6.1 5-16.9 14.4-24 20.9-7.1 6.5-18.2 17.4-24.5 24.2-6.4 6.8-15.4 16.6-20.1 21.8-4.6 5.2-11.6 13.3-15.5 18-3.8 4.7-9.1 11.4-11.6 15-2.5 3.6-7.7 11.5-11.5 17.5-3.8 6-11.7 19.3-17.5 29.5-5.8 10.2-13.1 23.7-16.3 30-3.2 6.3-8.7 18-12.3 26-3.5 8-9.8 22.8-13.9 33-4.1 10.2-10.1 26.4-13.3 36-3.2 9.6-8.8 28.5-12.4 42-3.7 13.5-8.6 33.5-11.1 44.5-2.4 11-5.4 25.4-6.5 32-1 6.6-2.6 17.6-3.5 24.5-0.8 6.9-1.9 20.3-2.5 29.7-0.5 9.5-1 40.8-1 69.5 0.1 28.8 0.3 54.5 0.5 57.3 0.3 2.7 1 9.7 1.6 15.5 0.6 5.8 2.4 15.7 3.9 22 1.6 6.3 4.5 16.7 6.6 23 2 6.3 6.1 17.6 9.1 25 3 7.4 7.7 17.8 10.5 23 2.8 5.2 8.2 14.5 12.1 20.5 3.8 6 9.7 14.6 13.2 19 3.4 4.4 11.4 13 17.6 19 6.3 6 15 13.7 19.4 17 4.4 3.3 12.7 8.8 18.5 12.3 5.8 3.4 17 9.6 25 13.6 8 4.1 19 9.2 24.5 11.4 5.5 2.2 15.9 5.8 23 8.1 7.1 2.3 21.1 6.2 31 8.6 9.9 2.5 24.3 5.4 32 6.4 7.7 1.1 18.1 2.2 23 2.6 4.9 0.3 10.4 0.8 12 1 1.6 0.2 19.2 0.6 39 1 20.4 0.4 51.2 0.2 71-0.4 19.2-0.6 41.1-1.5 48.5-2.1 7.4-0.5 15.5-1.2 18-1.5 2.5-0.3 6.7-0.8 9.5-1.1 2.7-0.3 11.7-1.7 20-3 8.2-1.4 22.4-4 31.5-5.9 9.1-1.8 22.8-4.7 30.5-6.5 7.7-1.7 21-5.1 29.5-7.5 8.5-2.4 22.2-6.7 30.5-9.5 8.2-2.8 19.5-7.3 25-10 5.5-2.7 13.1-7.4 17-10.3 4.4-3.4 8.6-7.8 11.3-11.8 2.4-3.5 6.3-10.4 8.7-15.4 2.4-5 6.1-14.8 8.4-22 2.2-7.2 5.1-17.3 6.5-22.5 1.4-5.2 3.4-14.5 4.5-20.5 1-6 2.4-16 3.1-22 0.7-6 1-18 0.8-26.5-0.3-13.3-0.6-16-2.3-18.9-1.1-1.9-3.8-4.3-6-5.5-2.9-1.5-5.7-2-10-2-3.3 0.1-10.7 1.3-16.5 2.7-5.8 1.4-17.3 4.6-25.5 7.2-8.3 2.6-23.6 7.1-34 10.1-10.4 3-32.1 8.8-48 12.9-15.9 4.1-35.1 8.5-42.5 9.9-7.4 1.3-15.1 2.7-17 3-1.9 0.3-6.2 0.8-9.5 1.1-3.3 0.4-7.6 0.8-9.5 1-1.9 0.2-9.8 0.8-17.5 1.2-7.7 0.4-33.6 0.7-57.5 0.7-34.1-0.1-46.8-0.5-58.5-1.8-8.3-1-17.9-2.4-21.5-3.2-3.6-0.9-9.9-2.9-14-4.6-4.1-1.6-10.4-4.6-14-6.5-3.6-2-9.4-5.7-13-8.2-3.6-2.5-9.4-7.5-13-11.1-3.6-3.6-9-9.9-12.1-14-3.1-4.1-7.5-11.1-9.7-15.5-2.2-4.4-5.6-12.4-7.6-17.8-2-5.3-4.1-11.8-4.6-14.5-0.6-2.6-1.5-9.7-2-15.7-0.5-6-0.7-27.9-0.5-48.5 0.3-20.6 0.9-41.1 1.5-45.5 0.5-4.4 1.3-10.4 1.7-13.4 0.5-2.9 1-5.4 1.3-5.6 0.3-0.1 29.1-0.6 64-0.9 34.9-0.4 75.2-1.1 89.5-1.6 14.3-0.6 30.3-1.2 35.5-1.5 5.2-0.3 14.2-1 20-1.5 5.8-0.6 13-1.2 16-1.5 3-0.3 15.2-1.7 27-3.1 11.8-1.3 24.4-2.9 28-3.5 3.6-0.5 12.4-2.1 19.5-3.5 7.1-1.4 23.8-5.2 37-8.4 13.2-3.2 32.1-8.4 42-11.4 9.9-3 22.5-7.1 28-9.1 5.5-2 13.6-5.1 18-7 4.4-1.8 12.9-5.7 19-8.6 6-2.9 15.9-7.9 22-11.2 6-3.3 13.5-7.7 16.5-9.7 3-2.1 10.1-7.3 15.6-11.6 5.6-4.4 15.2-12.4 21.4-17.9 6.2-5.5 15.5-14.7 20.8-20.5 5.2-5.8 13.2-15.5 17.7-21.5 4.5-6 9.8-13.7 11.7-17 2-3.3 5.6-11.2 8.1-17.5 2.5-6.3 6.8-18.9 9.5-28 2.8-9.1 6.2-21.9 7.5-28.5 1.4-6.6 3.1-16.5 3.8-22 0.7-6.1 0.9-14.5 0.6-21.5-0.4-6.3-1.6-16.9-2.7-23.5-1.2-6.6-3.6-18.1-5.5-25.5-1.9-7.4-5.4-18.5-7.8-24.5-2.4-6-6.6-15.3-9.2-20.5-2.6-5.2-7.1-13.1-9.9-17.5-2.9-4.4-8.6-12-12.8-17-4.1-5-12.2-13.5-17.9-19.1-5.7-5.5-14.2-12.9-18.9-16.5-4.7-3.5-13.7-9.7-20-13.7-6.3-4.1-19.1-11.2-28.5-15.8-9.4-4.5-21.9-10.3-28-12.7-6.1-2.5-16.2-5.8-22.5-7.5-6.3-1.7-18.9-4.7-28-6.6-9.1-1.9-23.9-4.4-33-5.5-9.1-1.1-20.1-2.3-24.5-2.7-4.4-0.3-11.6-0.9-16-1.4-4.4-0.4-18-0.7-30.2-0.8-12.2 0-22.3 0.1-22.5 0.3zm956.7 0.1c-1.6 0.3-7.5 1.1-13 2-5.5 0.9-17.2 3.1-26 5.1-8.8 1.9-24.3 6.2-34.5 9.5-10.2 3.3-24.8 8.7-32.5 12-7.7 3.3-21.6 10-31 15-9.4 5-20.4 11.1-24.5 13.6-4.1 2.5-11.6 7.5-16.5 11.1-5 3.5-13.3 9.8-18.5 14-5.2 4.1-14.7 12.1-21 17.7-6.3 5.5-15.8 14.5-21 20-5.2 5.5-12.7 13.7-16.6 18.4-3.9 4.7-9 11.4-11.4 15-2.4 3.6-6.3 9.1-8.7 12.2-2.4 3.2-5 5.8-5.8 5.8-0.9 0-1.5-0.9-1.5-2.3 0-1.2 0.7-4.7 1.5-7.7 0.8-3 3.9-17.2 6.9-31.5 3-14.3 6.4-31 7.5-37 1.2-6 3.2-17.8 4.6-26 1.4-8.3 2.5-17 2.5-19.5 0-2.5-0.6-6.2-1.3-8.4-0.6-2.1-2.6-5.4-4.2-7.4-1.8-2.2-5.8-4.9-10-6.8-3.9-1.8-11.3-4.4-16.5-5.8-5.2-1.4-12.6-2.8-16.5-3.1-3.9-0.4-8.4-0.9-10-1.1-1.6-0.2-14.9-0.4-29.5-0.4-14.6 0-28.8 0.2-31.5 0.5-2.8 0.2-9.3 0.6-14.5 1-5.2 0.4-13.1 1.3-17.5 2.1-4.4 0.8-10.9 2.4-14.5 3.6-3.6 1.1-10.1 3.9-14.5 6.2-4.4 2.2-10.1 6.1-12.7 8.6l-4.8 4.5c-10 48.8-17.2 84.2-22.4 110-5.2 25.8-15 74.5-21.6 108-6.6 33.5-15.9 79.9-20.6 103-4.6 23.1-37 184.9-72 359.5-34.9 174.6-65.9 328.8-68.8 342.5-3 13.7-7.7 36.2-10.4 50-2.8 13.7-6.4 32.7-8.1 42-1.6 9.3-3.7 22.2-4.5 28.5-0.9 6.3-1.6 13.9-1.6 16.7 0 3.3 0.8 6.8 2 9.3 1.1 2.2 3.9 5.5 6.2 7.4 2.4 1.8 6.3 4.5 8.8 5.9 2.5 1.4 7.2 3.4 10.5 4.5 3.3 1.1 11.2 2.5 17.5 3.1 6.4 0.6 33.8 1.1 62 1.1 27.8 0 55.4-0.5 61.5-1 6-0.6 13.7-1.8 17-2.6 3.3-0.8 10-3.5 15-5.9 4.9-2.3 11.8-6.4 15.2-8.9 3.5-2.5 6.9-5.8 7.7-7.4 0.7-1.5 3-9.5 4.9-17.7 2-8.3 4.8-20.2 6.1-26.5 1.4-6.3 4.6-21.6 7.1-34 2.6-12.4 9.3-46.1 15-75 5.7-28.9 15.2-76.8 21-106.5 5.8-29.7 13.5-68 17.1-85 3.6-17 6.7-31.2 6.9-31.5 0.3-0.3 2.8 1.4 5.7 3.7 2.9 2.2 9.4 7.9 14.4 12.5 5 4.5 12.2 10.8 16 13.9 3.8 3.2 12.1 9.4 18.4 13.9 6.3 4.5 16.4 10.7 22.5 13.7 6 3.1 17.7 8.4 26 11.8 8.2 3.4 20.6 8.1 27.5 10.3 6.9 2.3 15.4 4.8 19 5.6 3.6 0.9 11.4 2 17.5 2.6 6 0.6 30.6 1 54.5 1 23.9 0 45.7-0.3 48.5-0.5 2.7-0.3 9-1 14-1.6 4.9-0.6 11.9-1.7 15.5-2.4 3.6-0.8 11-2.8 16.5-4.6 5.5-1.7 17-6.1 25.5-9.6 8.5-3.5 24-10.6 34.5-15.8 10.4-5.1 26.4-13.9 35.5-19.5 9.1-5.6 20.8-13.3 26-17 5.2-3.7 14.7-11.2 21-16.6 6.3-5.5 18-16.2 25.9-23.9 7.9-7.7 18.7-19.2 24-25.5 5.3-6.3 13.7-16.9 18.7-23.5 4.9-6.6 11.5-15.6 14.5-20 3.1-4.4 10.5-16.1 16.4-26 6-9.9 15-26.1 20-36 5-9.9 11.9-24.3 15.2-32 3.4-7.7 8.7-20.3 11.8-28 3.1-7.7 8.5-21.9 12-31.5 3.4-9.6 8.2-23.3 10.5-30.5 2.3-7.2 6.8-23.8 10.1-37 3.2-13.2 7.4-31.9 9.3-41.5 2-9.6 4.2-21.3 5.1-26 0.8-4.7 2.4-14.3 3.6-21.5 1.1-7.2 2.7-17.3 3.5-22.5 0.8-5.2 2.1-18.3 2.9-29 0.8-13.1 1.2-34 1-63.5-0.3-29.1-0.9-50.4-2-63-0.8-10.5-2.2-23.5-3-29-0.7-5.5-2.3-14.5-3.4-20-1.1-5.5-4-16.3-6.5-24-2.5-7.7-6.8-20.1-9.6-27.5-2.8-7.4-7.5-18.5-10.5-24.5-2.9-6-8.8-16.6-13.2-23.5-4.3-6.9-10.5-16.1-13.8-20.5-3.3-4.4-10.3-12.3-15.5-17.5-5.3-5.2-13.8-12.9-19-17.1-5.2-4.2-12.9-9.8-17-12.5-4.1-2.6-12.9-7.4-19.5-10.6-6.6-3.1-16.5-7.4-22-9.3-5.5-2-15.4-5-22-6.5-6.6-1.6-18.5-3.8-26.5-5-8-1.1-18.8-2.4-24-2.9-5.2-0.4-17.8-0.8-28-0.8-10.2 0-19.9 0.1-21.5 0.3zm656.5 2c-11.3 1.3-27.3 3.3-35.5 4.4-8.3 1.1-23.3 3.8-33.5 6-10.2 2.2-25.3 5.8-33.5 8.1-8.3 2.2-18.4 5.2-22.5 6.6-4.1 1.4-14.3 5.2-22.5 8.5-8.3 3.4-18.8 8-23.5 10.3-4.7 2.4-11.2 6.3-14.5 8.7-3.3 2.5-8.7 6.9-11.9 9.9-3.2 3-8.2 8.8-10.9 12.9-2.8 4.1-7.4 12.2-10.3 18-2.9 5.8-7 16.1-9.3 23-2.2 6.9-5.2 16.8-6.6 22-1.5 5.2-3.7 14.5-5 20.5-1.3 6-3.1 16.1-3.9 22.2-0.9 6.2-1.6 15.5-1.6 20.5 0.1 5.1 0.7 12.9 1.5 17.3 0.8 4.4 2.3 9.3 3.3 10.9 0.9 1.6 3.3 3.7 5.2 4.8 2.1 1.1 5.6 1.9 9 1.9 3 0 7.5-0.5 10-1.1 2.5-0.7 9.9-3.3 16.5-6 6.6-2.6 17.2-7.3 23.5-10.5 6.3-3.2 17.4-8.3 24.5-11.5 7.1-3.2 18.4-7.9 25-10.5 6.6-2.6 18-6.7 25.2-9.1 7.3-2.4 20.2-6.2 28.5-8.3 8.4-2.2 22-5.3 30.3-6.9 8.2-1.7 17.2-3.2 20-3.6 2.7-0.3 10.9-1 18-1.7 7.5-0.6 19.4-0.9 28-0.6 8.2 0.4 20.2 1.3 26.5 2.1 6.3 0.9 15.5 2.7 20.5 4.1 4.9 1.4 12.6 4.2 17 6.1 4.4 1.9 10.4 4.9 13.4 6.7 3 1.7 8.5 6.1 12.1 9.7 3.6 3.6 7.9 8.7 9.4 11.5 1.5 2.7 4.4 9.7 6.4 15.5 3.5 10 3.7 11.1 3.7 23-0.1 8.8-0.6 14.6-1.9 19.5-1 3.8-3.1 9.5-4.7 12.5-1.6 3-4.9 8.2-7.4 11.5-2.5 3.3-7.1 8.7-10.2 11.9-3.2 3.2-9.2 8.4-13.3 11.6-4.1 3.1-10.6 7.7-14.5 10.1-3.9 2.5-10.4 6.4-14.5 8.7-4.1 2.2-14 6.8-22 10.2-8 3.4-23.1 9.1-33.5 12.6-10.5 3.4-35.2 11.3-55 17.4-19.8 6.1-44.3 13.9-54.5 17.2-10.2 3.3-26.1 8.9-35.5 12.3-9.4 3.5-24.6 9.6-34 13.5-9.4 4-24 10.7-32.5 15-8.5 4.2-19.8 10.1-25 13-5.2 2.9-15.3 8.7-22.4 12.9-7 4.2-17.8 11.4-24 16-6.1 4.6-14.7 11.4-19.1 15.1-4.4 3.7-13 11.9-19 18.1-6.1 6.3-14.1 15.2-17.8 19.9-3.7 4.7-9.4 12.3-12.6 17-3.2 4.7-9.3 14.6-13.6 22-4.3 7.4-9.6 18.2-11.8 24-2.1 5.8-5.4 15.7-7.2 22-1.8 6.3-4 14.9-4.9 19-0.8 4.1-2 11.3-2.6 16-0.6 4.7-1.4 13-1.8 18.5-0.4 5.5-0.7 22.6-0.6 38 0 21.9 0.4 30.1 1.8 37.5 0.9 5.2 2.9 13.5 4.3 18.5 1.4 5 4.4 13.3 6.5 18.5 2.2 5.2 6.5 14.5 9.6 20.5 3.1 6 8.1 14.4 11.1 18.5 2.9 4.1 8.9 11.5 13.1 16.5 4.3 5 10.2 11.3 13.2 14.2 2.9 2.8 8.9 7.7 13.3 10.8 4.4 3.1 12.7 8.5 18.5 12 5.8 3.4 13.4 7.8 17 9.7 3.6 2 13 6.4 21 9.8 8 3.4 22.4 8.8 32 12.1 9.6 3.2 22.9 7.1 29.5 8.7 6.6 1.7 17.6 3.9 24.5 5 6.9 1.2 17 2.4 22.5 2.7 5.5 0.4 11.8 0.9 14 1.1 2.2 0.2 29.9 0.4 61.5 0.4 31.6 0 60-0.2 63-0.4 3-0.3 9.8-0.7 15-1.1 5.2-0.3 15.1-1.3 22-2.1 6.9-0.8 18.8-2.6 26.5-4 7.7-1.4 24.8-4.9 38-7.9 13.2-3 31.2-7.5 40-9.9 8.8-2.4 21.6-6.3 28.5-8.6 6.9-2.3 15.8-5.5 19.7-7.1 4-1.6 10.3-4.4 14-6.3 3.8-1.8 9.3-5.3 12.3-7.6 3-2.4 7.9-6.6 10.9-9.4 2.9-2.8 7.4-8.3 10-12.1 2.5-3.8 7-11.5 9.8-17 2.9-5.5 6.7-14.7 8.6-20.5 2-5.8 5.6-18.8 8.1-29 2.5-10.2 5.4-23.9 6.5-30.5 1.1-6.6 2.4-16.7 3-22.5 0.6-5.8 1.3-13 1.4-16 0.2-3-0.2-9.4-1-14.3-0.7-4.8-2.1-10.4-3.2-12.5-1-2-3.1-4.6-4.7-5.6-2.1-1.4-5.1-2.1-10.9-2.4-6.9-0.3-9.7 0.1-20.5 3.3-6.9 2-20.1 6.7-29.5 10.5-9.4 3.7-24.9 10-34.5 14-9.6 3.9-25.4 9.9-35 13.4-9.6 3.5-24.5 8.5-33 11-8.5 2.5-22.9 6.3-32 8.5-9.1 2.1-19.9 4.4-24 5.1-4.1 0.6-8.6 1.4-10 1.6-1.4 0.2-11.5 0.9-22.5 1.5-11 0.6-26.3 0.8-34 0.4-7.7-0.3-19.4-1-26-1.6-6.6-0.5-16.7-1.7-22.5-2.5-5.8-0.8-12.3-2-14.5-2.6-2.2-0.5-6.7-2.4-10-4-3.3-1.7-9.3-5.4-13.4-8.2-4-2.8-10.8-8.7-15-13.1-4.2-4.4-9.3-10.9-11.4-14.5-2-3.6-4.5-10.1-5.7-14.5-1.1-4.4-2-11.1-2-15 0-3.8 0.9-11 1.9-16 1-5 2.8-12.2 4-16 1.1-3.8 3.8-9.9 5.8-13.4 2.1-3.5 7.2-9.8 11.3-14 4.1-4.2 10.5-9.9 14.2-12.6 3.7-2.8 11.3-7.9 17-11.4 5.7-3.6 16.4-9.5 23.8-13.2 7.4-3.7 23.2-10.5 35-15.1 11.8-4.7 25.5-9.9 30.5-11.6 4.9-1.7 29.7-9.7 55-17.8 25.3-8 54.5-17.6 65-21.1 10.4-3.6 27.3-9.8 37.5-13.8 10.2-4 24.8-10.3 32.5-13.8 7.7-3.6 16.5-7.8 19.5-9.5 3-1.6 9.5-5.1 14.5-7.7 4.9-2.7 13.5-7.7 19-11.3 5.5-3.5 16.1-11 23.5-16.5 9.3-6.9 19-15.5 31.1-27.6 9.7-9.7 20.3-21.2 23.6-25.6 3.3-4.4 8.8-12.3 12.3-17.5 3.4-5.2 8.2-13.4 10.6-18.3 2.4-4.8 6.1-13.1 8.3-18.5 2.1-5.3 5-13.3 6.4-17.7 1.5-4.4 3.3-11.2 4.1-15 0.8-3.8 2.2-14.2 3.1-23 1.1-11.2 1.5-24.4 1.4-44-0.1-16.1-0.7-32.2-1.5-38-0.7-5.5-2-12.9-2.9-16.5-0.9-3.6-3.2-10.8-5.2-16-1.9-5.2-6.7-15.8-10.5-23.5-3.8-7.7-9.1-16.9-11.6-20.5-2.6-3.6-7.4-9.9-10.7-13.9-3.3-4.1-9.4-10.9-13.5-15.1-4.1-4.1-11.8-10.9-17-14.9-5.2-4.1-13.6-10.1-18.5-13.3-5-3.3-15.5-9.2-23.5-13.3-8-4-19-9.2-24.5-11.5-5.5-2.2-15.2-5.6-21.5-7.5-6.3-1.8-19.1-5-28.5-7-9.4-2-21.1-4.3-26-5.1-5-0.8-14-2.1-20-2.9-6.1-0.7-16.6-1.9-23.5-2.5-6.9-0.6-14.3-1.3-16.5-1.6-2.2-0.3-18.2-0.6-35.5-0.8-27.9-0.3-33.8-0.1-52 2zm870.5-1.6c-12.1 0.5-30.6 1.8-41 2.9-10.5 1.2-26 3.2-34.5 4.5-8.5 1.4-19.3 3.4-24 4.6-4.7 1.2-13 3.5-18.5 5.2-5.5 1.6-16.8 5.4-25 8.3-8.3 3-22 8.3-30.5 11.8-8.5 3.5-24.3 10.7-35 16-10.7 5.2-23.8 11.9-29 14.9-5.2 2.9-12.9 7.7-17 10.5-4.1 2.9-12.5 9.1-18.5 13.9-6.1 4.8-15.7 12.8-21.5 17.8-5.8 5-18.1 16.5-27.4 25.6-9.3 9.1-21.8 22.1-27.8 29-6.1 6.9-14.3 16.5-18.3 21.5-4 5-10.2 13.3-13.9 18.5-3.7 5.2-10.3 15.3-14.5 22.5-4.3 7.2-10.1 17-12.8 22-2.8 5-8 14.6-11.6 21.5-3.6 6.9-8.9 17.7-11.7 24-2.8 6.3-8.2 18.9-11.9 28-3.8 9.1-8.9 21.9-11.4 28.5-2.5 6.6-6.8 19.7-9.7 29-2.8 9.3-7.1 24.7-9.5 34-2.4 9.3-5.9 25.3-7.9 35.5-1.9 10.2-4.7 26.4-6 36-1.4 9.6-3.1 23.3-3.8 30.5-0.7 7.5-1.2 28.3-1.3 49 0 19.8 0.4 45.2 0.8 56.5 0.4 11.3 1 22.1 1.2 24 0.1 1.9 0.6 8 1 13.5 0.4 5.5 0.9 10.9 1 12 0.2 1.1 0.6 4.7 1 8 0.3 3.3 1.3 9.8 2.2 14.5 0.8 4.7 2.9 12.5 4.5 17.5 1.7 5 5.2 14.6 8 21.5 2.8 6.9 8.9 20.6 13.8 30.5 4.8 9.9 11.8 22.5 15.5 28 3.7 5.5 10 13.8 14 18.5 4 4.7 13.7 14.8 21.6 22.6 7.9 7.7 18 16.9 22.4 20.4 4.4 3.5 12 9 17 12.3 4.9 3.2 16.6 9.6 26 14.2 9.4 4.6 24.2 11.1 33 14.3 8.8 3.3 20.7 7.4 26.5 9.1 5.8 1.7 19.3 4.9 30 7.1 10.7 2.2 27.1 5.1 36.5 6.5 9.4 1.3 21.9 2.9 28 3.3 6 0.5 24.9 1 42 1.1 17 0.1 39.5-0.3 50-0.9 10.4-0.6 25.7-1.8 34-2.6 8.2-0.8 20.6-2.4 27.5-3.5 6.9-1.1 18.8-3.6 26.5-5.5 7.7-1.9 22.3-6.2 32.5-9.6 10.2-3.3 25.9-8.9 35-12.5 9.1-3.5 26-11.2 37.5-17.1 11.6-5.9 27-14.3 34.3-18.7 7.3-4.4 19.9-12.7 28-18.5 8.1-5.8 19.2-14.1 24.7-18.5 5.5-4.3 16.5-14.2 24.3-22 7.9-7.7 18.8-19 24.2-25 5.4-6 12.8-14.6 16.5-19 3.7-4.4 12-15 18.4-23.5 6.4-8.5 14.1-19.1 17.1-23.5 3-4.4 10.1-16.1 15.8-26 5.6-9.9 14.3-26.1 19.2-36 4.9-9.9 11.8-25 15.3-33.5 3.5-8.5 8.7-21.6 11.5-29 2.7-7.4 7.3-21.2 10.2-30.5 2.8-9.3 7.3-25.3 10-35.5 2.7-10.2 6.1-24.6 7.5-32 1.4-7.4 3.6-21.2 5-30.5 1.3-9.3 3.3-24.9 4.4-34.5 1.1-9.6 2.7-25.4 3.5-35 0.9-9.6 1.8-21.8 2.2-27 0.3-5.2 0.6-18 0.6-28.5 0.1-10.5-0.2-22.8-0.6-27.5-0.4-4.7-0.9-10.1-1.1-12-0.2-1.9-0.9-7.3-1.5-12-0.6-4.7-1.7-13-2.6-18.5-0.8-5.5-2.9-16.5-4.5-24.5-1.7-8-4.7-19.7-6.8-26-2.2-6.3-6.7-18-10.1-26-3.4-8-9.1-20.1-12.7-27-3.5-6.9-9.5-16.8-13.1-22-3.7-5.2-10.3-14-14.7-19.5-4.4-5.5-12.9-15-19-21-6-6.1-15.5-14.4-21-18.5-5.5-4.1-14.1-9.9-19-12.9-5-3-17.3-9.6-27.5-14.6-10.2-5.1-23.2-11.3-29-13.8-5.8-2.5-12.5-5.2-15-6-2.5-0.8-9-2.7-14.5-4-5.5-1.4-14.5-3.5-20-4.6-5.5-1.1-15.6-2.9-22.5-4.1-6.9-1.1-20.1-2.9-29.5-3.9-9.4-1.1-20.6-2.2-25-2.6-4.4-0.3-10.3-0.8-13-1-2.8-0.2-13.6-0.6-24-0.8-10.5-0.3-28.9-0.1-41 0.3zm-4574.5 9.3c-0.3 0.2-14.9 0.7-32.5 1.1-17.6 0.3-33.4 0.8-35 1-1.7 0.3-5.1 0.7-7.8 1-2.6 0.3-4.9 0.9-5.2 1.3-0.2 0.5-1.8 6.4-3.5 13.3-1.7 6.9-5.8 24.7-9.1 39.5-3.3 14.8-7.1 32.2-8.5 38.5-1.4 6.3-3.6 16.5-4.9 22.5-1.3 6-4.9 24-8 40-3.1 16-5.5 29.1-5.3 29.1 0.2 0.1 45.3 0.5 100.3 0.8 55 0.3 146.3 0.9 203 1.2l103 0.6c27.9 14.2 39.8 20.7 44.5 23.6 4.7 3 10.7 7.3 13.4 9.6 2.8 2.2 7 6.8 9.4 10.1 2.4 3.3 7.3 11.8 10.7 19 3.5 7.2 7.7 17.3 9.4 22.5 1.7 5.2 4 13.5 5 18.5 1.1 5 2.5 13.7 3.2 19.5 0.7 5.8 1.3 18.2 1.3 27.5 0.1 9.3-0.2 22.2-0.6 28.5-0.4 6.3-1.5 18.5-2.3 27-0.9 8.5-3.2 23.8-5.1 34-1.9 10.2-4.9 24.6-6.5 32-1.6 7.4-4.6 19.6-6.5 27-1.9 7.4-5.7 20.7-8.4 29.5-2.7 8.8-6.7 20.7-8.8 26.5-2.2 5.8-5.6 14.5-7.7 19.5-2 5-7.9 17.8-13.2 28.5-5.2 10.7-12.2 23.8-15.7 29-3.4 5.2-10 14.2-14.7 20-4.6 5.8-15.6 17.7-24.4 26.5-8.8 8.9-20.7 19.9-26.5 24.6-5.8 4.7-12.8 10.2-15.5 12.2-2.8 1.9-7.9 5-11.5 6.8-3.6 1.7-10.8 4.7-16 6.6-5.2 1.9-15.6 5-23 6.9-8.3 2.2-19 4.1-28 5-8 0.8-26.7 1.6-41.5 1.9-14.9 0.3-96.5 0.8-181.5 1.1-85 0.3-156 0.7-157.8 0.7-1.8 0.1-3.7 0.9-4.2 1.7-0.5 0.8-2.7 9.4-5 19-2.3 9.6-10.2 45-17.6 78.5-7.4 33.5-14.4 65.3-15.5 70.5-1 5.2-1.6 9.9-1.2 10.3 0.5 0.4 2.8 1.2 5.3 1.7 2.5 0.5 9.4 1.2 15.5 1.5 6 0.3 14.8 0.8 19.5 1 4.7 0.2 41.8 0.7 82.5 1.2 40.7 0.4 106.4 0.8 146 0.8 39.6 0 88.6-0.3 109-0.7 20.3-0.5 44.6-1.2 54-1.8 9.3-0.6 22.6-1.7 29.5-2.6 6.9-0.8 19.2-2.6 27.5-4 8.2-1.4 21.3-3.9 29-5.5 7.7-1.7 21.9-5.7 31.5-8.9 9.6-3.2 22.4-7.7 28.5-10.1 6-2.3 16.6-7.1 23.5-10.7 6.9-3.5 18.8-10.1 26.5-14.7 7.7-4.5 17.6-10.9 22-14 4.4-3.1 13.4-10.1 19.9-15.4 6.6-5.3 18.1-15 25.5-21.7 7.5-6.7 21.3-19.9 30.6-29.5 9.4-9.6 22.4-23.7 28.9-31.4 6.5-7.7 15.3-19.2 19.6-25.5 4.2-6.3 13-20.3 19.5-31 6.4-10.7 16.9-30.1 23.4-43 6.4-12.9 13.9-28.5 16.5-34.5 2.7-6 8-19.1 11.8-29 3.8-9.9 9.6-25.9 12.8-35.5 3.2-9.6 8.2-26 11-36.5 2.7-10.5 6.8-27.1 9-37 2.1-9.9 5-24.5 6.4-32.5 1.4-8 3.9-24 5.5-35.5 1.6-11.5 3.2-24.4 3.5-28.5 0.4-4.1 1.1-15.2 1.7-24.5 0.5-9.3 0.8-29.8 0.5-45.5-0.3-15.7-1-34.3-1.6-41.5-0.5-7.2-1.2-16.2-1.5-20-0.4-3.8-1.5-13.8-2.6-22-1.1-8.3-2.9-18.8-4.1-23.5-1.1-4.7-4-14.1-6.5-21-2.4-6.9-6.7-17.9-9.5-24.5-2.7-6.6-8.1-18.1-11.8-25.5-3.8-7.4-10.6-19.1-15.2-26-5.4-8.1-12.2-16.4-19.3-23.9-6.1-6.2-14.8-14.6-19.5-18.6-4.7-3.9-12.3-10-17-13.4-4.7-3.5-12.3-8.4-17-10.9-4.7-2.6-15.7-7.9-24.5-11.8-8.8-3.9-20.1-8.5-25-10.2-5-1.6-14.6-4.4-21.5-6-6.9-1.7-17.3-4-23.3-5.1-5.9-1.2-14.6-2.5-19.5-3.1-4.8-0.5-17-1.2-27.2-1.5-10.2-0.3-25.3-0.8-33.5-1.1-8.3-0.2-83.6-0.7-167.5-1-83.9-0.3-152.8-0.3-153-0.1zm8753.9 0.1c-0.2 0.2-61.4 0.7-135.9 1.1-74.5 0.4-137.3 0.7-139.5 0.6-2.2-0.1-9 0.3-15 0.9-6 0.5-20.7 3-32.5 5.5-11.8 2.5-29.1 6.8-38.5 9.6-9.4 2.8-23.1 7.5-30.5 10.4-7.4 2.9-19.4 8.1-26.5 11.5-7.1 3.4-18.4 9.3-25 13.2-6.6 3.9-19.8 12.2-29.2 18.5-9.5 6.2-24.2 16.8-32.5 23.5-8.4 6.8-20.2 17-26.2 22.8-6 5.8-15 15.2-20.1 21-5 5.8-13.6 16.1-19.1 23-5.5 6.9-13.3 17.2-17.4 23-4.1 5.8-12.9 19-19.5 29.5-6.7 10.5-14.9 23.7-18.2 29.5-3.4 5.8-9.9 18.2-14.6 27.5-4.7 9.3-10.7 22.2-13.5 28.5-2.7 6.3-7.8 19.2-11.2 28.5-3.4 9.3-8.6 23.7-11.5 32-2.9 8.2-7.5 22.7-10.3 32-2.8 9.3-6.2 21.3-7.6 26.5-1.3 5.2-3.8 16.5-5.6 25-1.7 8.5-4.6 25-6.5 36.5-1.9 11.5-4.1 26.8-5 34-0.8 7.2-1.8 16.6-2 21-0.3 4.4-0.8 9.1-1 10.5-0.2 1.4-0.7 9-1.2 17-0.4 8-0.8 29.8-0.8 48.5 0 18.7 0.3 38.3 0.7 43.5 0.4 5.2 1.4 14.9 2.3 21.5 0.9 6.6 2.7 17.2 4 23.5 1.4 6.3 4.3 17.8 6.5 25.5 2.3 7.7 5.7 18.3 7.7 23.5 1.9 5.2 5.8 14.5 8.5 20.5 2.7 6 8 16.6 11.7 23.5 3.8 6.9 8.6 15 10.7 18 2 3 6.5 8.9 9.8 13 3.4 4.1 9.7 11.3 14.1 15.8 4.4 4.6 12.3 11.7 17.5 15.7 5.2 3.9 12.9 9.4 17 12 4.1 2.7 9.8 6.2 12.5 7.8 2.8 1.6 9.3 5.1 14.5 7.7 5.2 2.6 15.1 7.2 22 10 6.9 2.9 16.1 6.5 20.5 8.1 4.4 1.5 10.7 3.4 14 4.3 3.3 0.8 13.2 2.8 22 4.5 8.8 1.6 24.1 3.9 34 5 9.9 1.2 25.6 2.6 35 3.1 9.4 0.6 33 1.4 52.5 1.8 19.5 0.4 67.2 0.7 106 0.7 38.8 0 112.8-0.4 164.5-0.8 51.7-0.4 94.1-0.9 94.2-1 0.1-0.1 1.4-5.4 2.8-11.7 1.5-6.3 6.9-32.4 12.1-58 5.2-25.6 11-54.2 12.9-63.5 1.9-9.3 4.3-22.4 5.5-29 1.1-6.6 2.2-13.8 2.4-16 0.3-2.2-0.1-4.8-0.7-5.7-0.7-1-3.4-2.2-6.2-2.7-2.7-0.5-9-1.2-14-1.6-5-0.3-14.6-0.7-21.5-1-6.9-0.3-64.5-0.7-128-1-63.5-0.3-142.6-0.7-175.7-1l-60.3-0.5c-12.8-5.9-21.5-10.5-27.5-14-6-3.4-13.9-8.4-17.5-11-3.6-2.7-9.5-7.9-13.1-11.7-3.6-3.7-8.7-10-11.1-13.8-2.5-3.8-6.6-11-9.1-16-2.4-5-4.9-10.6-5.5-12.5-0.6-1.9-1.8-7.1-2.6-11.5-0.9-4.4-2.1-11.4-2.6-15.5-0.6-4.1-1.5-12-2.1-17.5-0.5-5.5-1-21.7-1-36 0-14.3 0.3-29.6 0.6-34 0.3-4.4 1-12 1.6-17 0.5-5 2.1-16 3.5-24.5 1.4-8.5 3.8-21.8 5.5-29.5 1.6-7.7 4.7-20.8 6.8-29 2.2-8.3 7.1-25.1 11-37.5 3.8-12.4 9-27.7 11.4-34 2.5-6.3 6.5-16.2 8.9-22 2.5-5.8 6.1-13.9 8.1-18 1.9-4.1 8.4-15.2 14.4-24.5 6-9.3 13.5-20.6 16.8-25 3.2-4.4 8.9-11.6 12.5-16 3.7-4.4 10.2-11.5 14.6-15.8 4.3-4.4 12.4-10.9 17.9-14.6 5.5-3.7 15-9.7 21-13.3 6-3.6 15.7-9 21.5-12 5.8-3.1 12.8-6.7 15.5-8.1l5-2.5c112.4-0.9 172.7-1.4 206.5-1.7 33.8-0.3 75.7-0.7 93-1 17.3-0.3 45.9-0.7 63.5-1 17.6-0.3 37.4-0.8 44-1.1 6.6-0.3 12.3-0.8 12.7-1.2 0.4-0.4 2-5.9 3.7-12.2 1.7-6.3 5.3-21.6 8-34 2.8-12.4 6.8-31 9-41.5 2.2-10.5 6.7-32.3 10.1-48.5 3.3-16.2 6.7-32.9 7.6-37 0.8-4.1 1.7-8.3 2-9.3 0.4-1.6-4.4-1.7-89.5-1.7-49.4 0.1-90 0.2-90.2 0.4zm-1702.2 4.1c-0.1 0.1-9.9 0.5-21.7 0.8-11.8 0.4-23.1 0.9-25 1.2-1.9 0.3-6.6 1-10.5 1.6-3.9 0.6-11.5 2.2-17 3.6-5.5 1.3-13.4 3.8-17.5 5.4-4.1 1.6-9.7 4.7-12.5 6.7-2.7 2.1-6.5 6.1-8.3 8.8-1.8 2.7-3.7 7.1-4.2 9.9-0.5 2.7-6.1 31.5-12.5 64-6.4 32.5-14.5 73.8-18.1 92-3.6 18.2-9 45.4-12 60.5-3 15.1-7.3 36.3-9.5 47-2.2 10.7-6.9 33.5-10.5 50.5-3.6 17-9 41.8-12.1 55-3 13.2-7.5 30.3-10 38-2.5 7.7-7.4 21.4-10.8 30.5-3.4 9.1-9 22.3-12.3 29.5-3.3 7.2-9.3 19.1-13.2 26.5-4 7.4-10.2 18.2-13.8 24-3.6 5.8-10.8 16.8-16.1 24.4-5.3 7.7-13.4 18.5-18 24-4.6 5.6-13 15-18.5 21-5.6 6-15.5 15.9-22.1 21.9-6.6 6-16.7 14.8-22.5 19.4-5.8 4.7-15.2 11.6-21 15.4-5.8 3.9-15 9.2-20.5 11.8-5.5 2.7-13.4 6.1-17.5 7.6-4.1 1.4-12.5 3.5-18.5 4.5-6 1-15.3 2.1-20.5 2.4-6.1 0.3-12.5 0-18-1-4.7-0.8-10.7-2.2-13.5-3-2.7-0.9-7.9-3-11.5-4.8-3.6-1.7-8.9-5.5-12-8.6-3.1-3-7.2-8.4-9.2-12-1.9-3.6-4.8-9.7-6.3-13.5-1.5-3.8-3.6-10.8-4.6-15.5-1-4.7-2.3-14.6-3-22-0.7-8.4-0.9-20.5-0.6-32 0.4-10.2 0.9-19.8 1.1-21.5 0.3-1.7 0.7-5.5 1.1-8.5 0.3-3 2.1-13.8 4.1-24 1.9-10.2 5.3-27.5 7.4-38.5 2.2-11 8.2-42 13.5-69 5.3-27 15.7-79.8 23.1-117.5 7.4-37.7 18.9-95.5 25.4-128.5 6.6-33 16.5-82.7 22-110.5l10.1-50.5c-7.4-6.8-12.3-10.6-15.6-12.7-3.3-2.1-8.5-4.8-11.5-5.9-3-1.2-8.6-2.7-12.5-3.5-3.9-0.8-13.7-2.1-22-2.8-9-0.8-27.5-1.4-46.5-1.4-18.4 0-37.8 0.6-46.5 1.4-8.2 0.7-18.4 1.8-22.5 2.5-4.1 0.6-11.5 2.1-16.5 3.4-5 1.2-12.1 3.5-16 5-3.9 1.6-8.5 3.8-10.3 4.9-2.1 1.4-4.3 4.3-6.1 8.1-1.6 3.3-4.1 9.8-5.6 14.5-1.4 4.7-3.5 12.3-4.6 17-1.1 4.7-18.2 89.3-37.9 188-19.8 98.7-39.5 198.2-43.9 221-4.4 22.8-10.5 54.8-13.5 71-3 16.2-6.6 36-8 44-1.4 8-3 19.5-3.6 25.5-0.6 6-1.4 15.7-1.9 21.5-0.4 5.8-0.9 24.5-1 41.5-0.1 21.9 0.3 35.4 1.4 46 0.8 8.2 2.2 18.8 3 23.5 0.8 4.7 2.8 13.3 4.5 19.2 1.6 6 4.9 15.9 7.1 22 2.3 6.2 5.8 14.9 7.9 19.3 2 4.4 5.9 11.6 8.6 16 2.7 4.4 7.7 11.6 11 16 3.4 4.4 8.5 10.7 11.5 13.9 3 3.2 9.7 9.1 14.9 13 5.2 4 13.5 9.7 18.5 12.7 5 3.1 13.3 7.8 18.5 10.4 5.2 2.6 14.5 6.7 20.5 9 6 2.4 15.7 5.7 21.5 7.5 5.8 1.8 14.3 4 19 5 4.7 1 11.6 2.1 15.5 2.5 3.9 0.4 8.4 0.9 10 1.2 1.6 0.2 12.2 0.5 23.5 0.5 11.3 0 28.1-0.8 37.5-1.6 9.4-0.9 18.8-1.9 21-2.2 2.2-0.3 10.3-1.6 18-3 7.7-1.4 20.3-4.6 28-7.1 7.7-2.5 21-7.4 29.5-10.8 8.5-3.4 22.3-9.6 30.5-13.8 8.3-4.1 20.6-10.7 27.5-14.7 6.9-4 15.6-9.4 19.5-12 3.9-2.6 12.7-9.3 19.8-14.8 7-5.6 18.7-15.5 26-22.1 7.2-6.5 18.4-17.2 24.7-23.7 6.4-6.6 14.6-15.5 18.4-19.9 3.7-4.4 8.7-10.9 11.1-14.5 2.4-3.6 6-8.1 8-10l3.5-3.5c0 6.2-1.1 15.4-2.5 24.5-1.4 9.1-4 25.3-5.9 36-1.9 10.7-4.2 24.9-5 31.5-0.9 6.6-2 15.2-2.5 19-0.5 3.8-0.9 11.7-0.8 17.5 0.2 9.1 0.5 10.9 2.5 13.7q2.2 3.3 10.5 7.3c4.5 2.2 11.6 4.8 15.7 5.6 6 1.3 15.6 1.7 47 1.9 27.2 0.2 44.6-0.1 56-1.1 9.1-0.7 18.8-1.9 21.5-2.5 2.8-0.6 8.4-2.7 12.5-4.6 4.1-1.9 9.4-5 11.8-6.9 2.9-2.3 5.3-5.7 7.6-10.7 1.9-3.9 4.8-12.4 6.5-18.7 1.7-6.3 4.6-18.7 6.5-27.5 1.9-8.8 5.8-27 8.5-40.5 2.8-13.5 7.5-37.1 10.5-52.5 3-15.4 9.1-46.5 13.5-69 4.4-22.5 11.8-59.7 16.5-82.5 4.6-22.8 21.8-108.1 38.1-189.5 16.3-81.4 32.7-164.2 36.6-184 3.8-19.8 9.4-48.8 12.4-64.5 3-15.7 7.9-42 10.9-58.5 3-16.5 6.2-34.7 7-40.5 0.9-5.8 1.9-11.7 2.1-13.3 0.4-2.2-0.2-3.3-3.7-6.2-2.4-2-7.4-5.1-11.3-7-3.9-1.9-10.6-4.2-15-5-4.4-0.9-12.7-2.1-18.5-2.6-5.8-0.6-12.1-1.2-14-1.4-1.9-0.2-13.4-0.7-25.5-1-12.1-0.3-22.8-0.8-23.8-0.9-0.9-0.2-1.8-0.3-2-0.1zm-5625.7 1.9c-6.3 0.7-16.4 2.3-22.5 3.5-6.1 1.1-15.1 3.2-20 4.7-4.9 1.4-10.8 3.5-13 4.7-2.2 1.1-6.2 4.1-8.8 6.6-2.6 2.5-5.6 6.4-6.6 8.6-1 2.2-4.4 15.2-7.5 29-3 13.7-8.4 39-12 56-3.6 17-14.4 70.4-24 118.5-9.7 48.1-18.5 91.5-19.6 96.5-1.1 5-2.1 9.1-2.3 9.2-0.1 0.2-68.6 0.4-152.2 0.5-83.6 0.2-155.6-0.1-160-0.5-4.4-0.5-8.5-1.1-9.2-1.5-0.9-0.5-0.4-4.6 1.8-16.2 1.6-8.5 10.1-51.5 18.9-95.5 8.7-44 17.7-89.5 19.9-101 2.2-11.5 6-32.5 8.5-46.5 2.4-14 5.2-30.7 6.2-37 1.6-10.7 1.6-11.8 0.1-16-0.8-2.5-3.2-6-5.1-7.8-2-1.7-6.7-4.8-10.6-6.7-3.9-1.9-10.7-4.4-15.3-5.4-4.5-1.1-14.5-2.4-22.2-2.9-7.7-0.5-36.3-0.8-63.5-0.7-27.2 0.1-51.3 0.6-53.5 0.9-2.2 0.4-7.6 1.7-12 2.8-4.4 1.1-11.4 3.2-15.5 4.7-4.1 1.5-11.1 5.2-15.4 8.2-5.4 3.7-8.3 6.4-9.3 8.6-0.7 1.8-2.4 7.7-3.8 13-1.4 5.4-4.6 18.8-7 29.8-2.4 11-7.6 36.2-11.5 56-3.9 19.8-9.6 48.4-12.6 63.5-3 15.1-8.2 40.3-11.4 56-3.3 15.7-8 39.3-10.5 52.5-2.5 13.2-6.6 34.3-9.1 47-2.5 12.7-5.4 27.5-6.5 33-1.1 5.5-6.7 33-12.4 61-5.7 28-15.2 74.4-21 103-5.8 28.6-11.7 57.4-13 64-1.3 6.6-6.3 31.8-11 56-4.8 24.2-12.9 65.2-18 91-5.2 25.8-11.2 58-13.5 71.5-2.3 13.5-4.4 29.7-4.7 36-0.6 11.2-0.5 11.6 1.9 14.5 1.4 1.7 5.2 4.4 8.4 6.2 3.2 1.7 8.6 3.9 11.9 4.7 3.3 0.8 8 1.8 10.5 2.1 2.5 0.4 32.2 0.9 66 1 33.8 0.2 66.2-0.1 72-0.6 5.8-0.5 13.9-1.6 18-2.5 4.1-0.9 10.4-3.1 14-4.8 3.6-1.8 8.5-4.6 11-6.3 2.5-1.6 5.6-4.3 7.1-5.9 1.9-2.2 3.5-6.8 6.7-19.9 2.2-9.3 5.7-24.2 7.6-33 1.9-8.8 5.1-23.4 7-32.5 1.9-9.1 6.5-31.6 10.1-50 3.7-18.4 13.1-65.9 21.1-105.5 7.9-39.6 15.4-76.3 16.6-81.6 1.3-5.3 2.5-9.9 2.8-10.3 0.3-0.3 65.5-0.8 145-1.1 79.5-0.2 150.6 0 158 0.5 7.4 0.5 14.9 1.4 16.5 2l3 1.1c-1.3 9.6-10.8 58.3-22 114.4-11.2 56.1-21.9 110.3-23.9 120.5-1.9 10.2-5.1 27.7-7 39-2 11.3-4.5 26.6-5.6 34-1.1 7.4-2.1 16-2.2 19-0.2 4 0.2 6.4 1.4 8.3 1 1.5 3.5 3.8 5.5 5.2 2.1 1.4 7.6 3.8 12.3 5.4 4.7 1.6 13.4 3.7 19.5 4.7 9.2 1.5 18.5 1.8 57 2 30 0.1 52.1-0.3 63.5-1.1 9.6-0.7 21.3-2.2 26-3.3 4.7-1.1 12.1-3.4 16.5-5.1 4.4-1.7 10.2-4.6 13-6.4 2.7-1.8 6-4.7 7.2-6.3 1.3-1.8 3.9-10.3 7.2-23.4 2.7-11.3 7.5-32.2 10.5-46.5 3.1-14.3 8-38.4 11.1-53.5 3-15.1 18.5-92.8 34.4-172.5 15.9-79.8 32.8-164.3 37.5-188 4.7-23.7 15.5-77.7 24-120 8.5-42.3 17.7-88.5 20.5-102.5 2.7-14 5.9-30.2 7-36 1.1-5.8 4-22 6.5-36 2.5-14 5.5-32.7 6.7-41.5 1.4-10.2 2-17.7 1.6-20.8-0.5-3.5-1.7-5.7-4.5-8.8-2.3-2.6-6.7-5.6-11.7-8-4.4-2.1-11.8-4.7-16.5-5.8-4.7-1.1-13.2-2.5-19-3.1-5.8-0.6-28.3-1.3-50-1.5-28.5-0.3-42.7 0-51 0.9zm6514.9-1c-0.2 0.2-7.4 0.6-15.9 1-8.5 0.4-21.4 1.1-28.5 1.7-7.1 0.6-18 1.7-24 2.5-7.2 0.9-13.1 2.4-17 4.1-3.3 1.5-8.7 4.4-12 6.4-3.3 2-7.7 5.5-9.7 7.8-2.1 2.3-6.9 8.7-10.7 14.3-3.7 5.7-12.9 20.2-20.3 32.3-7.4 12.1-20.4 33.9-28.8 48.5-8.4 14.6-23.2 40-32.8 56.5-9.7 16.5-23.1 39.2-30 50.5-6.8 11.3-15.4 24.8-19 30-3.7 5.2-11 14.9-16.3 21.5-5.3 6.6-14.5 16.7-20.5 22.5-6.1 5.8-15.7 14.1-21.4 18.4-6.8 5.1-14.8 10-22.5 13.7-6.6 3.2-16.3 7.2-21.5 8.9-5.2 1.8-15.4 4.1-22.5 5.2q-13 2-36 2.5c-15.4 0.4-25.3 0.2-30-0.6-3.9-0.7-7.6-1.5-8.2-1.9-1-0.5 0.2-8.7 5.2-34.7 3.6-18.7 8.4-43.2 10.6-54.5 2.2-11.3 8.5-43.2 14-71 5.5-27.8 11.1-56.1 12.4-63 1.3-6.9 3.8-19.7 5.4-28.5 1.7-8.8 4.2-22.5 5.5-30.5 1.4-8 3.4-20.6 4.6-28 1.1-7.4 1.8-14.2 1.6-15-0.3-0.8-3.1-3.4-6.3-5.6-3.2-2.3-8-5.1-10.8-6.3-2.7-1.2-8.4-2.8-12.5-3.6-4.1-0.8-12.2-2-18-2.6-5.8-0.5-29.2-1.3-52-1.6-27.3-0.4-47-0.1-57.5 0.6-8.8 0.7-19.4 1.9-23.5 2.7-4.1 0.9-11.1 2.7-15.5 4.1-4.4 1.4-10.7 3.7-14 5.2-3.3 1.5-7.7 4.3-9.8 6.2-2.1 1.9-4.9 5.6-6.2 8.4-1.3 2.7-3.2 8.6-4.4 13-1.1 4.4-5.4 24.9-9.5 45.5-4.1 20.6-24.4 122.5-45.1 226.5-20.7 104-52.5 263.3-70.7 354-18.2 90.7-33.9 169.3-34.9 174.5-1 5.2-1.8 13.3-1.8 18l-0.1 8.5c8.9 8.3 14.2 12 17.5 13.6 3.8 1.9 9.7 3.6 16 4.6 8.5 1.4 19.1 1.7 70 1.7 33 0.1 65-0.3 71-0.7 6-0.4 14.1-1.5 18-2.4 3.9-0.8 10.1-3.1 14-5.1 3.9-1.9 8.9-4.8 11.3-6.3 2.3-1.6 4.8-4.1 5.6-5.7 0.8-1.5 3.7-11.9 6.4-23.2 2.8-11.3 7.1-30 9.6-41.5 2.5-11.5 9.1-43.5 14.6-71 5.5-27.5 12-59.9 14.5-72 2.5-12.1 6.8-32.1 9.5-44.5 2.7-12.4 6-28.3 7.4-35.5 1.3-7.2 3.4-19.3 4.6-27 1.2-7.7 2.7-15.6 3.3-17.5 0.8-2.2 2.3-4 4.2-5 2.4-1.2 8.9-1.6 34.5-1.8 18-0.2 37.7 0.1 46 0.8 8 0.6 17.4 1.8 21 2.6 3.6 0.8 11.7 4 18 7.1 10.1 5 12.5 6.7 20 14.2 4.7 4.7 11.3 12.6 14.6 17.6 3.4 5 7.6 12.2 9.4 16 1.8 3.8 5.2 12.2 7.7 18.5 2.4 6.3 5.9 16.5 7.8 22.5 1.8 6 5.6 21.1 8.3 33.5 2.8 12.4 6 27.2 7.1 33 1.2 5.8 4.6 23.8 7.6 40 3 16.2 7.3 39.2 9.5 51 2.3 11.8 5.7 28.7 7.6 37.5 1.9 8.8 4.6 20.5 6 26 1.4 5.5 3.4 12.9 4.6 16.5 1.3 4.2 3.3 7.8 5.7 10.3 2 2.1 6.7 5.4 10.6 7.3 5.5 2.6 9.1 3.6 16.5 4.4 5.2 0.6 16 1.4 24 1.8 8 0.5 35.2 0.9 60.5 1.1 25.3 0.1 52.5-0.3 60.5-0.8 8.1-0.6 18-2 22.5-3.1 4.4-1.2 10.7-3.5 14-5.2 3.3-1.7 8.5-4.9 11.5-7.2 3-2.4 6.6-6 8-8.2 1.9-3.1 2.5-5.6 2.8-12.4 0.3-4.7-0.1-12.5-0.8-17.5-0.7-5-3.8-20.5-7-34.5-3.2-14-8.8-37.9-12.5-53-3.6-15.1-10.8-44.2-15.9-64.5-5.2-20.3-11.7-45.1-14.5-55-2.7-9.9-7.3-25.7-10.1-35-2.9-9.3-6.8-21.3-8.7-26.5-1.9-5.2-6.1-14.5-9.2-20.5-3.1-6-8.4-15.7-11.9-21.5-3.4-5.8-9.2-14.5-12.9-19.5-3.7-5-13.2-15.5-21.2-23.6-11.9-11.8-17.1-16.2-28.1-23.5-7.4-4.9-18.6-11.6-24.9-14.9-6.3-3.3-11.6-6.5-11.8-7-0.2-0.5 3.6-3.1 8.4-5.7 4.8-2.5 12.6-6.3 17.3-8.3 4.7-2 13-6.2 18.5-9.2 5.5-3.1 17-10.2 25.5-15.9 8.5-5.6 18.6-12.8 22.5-15.9 3.9-3.1 13.5-11.5 21.3-18.8 7.9-7.3 19-18.2 24.5-24.3 5.6-6 13.6-15.3 17.8-20.5 4.2-5.1 13.4-17.3 20.5-26.9 7.1-9.6 16.7-23.3 21.5-30.5 4.7-7.2 13.5-20.7 19.4-30 6-9.3 17.6-27.8 26-41 8.3-13.2 21.9-34.8 30.2-48 8.2-13.2 20-32.3 26.1-42.5 6.1-10.2 15.4-26.2 20.6-35.5 5.3-9.3 11-20.4 12.8-24.5 1.7-4.1 3.3-9.8 3.6-12.5 0.5-4.8 0.4-5.2-3.9-9.5-2.4-2.5-6.5-5.5-9.1-6.8-2.7-1.2-8.3-3.4-12.5-4.8-4.3-1.4-12.5-3.2-18.3-4.1-7.6-1.1-20.9-1.6-48.1-1.9-20.7-0.2-37.8-0.2-38 0zm-2677.4 5.3c-1.6 0.1-7 0.8-12 1.4-5 0.6-11.9 2-15.5 3.1-3.6 1.1-10.8 4-16 6.5-5.2 2.4-12.4 6.4-16 8.8-3.6 2.4-8.3 6.5-10.6 9.2-2.2 2.6-6.3 8.2-9.1 12.3-2.8 4.1-6.3 10-7.8 13-1.5 3-5.1 11.6-8 19-2.9 7.4-7.5 20.2-10.3 28.5-2.8 8.2-8.5 26.5-12.7 40.5-4.2 14-18 59.2-30.7 100.5-12.6 41.2-26 85.1-29.8 97.5-3.8 12.4-19 62.1-33.8 110.5-14.9 48.4-30.5 99.5-34.7 113.5-4.2 14-12.1 39.7-17.5 57-5.4 17.3-14.6 47-20.3 66-5.8 19-15.3 50.2-21.1 69.5-5.8 19.2-12.7 42.9-15.5 52.5-2.8 9.6-6.4 23.1-8.1 30-1.6 6.9-3.4 16-4 20.2-0.8 6.2-0.7 8.4 0.4 10.5 0.7 1.6 3.1 4 5.2 5.5 2.2 1.5 6.2 3.6 8.9 4.7 2.8 1.1 10.6 2.5 17.5 3.3 9 0.9 28.3 1.3 68.5 1.3 48.8-0.1 57.3-0.3 66-1.8 5.5-1 12.3-2.8 15-4 2.8-1.3 7.3-3.8 10-5.7 2.8-1.8 6.5-4.7 8.3-6.4 1.9-1.7 4.9-6 6.7-9.6 1.8-3.6 5.7-13.3 8.8-21.5 3.1-8.3 8.8-24.7 12.7-36.5 3.9-11.8 13.6-42.2 21.5-67.5 7.9-25.3 26.5-85.4 41.4-133.5 14.8-48.1 30.8-100.1 35.5-115.5 4.7-15.4 14.4-48 21.6-72.5 7.2-24.5 16.5-56.2 20.5-70.5 4-14.3 9.9-35.5 13-47 3.1-11.5 10.6-40.8 16.5-65 6-24.2 11.4-45.2 11.9-46.8 0.6-1.5 1.4-2.7 1.9-2.7 0.4 0 1 2.1 1.4 4.7 0.4 2.7 1.4 10.6 2.2 17.8 0.9 7.2 2.2 21.8 3.1 32.5 0.8 10.7 1.7 22.9 2 27 0.3 4.1 0.8 9.5 1 12 0.2 2.5 0.7 8.1 1 12.5 0.3 4.4 0.8 9.8 1 12 0.2 2.2 0.9 9.4 1.5 16 0.6 6.6 1.3 14.5 1.5 17.5 0.3 3 0.8 7.7 1 10.5 0.3 2.7 2.3 20.7 4.5 40 2.1 19.2 4.6 41.5 5.4 49.5 0.9 8 2 19.9 2.6 26.5 0.6 6.6 1.3 13.6 1.5 15.5 0.2 1.9 0.7 6 1 9 0.3 3 0.8 7.1 1 9 0.2 1.9 0.9 7.3 1.5 12 0.6 4.7 1.3 10.3 1.5 12.5 0.3 2.2 1.6 13.7 3 25.5 1.4 11.8 2.7 23.3 3 25.5 0.2 2.2 0.6 6.5 1 9.5 0.3 3 1.4 14.3 2.5 25 1.1 10.7 2.3 22 2.5 25 0.3 3 0.8 7.7 1.1 10.5 0.3 2.7 0.7 6.6 0.9 8.5 0.3 1.9 1.4 11.4 2.5 21 1.1 9.6 2.2 18.2 2.5 19 0.2 0.8 1.6 11.8 3 24.5 1.4 12.7 2.7 25 3 27.5 0.2 2.5 1.1 12.6 2 22.5 0.9 9.9 2.2 24.3 3.1 32 0.8 7.7 2.6 22.3 4 32.5 1.3 10.2 3.4 21.9 4.5 26 1.1 4.1 3.1 9.3 4.3 11.5 1.3 2.2 4.3 5.7 6.7 7.8 2.4 2.1 8.9 6 14.4 8.7 5.5 2.7 12.7 5.4 16 6.1 3.9 0.9 15.1 1.3 32.5 1.4 14.6 0 36.6-0.1 49-0.3 12.4-0.2 28.1-0.8 35-1.3 6.9-0.5 15.2-1.4 18.5-2 3.3-0.6 8.9-2.2 12.5-3.6 3.6-1.5 9.4-4.5 12.9-6.7 3.6-2.3 9.3-7.3 12.9-11.1 3.5-3.8 9.9-12.8 14.1-20 4.3-7.2 11.9-20.7 16.8-30 5-9.3 18.1-34.8 29.3-56.5 11.2-21.7 23.3-45.3 27-52.5 3.7-7.2 11.1-21.5 16.5-32 5.4-10.5 13.2-25.8 17.5-34 4.2-8.3 13.3-25.8 20-39 6.8-13.2 17.6-34.1 24-46.5 6.4-12.4 18.4-35.5 26.5-51.5 8.1-16 16.6-32.4 18.8-36.5 2.1-4.1 19.4-38.1 38.2-75.5 18.9-37.4 40.6-81 48.3-97 7.7-16 18.5-38.7 24.2-50.5 5.6-11.8 14.2-29.6 19-39.5 4.9-9.9 10.3-19.7 11.9-21.8 1.7-2 3.8-3.7 4.6-3.7 0.8 0 1.5 0.5 1.5 1 0 0.5-0.7 3.8-1.5 7.2-0.7 3.5-2.5 13-3.9 21.3-1.4 8.2-4.3 27.4-6.5 42.5-2.2 15.1-4.9 34.5-6.1 43-1.1 8.5-3.2 23.2-4.5 32.5-1.4 9.3-3.4 25.1-4.5 35-1.1 9.9-2.2 20-2.5 22.5-0.3 2.5-1.6 16.4-3 31-1.4 14.6-2.7 28.3-3 30.5-0.2 2.2-0.9 8.7-1.5 14.5-0.6 5.8-1.7 17.9-2.5 27-0.8 9.1-2.6 28.7-4 43.5-1.4 14.8-2.7 29.5-3 32.5-0.3 3-1.6 18.5-2.9 34.5-1.4 16-3 35.7-3.6 44-0.6 8.2-1.3 17-1.5 19.5-0.2 2.5-0.7 8.3-1 13-0.3 4.7-0.8 11-1 14-0.3 3-0.7 8.4-1 12-0.3 3.6-0.8 9.2-1.1 12.5-0.3 3.3-0.7 8-0.9 10.5-0.2 2.5-0.7 7.4-1 11-0.3 3.6-1 11-1.6 16.5-0.5 5.5-1.1 12-1.4 14.5-0.3 2.5-1.1 11.5-2 20-0.8 8.5-2.2 24.5-3.1 35.5-0.9 11-1.7 27.4-1.8 36.5-0.1 14.8 0.1 16.8 1.9 19.9 1.2 2.1 4.3 4.7 8 6.7 4.4 2.5 8.7 3.8 16.5 5.1 9 1.5 17.6 1.8 61.5 1.8 28 0 56.2-0.3 62.5-0.8 6.3-0.4 15.8-1.6 21-2.7 5.6-1.2 12.8-3.6 17.5-5.8 4.4-2.1 9.8-5.4 11.9-7.3 2.2-1.9 4.7-5.2 5.7-7.4 1-2.2 2.7-8 3.9-13 1.1-5 2.7-13.3 3.5-18.5 0.8-5.2 2.1-16 3-24 0.9-8 1.8-16.3 2-18.5 0.3-2.2 1.2-11.2 2-20 0.8-8.8 3.1-33.8 5-55.5 1.9-21.7 3.9-43.8 4.5-49 0.5-5.2 1.2-12.4 1.5-16 0.3-3.6 1.9-22 3.6-41 1.6-19 3.2-35.6 3.4-37 0.2-1.4 0.9-8.3 1.5-15.5 0.6-7.2 1.5-17.5 2-23 0.5-5.5 1.2-13.4 1.5-17.5 0.3-4.1 0.8-9.3 1-11.5 0.3-2.2 0.7-7.4 1.1-11.5 0.3-4.1 2.1-21.5 3.9-38.5 1.9-17 3.9-35.5 4.5-41 0.5-5.5 1.9-20.6 3-33.5 1.1-12.9 2.4-29.1 3-36 0.5-6.9 1.4-17.9 2-24.5 0.6-6.6 1.3-14.7 1.5-18 0.3-3.3 0.8-8.3 1-11 0.3-2.8 0.7-7.7 1-11 0.3-3.3 1.4-15.5 2.5-27 1.1-11.5 2.2-23.3 2.5-26 0.3-2.8 0.7-7.5 1-10.5 0.3-3 1-9.3 1.5-14 0.5-4.7 1.2-11.7 1.5-15.5 0.3-3.8 0.8-9.7 1-13 0.3-3.3 0.7-8.5 1-11.5 0.3-3 0.7-8.2 1-11.5 0.2-3.3 0.9-13.2 1.5-22 0.6-8.8 1.3-18.3 1.5-21 0.2-2.8 0.7-16 1.1-29.5 0.4-16.7 0.3-26.4-0.5-30.5-0.6-3.3-2.3-8.5-3.8-11.5-1.6-3.3-5.5-8.3-9.8-12.5-4.3-4.2-9.9-8.5-14.1-10.7-3.8-2-9.6-4.3-12.9-5.2-3.3-0.8-8.5-1.8-11.5-2.1-3-0.3-11.3-1-18.5-1.4-7.1-0.5-32.8-0.9-57-0.8-24.2 0-50.7 0.3-59 0.8-8.2 0.4-19.7 1-25.5 1.4-5.8 0.3-16.1 1.2-23 2.1-6.9 0.8-16.8 2.4-22 3.4-5.2 1.1-13.5 3.3-18.5 5.1-5 1.7-13 5.4-18 8.1-5 2.8-11.7 6.9-15 9.1-3.3 2.2-8.5 6.1-11.4 8.6-3 2.5-9.1 9.1-13.4 14.6-4.4 5.5-11.2 15-15.2 21-4 6-13.1 21.6-20.2 34.5-7.2 12.9-20.2 37-29 53.5-8.8 16.5-20.7 39-26.5 50-5.8 11-14.7 28.1-19.8 38-5.1 9.9-12.1 23.4-15.5 30-3.4 6.6-11.5 22.3-18.1 35-6.5 12.7-16.9 32.9-23.1 45-6.2 12.1-21.4 42-33.7 66.5-12.3 24.5-28.6 57.3-36.1 73-7.6 15.7-16.4 34.3-19.7 41.5-3.3 7.2-12.1 26.7-19.5 43.5-7.3 16.8-14.4 31.5-15.6 32.8-1.2 1.2-2.5 2.2-2.9 2.2-0.5 0-1-0.6-1.2-1.3-0.2-0.6-0.9-4.8-1.5-9.2-0.5-4.4-1.2-11.2-1.5-15-0.3-3.8-0.8-10.8-1-15.5-0.3-4.7-0.8-14.6-1.1-22-0.3-7.4-0.8-16.4-1-20-0.2-3.6-0.7-11.2-1-17-0.3-5.8-1-16.3-1.5-23.5-0.6-7.2-1.2-15.9-1.5-19.5-0.3-3.6-0.9-11.9-1.5-18.5-0.6-6.6-1.3-14.7-1.6-18-0.3-3.3-1.4-14.1-2.5-24-1.1-9.9-2.8-24.3-3.9-32-1.1-7.7-2.6-19.4-3.5-26-0.9-6.6-2.7-20.5-4-31-1.3-10.5-2.6-21.3-2.9-24-0.3-2.8-4.2-34-8.6-69.5-4.4-35.5-9.6-76.7-11.5-91.5-1.9-14.8-4.6-33.3-6-41-1.4-7.7-3.8-19.6-5.5-26.5-2.1-8.4-4.7-15.8-7.9-22.5-2.7-5.5-7.1-12.5-9.6-15.5-2.6-3-7.3-7.7-10.4-10.3-3.1-2.6-9.4-7-14.1-9.8-4.7-2.7-11.9-6.2-16-7.8-4.8-1.9-11.1-3.3-17.5-4-5.5-0.6-11.8-1.3-14-1.6-2.2-0.2-9.8-0.7-17-1-7.1-0.4-20-1-28.5-1.4-8.5-0.5-36-0.8-61-0.8-25 0-46.8 0.2-48.5 0.4zm-5290.7 368.8c-0.2 0.1-27.5 0.5-60.8 0.9-33.3 0.3-61.4 0.8-62.5 1-1.1 0.3-3.7 0.5-5.7 0.5l-3.8 0.1c-8.6 36-14 59.3-17.5 75-3.5 15.7-7.9 36.4-9.9 46-1.9 9.6-4.1 21.5-4.8 26.3-1.1 7.7-1.1 8.9 0.2 9.7 0.8 0.5 11.6 1.2 24 1.7 12.4 0.4 119.2 0.8 237.4 0.8h214.9c4.5-13.2 8-25.5 10.7-36 2.6-10.5 6.9-28.7 9.4-40.5 2.5-11.8 6-28.9 7.9-38 1.9-9.1 4.7-22.9 6.3-30.7 1.6-7.8 2.7-14.4 2.4-14.6-0.3-0.3-10.8-0.8-23.5-1.2-12.6-0.3-90.8-0.8-173.7-0.9-82.9-0.2-150.9-0.2-151-0.1zm-2655.3 81.1c-4.4 0.8-10.5 2.1-13.5 3-3 0.9-9.1 3.4-13.5 5.6-4.4 2.2-11.1 6.1-15 8.6-3.8 2.5-9.4 6.8-12.4 9.6-3 2.8-8.5 9.1-12.3 14.1-3.9 5-8.5 11.7-10.3 15-1.9 3.3-4.7 10-6.4 15-1.6 5-3.4 11.9-4 15.5-0.5 3.6-0.8 14.6-0.7 24.5 0.3 14.2 0.8 19.8 2.5 26.2 1.2 4.6 3.5 11.3 5.2 15 1.6 3.8 5.6 10.6 8.7 15.3 3.1 4.7 8.6 11.6 12.2 15.4 3.6 3.7 9.9 9.4 14 12.4 4.1 3.1 10.4 7.4 14 9.5 3.6 2 9.4 4.7 13 5.8 3.6 1.1 10.6 2.7 15.5 3.5 5 0.9 13.3 1.7 18.5 1.8 5.2 0.2 12.9-0.1 17-0.6 4.1-0.4 10.7-1.5 14.5-2.5 3.9-0.9 10.2-3 14-4.6 3.9-1.6 10.6-5.3 15-8.3 4.4-2.9 10.8-7.6 14.3-10.6 3.4-2.9 8.5-8 11.3-11.3 2.9-3.3 7.1-8.7 9.4-12 2.4-3.3 5.7-8.7 7.3-12 1.7-3.3 4.2-10.5 5.6-16 1.4-5.5 3-12.9 3.5-16.5 0.4-3.6 0.7-10.3 0.5-15-0.2-4.7-1-12.3-1.8-17-0.8-4.7-2.7-12.3-4.1-17-1.5-4.7-4.5-11.9-6.7-16-2.2-4.1-6.2-10.2-8.8-13.5-2.6-3.3-8.1-9.2-12.2-13.1-4-3.9-9.8-8.9-12.8-11.1-3-2.3-8.4-5.7-12-7.6-3.6-2-9-4.5-12-5.6-3-1.1-9.3-3-14-4.2-6-1.5-12.5-2.2-22-2.4-8.7-0.2-16.3 0.2-21.5 1.1zm612 0.1c-1.6 0.2-6.8 1.1-11.5 1.9-4.7 0.9-11.6 2.9-15.5 4.5-3.8 1.7-10.1 4.8-14 7.1-3.8 2.3-9.9 6.4-13.4 9.2-3.5 2.8-9.2 8.5-12.6 12.6-3.4 4.1-8 10.2-10.2 13.5-2.2 3.3-5.7 9.4-7.8 13.5-2.1 4.1-4.6 10.9-5.7 15-1.4 5.3-2.1 12.3-2.5 24-0.4 10.4-0.1 20.2 0.6 26.5 0.7 5.5 2.4 13.4 3.8 17.5 1.3 4.1 4.1 10.2 6 13.5 1.9 3.3 6.3 9.6 9.8 14 3.4 4.4 8.9 10.5 12.1 13.5 3.3 3.1 8.8 7.7 12.4 10.2 3.6 2.6 10.1 6.5 14.5 8.7 4.4 2.2 12.3 5.1 17.5 6.5 5.2 1.4 13.1 2.9 17.5 3.4 4.4 0.5 12.3 0.8 17.5 0.6 5.2-0.2 12.7-0.8 16.5-1.4 3.9-0.6 9.5-1.8 12.5-2.7 3-0.9 7.8-2.5 10.5-3.7 2.8-1.2 9.3-5.1 14.5-8.7 5.2-3.5 13.5-10.4 18.5-15.4 5-5 11.4-12.4 14.2-16.5 2.8-4.1 6.7-10.7 8.6-14.5 2.2-4.3 4.5-11.1 5.8-17.5 1.9-8.8 2.3-13.6 2.3-30 0.1-18.3-0.1-20.1-2.7-29.5-1.5-5.5-4.4-12.9-6.3-16.5-2-3.6-5.7-9.4-8.3-13-2.5-3.6-7.3-9.4-10.6-12.9-3.3-3.6-10.5-9.8-16-13.8-5.5-4.1-12.7-8.7-16-10.3-3.3-1.5-9.4-3.7-13.5-4.9-4.1-1.1-11.5-2.7-16.5-3.6-4.9-0.8-13.5-1.4-19-1.4-5.5 0.1-11.3 0.4-13 0.6zm-881.5 416c-1.4 0.2-5.6 1.4-9.5 2.5-3.8 1.1-9 3.1-11.5 4.3-2.5 1.3-6.4 3.7-8.7 5.4-2.4 1.7-6.4 5.9-8.9 9.3-2.5 3.5-6.2 9.5-8.2 13.3-1.9 3.8-4.6 10.2-5.9 14-1.3 3.8-2.6 9.5-2.9 12.5-0.4 3.9 0 7.9 1.6 14 1.2 4.7 3.4 11 4.8 14 1.4 3 7.1 12.3 12.7 20.5 5.5 8.3 14.6 21.1 20.1 28.5 5.6 7.4 15.2 19.6 21.4 27 6.2 7.4 16.6 19.3 23.1 26.5 6.4 7.2 19.3 20.4 28.5 29.5 9.3 9.1 22.3 21.5 28.9 27.5 6.6 6 16.1 14.2 21 18.3 5 4.2 15.1 12.1 22.5 17.7 7.4 5.6 18.2 13.5 24 17.6 5.8 4.2 17.3 12.1 25.5 17.6 8.3 5.6 23.8 15.1 34.5 21.3 10.7 6.1 27.4 15.1 37 19.9 9.6 4.9 23.4 11.4 30.5 14.6 7.2 3.2 21.6 9.1 32 13.2 10.5 4.2 26.9 10.2 36.5 13.4 9.6 3.2 27.4 8.5 39.5 11.9 12.1 3.3 29 7.6 37.5 9.5 8.5 1.8 25.4 5.2 37.5 7.4 12.1 2.2 27.4 4.7 34 5.5 6.6 0.8 17.2 1.8 23.5 2.1 6.3 0.4 13.1 0.9 15 1 1.9 0.2 19 0.7 38 1.1 22.4 0.4 42.9 0.3 58.5-0.5 13.2-0.6 26.5-1.4 29.5-1.6 3-0.2 10.9-0.9 17.5-1.5 6.6-0.6 19.9-2.5 29.5-4.1 9.6-1.6 25.4-4.5 35-6.5 9.6-2 23.8-5.1 31.5-7 7.7-2 22.6-5.9 33-8.9 10.5-2.9 24.4-7.1 31-9.3 6.6-2.2 17.9-6.3 25-9.2 7.2-2.8 18.9-7.7 26-10.7 7.2-3 22-9.9 33-15.2 11-5.4 27.2-13.7 36-18.6 8.8-4.8 21.2-12 27.5-15.8 6.3-3.9 17.1-10.8 24-15.6 6.9-4.7 21.1-14.8 31.5-22.5 10.5-7.6 24-17.9 30-22.8 6.1-4.9 19.1-16.3 29-25.3 9.9-8.9 25.7-24.1 35-33.6 9.4-9.6 22.7-23.7 29.5-31.5 6.9-7.7 16.8-19.2 22.1-25.5 5.2-6.2 12.9-15.9 17.1-21.4 4.1-5.5 11.1-15.4 15.5-22 4.4-6.6 9.4-14.5 11.1-17.5 1.7-3 4-8.7 5.1-12.5 1.2-3.8 2.4-10.6 2.8-15 0.4-5.9 0.1-10.1-1.2-16-1-4.4-3.4-11.2-5.4-15-2.4-4.8-6-9.5-11.6-15-5.5-5.6-10-9.1-14.5-11.3-3.6-1.7-9.2-3.8-12.5-4.6-3.3-0.8-8.2-1.7-11-2-2.7-0.3-8.6-0.1-13 0.4-4.4 0.6-10.7 1.7-14 2.5-3.3 0.9-8 2.6-10.5 3.8-2.5 1.2-9.2 6.7-14.9 12.2-5.7 5.5-16.7 17.9-24.5 27.5-7.7 9.6-20.8 25.4-29 35-8.2 9.6-25.3 27.9-38 40.5-12.7 12.7-29.7 28.7-37.7 35.5-8 6.9-22.4 18.4-32 25.6-9.6 7.2-22.3 16.5-28.4 20.7-6 4.1-18.9 12.1-28.5 17.7-9.6 5.6-24.2 13.8-32.5 18.1-8.2 4.3-20.2 10.1-26.5 13-6.3 2.8-17.3 7.5-24.5 10.4-7.1 2.9-18.2 7.1-24.5 9.4-6.3 2.2-16.9 5.7-23.5 7.6-6.6 2-20.8 5.8-31.5 8.5-10.7 2.7-25.6 6.2-33 7.9-7.4 1.6-21.4 4.3-31 6-9.6 1.7-23.1 3.5-30 4.2-6.9 0.6-25.1 1.1-40.5 1.1-15.4-0.1-33.4-0.4-40-0.6-6.6-0.3-18.7-0.8-27-1.1-8.2-0.3-16.6-0.8-18.5-1-1.9-0.2-7.5-0.7-12.5-1-4.9-0.4-14.8-1.5-22-2.5-7.1-1.1-17.3-2.8-22.5-3.9-5.2-1.1-16.9-3.8-26-6-9.1-2.2-23.5-6.1-32-8.6-8.5-2.5-21.8-6.6-29.5-9.1-7.7-2.5-23-8.2-34-12.6-11-4.4-27.6-11.7-37-16.3-9.3-4.6-25.1-13.2-35-19.2-9.9-6-22.7-14-28.5-17.7-5.8-3.8-15.4-10.6-21.5-15.1-6-4.6-16.8-13.2-24-19.1-7.1-5.9-18.8-15.9-26-22.3-7.1-6.4-19.5-17.9-27.4-25.6-7.9-7.7-21.4-21.7-30.1-31-8.7-9.3-19.4-21.3-24-26.5-4.5-5.2-12.8-15.6-18.5-23-5.7-7.4-13.2-16.7-16.7-20.6-3.5-3.9-9-9.5-12.3-12.3-3.3-2.9-9.6-7-14-9.1-4.4-2.1-10.7-4.6-14-5.4-3.3-0.9-9.1-1.5-13-1.4-3.8 0-8.1 0.3-9.5 0.5zm11465.2 225.1c-1.8 0.9-3.8 3-4.4 4.7-0.6 1.7-0.9 5.1-0.5 8 0.3 2.7 2 8.6 3.8 13 2.5 6.2 4.6 9.3 8.8 13.5 3.1 3 8.1 7 11.1 8.7 3 1.7 9.3 4.3 14 5.6 4.7 1.3 11 2.8 14 3.1 3.7 0.5 7.8 0.2 12.5-0.9 3.9-0.9 10.1-3.1 14-4.9 4.7-2.3 9.7-5.9 15.4-11.2 4.6-4.4 10.3-10.6 12.6-13.9 2.4-3.3 5.4-8.4 6.9-11.3 1.4-2.8 2.6-6.4 2.6-8 0.1-1.5-0.7-3.4-1.7-4.3-1-0.9-2.6-1.9-3.6-2.2-0.9-0.4-3.4 0.1-5.5 1.2-2 1-8.2 6-13.7 11.1-5.5 5.1-12 10.7-14.5 12.3-2.5 1.7-7.1 3.9-10.3 4.9-3.1 1-8.5 1.8-12 1.8-4.6 0-7.6-0.7-11.7-2.6-3.4-1.6-7.8-5-11.4-8.8-3.2-3.3-8.2-9-11-12.5-2.8-3.5-6.3-7-7.9-7.7-1.5-0.8-3-1.4-3.5-1.4-0.4 0-2.2 0.8-4 1.8zm-5251.7 87.8c-3.9 0.7-9 2.1-11.5 3-2.5 1-6.8 3.1-9.5 4.9-2.8 1.7-7.9 5.7-11.5 8.8-3.6 3.2-7.5 5.9-8.8 6.2-1.2 0.3-2.9-0.1-3.8-0.8-1.3-1-1.4-2.5-0.9-8.7 0.5-5.5 0.3-8-0.7-9.2-0.7-1-3.3-2.2-5.8-2.6-2.5-0.5-7.4-0.5-11-0.1-3.6 0.5-7.5 1.5-8.8 2.4-1.2 0.8-3 3.9-4.1 6.7-1 2.9-4 15-6.5 26.8-2.6 11.8-7.6 35.4-11.2 52.5-3.6 17.1-11 52.2-16.4 78-5.4 25.8-12 56.4-14.5 68-2.5 11.6-6.1 29.1-8 39-1.9 10.3-3 18.6-2.6 19.5 0.5 0.8 1.7 1.9 2.7 2.3 1.1 0.4 4.1 1 6.9 1.4 2.7 0.3 7.9 0.3 11.5-0.1 3.6-0.3 7.3-1.2 8.2-1.9 1.2-0.8 2.9-7 5.7-19.7 2.2-10.2 6.8-32 10.1-48.5 3.4-16.5 6.5-31.5 7.1-33.3 0.5-1.7 1.5-3.2 2.1-3.2 0.7 0 2.5 0.8 3.9 1.8 1.5 0.9 6.3 4.9 10.7 8.7 4.5 3.8 10.7 8.6 13.9 10.5 3.2 1.9 8.7 4.3 12.3 5.4 5.3 1.5 9.9 1.9 25 1.9 15.4 0.1 20.2-0.3 29-2.1 5.8-1.2 12.7-3.3 15.5-4.5 2.7-1.3 9.3-5.2 14.5-8.7 5.7-3.9 14.1-11 21-18 6.3-6.3 14.1-15.1 17.2-19.5 3.1-4.4 7.5-11.6 9.7-16 2.2-4.4 5.1-11.8 6.5-16.5 1.3-4.7 3.4-14.3 4.6-21.5 1.9-11.4 2.2-15.7 1.8-34-0.4-18.5-0.7-21.8-2.7-27.5-1.2-3.6-4-10.1-6-14.5-2.3-4.7-6.1-10.4-9.2-13.9-3-3.2-9-8.2-13.4-11.1-4.4-2.9-10.9-6.4-14.5-7.8-3.6-1.4-10.3-3.3-15-4.2-5.7-1-13.1-1.5-22.5-1.4-7.7 0.1-17.2 0.8-21 1.5zm498-0.5c-2.8 0.4-7.3 1-10 1.4-2.8 0.3-6.1 1.2-7.5 1.9-1.4 0.7-4.2 3.3-6.3 5.7-2.2 2.4-6.7 9.1-10.1 14.9-3.4 5.8-9.4 16.3-13.3 23.5-3.9 7.2-13.7 25.4-21.8 40.5-8.2 15.1-19.1 34.9-24.3 44-5.2 9.1-11.8 19.8-14.6 23.8-2.8 4-5.6 7.3-6.1 7.3-0.6 0-1.7-0.8-2.6-1.8-0.9-1-1.9-2.6-2.2-3.6-0.4-0.9-1.6-9-2.8-18-1.1-8.9-4.2-31.7-7-50.7-2.7-19-6.5-44.6-8.5-57-2-12.4-4.2-23.5-5-24.8-0.8-1.3-3.2-2.7-5.7-3.3-2.3-0.6-9.5-0.9-15.9-0.7-8.7 0.2-12.2 0.7-13.3 1.8-1.5 1.4-1.4 2.9 1.9 19 1.9 9.6 4.9 25.6 6.7 35.5 1.7 9.9 5 29 7.5 42.5 2.4 13.5 6.6 37.8 9.3 54 2.7 16.2 5.7 34.2 6.5 40 0.9 5.8 1.6 12.9 1.6 15.7 0 2.9-0.7 7.4-1.6 10-0.9 2.7-4 8.9-6.9 13.8-2.9 4.9-8.1 12.8-11.6 17.5-3.4 4.7-8.5 10.7-11.3 13.5-2.8 2.7-7.4 6.1-10.1 7.4-4.5 2.1-5.8 2.3-13 1.6-4.4-0.4-9.8-0.7-12-0.6-2.2 0-4.6 0.7-5.3 1.3-0.7 0.7-2.4 4.8-3.8 9-1.3 4.3-2.4 8.6-2.4 9.5-0.1 1 0.7 2.5 1.7 3.4 1 0.9 3.8 2.7 6.3 3.9 3.1 1.6 6.8 2.5 12 2.8 4.6 0.2 10.4-0.2 15-1.2 4.1-0.9 11.1-3.3 15.5-5.5 4.4-2.1 10.3-5.6 13.1-7.7 2.8-2.1 7.3-6.4 10-9.5 2.7-3.1 7.4-9.2 10.5-13.5 3.2-4.4 8.8-13.3 12.7-19.9 3.8-6.6 12.1-21 18.4-32 6.3-11 20.4-35.8 31.3-55 10.9-19.3 25.7-45.3 32.8-58 7.1-12.7 19.3-34.7 27-49 7.7-14.3 16.4-30.9 19.4-37 3-6.1 5.3-11.8 5.1-12.9-0.2-1-1.2-2.4-2.3-3-1.3-0.7-4-0.9-7-0.5zm1115.5 0c-4.1 0.5-10.9 1.8-15 3-4.1 1.1-12.5 4.5-18.5 7.4-6.1 2.9-13.1 6.9-15.8 8.9-2.6 2-6.4 6-8.6 8.8-2.1 2.9-5.7 8.9-7.9 13.3-2.3 4.4-4.9 11-5.9 14.7l-1.8 6.7c4.1 4.2 6.9 5.5 10.5 6.2 3 0.6 7.3 0.8 9.5 0.4 2.2-0.4 5.3-1.5 7-2.5 1.6-1 5.2-5 8-9 2.7-4 7.7-9.8 11-12.9 3.3-3.1 8.2-6.7 11-8 2.7-1.3 9.3-3.3 14.5-4.4 6.8-1.4 13.6-2 24-2.1 13.5-0.1 14.9 0.1 19.9 2.4 3.5 1.6 7.2 4.4 10.3 8 2.7 3 6.2 8.1 7.8 11.2q3 5.8 2.5 8.5c-0.3 1.6-2.2 5.5-4.3 8.8-2.1 3.3-5.6 7.5-7.8 9.4-2.1 1.9-5.7 4.2-7.9 5.1-2.2 1-8.3 2.7-13.5 3.8-5.2 1.1-13.5 2.6-18.5 3.2-5 0.7-20 3-33.5 5.1-13.5 2.2-27.3 4.6-30.8 5.4-3.4 0.8-8.6 2.7-11.5 4.1-2.8 1.5-7.7 4.4-10.7 6.4-3 2.1-6.9 5.3-8.6 7.1-1.8 1.9-4.7 5.9-6.6 8.9-1.9 3-4.7 8.4-6.1 12-1.4 3.6-3 9.9-3.5 14-0.5 4.1-0.8 10.3-0.6 13.7 0.2 3.5 1.6 9.8 3 14 1.4 4.3 3.6 10 4.9 12.8 1.4 3 5 7.5 8.9 11.2 3.6 3.5 8.8 7.4 11.6 8.8 2.7 1.4 7.8 3.2 11.2 4.1 4.2 1 12.2 1.7 24.3 1.9 11.5 0.2 20.9-0.1 26-0.9 4.4-0.8 9.8-1.8 12-2.4 2.2-0.6 6.7-2.8 10-5 3.3-2.1 9.8-7.2 14.5-11.4l8.5-7.6c6.6 13.4 10.2 19 12.3 21.1 2 2.1 5.7 4.5 8.2 5.5 3 1.1 7.4 1.7 13 1.7 7.9 0 8.8-0.2 13-3.1 2.8-2 5.5-5.1 7.2-8.3 1.8-3.2 2.7-6.3 2.5-8.3-0.2-2.9-1-3.7-7.2-7.1-3.9-2.1-7.6-4.6-8.2-5.5-0.7-1-1.7-3.3-2.3-5.2-0.8-2.8-0.4-6.8 2.1-20 1.6-9.1 5.7-28 8.9-42 3.2-14 7-30.9 8.3-37.5 1.4-6.6 3.1-15.6 3.8-20 0.7-4.4 1.1-10.3 1-13-0.1-2.8-0.8-7.9-1.7-11.5-0.8-3.6-3-9.2-4.7-12.4-1.8-3.3-5.6-8.1-8.7-10.8-3-2.7-9.1-6.7-13.5-8.9-4.4-2.1-10.7-4.6-14-5.4-3.3-0.8-9.4-1.9-13.5-2.3-4.1-0.5-13.1-1-20-1-6.9 0-15.9 0.4-20 0.9zm662 1c-5.9 1.2-9.2 2.5-10.8 4.1-1.2 1.3-3.3 5.5-4.6 9.3-1.3 3.8-6 23.2-10.4 43-4.5 19.8-11.3 51.1-15.3 69.5-3.9 18.4-9.6 43.4-12.5 55.5-3 12.1-5.6 24.7-5.7 28l-0.2 5.9c6.2 2.3 11.7 3 16.5 3 5.5 0.1 9.7-0.4 11.9-1.4 1.8-0.8 4.1-2.8 5.2-4.5 1-1.7 2.9-7.3 4.3-12.5 1.4-5.2 3.9-16.5 5.6-25 1.7-8.5 4.2-17.8 5.4-20.5 1.3-2.8 4.3-7.4 6.7-10.4 2.4-3 8.4-8.8 13.4-12.9 5-4.2 11.7-9.3 15-11.4 3.3-2.1 6.6-3.8 7.2-3.8 0.7 0 3.3 3 5.7 6.7 2.4 3.8 9 15.4 14.7 25.9 5.7 10.5 16.2 30.7 23.4 44.8l13 25.8c22.5-1 30.9-1.7 33.2-2.3 2.4-0.5 4.3-1.5 4.3-2.2 0-0.6-3.3-8-7.3-16.2-4.1-8.3-14.6-28.5-23.4-45-8.9-16.5-18.8-35.6-22-42.5-3.3-6.9-6.8-14.5-7.8-17l-1.7-4.5c4.4-6.1 10.9-12.6 17.2-18.4 6.4-5.8 20.3-18 31-27.1 10.7-9.1 24.8-21.7 31.3-28 6.5-6.3 11.8-12.3 11.7-13.3 0-0.9-0.8-2.1-1.8-2.6-1.1-0.6-3-0.6-5.2 0-1.9 0.5-8.5 1.3-14.5 1.7-9.3 0.7-11.9 1.3-17 3.9-3.3 1.7-10.5 6.4-16 10.6-5.5 4.1-19.2 15.3-30.5 24.8-11.3 9.5-27.5 23.2-36.1 30.4-8.6 7.1-19.3 15.9-23.9 19.5l-8.3 6.5c1.1-10.1 2.8-20.9 4.5-30.5 1.6-9.6 4-24.5 5.3-33 1.3-8.5 2.6-18.9 2.9-23 0.5-5.3 0.3-8.2-0.6-10-0.8-1.4-2.2-2.6-3.3-2.6-1.1-0.1-5.8 0.7-10.5 1.7zm431.5-0.1c-5 1-12.8 3.3-17.5 5.2-4.7 1.8-12 5.6-16.4 8.3-4.3 2.8-11.4 7.9-15.7 11.5-4.3 3.6-9.9 9.2-12.6 12.5-2.6 3.3-6.9 9.2-9.5 13-2.5 3.8-7.1 12.2-10.2 18.5-3 6.3-6.8 16.2-8.5 22-1.6 5.8-3.7 14.8-4.7 20-1.3 7.4-1.6 12.9-1.1 25 0.3 8.9 1.2 18.2 2.1 21.7 0.9 3.5 3.4 10 5.6 14.5 2.3 4.6 6.3 11.3 9 15 2.9 3.9 8.5 9.6 13.2 13.3 4.6 3.6 12.1 8.5 16.8 10.9 4.7 2.4 12.1 5.2 16.5 6.2 6.3 1.5 11.8 1.9 26.5 1.9 13.8 0 20.9-0.5 28-1.9 5.2-1 11.7-2.7 14.5-3.8 2.7-1.2 10.2-5.5 16.5-9.7 6.7-4.4 14.8-10.8 19.2-15.3 4.3-4.3 10.5-11.5 13.9-16.1 3.3-4.5 8.3-12.7 11.1-18.2 2.7-5.5 6.5-14.9 8.3-21 1.9-6.1 4.2-15.9 5.1-22 1.1-7 1.7-16.9 1.7-27.5 0-10.9-0.6-19.7-1.7-26-1.1-6.3-2.8-11.9-5.1-16.5-1.9-3.8-5.9-10.2-8.8-14-3-3.8-9.2-10.1-13.8-13.8-4.6-3.8-11.1-8.1-14.4-9.8-4.5-2.2-8.9-3.3-17.5-4.4-6.7-0.9-17.8-1.5-26.5-1.4-9.5 0.1-18.3 0.8-24 1.9zm1299.5-0.5c-3.6 0.7-8.5 2.1-11 3-2.5 0.9-9.2 4.1-15 7.1-5.8 3-13.1 7.5-16.2 10.2-3.2 2.6-7.6 7.2-9.9 10.2-2.3 3-6.6 10.4-9.6 16.5-4.3 8.5-5.4 11.6-4.9 13.7 0.3 1.6 1.6 3.5 2.8 4.3 1.3 0.8 5.2 2.1 8.8 3 3.6 0.9 8 1.4 9.7 1.1 1.8-0.3 4.9-2.1 6.9-3.9 2-1.7 5-5.7 6.7-8.7 1.7-3 4.2-7 5.6-8.9 1.4-1.9 4.6-4.9 7.1-6.8 2.5-1.9 6.7-4.2 9.5-5.2 2.7-1.1 8.4-2.6 12.5-3.5 4.1-0.8 12.7-1.8 19-2.2 7.6-0.4 13.9-0.2 18.5 0.6 3.8 0.6 8.6 2 10.5 3 1.9 0.9 5.4 3.9 7.8 6.6 2.6 3 4.9 6.8 5.8 9.9 0.8 2.7 1.4 6.8 1.4 9 0 2.2-0.8 6.5-1.8 9.5-1 3.2-3.2 7-5.2 9.1-2.7 2.8-5.4 4.3-11.5 6.2-4.4 1.4-13 3.5-19 4.6-6 1.2-18.7 3.2-28 4.5-9.4 1.4-23.1 3.4-30.5 4.6-7.4 1.1-15.8 2.7-18.5 3.5-2.8 0.8-9 4.1-14 7.4-5 3.3-11.8 8.8-15.2 12.3-3.4 3.5-7.8 9-9.8 12.3-2 3.5-4.2 9-5 13-0.9 3.8-1.7 10.4-1.9 14.5-0.2 4.1 0.3 10.4 1.1 14 0.7 3.6 3.2 10.3 5.5 15 3 6.3 5.8 10.2 10.7 15.1 3.6 3.6 7.9 7.3 9.6 8.2 1.6 0.8 8.4 3.2 15 5.2 10.2 3.1 13.4 3.7 21.5 3.7 5.2 0 13.3-0.6 18-1.2 4.7-0.7 11.4-2.1 15-3.2 3.6-1.1 9.2-3.1 12.5-4.5 3.3-1.4 9.6-4.9 14-7.8 4.4-2.9 9.1-5.6 10.5-6 1.9-0.5 3-0.1 4.8 1.6 1.2 1.3 2.5 3.7 2.9 5.4 0.3 1.7 2.2 4.8 4.2 6.9 2 2.2 5.6 4.8 8.1 5.9 2.5 1.1 7.2 2.2 10.5 2.4 3.9 0.4 8 0 11.7-1.1 4.4-1.2 7-2.8 10.6-6.4 2.8-2.7 5.4-6.5 6.3-8.9 1.2-3.6 1.2-4.4-0.1-5.8-0.8-0.9-4-2.8-7-4.1-3-1.4-6.7-3.7-8.3-5.2-1.5-1.5-3.2-4-3.7-5.7-0.8-2.2-0.5-6.2 1.1-15 1.1-6.6 3.3-18.1 4.9-25.5 1.6-7.4 4.3-19.6 6-27 1.7-7.4 4.4-19.8 6-27.5 1.6-7.7 3.6-18.3 4.5-23.5 1-5.2 1.7-11.8 1.7-14.5 0-2.8-0.7-7.9-1.7-11.5-0.9-3.6-3.1-9.2-4.8-12.4-1.9-3.4-5.5-8-8.7-10.8-3-2.7-8.4-6.4-12-8.2-3.6-1.8-8.8-4.1-11.5-5-2.8-0.9-8.6-2.2-13-3-4.9-0.9-15.1-1.4-26.5-1.4-11.7 0-20.9 0.4-25 1.3zm-741.5 3.1c-8.5 0.8-14.4 1.9-15.1 2.6-0.6 0.7-4.8 7.8-9.4 15.8-4.6 8-19.8 33.6-33.9 57-14 23.4-28.8 47.9-32.9 54.5-4.1 6.6-10.5 16.5-14.3 22-3.7 5.5-7.7 10.8-8.8 11.7-1.6 1.4-2.6 1.6-4.1 0.8-1.1-0.6-2.2-2.2-2.5-3.8-0.2-1.5-0.7-4.7-0.9-7.2-0.3-2.5-0.8-8.1-1.1-12.5-0.4-4.4-0.8-9.3-1.1-11-0.2-1.7-1.5-10.9-2.9-20.5-1.3-9.6-5.8-37.6-10-62.3-4.1-24.6-7.5-44.9-7.5-45.2 0-0.3-11.4-0.4-25.2-0.3l-25.3 0.3c-7.3 33.3-11.7 53.6-14.5 66.5-2.9 12.9-6 27.6-7.1 32.5-1.1 4.9-5.4 25.2-9.5 45-4.1 19.8-8.6 41.8-10 49-1.3 7.2-2.4 14-2.4 15.2 0 1.3 1 3 2.2 3.7 1.3 0.8 5.2 1.8 8.8 2.2 3.9 0.4 8.5 0.2 11.5-0.5 3.1-0.7 6-2.2 7.7-3.9 1.4-1.5 3.5-5.4 4.6-8.7 1-3.3 3.6-13 5.5-21.5 2-8.5 5.5-24.5 7.7-35.5 2.2-11 6.1-29.9 8.6-42 2.6-12.1 5.7-25.6 6.9-30 1.3-4.4 2.8-9.2 3.4-10.8 0.6-1.5 1.6-2.7 2.1-2.7 0.5 0 1.9 3 3 6.7 1.1 3.8 3.3 13.3 4.9 21.3 1.6 8 5.7 30.7 9 50.5 3.3 19.8 7.2 43.7 8.6 53 1.4 9.3 2.7 18.2 3 19.7l0.5 2.8h33c35.4-59.3 48.9-81.9 52.7-88.5 3.9-6.6 9.5-16.3 12.5-21.5 3-5.2 8.6-15.1 12.3-22 3.7-6.9 8.6-15.1 10.9-18.3 2.4-3.3 4.8-5.8 5.8-5.7 1.1 0 2 1 2.3 2.7 0.3 1.6-0.8 9.3-2.4 17.3-1.6 8-6.2 29.1-10.1 47-3.9 17.9-9.1 42.4-11.5 54.5-2.4 12.1-4.6 23.3-4.8 25-0.2 1.7 0 4 0.4 5.2 0.5 1.4 2.2 2.7 4.1 3.2 1.8 0.5 7.8 0.7 13.3 0.5 6.8-0.3 10.7-0.9 12.2-1.9 1.3-0.8 3-3.2 3.8-5.3 0.9-2 4.2-15.6 7.5-30.2 3.2-14.6 7.5-34.2 9.5-43.5 2-9.3 4.7-22.4 6-29 1.3-6.6 4.2-21.4 6.4-33 2.2-11.6 4.7-24.8 5.5-29.5 0.9-4.7 2-11.7 2.5-15.5 0.5-3.8 1.2-10.8 1.6-15.5 0.3-5 0.2-9.1-0.4-10-0.8-1.1-3.3-1.5-9.8-1.7-4.8-0.1-15.1 0.5-22.8 1.3zm1524-0.1c-2.2 0.8-5 2.5-6.2 3.8-1.4 1.3-3.1 5.3-4.3 9.7-1.1 4.1-3.7 15.6-5.9 25.5-2.2 9.9-5.3 24.3-7 32-1.7 7.7-6.6 30.9-11 51.5-4.4 20.6-10.1 47.7-12.6 60.2-2.5 12.6-4.5 23.9-4.5 25.3 0 1.6 0.9 3.1 2.7 4.2 2.3 1.4 6.1 1.8 22.3 2.1l19.5 0.4c32.6-41.6 50.9-65 61.6-78.7 10.8-13.8 26.5-34 34.9-45 8.4-11 17.6-23.4 20.5-27.5 2.9-4.1 6.9-9 8.9-10.8 2-1.7 4.2-3.2 4.8-3.2 0.7-0.1 2 0.6 2.8 1.5 1 1.1 1.3 2.5 0.8 4.3-0.4 1.5-2.3 10.6-4.3 20.2-2 9.6-5.6 26.9-8.1 38.5-2.5 11.6-6.5 29.8-8.9 40.5-2.4 10.7-5.5 25.8-6.8 33.5-1.4 7.7-2.9 16-3.3 18.5-0.5 3.7-0.3 4.9 1.2 6.6 1.2 1.3 3.8 2.3 7.4 2.8 3 0.5 8.2 0.4 11.5 0 4.3-0.5 6.8-1.5 8.9-3.3 1.6-1.4 3.4-3.9 4.1-5.6 0.6-1.7 2.6-8.4 4.3-15 1.7-6.6 5.4-22.6 8.2-35.5 2.8-12.9 7.8-36.6 11.1-52.5 3.3-15.9 8.7-41.2 12.1-56 3.3-14.8 6.4-29 6.9-31.5 0.4-2.5 0.8-6.6 0.8-9.3 0.1-4.2-0.2-4.8-2.7-5.9-1.6-0.6-10.8-1.3-22.7-1.6l-20-0.4c-48.7 62.5-77.1 98.9-94.5 121.2-17.4 22.3-33 41.5-34.6 42.8-1.6 1.2-3.2 1.9-3.6 1.5-0.3-0.5 0.6-7.8 2.2-16.3 1.6-8.5 5-25.4 7.5-37.5 2.6-12.1 6.7-31.7 9.1-43.5 2.5-11.8 5.6-27.8 7-35.5 1.4-7.7 2.8-17.9 3.2-22.7l0.7-8.7c-4.3-1.6-8.8-2.1-12.8-2.1-3.9 0.1-9 0.7-11.2 1.5zm425 0c-2.8 0.7-6.1 2.2-7.4 3.2-1.3 1-3.2 3.4-4.2 5.3-1 1.9-3.8 12.7-6.3 24-2.5 11.3-6.6 30.4-9.1 42.5-2.6 12.1-7.5 35.3-11.1 51.5-3.6 16.2-7.8 36.2-9.4 44.5-1.6 8.2-3.6 20.6-4.5 27.5-0.8 6.9-1.8 13.8-2.1 15.5l-0.5 3c22.2-1.3 31.4-2 34.8-2.6 3.5-0.5 8-1.7 10-2.8 2.7-1.3 7.7-6.8 16.8-18.2 7.2-9 18.5-23.4 25.1-31.9 6.7-8.5 25.7-33.3 42.4-55 16.7-21.7 34.2-44.2 38.9-49.9l8.6-10.4c0.5 5.3-0.8 14.9-2.5 24.8-1.7 9.9-7.3 39.6-12.5 66-5.2 26.4-10.3 52.7-11.3 58.5-1.2 6.9-1.6 11.6-1 13.7 0.6 2.6 1.5 3.5 4 4.2 1.8 0.6 7.3 1.3 12.3 1.6 6.4 0.4 9.7 0.2 11.5-0.7 1.5-0.8 3.1-3.2 4.3-6.3 1-2.8 3.2-10.6 4.7-17.5 1.5-6.9 4.7-21.7 7-33 2.3-11.3 8.4-40.1 13.5-64 5.2-23.9 11.5-53.4 14-65.5 2.5-12.1 4.5-23 4.5-24.3 0-1.2-0.8-2.5-1.8-2.9-0.9-0.3-11.6-0.8-23.7-1l-22-0.4c-31.8 42.3-51.1 67.6-63.5 83.6-12.4 15.9-32.2 41.1-44 55.8-11.8 14.8-22.4 27.1-23.5 27.3-1.1 0.3-2.4 0.2-2.8-0.3-0.5-0.4 0-5.1 1.1-10.3 1-5.2 4.2-18.5 7-29.5 2.8-11 8-34.4 11.7-52 3.6-17.6 8.4-39.8 10.5-49.3 2.2-9.4 3.8-18.2 3.5-19.5-0.3-1.2-1.5-3.1-2.6-4.2-1.6-1.5-3.7-2.1-8.8-2.2-3.6-0.2-8.9 0.4-11.6 1.2zm-5649 0.7c-0.2 0.7-2.2 9.9-4.4 20.3-2.2 10.4-7.4 34.7-11.5 54-4.1 19.2-11.8 54.3-17 78-5.3 23.7-10.2 46.8-10.9 51.3-1.1 8-1.1 8.4 0.8 9.8 1.1 0.7 5.4 1.6 9.5 2 4.9 0.4 9.6 0.2 13.5-0.7 3.3-0.8 6.8-2 7.8-2.9 1-0.8 2.4-4 3.2-7 0.8-3 3.8-15.6 6.6-28 2.8-12.4 10.5-49.5 17-82.5 8.6-42.9 12.5-60.5 13.7-61.8 0.9-0.9 3.5-2.2 5.7-2.8 2.3-0.6 21.4-1.2 46-1.5 23.1-0.3 44.9-0.9 48.5-1.5 3.6-0.5 7.3-1.7 8.4-2.7 1-0.9 2.7-3.7 3.8-6.2 1.1-2.5 2-6.9 2.1-9.9l0.2-5.5c-5.8-1.2-12.8-2-19.3-2.5-6.4-0.5-36.8-0.9-67.5-1-44.1-0.1-55.8 0.1-56.2 1.1zm1198.4-0.8c-0.2 0.2-7.3 0.6-15.7 1-8.3 0.3-16.1 1-17.2 1.6-1.1 0.6-2 1.2-2 1.5 0 0.3-2.7 12.5-5.9 27.2-3.3 14.8-10.9 50-17 78.3-6 28.3-13 62-15.5 74.8-2.5 12.7-4.6 24.5-4.6 26.2 0 2.3 0.6 3.2 2.7 4.1 1.6 0.6 6.8 0.9 12.3 0.7 6.7-0.3 10.3-0.9 12.2-2.1 1.6-0.9 3.5-3 4.3-4.7 0.8-1.7 3.3-9.9 5.5-18.2 2.2-8.4 6.2-25.4 8.9-37.8 2.7-12.4 8.1-38.5 12-58 3.9-19.5 8.3-42.3 9.9-50.5l2.8-15c55.7 0.3 77.3 0.7 83.9 1 6.6 0.3 13.7 1 15.7 1.5 2.1 0.6 4 1.6 4.2 2.2 0.2 0.7-0.5 6-1.5 11.8-1.1 5.8-3.4 17-5 25-1.7 8-7.7 36.1-13.4 62.5-5.7 26.4-11.6 54.5-13 62.5-1.4 8-2.5 15.3-2.5 16.2 0 1 1 2.2 2.2 2.7 1.3 0.5 5.2 1.2 8.8 1.6 3.6 0.4 9 0.4 12-0.1 3.4-0.5 6.5-1.7 8.2-3.1 2.3-1.9 3.2-4.2 5.4-13.6 1.4-6.1 5.9-27.2 10-46.7 4.1-19.5 12.7-60.5 19-91 6.3-30.5 11.4-56.4 11.2-57.5-0.3-1.7-1.4-2.1-7.8-2.7-4.1-0.4-35-1-68.6-1.3-33.6-0.3-61.2-0.3-61.5-0.1zm380.7 0.7c-0.2 0.8-3 12.7-6 26.4-3.1 13.8-9.2 42.1-13.6 63-4.4 20.9-10.1 47.4-12.6 59-2.5 11.6-6.1 27.3-8 35-1.9 7.7-3.8 17.2-4.2 21.2l-0.7 7.2c5.8 2.4 11 3.4 15.2 3.7 4.9 0.4 9.2 0.3 11.5-0.5 2.1-0.6 4.7-2.3 5.9-3.8 1.1-1.6 2.7-5 3.5-7.8 0.8-2.7 4.2-17.6 7.5-33 3.4-15.4 11.2-53.2 17.3-84l11.3-56c94.6 0 101.5 0.2 102.4 1.5 0.6 0.9 0.7 4.3 0.4 8.5-0.4 3.8-1.7 12.2-3 18.5-1.3 6.3-6.3 29.3-11 51-4.7 21.7-10.1 47.2-12 56.5-1.8 9.3-4.1 21.7-5 27.5-0.9 5.8-1.5 12.3-1.3 14.5 0.2 3.3 0.8 4.2 3.3 5.5 1.9 0.9 5.9 1.4 11 1.4 5.9 0 9-0.6 11.8-2 3.2-1.6 4-2.7 5.2-6.9 0.8-2.7 4.1-16.7 7.4-31 3.3-14.3 10.2-46 15.5-70.5 5.2-24.5 11.3-53.7 13.5-65 2.2-11.3 4.5-24.2 5.3-28.7 0.7-4.5 0.9-8.5 0.4-9-0.4-0.4-4-1.2-8-1.6-3.9-0.4-42.1-1-84.8-1.3-64.8-0.5-77.7-0.4-78.2 0.7zm2431.4 0c-10.2 0.4-20.8 1-23.5 1.4-2.8 0.4-6.2 1.3-7.8 2.1-1.5 0.8-2.7 1.5-2.7 1.7 0 0.1-3.8 18.9-8.4 41.7-4.7 22.8-10.3 49.6-12.5 59.5-2.2 9.9-5.8 26.3-8.1 36.5-2.3 10.2-5.9 27.3-8.1 38-2.1 10.7-3.9 22.1-3.9 25.3 0 5.6 0.1 5.7 3.2 6.7 1.8 0.6 9.1 1 16.3 1h13c13.1-60.8 18.8-87.3 21.1-98 2.3-10.7 7.2-33.2 10.8-50 3.6-16.8 6.6-31.3 6.6-32.3 0-0.9 1.2-2.2 2.7-2.9 1.9-0.8 15.4-1.2 43.3-1.4 22.3-0.2 43.7 0 47.7 0.4 3.9 0.4 7.7 1.1 8.3 1.7 0.8 0.7 0.7 3.8-0.5 12-0.9 6.1-2.5 14.8-3.6 19.5-1 4.7-5.7 26.5-10.3 48.5-4.7 22-10.1 48.3-12 58.5-1.9 10.2-4.2 23.7-5.1 30-1 7-1.2 11.9-0.7 12.5 0.5 0.6 3.1 1.6 5.8 2.4 3 0.9 7.2 1.2 10.9 0.9 3.3-0.2 7.5-1.3 9.3-2.4 1.8-1 3.9-3.2 4.7-4.9 0.8-1.7 3.4-11.3 5.9-21.5 2.5-10.2 7.2-31.1 10.5-46.5 3.3-15.4 9.2-43.3 13.1-62 3.9-18.7 9.1-43.7 11.7-55.5 2.5-11.8 4.7-22.1 4.9-22.8 0.3-0.9-12.4-1.2-61.9-1-34.2 0.1-70.5 0.5-80.7 0.9zm793.9-0.3c-2.5 0.4-5.3 1.4-6.3 2.2-0.9 0.9-2.7 6-4.1 12-1.3 5.8-5.3 24.2-8.9 41-3.6 16.8-9 42.2-12 56.5-3.1 14.3-6.7 31.6-8.1 38.5-1.4 6.9-4.1 21.1-6 31.5-2 10.4-3.5 21-3.5 23.5 0 2.5 0.5 5.3 1.2 6.3 0.7 1 3.1 2.2 5.3 2.7 2.2 0.5 6.7 1 10 1 3.3 0 7.1-0.6 8.4-1.3 1.3-0.6 3.2-2.3 4.3-3.7 1-1.4 3-6.6 4.3-11.5 1.4-4.9 4.3-16.9 6.6-26.5 2.2-9.6 5.6-25.2 7.4-34.5 1.9-9.3 3.7-18.1 4.1-19.5l0.6-2.5c67.6 1.2 90.2 1.8 93.8 2.1 3.6 0.3 7.5 0.7 8.7 0.9 2 0.4 2.3 1.1 2.3 4.7 0 2.4-0.9 9.2-1.9 15.3-1.1 6.1-2.7 14.4-3.6 18.5-0.9 4.1-2.7 13.1-4 20-1.3 6.9-3 17-3.9 22.5-0.8 5.5-1.2 11-0.8 12.3 0.5 1.4 1.8 2.5 3.7 2.9 1.6 0.3 6.6 0.6 11 0.5 4.4-0.1 9.3-0.6 11-1.1 1.6-0.6 3.8-1.8 4.7-2.8 0.9-1 2.4-3.8 3.3-6.3 0.9-2.5 3.8-14.6 6.6-27 2.7-12.4 6.6-29.9 8.5-39 1.9-9.1 7.3-34.9 11.9-57.5 4.6-22.6 10.2-49.6 12.5-60 2.2-10.4 4.3-19.9 4.7-21 0.6-2 0.3-2-12.8-1.2-7.4 0.4-15.2 1.2-17.4 1.7-2.2 0.6-4.6 1.6-5.3 2.3-0.7 0.6-1.8 3-2.4 5.2-0.5 2.2-3.9 18.2-7.4 35.5-3.5 17.3-6.4 32.5-6.4 33.7 0 1.3-0.3 2.5-0.8 2.7-0.4 0.3-2.5 0.8-4.7 1.1-2.2 0.3-26.6 0.9-54.3 1.3-44.3 0.6-50.2 0.5-50.2-0.8 0-0.8 1.7-9.2 3.9-18.5 2.2-9.3 4.8-21.5 6-27 1.1-5.5 2.5-13.5 3.1-17.8 0.5-4.2 1-10 1-12.7 0-2.8-0.3-5.2-0.8-5.4-0.4-0.2-4.7-0.6-9.7-0.9-5-0.3-11.1-0.2-13.6 0.1z"/>
		<path id="Path 3" class="s0" d="m5414 1183.7c-1.9 0.2-8 0.8-13.5 1.4-5.5 0.5-13.8 1.7-18.5 2.5-4.7 0.9-11 2.3-14 3.1-3 0.9-10.4 3.6-16.5 6-6.1 2.4-15.3 6.7-20.5 9.5-5.2 2.7-14 8.2-19.5 12.1-5.5 4-13.8 10.4-18.5 14.3-4.7 4-11.5 10.3-15.2 14-3.7 3.8-10.2 11.2-14.4 16.4-4.2 5.2-11.2 14.9-15.6 21.5-4.4 6.6-11.9 19.9-16.8 29.5-4.8 9.6-10.8 22-13.3 27.5-2.4 5.5-6.1 14.5-8.2 20-2 5.5-4.6 13.6-5.7 18-1.8 7.3-1.8 8.1-0.3 9.5 1.3 1.3 7.9 1.5 46.3 1.5 24.6 0 53.7-0.3 64.7-0.7 11-0.5 25.9-1.2 33-1.8 7.1-0.6 19.1-1.7 26.5-2.6 7.4-0.9 19.1-2.6 26-4 6.9-1.3 19-4.1 27-6.3 8-2.2 19.2-5.6 25-7.6 5.8-2 15.2-6.2 21-9.2 5.8-3.1 13.6-7.6 17.5-10.1 3.9-2.4 9.4-6.5 12.4-9.1 3-2.5 8.2-8 11.5-12.2 3.4-4.3 8-11.2 10.3-15.5 2.3-4.4 5.8-12.4 7.6-17.9 1.9-5.5 4-13.4 4.7-17.5 1-6.3 1-9-0.3-17-0.9-5.2-2.7-12.7-4-16.5-1.2-3.8-3.4-9-4.9-11.5-1.4-2.5-5.1-7.7-8.1-11.5-3-3.8-8.2-9.1-11.4-11.6-3.2-2.5-8.2-6-11.1-7.7-2.8-1.8-8.5-4.7-12.5-6.5-3.9-1.9-8.8-3.9-10.7-4.5-1.9-0.6-7.1-1.8-11.5-2.6-4.4-0.9-12.9-2-19-2.6-6.1-0.5-14.4-0.9-18.5-0.8-4.1 0-9.1 0.3-11 0.5zm2466 19.4c-4.1 0.4-11.6 2-16.5 3.4-4.9 1.4-14.2 4.7-20.5 7.2-6.3 2.5-15 6.3-19.3 8.4-4.2 2.2-12.1 6.9-17.4 10.5-5.4 3.7-13.2 9.4-17.3 12.8-4.1 3.3-11.7 10.1-16.9 15.1-5.2 4.9-14.1 14.6-19.9 21.5-5.7 6.9-13.5 16.8-17.2 22-3.7 5.2-8.2 12-10 15-1.8 3-6.7 12.2-10.9 20.5-4.2 8.2-10.9 22-14.8 30.5-3.9 8.5-8.8 20-10.8 25.5-2.1 5.5-5.5 15.4-7.7 22-2.2 6.6-5.5 17.4-7.3 24-1.8 6.6-4.9 19.2-6.9 28-1.9 8.8-4.6 23-5.9 31.5-1.4 8.5-2.8 18-3.1 21-0.3 3-1.1 10.9-1.6 17.5-0.6 6.6-1.2 25.3-1.4 41.5-0.3 16.2-0.1 34.7 0.4 41 0.4 6.3 1.1 14.7 1.5 18.5 0.4 3.8 1.3 10.4 2.2 14.5 0.8 4.1 3.2 12.9 5.4 19.5 2.2 6.6 5.2 14.2 6.5 17 1.4 2.7 5.1 8.4 8.1 12.5 3.1 4.1 9.5 11.3 14.2 16 4.7 4.7 12.9 11.4 18.1 14.9 5.2 3.5 12.4 7.8 16 9.6 3.6 1.8 10.3 4.4 15 5.8 4.7 1.5 13.2 3.6 19 4.8 8.8 1.9 13.8 2.3 30.5 2.3 11 0.1 23.4-0.2 27.5-0.6 4.1-0.4 10.9-1.2 15-1.8 4.1-0.6 11.8-2.2 17-3.5 5.2-1.3 13.8-3.8 19-5.5 5.2-1.7 13.1-4.9 17.5-7.1 4.4-2.2 12.1-6.8 17-10.4 4.9-3.5 13.4-10.2 18.9-14.7 5.4-4.6 15.1-13.7 21.5-20.3 6.4-6.7 16.1-17.7 21.7-24.5 5.5-6.9 13-16.8 16.7-22 3.6-5.2 9.1-14 12.2-19.5 3.2-5.5 8.5-15.8 12-23 3.4-7.2 8.3-18.2 10.8-24.5 2.5-6.3 7-18.9 10.2-28 3.1-9.1 7.1-21.7 8.9-28 1.9-6.3 5-18.5 7-27 1.9-8.5 4.7-22 6.1-30 1.4-8 3.2-21 4-29 0.8-8 1.9-20.8 2.5-28.5 0.6-7.7 1.1-26.2 1.1-41 0.1-14.8-0.2-31.7-0.6-37.5-0.3-5.8-1.3-15.2-2.1-21-0.8-5.8-2.3-13.4-3.3-17-1.1-3.6-2.7-8.5-3.6-11-0.9-2.5-3.9-9-6.6-14.5-2.8-5.5-7-12.9-9.4-16.5-2.4-3.6-7.9-9.9-12.2-14.1-4.3-4.2-10.3-9.2-13.3-11.1-3-2-10-5.8-15.5-8.5-5.5-2.8-13.1-6.2-17-7.6-3.9-1.3-10.6-3.2-15-4.1-4.4-0.9-13.2-2-19.5-2.6-6.3-0.5-20.7-0.9-32-0.9-11.3 0.1-23.9 0.5-28 1zm-1571.5 13.3c-4.4 0.7-10.7 2.1-14 2.9-3.3 0.9-10.1 3-15 4.7-4.9 1.8-13.1 5.3-18 7.9-4.9 2.6-15.3 8.7-23 13.6-7.7 4.8-18.5 12.2-24 16.4-5.5 4.1-17.2 14.8-26.1 23.6-9.2 9.1-21.5 22.9-28.8 32-7 8.8-16 20.9-20 27-4 6-10.2 15.9-13.8 22-3.6 6-10.3 18.2-15 27-4.7 8.8-10.7 20.7-13.3 26.5-2.6 5.8-7.1 16.6-10 24-2.9 7.4-7.1 19.1-9.3 26-2.2 6.9-5.4 17.7-7.1 24-1.6 6.3-7.7 32.9-13.5 59-5.7 26.1-12.6 57.3-15.3 69.2l-4.8 21.6c6.9 9.9 12.8 17.9 17.6 24.2 4.8 6.3 12.2 15.5 16.6 20.5 4.4 4.9 11.5 11.9 15.9 15.5 4.3 3.6 12.8 9.8 18.9 13.8 6 4.1 16.9 10.2 24 13.7 7.1 3.5 16.1 7.3 20 8.4 3.9 1.2 9.9 2.5 13.5 3.1 3.6 0.5 19.3 0.8 35 0.6 22.2-0.3 30.2-0.8 36-2.1 4.1-0.9 11.1-3.1 15.5-4.8 4.4-1.8 12.5-5.9 18-9.2 5.5-3.3 14.5-9.4 20-13.5 5.5-4.1 14.4-11.7 19.9-17 5.4-5.2 13.4-13.8 17.8-19 4.4-5.2 11.1-13.8 14.8-19 3.8-5.2 9.5-14.2 12.8-20 3.2-5.8 9.1-16.8 13-24.5 3.8-7.7 9.2-19.4 12-26 2.8-6.6 7.1-18.1 9.7-25.5 2.5-7.4 6.9-20.9 9.6-30 2.8-9.1 7.7-27.1 10.9-40 3.3-12.9 6.8-28 7.9-33.5 1.1-5.5 2.4-13.6 3-18 0.6-4.4 1.3-12.1 1.6-17 0.4-5 0.7-34.7 0.8-66 0.2-43.4-0.1-58.8-1.1-64.5-0.7-4.1-2.3-10.4-3.4-14-1.2-3.6-3.9-10.1-6.1-14.5-2.2-4.4-6-11.2-8.4-15-2.5-3.8-6.6-9.4-9.2-12.4-2.5-2.9-8-7.6-12.1-10.3-4.3-2.8-10.3-5.7-14-6.8-3.6-1-9.9-2.6-14-3.6-4.8-1.1-12.9-1.8-22.5-2-9.3-0.2-18 0.2-23 1zm2999 1033.3c-4.4 1.6-10.2 4.2-13 5.7-2.7 1.6-7.5 4.8-10.5 7.1-3 2.3-8.8 7.8-12.8 12.1-5.8 6.3-8.5 10.2-12.7 18.9-2.9 6.1-6.7 15.1-8.4 20-1.6 4.9-3.7 13.3-4.6 18.5-0.8 5.2-1.5 12.3-1.5 15.7 0 3.5 0.7 9.8 1.6 14 0.9 4.3 3.2 11.4 5.3 15.8 2.3 4.9 5.9 10.3 9.2 13.9 3 3.2 7.4 7.3 9.9 8.9 2.5 1.7 7 3.9 10 5 3 1 8.9 2.2 13 2.7 4.1 0.4 11.5 0.4 16.5-0.1 5-0.4 11.7-1.6 15-2.6 3.3-1.1 8.7-3.7 11.9-5.9 3.3-2.1 9.2-6.9 13-10.5 3.9-3.6 9.4-9.9 12.2-14 2.9-4.1 7.2-11.5 9.7-16.4 2.5-4.9 5.4-11.9 6.5-15.5 1.1-3.6 2.8-11.4 3.7-17.5 1.2-7.6 1.6-14 1.2-20.5-0.3-5.2-1.3-12.9-2.2-17-1-4.1-3-10-4.6-13-1.6-3-5.3-8.1-8.2-11.4-2.8-3.2-7.2-6.9-9.7-8.1-2.5-1.3-8.3-3.5-13-5-6.4-2.1-11.2-2.9-19-3.2-9.6-0.4-11.2-0.1-18.5 2.4zm-2712.5 0.1c-3 1-9.1 3.7-13.5 6.1-4.4 2.4-9.7 5.7-11.8 7.4-2.1 1.7-7.4 7.4-11.8 12.7-6 7.1-9.5 12.5-13.9 21.5-3.2 6.6-7 15.4-8.5 19.5-1.4 4.1-3.3 11.6-4.2 16.5-0.9 4.9-1.6 13.7-1.6 19.5 0.1 7.9 0.6 12.1 2.2 17 1.1 3.6 3.7 9.4 5.8 12.9 2.1 3.5 6.1 8.7 8.8 11.6 2.8 2.8 7.5 6.4 10.5 8 3 1.5 8.6 3.3 12.5 4 3.9 0.7 12.6 1.4 19.5 1.5 8.8 0 14-0.4 17.5-1.5 2.8-0.8 7.3-3 10-4.7 2.8-1.7 8.1-5.7 11.9-8.7 3.8-3.1 9.8-9.2 13.3-13.6 3.5-4.4 8.4-11.2 10.8-15 2.5-3.8 6.1-11.1 8.1-16 2-4.9 4.5-13.5 5.5-19 1.2-6.8 1.7-14.8 1.7-25 0-8.3-0.6-17.7-1.3-21-0.7-3.3-2.2-8-3.4-10.5-1.1-2.5-4.4-7.1-7.3-10.4-2.9-3.2-7-6.7-9-7.7-2.1-1.1-7.1-2.8-11-4-5.3-1.5-11.2-2.2-21.3-2.5-11.6-0.4-14.9-0.1-19.5 1.4zm1655 80.4c-3 0.5-12.2 2.2-20.5 3.8-8.2 1.6-20.4 3.6-27 4.5-6.6 0.9-14.5 2.3-17.5 3-3 0.8-8 2.4-11 3.7-3 1.2-8.2 3.9-11.5 5.9-3.3 2-7.7 5.5-9.7 7.8-2.1 2.3-4.2 5.8-4.8 7.8-0.5 2.1-1.2 7.2-1.6 11.3-0.4 5.5-0.2 8.6 0.9 11.5 0.9 2.2 3.7 5.9 6.4 8.4 2.6 2.3 7.1 5.5 9.8 7 4.8 2.5 5.6 2.6 21 2.6 11.6 0 18.1-0.5 23.5-1.8 4.1-0.9 10.2-3 13.5-4.6 3.8-1.8 8-5 11.6-8.7 3-3.2 7.3-8.6 9.6-11.9 2.2-3.3 5.7-9.8 7.8-14.5 2.1-4.7 5.1-12.3 6.7-17 1.5-4.7 3-10.3 3.3-12.5 0.3-2.2 0.2-4.5-0.2-5.1-0.4-0.6-1.7-1.4-2.8-1.6-1.1-0.3-4.5-0.1-7.5 0.4zm2400 0c-3 0.5-12.3 2.2-20.5 3.8-8.3 1.6-20.4 3.6-27 4.5-6.6 0.9-14.5 2.3-17.5 3-3 0.8-8 2.4-11 3.7-3 1.2-8.2 3.9-11.5 5.9-3.3 2-7.7 5.5-9.8 7.8-2 2.3-4.1 5.8-4.7 7.8-0.5 2.1-1.2 7.2-1.6 11.3-0.4 5.5-0.2 8.6 0.9 11.5 0.9 2.2 3.7 5.9 6.4 8.4 2.6 2.3 7.1 5.5 9.8 7 4.8 2.5 5.6 2.6 21 2.6 11.6 0 18.1-0.5 23.5-1.8 4.1-0.9 10.2-3 13.5-4.6 3.8-1.8 8-5 11.6-8.7 3-3.2 7.4-8.6 9.6-11.9 2.2-3.3 5.2-8.5 6.6-11.5 1.4-3 3.7-8.4 5.1-12 1.5-3.6 3.6-9.9 4.6-14 1.1-4.1 2-8.3 2-9.3 0-0.9-1-2.4-2.2-3.2-1.3-0.8-2.5-1.5-2.8-1.4-0.3 0.1-3 0.6-6 1.1z"/>
	</g>
</svg>