<svg version="1.2" xmlns="http://www.w3.org/2000/svg" viewBox="0 0 8333 1763" width="8333" height="1763">
	<title>energomixlogo</title>
	<style>
		.s0 { fill: #fffeff } 
		.s1 { fill: #ffba00 } 
		.s2 { fill: #4a4a4c } 
	</style>
	<g id="Background">
		<path id="Path 0" class="s0" d="m0 881.5v881.5h8333v-1763h-8333z"/>
		<path id="Path 1" class="s1" d="m6433 155c-5.2 0.5-14.2 1.8-20 3-5.8 1.2-15.2 3.7-21 5.6-5.8 1.9-15.7 6-22 9-6.3 3.1-15.3 8.1-20 11.1-4.7 3.1-12.3 8.6-17 12.3-4.7 3.7-13 11.4-18.6 17.1-5.5 5.7-13.2 14.7-17.1 19.9-3.9 5.2-9.7 13.6-12.8 18.5-3.1 4.9-8.3 14.4-11.5 21-3.2 6.6-7.4 16.3-9.3 21.5-2 5.2-4.7 13.6-6.2 18.5-1.4 4.9-3.7 13.9-5 20-1.3 6.1-3.1 16.6-3.9 23.5-0.8 6.9-1.8 18.4-2.1 25.5-0.4 7.1-0.2 19.1 0.4 26.5 0.6 7.4 1.8 17.6 2.6 22.5 0.9 4.9 2.9 13.8 4.5 19.8 1.7 5.9 4.7 14.6 6.8 19.4 2 4.9 5.6 12.2 8 16.3 2.3 4.1 6.3 10.2 8.7 13.5 2.5 3.3 8.2 9.8 12.8 14.3 4.5 4.6 12.5 11.2 17.7 14.7 5.2 3.5 12.9 7.9 17 9.8 4.1 1.9 10.9 4.6 15 6 4.1 1.3 11.1 3.2 15.5 4.1 4.4 0.9 12.1 2 17 2.6 4.9 0.5 13.1 1 18 1 4.9 0 13.3-0.5 18.5-1 5.2-0.6 13.1-1.7 17.5-2.6 4.4-0.9 12.7-3.2 18.5-5.1 5.8-1.9 15.4-6 21.5-9.1 6.1-3.1 14.4-8.1 18.5-11.1 4.1-2.9 11-8.2 15.3-11.7l7.7-6.4c-25-37.6-32.5-48.9-32.9-49.3-0.3-0.5-3.5 1.4-7.1 4-3.6 2.7-9.6 6.7-13.5 9-3.9 2.2-9.9 5.2-13.5 6.6-3.6 1.4-9 3.3-12 4.1-3 0.9-9.8 2-15 2.4-5.2 0.5-13.7 0.5-18.7 0-5.1-0.4-12.8-1.9-17-3.2-4.6-1.5-10.9-4.5-15.3-7.4-4.1-2.7-9.2-6.8-11.2-9.1-2.1-2.2-5.6-6.9-7.8-10.4-2.3-3.4-5.4-9.6-7-13.7-1.5-4.1-3.8-12-5-17.5-1.6-7.4-2.3-14.9-2.7-29-0.4-14.3-0.1-22.1 1.1-31.5 0.9-6.9 2.6-16.3 3.7-21 1.1-4.7 3.1-12.1 4.5-16.5 1.4-4.4 4.6-12.9 7.2-19 2.5-6.1 7.1-15.1 10.1-20 3-4.9 7.4-11.7 9.9-15 2.5-3.3 8-9.5 12.1-13.8 4.2-4.3 10.5-10 14.1-12.6 3.6-2.6 9-6.2 12-7.9 3-1.7 9.8-4.5 15-6.4 9.1-3.1 10.2-3.2 24.5-3.3 11.4 0 16.6 0.4 21.5 1.8 3.6 1 9.2 3 12.5 4.6 3.3 1.5 8.9 5 12.4 7.7 3.5 2.7 8.5 7.5 11 10.6l4.6 5.6c38-39.1 43.3-45.2 42.9-46.6-0.3-0.9-2.3-4.2-4.3-7.2-2.1-3-6.3-8.2-9.3-11.5-3-3.3-8.8-8.5-12.9-11.7-4.1-3.1-10.3-7.2-13.9-9.2-3.6-1.9-10.2-4.9-14.7-6.6-4.6-1.6-12.7-3.9-18-4.9-5.4-1.1-15-2.2-21.3-2.5-6.3-0.2-15.8-0.1-21 0.4zm-1168.5 13.7c-1.6 4.3-8.9 24-16.3 43.8-7.3 19.8-19.5 51.5-26.9 70.5-7.5 19-21 52.3-30 74-9 21.7-20.9 48.7-26.4 60-5.5 11.3-12.9 24.8-16.3 30-3.5 5.2-8.7 11.6-11.5 14.3-2.8 2.6-7.2 5.7-9.8 6.9-3.6 1.6-6.7 2.2-12.3 2.3-4.1 0-9.7-0.4-12.5-0.8l-5-0.9c-19.2 57.9-24.9 75.3-25.1 76-0.3 0.7 1.6 1.8 4.9 2.7 2.8 0.8 8.3 1.9 12.2 2.5 3.9 0.7 13.3 1.1 21 1.1 9.6 0 16.8-0.7 23-2 4.9-1 12.6-3.3 17-5.2 4.4-1.8 11.1-5.4 15-7.9 3.9-2.5 10.3-7.7 14.4-11.6 4-3.8 10.1-10.3 13.4-14.4 3.3-4.1 9.5-12.7 13.6-19 4.2-6.4 10.8-17.6 14.8-25 4-7.4 11.1-22.1 15.9-32.5 4.7-10.4 17.3-40.8 27.9-67.5 10.6-26.7 23.2-58.6 27.9-71 4.7-12.4 12.1-32.2 16.4-44l7.8-21.5 66.4-0.5c-0.8 5-15.1 76-32.3 161l-31.4 154.5c62.2 0.4 80.5 0.1 80.8-0.3 0.3-0.4 17.6-85.8 38.3-189.7 20.8-104 37.9-190 38.2-191.3l0.4-2.2h-210.8zm308.1-6.5c-0.3 0.7-17.4 86.1-38.1 189.8-20.7 103.6-37.8 189.5-38 190.7l-0.4 2.3h233c1.5-8.2 4.4-23.3 7.4-38.8 3.1-15.5 5.6-28.5 5.6-28.8 0-0.2-34.2-0.5-76-0.5-71.8 0-76 0-76-1.7 0-1 4.4-22.7 9.8-48.3l9.7-46.5 125.5-0.5c9.4-49.2 12.3-64.5 12.5-65.7l0.5-2.3c-96.9 0-125-0.3-125-0.7 0-0.4 3.3-18.1 7.4-39.3 4.2-21.1 7.8-39.5 8-40.7l0.6-2.3 147.5 0.1c9.8-50 12.8-65.3 13-66.3 0.4-1.7-5.5-1.8-113.1-1.8-89.9 0-113.6 0.3-113.9 1.3zm272.9 0c-0.2 0.7-3.3 15.9-6.7 33.7l-6.3 32.5c77.9 0.4 100.6 0.8 100.6 1 0 0.3-8.8 45-19.6 99.3-10.7 54.3-24.7 124.7-31 156.5-6.3 31.8-11.4 58.2-11.4 58.7 0 0.7 14 1 40 1 22 0 40-0.1 40-0.2 0.1-0.1 14.1-71.1 31.3-157.8l31.2-157.4 101-0.5c9.9-50.8 12.9-66.1 13.1-66.8 0.3-1-28.3-1.2-140.7-1.2-111.9 0-141.1 0.2-141.5 1.2zm913.2-0.1c-0.3 0.7-17.5 86.2-38.2 189.8-20.7 103.7-37.8 189.6-38 190.8l-0.4 2.2c117.5 0 155.7-0.4 162.5-1 6.6-0.5 17.6-1.9 24.5-3.1 6.8-1.1 17-3.3 22.5-4.9 5.5-1.5 14.5-4.7 20-7 5.5-2.3 13.5-6.2 17.8-8.8 4.4-2.6 11.5-7.6 15.9-11.2 4.5-3.5 11.2-10.3 15-15 4.4-5.3 8.9-12.5 12.3-19.5 3.1-6.2 6.5-15 7.9-20.5 1.3-5.2 2.9-14.4 3.6-20.5 0.7-6.2 0.9-14.6 0.5-19.5-0.3-4.6-1.3-11.2-2.2-14.5-0.8-3.3-3-8.9-4.8-12.5-1.8-3.5-5.1-8.6-7.2-11.1-2.1-2.6-6.8-7-10.3-9.9-3.6-2.9-9.9-6.9-14-8.9-4.2-2.1-10.2-4.7-13.5-5.9-3.3-1.1-8-2.5-10.3-3.1-2.3-0.6-4.1-1.5-4-2.1 0.1-0.7 4.5-2.7 9.8-4.6 5.2-1.9 13.5-5.6 18.5-8.2 4.9-2.5 12.3-7.1 16.5-10.2 4.1-3.1 10.8-9.2 15-13.6 4.1-4.4 9.6-11.6 12.2-16 2.6-4.3 6.1-11.7 7.7-16.4 1.6-4.6 3.5-12.5 4.1-17.5 0.7-5.4 0.9-12.3 0.5-17.5-0.4-4.6-1.6-11.8-2.7-16-1-4.1-3.2-10.2-4.7-13.5-1.6-3.3-5.1-8.8-7.7-12.4-2.7-3.5-7.9-8.8-11.4-11.6-3.6-2.9-9.9-7.1-14-9.3-4.2-2.2-10.7-5.2-14.5-6.7-3.9-1.4-11.3-3.7-16.5-5-5.3-1.3-14.7-3.1-21-4-9.6-1.4-23.4-1.8-81.2-2.2-57.8-0.4-69.8-0.2-70.2 0.9zm321.3 189.1c-55.1 104.6-100.6 191-101.1 192-0.8 1.7 1.6 1.7 43.3 1.5l44.1-0.3 45.3-96 114-0.5c1.1 12.8 2.1 33.7 3 54.5 0.9 20.9 1.8 39.1 2 40.3l0.5 2.2h84c-0.8-6.5-9.3-91.5-19.5-193-10.2-101.4-18.8-185.9-19.1-187.7l-0.4-3.3h-95.8zm350.6-189c-0.3 0.7-17.4 86.1-38.1 189.8-20.7 103.7-37.8 189.5-38 190.7l-0.5 2.3h74.5c25.2-124.4 33.4-165.9 34.5-172.5 1.1-6.6 3.2-21.5 4.5-33 1.4-11.6 3.5-33.6 4.7-49 1.1-15.4 2.5-28.5 3-29 0.4-0.6 1-0.8 1.2-0.5 0.3 0.3 3.2 21.2 6.6 46.5 4.3 32.4 10.1 68.7 19.6 122.5 7.5 42.1 13.7 77.3 14 78.2 0.4 1.6 1.9 1.8 16.7 1.5l16.2-0.2c70.6-124.3 101.4-180.2 114-204.5 12.7-24.2 23.6-44 24.3-44 0.7 0 1.1 0.6 0.9 1.2-0.3 0.7-2.7 8.5-5.5 17.3-2.8 8.8-7.8 25.7-11.2 37.5-3.3 11.8-8.5 31.4-11.5 43.5-2.9 12.1-12.8 57.8-21.9 101.5-9.1 43.7-16.8 80.3-17.1 81.2-0.4 1.7 1.8 1.8 37.5 1.8 20.9 0 38-0.1 38-0.3 0-0.1 17.1-85.7 38-190.2 20.9-104.5 38-190.8 38-191.8 0-1.6-2.7-1.7-42.7-1.7l-42.8-0.1c-79.7 146.2-109.3 201.4-117.2 217.1-8.3 16.7-14.9 28.6-15.7 28.7-0.9 0.2-1.6 0-1.6-0.5 0-0.4-1.1-9-2.5-19.2-1.4-10.2-9.5-64-18-119.5-8.5-55.6-15.7-102.2-16-103.8l-0.5-2.7c-75.6 0-85.1 0.3-85.4 1.2zm434.9 0c-0.2 0.7-17.3 86.1-38 189.8-20.7 103.7-37.8 189.5-38 190.7l-0.5 2.3 88.5 0.1c110.2-157 148.2-211.8 155.6-223.1 7.3-11.3 16.5-25.7 20.4-32 4-6.3 9.9-15.9 13.1-21.3 3.3-5.4 6.3-9.8 6.7-9.7 0.4 0 0.7 0.4 0.7 1 0 0.5-4 14.4-8.9 30.7-4.8 16.4-11.1 38.1-13.9 48.3-2.8 10.2-6.5 24.3-8.2 31.5-1.7 7.1-10.3 48.8-19 92.5-8.8 43.7-16 80.1-16 80.7 0 1 8.4 1.3 38.5 1.3 21.2 0 38.5-0.3 38.5-0.8 0-0.4 17.1-86 38-190.2 21-104.2 38-190.3 38-191.3-0.1-1.6-2.8-1.7-44.2-1.5l-44.1 0.3c-108.2 154.2-147 210.2-155.9 224-8.9 13.7-21.1 33.1-27.1 43-6 9.9-11 18.1-11 18.3-0.1 0.2-0.7 0.2-1.3 0-0.7-0.2 0.2-4.7 2.8-13.3 2.2-7.2 7.3-24.7 11.5-39 4.1-14.3 10.1-36.6 13.4-49.5 3.2-12.9 13.1-59.5 21.9-103.5 8.8-44 16-80.1 16-80.3 0-0.1-17.3-0.2-38.5-0.2-29.9 0-38.6 0.3-39 1.2zm-3330 2.9c-3.8 0.5-10.8 1.9-15.5 3-4.6 1.2-11.7 3.4-15.7 5-4 1.6-10.4 4.5-14.3 6.4-3.8 1.9-10 5.4-13.7 7.6-3.7 2.3-11.7 7.9-17.8 12.4-6 4.6-12 9.3-13.3 10.6l-2.3 2.4 36.6 45.3c10.1-8.2 16.9-13.1 21.5-16.1 4.7-3.1 11.1-6.7 14.3-8.1 3.2-1.4 8.6-3.3 12-4.1 3.4-0.8 9.6-1.5 13.7-1.5 4.2 0 10.1 0.7 13.3 1.5 3.2 0.8 7.7 2.5 10 3.7 2.3 1.2 6.3 4 8.7 6.3 2.5 2.4 5.8 6.7 7.3 9.6 1.5 3 3.4 8.5 4.2 12.4 0.8 3.8 1.5 9 1.5 11.5 0 2.5-0.4 7.4-1 11-0.5 3.6-2.2 10.1-3.6 14.5-1.4 4.4-4.3 11.4-6.4 15.5-2 4.1-6.4 11.5-9.8 16.5-3.3 4.9-8.9 12.6-12.5 17-3.5 4.4-12 13.8-18.8 20.9-6.8 7.1-18.7 18.6-26.4 25.6-7.7 6.9-20.3 18-28 24.5-7.7 6.5-27.3 22.5-43.5 35.4-16.3 13-34.5 27.4-40.5 32.1l-11 8.6c-7.3 37.1-9.4 48.5-9.4 49.1-0.1 1 25.6 1.3 124.9 1.3h125c0.8-3.5 3.7-18.6 7-35.8 3.3-17.1 6-31.5 6-32 0-0.4-21.9-0.4-48.7 0-31.1 0.4-54.6 1.2-64.8 2.2-8.8 0.9-17.4 1.6-19.2 1.6-3 0-1.2-1.7 21.5-21.3 13.6-11.6 29.9-25.9 36.2-31.7 6.4-5.7 17.1-15.9 23.9-22.5 6.8-6.6 16.9-17.1 22.5-23.4 5.6-6.2 12.8-14.8 16-19 3.3-4.2 8.8-11.9 12.2-17.1 3.5-5.2 8.8-14.7 11.8-21 3-6.3 6.6-14.9 8-19 1.4-4.1 3.3-11.3 4.3-16 1.4-6.3 1.8-12.9 1.8-25.5 0-14.6-0.3-18.3-2.3-26-1.3-5-4-12.6-6.1-17-2-4.4-5.3-10.5-7.4-13.5-2-3-6.5-8.4-9.9-11.9-3.5-3.5-9-8.2-12.3-10.6-3.3-2.4-9.3-6-13.5-8.1-4.1-2-10.6-4.8-14.5-6.1-3.8-1.3-11.7-3.2-17.5-4.4-5.9-1.1-16.4-2.1-24-2.4-7.4-0.2-16.6 0-20.5 0.6zm351.5-0.4c-1.9 0.2-7.7 1-13 1.9-5.2 0.9-14.2 3.2-20 5-5.7 1.9-15 5.7-20.5 8.3-5.5 2.7-13.8 7.5-18.5 10.6-4.6 3.2-11.8 8.6-16 12-4.1 3.4-11.3 10.2-16 15.1-4.6 4.9-11.7 13.2-15.6 18.4-3.9 5.2-9.7 13.8-12.9 19-3.2 5.2-8.8 15.8-12.6 23.5-3.7 7.7-8.7 19.6-11.2 26.5-2.4 6.9-6 18.8-8 26.5-2 7.7-4.5 19.2-5.6 25.5-1.1 6.3-2.6 16.2-3.3 22-0.7 6.1-1.3 21.4-1.3 36.5 0 23.3 0.3 27.2 2.4 37.5 1.3 6.3 3.7 15.5 5.3 20.5 1.6 4.9 5.3 13.5 8.1 19 2.9 5.5 7.1 12.5 9.3 15.5 2.3 3 6.1 7.7 8.6 10.5 2.5 2.7 7.9 7.6 11.9 10.7 4.1 3.1 10.8 7.5 14.9 9.7 4.2 2.2 11.6 5.3 16.5 7 5 1.6 14.2 3.7 20.5 4.6 8.2 1.3 14.8 1.6 23 1.2 6.4-0.3 15.1-1.3 19.5-2.2 4.4-0.9 11.4-2.8 15.5-4.2 4.2-1.4 11.6-4.6 16.5-7.1 5-2.6 13.3-7.9 18.5-11.8 5.3-3.9 12.8-10.7 16.8-15 4.1-4.3 10-11.7 13.2-16.4 3.2-4.7 8.1-13 10.9-18.5 2.7-5.5 6.4-14.3 8.1-19.5 1.7-5.2 4.1-14 5.3-19.5 1.7-8.1 2.1-13.5 2.1-28 0-14.5-0.4-19.8-2-27.5-1.2-5.2-3.5-13.1-5.2-17.5-1.7-4.4-5-10.9-7.3-14.5-2.3-3.6-6.7-9.1-9.8-12.4-3-3.2-8-7.5-11.1-9.6-3-2-7.7-4.9-10.5-6.2-2.7-1.4-8.6-3.7-13-5.1-4.4-1.4-12.2-3-17.5-3.7-5.6-0.8-13.3-1.1-19-0.7-5.2 0.3-12.8 1.6-17 2.7-4.1 1.2-12.4 4.5-18.5 7.5-6 2.9-14.1 7.5-18 10.3-3.8 2.8-8.7 6.6-10.9 8.4l-3.9 3.3c1.2-6.2 3.5-14.1 6-21.5 2.5-7.4 7.2-19.1 10.5-26 3.3-6.9 8.8-16.8 12.3-22 3.4-5.2 9.6-13.1 13.7-17.4 4-4.3 9.8-9.8 12.8-12.1 3.1-2.4 8.9-6.1 13-8.4 4.2-2.2 11.1-5 15.5-6.1 4.6-1.2 11.2-2 15.5-2 4.2 0 10.1 0.7 13.3 1.5 3.2 0.8 7.9 2.6 10.5 3.9 2.6 1.3 7.2 4.4 10.2 6.8 3.1 2.5 7.3 6.8 9.5 9.7 2.2 2.8 4.4 5.1 4.8 5.1 0.4 0 10.8-9.1 23.2-20.3l22.4-20.2c-6.5-9.3-12.4-16-17.4-21-4.9-5-12.6-11.5-17-14.3-4.4-2.9-11.1-6.6-15-8.2-3.8-1.6-9.7-3.6-13-4.4-3.3-0.9-9.6-2.1-14-2.6-4.4-0.6-11.1-0.9-15-0.8-3.8 0-8.5 0.3-10.5 0.5z"/>
		<path id="Path 2" fill-rule="evenodd" class="s2" d="m628.5 548c-8.3 0.4-22 1.8-30.5 2.9-8.5 1.2-22.9 3.5-32 5.2-9.1 1.6-23.7 4.7-32.5 6.9-8.8 2.1-22.3 6-30 8.6-7.7 2.5-20.5 7.2-28.5 10.4-8 3.2-19.2 7.9-25 10.5-5.8 2.6-14.3 6.6-19 9-4.7 2.3-14.1 7.5-21 11.5-6.9 4-18.4 11.1-25.5 15.8-7.1 4.6-19.8 13.5-28 19.7-8.3 6.2-17.9 13.8-21.5 17-3.6 3.2-13.2 12.1-21.4 19.9-8.2 7.7-20.4 20-27 27.1-6.7 7.2-16.5 18.2-22 24.5-5.4 6.3-13.9 16.9-18.9 23.5-4.9 6.6-14 19.6-20.2 29-6.2 9.4-14.6 23.1-18.8 30.5-4.2 7.4-11.6 21.8-16.5 32-4.9 10.2-10.5 22.5-12.5 27.5-2 5-4.3 11.7-5.2 15-0.8 3.3-1.6 9.6-1.6 14 0 4.4 0.3 9.4 0.7 11 0.4 1.6 1.7 5.1 3 7.8 1.3 2.6 5.4 7.7 9.1 11.3 4.3 4.1 9.2 7.8 13.3 9.8 6 2.9 7.2 3.1 16 2.9 6.6-0.1 11-0.7 14.5-2 2.7-1 7.1-3.3 9.7-5.1 2.7-1.8 6.5-5.6 8.7-8.5 2.1-2.8 5.2-7.9 6.8-11.2 1.7-3.3 5.6-12.1 8.6-19.5 3-7.4 7.9-18.7 10.7-25 2.9-6.3 8-16.9 11.3-23.5 3.4-6.6 11.8-20.5 18.9-31 7-10.5 15.2-22.1 18.3-26 3.1-3.9 9.6-11.5 14.5-17 4.8-5.5 16.4-17.4 25.7-26.5 9.2-9.1 23.8-22.2 32.4-29 8.6-6.9 20.7-15.9 27-20.1 6.3-4.2 17-10.9 23.9-14.9 6.9-4 17.2-9.6 23-12.5 5.8-2.9 17-7.8 25-11 8-3.2 21.7-8.1 30.5-11.1 8.8-2.9 23.2-7.1 32-9.4 8.8-2.2 21.4-5.2 28-6.5 6.6-1.4 18.5-3.2 26.5-4.2 11.5-1.3 23.2-1.7 56-1.7 27.5 0 44.9 0.5 51.5 1.3 5.5 0.7 15.9 2.4 23 3.7 7.1 1.4 20.2 4.3 29 6.6 8.8 2.2 23.2 6.4 32 9.3 8.8 2.9 21 7.4 27 10 6 2.6 17.2 7.8 24.8 11.6 7.5 3.8 18.8 9.9 25 13.6 6.1 3.6 16.4 10.1 22.7 14.3 6.3 4.3 17 11.8 23.8 16.9 6.7 5 17.5 13.7 24 19.4 6.4 5.7 17.7 16.6 25.1 24.3 7.3 7.6 17.5 18.9 22.6 24.9 5 6 13 16 17.6 22.2 4.6 6.1 12.3 17.4 17 25 4.8 7.6 12.6 21 17.4 29.8 4.8 8.8 10.8 18.9 13.2 22.5 2.4 3.6 5.9 7.5 7.6 8.7 2.2 1.5 5.9 2.5 11.7 3.2 4.7 0.6 22.9 1.6 40.5 2.1 17.6 0.5 38.5 1 46.5 1 8 0 15 0.4 15.7 0.8 0.9 0.5 1.3 10.8 1.7 38.7 0.3 20.9 0.8 68.6 1.1 106 0.3 37.4 0.8 99 1.1 137 0.7 65.8 0.8 69.1 2.6 71.5 1.1 1.4 5.1 5.8 9.1 9.9 5 5.1 9.1 8.3 13.2 10.2 3.4 1.6 9.3 3.2 13.8 3.8 4.5 0.7 26 1.1 51.5 1.1 24-0.1 53.2-0.5 64.7-1 11.5-0.5 23.3-1.3 26-1.9 3.6-0.7 6.4-2.3 10-5.4 2.7-2.4 6.4-6.6 8.2-9.3 2.1-3.3 3.5-7 4.2-11.4 0.5-3.6 1.2-10.5 1.5-15.5 0.3-5 0.8-15.5 1.1-23.5 0.2-8 0.9-75.5 1.5-150 0.6-74.5 1.3-141 1.5-147.8l0.5-12.2h36c0 72.5 0.4 132.7 1 180.5 0.5 47.8 1.2 97.3 1.5 110 0.3 12.7 0.8 30.9 1.1 40.5 0.3 9.6 0.9 19.1 1.4 21 0.5 1.9 2.5 5.5 4.4 8 1.9 2.5 5.4 6.1 7.8 8.1 2.4 2 7.2 5.1 10.8 6.8l6.5 3.2c88.3-0.4 120.5-0.9 128.5-1.3 8-0.4 16.5-1.3 19-2 3.6-0.9 6.2-2.9 13.1-9.7 7.3-7.3 8.8-9.3 9.8-13.6 0.7-2.7 1.6-15.3 2.1-28 0.5-12.7 1.2-89.6 1.6-171 0.3-81.4 0.7-149.4 0.8-151 0.1-3 0.1-3 5.6-2.7 3 0.2 7.1 0.7 9 1.2 1.9 0.5 6.2 2.7 9.5 4.8 3.3 2.1 9.4 6.7 13.5 10.1 4.1 3.5 21.6 19.2 38.7 35l31.3 28.6c0 15.5 0.5 39.6 1 63.5 0.6 23.9 1.5 47.8 2 53 0.7 6.9 1.8 11.1 3.9 15.5 1.9 3.9 4.8 7.7 8.2 10.8 3 2.6 8.3 6.3 11.9 8.1 3.9 2 8.9 3.6 12.5 4 3.6 0.5 8.6 0.3 12.5-0.4 3.6-0.6 9.2-2.6 12.5-4.3 3.3-1.8 8.5-5.7 11.5-8.7 3.1-3 6.9-8.2 8.5-11.5l3-6c1-54.2 1.1-85.3 0.8-104-0.2-18.7-0.8-38.3-1.4-43.5-0.7-7.3-1.5-10.5-3.5-14-1.5-2.5-9.5-11.2-17.8-19.5-8.4-8.2-24.8-23.8-36.6-34.6-11.8-10.7-29.8-26.9-40-35.9-10.2-9-23.9-20.6-30.5-25.9l-12-9.5c-79 1.1-104.7 1.9-108 2.3-3.3 0.5-7.2 1.4-8.8 2-1.5 0.6-4.6 3-7 5.4-2.4 2.3-5.6 6.5-7.2 9.2-1.6 2.8-3.6 7.7-4.4 11-1.2 5-1.5 33.4-2.1 166.5-0.4 88.3-0.8 164.4-0.9 169.3l-0.1 8.7c-11.6 1.5-17.6 2-20.8 2-3.1 0-8-0.3-10.7-0.6l-5-0.6c-1.2-127.3-1.8-185.2-2-210.8-0.3-25.6-1-64.5-1.6-86.5-0.6-22-1.4-43.3-2-47.2-0.5-4-2-9.4-3.3-12-1.3-2.7-4.4-6.9-7-9.5-2.7-2.9-6.1-5.2-8.4-5.9-2-0.6-16.1-1.5-31.2-2.1-15.1-0.5-49.5-0.7-76.5-0.4-27.7 0.3-50.8 1-53.3 1.6-2.3 0.5-5.4 1.8-6.8 2.8-1.5 0.9-4.2 3.8-6 6.5-1.9 2.6-4.6 7.1-6.1 10-1.4 2.8-3.3 7.7-4 10.7-1 3.9-1.7 17.3-2.4 46-0.5 22.3-1.3 97.9-1.7 168l-0.7 127.5-35.5 0.5c-0.1-77.9-0.6-154-1-219.5-0.6-84.8-1.2-120.6-2-124.5-0.7-3-2.2-7.5-3.5-10-1.3-2.5-3.7-6.4-5.4-8.7-1.8-2.5-4.9-5.1-7.4-6.3-2.3-1-8.2-2.8-13.2-3.9-5-1.1-15.3-2.5-23-3-7.7-0.6-32.3-1.1-54.8-1.1h-40.7c-11-19-18.5-31.5-23.7-40-5.2-8.5-13-20.4-17.2-26.4-4.2-6-13.3-17.7-20.2-26-7-8.3-21.2-23.5-31.5-33.7-10.4-10.2-23.2-22.1-28.4-26.4-5.2-4.3-15.6-12.4-23-18-7.4-5.5-18.7-13.5-25-17.6-6.3-4.2-16.9-10.8-23.5-14.7-6.6-3.9-21.2-11.6-32.5-17-11.3-5.5-28.4-13.2-38-17-9.6-3.8-26.3-9.5-37-12.6-10.7-3-25.4-6.9-32.5-8.5-7.1-1.7-20-4.2-28.5-5.5-8.5-1.4-22.9-3.5-32-4.5-9.1-1.1-24.1-2.5-33.5-3-9.4-0.6-24.6-1.2-34-1.4-9.4-0.3-23.8-0.1-32 0.3zm2975 132.1c-6.6 0.5-18.8 1.8-27 2.9-8.3 1.1-19.7 3.2-25.5 4.6-5.8 1.3-14.3 3.6-19 5-4.7 1.4-14.1 4.8-21 7.5-6.9 2.6-18.6 7.9-26 11.6-7.4 3.8-19.3 10.7-26.5 15.5-7.2 4.7-17.9 12.6-24 17.4-6.1 4.9-18 15.8-26.6 24.4-8.5 8.5-20 20.7-25.3 27-5.4 6.3-12.7 15.8-16.1 21-3.5 5.2-10.2 16.3-15 24.5-4.7 8.3-11.1 20.2-14.2 26.5-3 6.3-8.5 18.5-12 27-3.6 8.5-9.1 23.4-12.3 33-3.2 9.6-7.9 25.6-10.4 35.5-2.5 9.9-5.5 22.5-6.6 28-1.2 5.5-3 16.1-4.2 23.5-1.8 11.9-2.1 19.2-2.5 62.5-0.3 34.1-0.1 52 0.7 59 0.7 5.5 2.7 15.4 4.5 22 1.8 6.6 5.4 17.2 8 23.5 2.5 6.3 6.2 14.4 8.1 18 2 3.6 6.6 11 10.2 16.5 4.1 6.3 10.4 13.7 16.7 20 5.5 5.5 13.9 12.6 18.5 15.7 4.7 3.1 15 9 23 13.2 8 4.1 19.9 9.3 26.5 11.6 6.6 2.3 18.3 5.7 26 7.6 7.7 1.9 18.9 4.1 25 5 7.7 1.2 21.6 1.9 46 2.3 19.2 0.3 44 0.3 55-0.1 11-0.4 25.6-1.2 32.5-1.8 6.9-0.6 17.7-2 24-3 6.3-1.1 18.2-3.3 26.5-5 8.2-1.7 20.8-4.6 28-6.5 7.2-1.8 17.9-5 24-7 6.1-1.9 15.3-5.7 20.5-8.3 5.7-2.8 11.3-6.5 14-9.2 2.5-2.5 6.4-8.1 8.7-12.5 2.2-4.4 5.7-13 7.6-19 1.9-6 4.4-15.3 5.5-20.5 1.1-5.2 2.6-14.2 3.3-20 0.6-5.8 1-14.8 0.7-20-0.3-6.6-0.9-10.3-2.1-12.2-1.1-1.8-3.1-3.2-5.5-3.8-2.4-0.6-5.8-0.6-9.7 0-3.3 0.5-16.8 4.2-30 8-13.2 3.9-34.3 9.8-47 13-12.7 3.2-28.6 6.8-35.5 7.9-8 1.4-21 2.6-36 3.2-12.9 0.6-33.2 0.8-45 0.4-11.8-0.3-26-1.3-31.5-2.1-5.7-0.8-13.2-2.8-17.5-4.5-4.1-1.7-9.8-4.4-12.5-6.2-2.8-1.7-6.7-4.5-8.9-6.2-2.1-1.6-6.5-6.2-9.8-10-3.2-3.8-7.4-9.9-9.3-13.5-1.8-3.6-4.9-10.8-6.7-16l-3.3-9.5c0.1-56.2 0.6-71.4 1.4-75.5 0.6-3.6 1.2-6.6 1.4-6.6 0.1-0.1 18.9-0.5 41.7-0.8 22.8-0.3 49.4-0.9 59-1.2 9.6-0.3 23.8-0.9 31.5-1.5 7.7-0.5 23.4-2.1 35-3.5 11.6-1.3 26.6-3.6 33.5-5 6.9-1.4 19.7-4.3 28.5-6.5 8.8-2.3 24.1-6.8 34-10 12.6-4.2 23.4-8.6 36-14.9 12.9-6.4 21.1-11.2 29-17.2 6.1-4.5 16.9-14.1 24.1-21.2 7.2-7.2 16-16.9 19.4-21.6 3.4-4.7 7.6-11.2 9.3-14.5 1.6-3.3 5.1-12.5 7.8-20.5 2.6-8 5.8-19.2 7-25 1.8-8.2 2.3-13.6 2.3-25 0.1-11.3-0.4-16.9-2.2-25.5-1.3-6-3.9-15.7-5.8-21.5-2-5.8-5.9-15-8.7-20.5-2.8-5.5-7.7-13.4-10.8-17.5-3.1-4.1-10.3-12-16-17.5-6.2-6-14.8-13-21.4-17.3-6.1-4-16.8-10.2-24-13.7-7.2-3.5-16.2-7.6-20-9-3.8-1.5-12.2-3.9-18.5-5.5-6.3-1.6-16.9-3.8-23.5-4.9-6.6-1.1-19.2-2.7-28-3.6-8.8-0.8-23.4-1.4-32.5-1.4-9.1 0.1-21.9 0.6-28.5 1zm639 1.3c-6.6 1.3-15.8 3.4-20.5 4.6-4.7 1.2-12.6 3.5-17.5 5.2-4.9 1.6-12.8 4.6-17.5 6.5-4.7 1.9-14.6 6.6-22 10.5-7.4 3.9-17.3 9.7-22 12.8-4.7 3.1-13.2 9.4-19 14-5.8 4.6-16.4 14.2-23.6 21.4-8.1 8.1-16.5 17.7-21.9 25.1-5.5 7.7-9 11.6-9.6 11-0.6-0.6-0.1-4.4 1.1-10 1.2-5 3.4-15.5 5.1-23.5 1.6-8 4.1-20.9 5.4-28.7 1.4-7.9 2.5-16.7 2.5-19.5q0-5.3-2-8.5c-1.2-1.9-4.1-4.4-7-5.8-2.8-1.4-8.3-3.4-12.3-4.6-6.1-1.8-10.8-2.2-30.7-2.6-14.1-0.3-28.5-0.1-36 0.6-6.9 0.7-15.2 1.9-18.5 2.7-3.3 0.9-8.7 2.9-12 4.5-3.3 1.7-7.7 4.4-9.8 6.2l-3.7 3.2c-93 465-125.2 625.7-131.6 657-6.4 31.3-13.2 64.9-15 74.5-1.9 9.6-4.1 22.9-5 29.5-0.9 6.6-1.3 13.5-1 15.3 0.3 1.7 1.8 4.6 3.3 6.3 1.6 1.7 5.5 4.4 8.8 6 3.3 1.6 8.5 3.4 11.5 3.9 3.3 0.6 22.8 1 48 1 31.8 0 44.1-0.4 49-1.4 3.6-0.7 9.8-3 13.7-5 4-2 8.9-5.1 10.9-6.8 2.4-2.2 4-4.9 5-8.3 0.7-2.7 2.7-11.1 4.4-18.5 1.7-7.4 6-27.9 9.5-45.5 3.5-17.6 11-55.2 16.5-83.5 5.6-28.3 12.2-61.2 14.6-73 2.5-11.8 4.7-22.3 4.9-23.2 0.4-1.4 0.9-1.6 2.2-0.9 1 0.6 7 5.5 13.3 11.1 6.3 5.5 14.9 12.5 19 15.5 4.1 2.9 11.8 7.6 17 10.3 5.2 2.8 14.7 7.1 21 9.6 6.3 2.5 15.3 5.7 20 7.1 4.7 1.4 12.6 3 17.5 3.5 4.9 0.5 22.4 1 38.7 1 20.5 0 33.3-0.5 41-1.5 6.2-0.8 14.4-2.4 18.3-3.6 3.9-1.2 10.4-3.5 14.5-5.1 4.1-1.6 12.2-5.1 18-7.8 5.8-2.6 15.2-7.4 21-10.5 5.8-3.1 15.7-9.1 22-13.2 6.3-4.2 14.6-10.2 18.5-13.3 3.9-3.2 12.2-10.7 18.5-16.7 6.3-6 15.3-15.6 20-21.2 4.7-5.7 12.1-15.3 16.5-21.4 4.4-6.2 11.2-16.6 15.1-23.2 3.9-6.6 8.7-14.9 10.6-18.5 1.9-3.6 6.2-12.3 9.5-19.5 3.3-7.2 9-20.4 12.6-29.5 3.6-9.1 8.6-22.6 11.1-30 2.5-7.4 6.6-21.6 9-31.5 2.5-9.9 6-26.1 8-36 1.9-9.9 4.4-24.3 5.5-32 1.2-7.7 2.5-19.2 3-25.5 0.5-6.3 0.7-26.4 0.5-44.5-0.1-18.1-0.8-38.4-1.4-45-0.6-6.6-2-17.2-3.1-23.5-1.1-6.3-3.9-17.1-6.1-24-2.2-6.9-6-17-8.3-22.5-2.3-5.5-6.1-13.4-8.5-17.5-2.4-4.1-6.9-11.3-10.1-16-3.2-4.8-10.3-12.9-16.1-18.5-5.7-5.5-13.4-12.3-17.3-15-3.9-2.7-11.9-7.3-18-10.1-6.1-2.9-13.9-6.2-17.5-7.3-3.6-1.2-10.8-3-16-4.1-5.2-1.1-14.2-2.6-20-3.4-5.8-0.7-17.9-1.4-27-1.4-13.4-0.1-18.7 0.3-28.5 2.2zm442.5 0.1c-10.2 1.3-21.4 2.9-25 3.5-3.6 0.7-11.4 2.3-17.5 3.6-6.1 1.4-15.9 3.9-22 5.6-6.1 1.7-17.1 5.5-24.5 8.5-7.4 3-16.2 6.9-19.5 8.8-3.3 1.9-8.1 5.1-10.6 7.2-2.5 2.1-6.5 6.1-8.8 8.8-2.2 2.8-6.3 9.5-9 15-2.8 5.5-6.6 15.4-8.6 22-2 6.6-4.8 17.6-6.2 24.5-1.9 9.4-2.6 15.6-2.7 25 0 7.3 0.5 14.1 1.2 16.3 0.7 2 2.4 4.6 3.9 5.7 2 1.5 4.3 2.1 8 2 3.3 0 8.2-1.1 13-2.9 4.3-1.6 13.7-5.7 20.8-9.1 7.1-3.4 18.2-8.4 24.5-11 6.3-2.7 16.3-6.4 22.2-8.4 6-2 16.1-4.9 22.5-6.6 6.5-1.6 16.5-3.9 22.3-5.1 8.1-1.6 14.9-2.2 30-2.5 10.7-0.1 22.6 0.1 26.5 0.7 3.9 0.5 10.4 1.9 14.5 3 4.1 1.1 10.9 3.6 15 5.6 5.1 2.5 9.4 5.6 13.6 9.7 5 5 6.7 7.6 9.4 14.6 3 7.5 3.4 9.6 3.4 18 0 7.1-0.6 11.2-2.2 16-1.3 4-4.3 9.2-7.5 13.5-2.9 3.9-8.9 9.9-13.4 13.5-4.4 3.6-11.8 8.8-16.4 11.5-4.6 2.8-15.4 7.8-23.9 11.2-8.5 3.4-33.7 11.9-56 18.8-22.3 7-48.1 15.5-57.5 19-9.4 3.5-21.1 8.1-26 10.3-4.9 2.2-15.3 7.1-23 11-7.7 3.8-18.7 9.9-24.5 13.4-5.8 3.4-14.4 9-19 12.3-4.6 3.3-13.8 11.2-20.3 17.5-6.6 6.3-14.8 15.1-18.2 19.5-3.5 4.4-8.5 11.6-11.3 16-2.7 4.4-6.8 11.7-9.1 16.3-2.2 4.5-5.7 13.5-7.7 20-1.9 6.4-4.3 15.7-5.2 20.7-1.3 7.1-1.7 15.2-1.7 38.5 0 28.9 0.1 29.7 2.7 39 1.4 5.2 4.4 13.5 6.5 18.5 2.2 5 5.8 12.2 8 16 2.3 3.8 7.7 11.3 12.1 16.5 4.3 5.2 9.9 11.1 12.3 13.1 2.4 2 8.7 6.4 13.9 9.8 5.2 3.5 14.9 8.9 21.5 12 6.6 3.2 16.5 7.4 22 9.4 5.5 2 13.8 4.7 18.5 6.1 4.7 1.4 13 3.4 18.5 4.5 5.5 1.1 15.9 2.5 23 3.2 8.6 0.7 28.7 0.9 59 0.6 34.8-0.4 48.8-0.9 57.5-2.1 6.3-0.9 18.5-3 27-4.7 8.5-1.7 22.7-4.9 31.5-7.1 8.8-2.2 22-6 29.2-8.4 7.3-2.4 16.7-6.1 20.9-8.1 4.2-2.1 10.2-6 13.3-8.6 3.1-2.7 7.2-6.9 9.1-9.5 1.9-2.6 5.2-7.9 7.2-11.7 2-3.9 5.2-11.7 7.1-17.5 1.9-5.8 4.7-15.9 6.1-22.5 1.5-6.6 3.4-16.6 4.2-22.2 0.8-5.7 1.4-14.2 1.5-19 0-4.9-0.4-10.8-1-13.3-0.6-2.5-2.3-5.6-3.7-7-2.3-2.2-3.4-2.5-9.7-2.4-5.3 0-9.5 0.8-16.2 3.2-4.9 1.7-18.4 6.9-30 11.5-11.6 4.7-26.7 10.6-33.8 13.1-7 2.5-18.2 6.2-25 8-6.7 1.9-17.6 4.7-24.2 6.1-6.6 1.4-17.4 3-24 3.5-6.6 0.5-18.8 0.7-27 0.5-8.3-0.2-19.3-0.9-24.5-1.5-5.2-0.6-12-1.6-15-2.1-3-0.6-8.4-2.6-12-4.5-3.6-1.8-9.2-5.7-12.5-8.7-3.3-2.9-7.6-7.6-9.7-10.3-2-2.7-4.6-7.7-5.7-11.1-1.2-3.5-2.1-8.9-2.1-12 0-3.2 1.1-10.3 2.5-15.8 1.4-5.5 3.8-12 5.2-14.5 1.5-2.5 5.4-7.2 8.8-10.5 3.3-3.3 9.8-8.6 14.5-11.7 4.7-3.1 13.4-8.1 19.5-11.2 6.1-3 18.4-8.4 27.5-11.9 9.1-3.6 32.9-11.8 53-18.2 20.1-6.4 43.2-14.1 51.5-17 8.2-3 20.6-7.7 27.5-10.6 6.9-2.9 17.9-8 24.5-11.4 6.6-3.4 15.8-8.5 20.5-11.4 4.7-2.9 12.6-8.4 17.5-12.1 4.9-3.7 14.8-12.5 21.8-19.6 7-7.1 15.7-16.9 19.2-21.9 3.6-5 8.7-13.5 11.4-19 2.7-5.5 6.3-14 8.1-19 1.7-5 3.9-13 4.8-18 1.3-7.2 1.7-15 1.7-38.5-0.1-24.4-0.4-30.8-1.8-37-0.9-4.1-4-12.7-6.7-19-2.8-6.3-6.8-14.4-8.9-18-2.2-3.6-7.3-10.5-11.4-15.5-4.2-5-10.9-11.8-14.9-15.1-4-3.4-11.1-8.6-15.8-11.6-4.7-3.1-13.4-8-19.5-11.1-6.1-3-14.4-6.7-18.5-8.2-4.1-1.4-13.8-4.2-21.5-6-7.7-1.8-18.3-4.1-23.5-4.9-5.2-0.9-15.8-2.3-23.5-3.2-7.7-0.8-25.5-1.7-39.5-1.9-22.3-0.3-27.8 0-44 2zm579-1.5c-7.4 0.5-19.4 1.6-26.5 2.5-7.1 0.9-18.4 2.7-25 4-6.6 1.3-18.5 4.6-26.5 7.3-8 2.7-19.4 6.9-25.5 9.4-6.1 2.5-17.1 7.4-24.5 11-7.4 3.5-17.8 8.9-23 12-5.2 3-14.2 9.2-20 13.7-5.8 4.5-16.5 13.7-23.9 20.4-7.4 6.7-18.6 17.8-24.9 24.7-6.3 6.9-15.3 17.7-20.1 24-4.8 6.3-11.9 16.9-15.8 23.5-3.9 6.6-9.3 16-12 21-2.6 5-7.2 14.2-10.2 20.5-2.9 6.3-8.4 19.1-12.2 28.5-3.7 9.4-8.4 22.4-10.4 29-2 6.6-5.1 18.1-7 25.5-1.9 7.4-4.3 18.7-5.5 25-1.2 6.3-3 17.8-4.1 25.5-1.3 9.1-2.2 22.9-2.6 39.5-0.3 14.6-0.1 36.1 0.6 50.5 0.6 13.8 1.3 25.9 1.5 27 0.2 1.1 0.7 4.7 1 8 0.4 3.3 1.6 9.6 2.6 14 1 4.4 3.7 12.7 6 18.5 2.3 5.8 7.1 16.6 10.8 24 3.7 7.4 9.1 16.9 12.1 21 3 4.1 8.4 10.8 12 14.8 3.6 4 10.9 11.1 16.1 15.9 5.2 4.7 12.9 10.8 17 13.6 4.1 2.8 14.2 8.3 22.5 12.3 8.2 4 21.1 9.3 28.5 11.8 7.4 2.5 20.2 5.8 28.5 7.5 8.2 1.7 19.7 3.8 25.5 4.7 7.4 1.2 19.5 1.8 41 2.1 18.6 0.3 36.8 0.1 46.5-0.7 8.8-0.6 20.7-1.8 26.5-2.6 5.8-0.8 16.1-2.8 23-4.5 6.9-1.6 18.4-5 25.5-7.4 7.1-2.4 17.9-6.5 24-9 6.1-2.5 17.7-8.1 26-12.4 8.2-4.3 19.1-10.4 24-13.6 4.9-3.2 14.2-9.6 20.5-14.2 7.5-5.6 17.6-14.6 29-26.2 10.2-10.2 22.4-23.7 29-32.1 6.2-8 14.1-18.8 17.6-24 3.4-5.2 9.2-14.9 12.9-21.5 3.7-6.6 9.1-17 12-23 2.9-6 7.8-17.1 10.8-24.5 3-7.4 7.5-19.8 10-27.5 2.5-7.7 6.4-21.2 8.7-30 2.3-8.8 5.2-22.5 6.5-30.5 1.4-8 3.1-20.4 4-27.5 0.8-7.1 2.2-20.2 3-29 0.8-8.8 1.5-25.7 1.5-37.5 0-13.3-0.6-26.2-1.5-34-0.9-6.9-2.7-18.4-4.1-25.5-1.4-7.1-3.9-17-5.6-22-1.7-5-5-13.5-7.4-19-2.4-5.5-6.3-13.5-8.7-17.7-2.3-4.3-7.1-11.9-10.7-17-3.6-5-10.8-13.6-16-19.1-5.2-5.5-13.3-12.8-18-16.3-4.7-3.5-13.4-9.1-19.5-12.4-6.1-3.2-17.1-8.7-24.5-12.1-7.4-3.4-18.4-7.4-24.5-9-6.1-1.6-17.8-4-26-5.4-8.3-1.3-21.5-3.1-29.5-4-8-0.8-24.2-1.7-36-1.9-11.8-0.3-27.6-0.1-35 0.4zm-3077.5 7c-6.6 0.4-12.6 1-13.3 1.3-0.6 0.4-2.4 5.8-3.8 12-1.4 6.1-5.2 23.1-8.4 37.7-3.2 14.6-7.7 36-9.9 47.5-2.3 11.5-4.3 21.9-4.6 23-0.4 2 0.3 2 104.3 2.8 57.6 0.4 118.4 0.7 135.2 0.8h30.5c22.5 11.7 31.7 17.1 35 19.6 3.3 2.4 7.5 6.3 9.4 8.6 1.8 2.3 5.5 8.7 8.1 14.2 2.7 5.5 6 13.8 7.3 18.5 1.4 4.7 3.1 12.1 3.8 16.5 0.7 4.5 1.2 16.1 1.2 26.5 0 10.2-0.6 23.2-1.2 29-0.7 5.8-2.3 17-3.7 25-1.3 8-4.6 23.5-7.4 34.5-2.7 11-7.4 27.4-10.5 36.5-3.1 9.1-8.2 22.1-11.3 29-3.2 6.9-8 16.5-10.7 21.5-2.7 5-7.6 12.6-11 17-3.3 4.3-10.8 12.9-16.6 19-5.8 6-15.2 14.8-20.8 19.5-5.7 4.7-12.8 9.9-15.9 11.7-3.2 1.8-10 4.6-15.2 6.4-5.2 1.7-13.3 4-18 5-4.9 1.1-16 2.3-26.5 2.8-9.9 0.6-68.6 1.3-130.5 1.6-61.9 0.3-112.6 0.7-112.7 0.8-0.2 0.1-1 2.7-1.8 5.7-0.8 3-6.2 26.7-11.9 52.5-5.8 25.8-11 49.7-11.7 53-0.7 3.3-1 6.7-0.7 7.5 0.3 0.9 2.5 1.8 5.4 2.2 2.7 0.4 11.9 1.1 20.4 1.5 8.5 0.4 67.9 0.7 132 0.7 87 0.1 120.4-0.2 132-1.2 8.5-0.7 21.6-2.2 29-3.3 7.4-1.1 18.7-3.2 25-4.6 6.3-1.4 17.6-4.5 25-7 7.4-2.5 19.1-7.2 26-10.4 6.9-3.3 18.1-9.4 25-13.5 6.9-4.1 17-11.1 22.5-15.5 5.5-4.4 14.3-11.7 19.5-16.3 5.2-4.6 15.1-14.2 21.9-21.2 6.9-7.1 15.9-16.9 20-21.9 4.1-5 10.7-14 14.6-20 4-6 9.8-15.5 13-21 3.2-5.5 9.7-17.9 14.5-27.5 4.8-9.6 11.7-24.9 15.3-34 3.6-9.1 8.5-22.8 11-30.5 2.5-7.7 6.4-21.2 8.6-30 2.2-8.8 5.1-21.9 6.5-29 1.4-7.1 3.6-20.9 5-30.5 1.4-9.6 3.1-26.3 3.7-37 0.9-14.4 0.9-26 0-44.5-0.6-13.7-1.8-30.6-2.6-37.5-0.9-6.9-2.6-16.8-3.9-22-1.3-5.2-4.5-14.9-7.1-21.5-2.6-6.6-7.1-16.7-10.1-22.5-2.9-5.8-7.7-14.1-10.5-18.5-3.2-4.9-10-12.8-17.8-20.6-8.1-8-16-14.8-22.1-18.8-5.2-3.5-12.9-7.9-17-9.8-4.1-2-11.8-5.3-17-7.4-5.2-2.2-14.7-5.2-21-6.8-6.3-1.6-16-3.6-21.5-4.5-5.5-0.9-12.7-1.9-16-2.2-3.3-0.3-66.3-0.7-140-0.8-73.7-0.2-139.4 0-146 0.4zm5798.3-0.5c-0.2 0.3-27.6 0.5-60.9 0.5-55.8 0.1-61.2 0.3-71.4 2.1-6.1 1.1-17.1 3.5-24.5 5.4-7.4 1.8-18.2 5-24 7-5.8 2-18.1 7.4-27.5 12-10.2 5-23.2 12.4-32.5 18.6-8.5 5.7-18.9 13.1-23 16.3-4.1 3.3-13.6 12-21.1 19.5-7.4 7.5-17.5 18.6-22.3 24.6-4.9 6-13 17.3-18.1 25-5.1 7.7-12.5 19.4-16.5 26-3.9 6.6-10.2 18.3-14 26-3.7 7.7-8.6 18.5-10.8 24-2.2 5.5-6.5 17-9.5 25.5-3 8.5-7.5 22.5-10 31-2.5 8.5-5.5 19.8-6.6 25-1.2 5.2-3.4 17.4-5.1 27-1.6 9.6-3.7 24.5-4.7 33-1.4 12.5-1.8 23.5-1.8 56.5 0 38.3 0.2 41.8 2.2 52.5 1.3 6.3 3.6 16.2 5.2 22 1.6 5.8 4.2 13.9 5.6 18 1.5 4.1 5.6 13.3 9 20.5 3.5 7.2 8.6 16.3 11.2 20.3 2.6 3.9 7.7 10.5 11.3 14.5 3.6 4 9.2 9.6 12.5 12.5 3.3 2.9 10.1 8 15 11.3 4.9 3.3 14.4 8.7 21 11.9 6.6 3.2 16.5 7.5 22 9.5 5.5 2 13.8 4.5 18.5 5.6 4.7 1 14.8 2.7 22.5 3.8 7.7 1.1 20.5 2.5 28.5 3.1 8 0.6 39.9 1.4 71 1.7 31.1 0.3 91.4 0.2 134-0.2l77.5-0.7c2.8-11.9 7.9-36.2 13.1-61.8 5.2-25.6 9.8-49.7 10.2-53.6 0.7-6.9 0.6-7.1-1.8-8.4-1.7-0.8-10.3-1.5-25.5-2.1-12.6-0.4-72.5-1-133-1.3l-110-0.6c-13.9-7.1-21.8-11.7-26.5-14.8-4.6-3.2-10.7-8.3-13.5-11.5-2.7-3.1-6.6-8.5-8.5-12-2-3.4-4.5-8.4-5.7-11.2-1.2-2.7-2.9-9-3.7-14-0.9-5-2.1-15.1-2.7-22.5-0.7-8-0.9-20.8-0.6-31.5 0.4-9.9 1.5-23.8 2.6-31 1.1-7.1 3.1-18.6 4.5-25.5 1.5-6.9 4-17.5 5.6-23.5 1.6-6 5.4-18.9 8.6-28.5 3.1-9.6 8.3-23.7 11.5-31.2 3.3-7.6 8-17.3 10.6-21.5 2.5-4.3 7.2-11.6 10.3-16.3 3.1-4.7 9-12.5 13.2-17.5 4.1-5 9.6-11 12.4-13.4 2.7-2.4 9.2-7.2 14.4-10.7 5.2-3.4 15.8-9.6 23.5-13.7l14-7.5c141.8-1 204.6-1.7 231-2.3 26.4-0.5 48.2-1.2 48.5-1.5 0.3-0.4 1.5-4.5 2.7-9.3 1.1-4.7 4.7-20.3 7.8-34.6 3.1-14.3 7.9-37 10.6-50.5 2.7-13.5 5.2-25.3 5.4-26.2 0.5-1.7-4.6-1.8-95.3-1.8-52.7 0-96.1 0.2-96.4 0.5zm-4811.3 3.6c-4.4 0.5-11.8 1.8-16.5 2.9-4.7 1-11 2.7-14 3.9-3.1 1.1-7.4 3.8-9.7 6-3.1 2.9-4.7 5.6-5.8 9.4-0.9 2.8-4.7 19.8-8.5 37.7-3.8 17.9-12.6 60.6-19.5 95-6.9 34.4-13 64.2-13.5 66.3l-1 3.7c-158.5 0-206.6-0.3-209.3-0.8-3.6-0.5-4.7-1.1-4.7-2.4 0-1 5.4-28.9 12-62 6.5-33.2 13.5-68.6 15.5-78.8 1.9-10.2 5.2-28.5 7.3-40.7 3.6-21.7 3.7-22.2 2-25.7-1.1-2.1-3.7-4.8-6.5-6.6-2.7-1.7-6.8-3.7-9.3-4.5-2.5-0.8-8.3-1.9-13-2.5-4.7-0.5-25.2-1-45.5-1-36.4 0-37.2 0-47 2.5-5.5 1.4-12.5 3.9-15.5 5.6-3 1.6-6.4 3.8-7.6 4.7-1.1 0.9-2.5 2.6-3.1 3.7-0.6 1.1-2.5 7.4-4.2 14-1.6 6.6-9.5 44.4-17.5 84-7.9 39.6-19 94.7-24.5 122.5-5.5 27.8-15.6 78.2-22.5 112-6.8 33.8-17.7 88-24.1 120.5-6.4 32.5-13 66.7-14.5 76-1.6 9.3-3.2 20.6-3.6 25-0.4 4.9-0.3 8.8 0.3 10 0.6 1.1 3.7 3.5 6.9 5.2 4.7 2.6 7.9 3.5 15.4 4.4 6.1 0.7 25.5 0.9 54 0.7 38.6-0.4 45.3-0.7 50.5-2.2 3.3-0.9 8.2-2.9 10.9-4.4 2.7-1.5 6.1-3.8 7.6-5.2 1.6-1.4 3.4-4.8 4.3-8 0.8-3 3.4-13.8 5.7-24 2.3-10.2 11.3-54 20-97.5 8.7-43.5 16.6-82.3 17.4-86.3l1.6-7.2c36-0.9 83.4-1 128.5-0.8 48.4 0.3 83 0.8 84.3 1.4 2.1 0.8 2.3 1.3 1.7 4.9-0.4 2.2-7.2 36.8-15.1 77-8 40.2-16 81.8-18 92.5-1.9 10.7-4.1 23.9-4.9 29.3-0.8 5.3-1.5 12.1-1.5 14.9 0 4.2 0.4 5.8 2.2 7.5 1.3 1.3 5.5 3.4 9.3 4.7 3.8 1.4 9.9 3 13.5 3.5 3.7 0.6 22.3 1.1 43 1.1 20.4 0 40.5-0.5 45.5-1.1 4.9-0.6 12.4-2.2 16.5-3.4 4.1-1.3 9.8-3.9 12.5-5.7 4.2-2.8 5.3-4.1 6.8-8.8 1-3 3.9-14.3 6.4-25 2.4-10.7 15.2-73.5 28.4-139.5 13.2-66 33.1-166.1 44.4-222.5 11.2-56.4 22.2-112.6 24.4-125 2.2-12.4 4.5-27 5.2-32.5 1-8.4 1-10.5-0.2-13.4-0.8-1.9-2.7-4.5-4.4-5.7-1.7-1.2-5-3.1-7.5-4.2-2.5-1.1-8.3-2.7-13-3.6-6.4-1.3-16.2-1.8-39.5-2.1-17.3-0.2-34.5 0-39 0.6zm3372.5-0.4c-2.5 0.1-8.8 0.8-14 1.3-5.2 0.6-12.8 2-16.7 3.1-4 1-9.8 3-12.8 4.4-4.6 2.1-5.9 3.3-7.9 7.3-1.3 2.6-3.3 7.8-4.5 11.7-1.2 3.9-14.1 66.4-28.6 139-14.5 72.6-29.4 147.8-33 167-3.6 19.3-7.6 41.3-9 49-1.3 7.7-2.6 17.2-3 21-0.4 3.8-0.9 8.1-1.1 9.5-0.2 1.4-0.4 15.3-0.4 31 0 15.7 0.5 32.3 1 37 0.6 4.7 1.5 11 2.1 14 0.6 3 2.7 10.5 4.6 16.5 1.9 6 5.6 15.5 8.3 21 2.6 5.5 8.1 14.5 12.2 20 4.4 5.8 10.4 12.3 14.4 15.6 3.8 3.1 9.8 7.6 13.4 9.9 3.6 2.3 11 6.4 16.5 9.1 5.5 2.6 15.4 6.6 22 8.8 6.6 2.2 16.3 4.7 21.5 5.6 6.1 0.9 16.2 1.5 28 1.5 10.2 0 23.4-0.5 29.5-1.1 6.1-0.5 16.5-2.1 23.3-3.5 6.7-1.3 17.9-4.4 25-6.9 7-2.6 21.3-8.8 31.7-14 10.4-5.2 23.1-12 28-15.3 4.9-3.2 13.7-9.6 19.5-14.3 5.8-4.6 17-14.8 25-22.6 8-7.7 17-17.4 20-21.4 3-4 7.2-9.1 9.3-11.3l3.9-4.1c-1 10.1-2.8 22.2-4.7 33.5-1.9 11.3-4.1 25.6-4.9 31.8-0.9 6.1-1.6 14.4-1.6 18.2 0 3.8 0.6 8.1 1.3 9.5 0.6 1.4 3.2 3.6 5.7 5 2.5 1.3 7.2 3.1 10.5 3.9 4.8 1.3 12 1.6 37 1.6 17.1 0 35.1-0.5 40-1 6.3-0.8 10.9-2 15.5-4.1 3.6-1.7 7.6-4 8.8-5.2 1.3-1.2 3.2-3.8 4.2-5.7 1-1.9 2.7-6.4 3.8-10 1.1-3.6 4.3-17.1 7-30 2.8-12.9 8.7-42.2 13.2-65 4.5-22.8 22-111 39-196 17-85 34.1-171.4 38-192 3.9-20.6 8.3-44.9 9.8-53.8l2.7-16.4c-3.9-3.1-7.2-5.2-10-6.5-2.7-1.4-7.9-3.1-11.5-3.9-3.6-0.7-13.1-1.7-21.2-2.3-8.2-0.6-23.5-1.1-34-1.1-10.6 0-24 0.5-29.8 1.1-5.8 0.6-14.6 2.1-19.5 3.3-4.9 1.3-11.9 3.8-15.5 5.7-4.3 2.2-7.4 4.8-9.2 7.4-2.5 3.6-4.2 11.1-16.3 73-7.5 38-15.8 80.3-18.6 94-2.8 13.7-7.3 35.6-10 48.5-2.8 12.9-7 31.6-9.4 41.5-2.4 9.9-6.6 24.3-9.3 32-2.7 7.7-6.5 17.6-8.5 22-1.9 4.4-6 13.2-9.2 19.5-3.2 6.3-8.6 16-12 21.5-3.4 5.5-8.6 13.4-11.5 17.5-2.9 4.1-8.1 10.9-11.4 15-3.4 4.1-10.2 11.7-15.1 16.9-4.9 5.1-13.1 12.8-18 17.1-4.9 4.2-12.8 10.5-17.5 14-4.7 3.4-13.4 8.6-19.5 11.5-6.1 3-14.1 6.1-18 7.1-5 1.3-10.9 1.8-20.5 1.8-11.7 0.1-14.4-0.3-20-2.3-3.6-1.3-8.4-3.6-10.7-5.2-2.4-1.6-5.9-5-7.8-7.7-1.9-2.6-4.5-7.4-5.9-10.7-1.3-3.3-3.2-9.6-4.1-14-0.9-4.4-1.9-13.6-2.2-20.5-0.3-6.9-0.1-17.9 0.5-24.5 0.7-6.6 4.8-30.7 9.2-53.5 4.4-22.8 13.9-71.2 21.1-107.5 7.1-36.3 19.3-97.7 27-136.5l14.1-70.5c-6.7-5.8-10.7-8.6-13.2-9.9-2.5-1.4-7.2-3.2-10.5-4-3.3-0.8-11.4-2-18-2.6-6.6-0.5-21.2-0.9-32.5-0.8-11.3 0.1-22.5 0.3-25 0.5zm952 0.4c-8 0.5-19.4 1.5-25.5 2.3-8.5 1.2-12.5 2.2-17.5 4.7-3.6 1.8-8.3 5.1-10.5 7.4-2.2 2.3-8.1 10.6-13.1 18.6-5 7.9-11.1 17.8-13.6 21.9-2.5 4.1-11.8 20.1-20.7 35.5-9 15.4-22.4 38.3-29.9 50.8-7.6 12.6-17.8 28.4-22.8 35-5 6.7-13.8 16.7-19.5 22.2-5.7 5.5-13.1 11.9-16.4 14.1-3.3 2.3-8.5 5.4-11.5 6.9-3 1.5-8.4 3.9-12 5.2-3.6 1.4-9.4 3.1-13 3.9-4.1 1-14.5 1.7-28 2.1-14.5 0.3-22.4 0.1-24.2-0.6-2.6-1-2.8-1.4-2.2-5.3 0.3-2.4 2.6-14.7 5.1-27.3 2.4-12.6 8.7-44.6 13.9-71 5.2-26.4 11-56.3 12.9-66.5 1.8-10.2 4.4-25 5.7-32.9l2.3-14.3c-3.9-3.1-6.8-5.1-9-6.3-2.2-1.3-7.8-3.2-12.5-4.2-7.5-1.6-13.7-1.8-51-1.8-37.9 0-43.4 0.2-50.5 1.9-4.4 1-10.7 2.9-14 4.3-3.3 1.3-7.6 3.6-9.4 5.1-1.9 1.5-4.3 4.5-5.2 6.7-1 2.2-2.7 8-3.8 13-1.1 5-10.3 51.1-20.6 102.5-10.2 51.4-33.7 169.1-52.1 261.5-23.8 119.2-33.6 170.2-33.7 175.5l-0.2 7.4c10.3 7.9 13.7 9.7 18 10.7 4.7 1.1 16.2 1.4 55 1.4 44.1 0 49.7-0.2 55.5-1.8 3.6-1 9.3-3.3 12.8-5.2 3.4-1.9 6.6-4.3 7.1-5.2 0.5-1 2.3-7.2 3.9-13.8 1.7-6.6 4.2-17.2 5.6-23.5 1.4-6.3 7.2-34.7 13-63 5.8-28.3 12.5-61 14.9-72.5 2.5-11.5 5.5-27.3 6.8-35 1.9-11.5 2.7-14.4 4.6-16.2l2.3-2.3c61.6 0.6 62.7 0.7 69.5 3.1 3.9 1.4 9.3 3.8 12 5.4 2.8 1.6 7.4 5.4 10.4 8.4 3 3.1 7.2 8.3 9.5 11.6 2.2 3.3 5.2 8.7 6.7 12 1.5 3.3 4.3 10.7 6.4 16.5 2 5.8 5.2 16.8 7 24.5 1.9 7.7 4.3 18.7 5.5 24.5 1.2 5.8 5 26 8.6 45 3.5 19 8 41.5 9.9 50 1.9 8.5 4.4 18.2 5.5 21.5 1.1 3.3 3.2 7.2 4.7 8.8 1.6 1.5 4.9 3.6 7.6 4.7 2.7 1.1 9.3 2.5 15.5 3.1 5.9 0.6 29.4 1.1 52.2 1.1 26.8 0 44-0.4 48.5-1.1 3.9-0.7 10.1-2.7 14-4.5 3.9-1.8 8.7-5 10.8-7 2-2 4-4.8 4.3-6.3 0.4-1.6 0.5-6.8 0.2-11.8-0.3-5.3-2.5-17.7-5.3-30-2.5-11.5-9.3-39.7-15.1-62.5-5.7-22.8-12.4-48.7-14.9-57.5-2.5-8.8-6.2-21-8.2-27-2-6-6.2-16-9.3-22-3.1-6-8.3-15-11.6-20-3.5-5.3-10.6-13.7-17.4-20.6-7-7.2-14.6-13.7-19.5-16.9-4.4-2.8-11.7-7.3-16.3-9.8-7.6-4.3-8.1-4.8-6.5-6.1 1-0.7 7.9-4.2 15.3-7.8 7.5-3.6 20.4-11 29-16.8 9.9-6.6 20-14.4 28-21.7 6.9-6.3 16-15.4 20.4-20.4 4.3-4.9 11.8-14.1 16.6-20.4 4.7-6.3 10.9-14.6 13.7-18.5 2.7-3.9 10.7-16 17.8-27 7.1-11 22.1-34.9 33.5-53 11.4-18.1 25-40.4 30.2-49.5 5.3-9.1 11.2-19.9 13.3-24 2-4.1 3.9-9.5 4.2-12 0.6-4.3 0.4-4.6-3.8-8.3-3-2.6-6.9-4.6-12.4-6.3-5.2-1.6-12.3-2.8-20-3.4-6.6-0.5-21.2-0.9-32.5-0.8-11.3 0-27 0.5-35 0.9zm-1764 2.9c-6.9 0.4-14.7 1.3-17.5 1.9-2.7 0.6-9.7 3.5-15.4 6.4-8.3 4.1-11.5 6.4-15.5 10.9-2.8 3.1-6.6 8-8.3 11-1.8 2.9-5.1 9.8-7.3 15.3-2.2 5.5-6.5 17.4-9.5 26.5-2.9 9.1-25 80.9-49 159.5-24 78.6-49.3 161.2-56.2 183.5-6.8 22.3-18.1 59.2-25 82-6.8 22.8-14 47.6-15.9 55-2 7.4-3.8 16.5-4.2 20.2-0.6 5.8-0.5 6.9 1.3 8.8 1.1 1.2 3.7 3.1 5.8 4.1 2 1 6.7 2.3 10.5 2.9 3.7 0.5 25.1 1 47.7 1 32.6 0 42.4-0.3 48-1.5 3.9-0.9 9.3-2.9 12.3-4.8 2.9-1.7 6.4-4.3 7.7-5.7 1.4-1.4 4.3-6.7 6.5-11.8 2.2-5 6.9-17.9 10.4-28.5 3.6-10.5 10.1-30.7 14.4-44.7 4.4-14 18.2-58.3 30.5-98.5 12.4-40.2 25.8-83.8 29.7-97 3.9-13.2 11.4-38.9 16.7-57 5.2-18.1 14.4-52.4 20.4-76 6-23.6 11.2-43.2 11.4-43.5 0.3-0.3 0.7-0.3 1 0 0.2 0.3 1.1 6.1 1.9 13 0.8 6.9 2.2 21.7 3.1 33 0.8 11.3 2.2 28.1 3.1 37.5 0.8 9.4 2.6 27.4 3.9 40 1.4 12.6 2.7 24.8 3 27 0.3 2.2 1.7 15.3 3.1 29 1.3 13.8 3.8 36 5.4 49.5 1.6 13.5 3.9 33.5 5 44.5 1.1 11 2.2 22.5 2.5 25.5 0.3 3 2.1 18.1 4 33.5 1.9 15.4 4.6 39.9 6 54.5 1.4 14.6 3.4 33 4.5 41 1.1 8 2.7 16.8 3.6 19.5 0.8 2.8 2.7 6.6 4.3 8.5 1.7 2.2 6.1 5.2 11.7 8l8.9 4.5c24 0.8 43.1 0.7 58 0.3 14.9-0.3 29.7-1.1 33-1.7 3.3-0.6 9.1-2.6 12.9-4.4 5.1-2.3 8.5-4.9 13-9.8 3.4-3.6 8.2-10.1 10.8-14.5 2.5-4.3 8.4-15.1 13-23.9 4.7-8.8 13.5-25.7 19.5-37.5 6.1-11.8 22.8-44.2 37.1-72 14.3-27.8 34.3-66.7 44.4-86.5 10.2-19.8 28.2-55.1 40.1-78.5 11.8-23.4 27.2-54.4 34.2-69 7-14.6 17.8-36.9 24-49.5 6.2-12.6 12.2-23.9 13.4-25l2.2-2c-0.1 3.9-0.6 6.8-1.1 9-0.5 2.2-2.2 12.8-3.9 23.5-1.6 10.7-5 34.4-7.5 52.5-2.5 18.1-6.2 48.5-8.1 67.5-1.9 19-4.8 49.1-6.4 67-1.7 17.9-3.7 40.8-4.6 51-0.8 10.2-1.8 20.8-2 23.5-0.3 2.8-1.4 17.2-2.5 32-1.1 14.8-3.2 38.7-4.5 53-1.4 14.3-3.2 33.7-4 43-0.8 9.3-1.5 22.8-1.4 30v13c6.1 5.7 8.6 6.9 14.2 8.1 6.1 1.3 14 1.5 51.2 1.1 36.9-0.3 45-0.6 50.3-2 3.4-1 8.3-2.8 11-4.1 2.6-1.3 6-3.7 7.5-5.2 1.5-1.6 3.4-4.9 4.2-7.4 0.8-2.5 2.1-8.3 2.9-13 0.9-4.7 2.5-16.8 3.6-27 1.1-10.2 2.9-28.8 4-41.5 1.1-12.7 2.7-30.2 3.5-39 0.8-8.8 3.1-33.5 5-55 1.9-21.5 4.2-46.7 5-56 0.9-9.4 2.9-29.6 4.5-45 1.7-15.4 4.4-44.2 6-64 1.7-19.8 3.3-38.5 3.5-41.5 0.3-3 1.6-17 3-31 1.3-14 3.1-33.1 3.9-42.5 0.9-9.4 2.1-24.2 2.7-33 0.6-8.8 1.2-24.8 1.3-35.5 0.1-18.4 0-19.7-2.1-23.8-1.3-2.3-3.8-5.9-5.5-7.9-1.8-2-5.5-5.1-8.3-6.9-2.7-1.7-7.5-3.9-10.5-4.8-3-0.9-11.1-1.9-18-2.4-6.9-0.4-28.2-0.7-47.5-0.6-19.2 0.2-41.5 0.8-49.5 1.4-8 0.6-18.8 1.7-24 2.6-5.2 0.8-12.9 2.6-17 4-4.1 1.4-11.1 4.6-15.5 7.1-4.4 2.5-10.1 6.2-12.6 8.2-2.5 2-6.7 6.1-9.3 9.1-2.6 3-7.3 9.3-10.5 14-3.2 4.7-11.4 18.6-18.3 31-6.9 12.4-20.2 37.1-29.6 55-9.3 17.9-26.1 50-37.2 71.5-11 21.5-29 56.8-39.9 78.5-11 21.7-24.3 48.7-29.6 60-5.3 11.3-13.3 28.6-17.7 38.5-4.4 9.9-9.5 21-11.4 24.8-1.9 3.7-3.8 6.7-4.4 6.7-0.6 0-1-0.3-1-0.7 0-0.5-0.4-3.7-0.9-7.3-0.5-3.6-1.2-11-1.5-16.5-0.3-5.5-1.1-18.5-1.6-29-0.6-10.5-1.7-28-2.6-39-0.8-11-2.2-26.5-3-34.5-0.8-8-2.8-24.6-4.4-37-1.6-12.4-6.8-53.5-11.5-91.5-4.7-38-9.6-75.8-11-84-1.3-8.2-3.4-18.6-4.5-23-1.1-4.4-3.6-11.3-5.5-15.2-1.9-4-5.6-9.6-8.2-12.4-2.7-2.8-7.3-6.8-10.3-8.8-3-2.1-8.2-4.9-11.5-6.3-3.3-1.5-8.7-3.1-12-3.7-3.3-0.6-13.4-1.6-22.5-2.1-9.1-0.5-30.4-1.1-47.5-1.3-17.1-0.2-36.6 0-43.5 0.3zm-3570.2 245.9c-24 0.3-43.8 0.8-44.1 1.1-0.2 0.3-3.6 14.5-7.6 31.5-3.9 17-8.5 37.8-10.1 46-1.7 8.2-3.4 17.7-3.7 21l-0.6 6c9.9 1.2 80.5 1.5 163.3 1.5 82.8 0 151.5 0 152.7 0 2 0 2.7-1.1 4.9-8.3 1.4-4.5 4.3-15.4 6.3-24.2 2.1-8.8 6.5-28.7 9.7-44.3 5.1-24.5 5.7-28.4 4.4-29.2-0.8-0.5-21.3-0.9-45.5-0.9-24.2-0.1-75.9-0.3-115-0.5-39.1-0.2-90.6-0.1-114.7 0.3zm-1720.3 53.2c-3.9 0.4-9 1.2-11.5 1.9-2.5 0.6-8.5 3.3-13.3 5.8-4.9 2.6-11.2 6.8-14 9.3-2.9 2.5-7.5 7.7-10.3 11.5-2.8 3.8-6.1 8.7-7.2 10.9-1.1 2.2-2.9 7.2-4.1 11-1.8 5.8-2.1 9.5-2.1 21 0 8.8 0.6 16.3 1.5 20.2 0.8 3.5 2.7 8.7 4.1 11.5 1.5 2.9 4.5 8 6.9 11.3 2.3 3.3 6.7 8.2 9.6 11 3 2.7 7.9 6.6 10.9 8.6 3 2 7.3 4.4 9.5 5.4 2.2 0.9 7.3 2.3 11.2 3.1 4 0.8 12.1 1.4 18 1.4 7.6 0 13.1-0.6 18.8-2 4.4-1.2 10.7-3.6 14-5.5 3.3-1.8 8.7-5.5 11.9-8.2 3.3-2.6 8.6-8 11.9-11.8 3.2-3.8 7.2-9.7 8.8-13 1.6-3.3 3.9-10.5 5-16 1.7-7.9 1.9-11.8 1.4-18.5-0.4-4.7-1.6-11.9-2.6-16-1.1-4.1-3-9.8-4.3-12.5-1.3-2.8-4.5-7.9-7.2-11.4-2.7-3.6-8.1-9.1-11.9-12.3-3.9-3.2-9.9-7.4-13.5-9.3-3.6-1.8-9.9-4.3-14-5.4-4.1-1.1-10.4-2.1-14-2.3-3.6-0.2-9.7 0-13.5 0.3zm396.7 1.5c-3.9 0.8-9.6 2.4-12.5 3.7-2.8 1.3-7.9 4.2-11.2 6.4-3.3 2.2-8 6-10.3 8.4-2.4 2.4-6.3 7.1-8.7 10.4-2.4 3.3-5.7 8.9-7.4 12.5-1.7 3.6-3.5 9.2-4.1 12.5-0.5 3.3-1 11.4-1 18 0 8.5 0.5 14.2 1.9 19.5 1 4.1 2.8 9.3 3.9 11.5 1.1 2.2 4.7 7.5 8.1 11.7 3.3 4.3 8.7 9.8 11.8 12.3 3.2 2.5 9.4 6.4 13.8 8.6 4.4 2.1 11.4 4.6 15.5 5.5 4.1 0.9 12 1.6 17.5 1.5 5.6 0 13.3-0.7 17.5-1.7 4.1-0.9 9.3-2.6 11.5-3.7 2.2-1.1 5.8-3.2 8-4.7 2.2-1.5 6.1-4.5 8.6-6.6 2.5-2.1 6.7-6.4 9.5-9.5 2.7-3.1 6.6-8.7 8.6-12.5 2-3.8 4.4-9.6 5.2-12.9 1.1-4.1 1.6-10.8 1.7-21.5 0-14.1-0.2-16.2-2.6-23-1.4-4.1-4.4-10.4-6.8-13.9-2.3-3.5-6.5-8.7-9.2-11.6-2.8-2.8-8.4-7.5-12.5-10.4-4.1-2.8-9.9-6.1-12.8-7.1-2.8-1.1-9.1-2.7-14-3.5-4.8-0.8-11.9-1.5-15.7-1.4-3.9 0-10.3 0.7-14.3 1.5zm-586.7 277.8c-3.9 1.2-8.8 3.4-11 4.8-2.2 1.3-5.4 4.2-7.1 6.4-1.7 2.1-4.3 5.9-5.7 8.4-1.4 2.5-3.5 7.3-4.6 10.7-1.2 3.5-2.1 8.2-2.1 10.5 0 2.4 0.9 7.3 2 11 1.4 4.8 4.6 10.6 10.9 20 4.8 7.3 12.3 17.8 16.6 23.3 4.3 5.5 11 13.8 14.9 18.5 3.9 4.6 14.7 16.3 24.1 25.9 9.3 9.5 22.6 22.3 29.5 28.4 6.9 6 19.2 16 27.5 22.2 8.2 6.2 21.1 15.3 28.5 20.2 7.4 5 18 11.6 23.5 14.9 5.5 3.2 18.3 9.9 28.5 15 10.2 5 25.2 11.9 33.5 15.2 8.2 3.3 20.2 7.8 26.5 10 6.3 2.2 18.9 6 28 8.6 9.1 2.5 22.8 5.9 30.5 7.5 7.7 1.6 20.5 4.1 28.5 5.5 8 1.4 21 3.1 29 3.7 8 0.6 29.8 1.2 48.5 1.2 19 0 40.2-0.5 48-1.1 7.7-0.7 18.7-1.9 24.5-2.8 5.8-0.8 17.2-2.8 25.5-4.5 8.2-1.6 20.4-4.3 27-6 6.6-1.6 19-5 27.5-7.5 8.5-2.5 22.9-7.5 32-11.1 9.1-3.6 25-10.6 35.5-15.7 10.4-5.1 25.5-12.9 33.5-17.5 8-4.6 19.4-11.7 25.5-15.8 6-4.2 17.7-12.6 26-18.7 8.2-6.2 19.9-15.5 26-20.7 6-5.1 19.1-17.5 29-27.4 9.9-9.9 23.5-24.3 30.1-32 6.5-7.7 14.7-17.6 18-22 3.4-4.4 9.2-12.7 13-18.5 3.7-5.8 7.7-13 8.8-16 1.5-4 2-8 2.1-14.5 0-8.1-0.3-9.7-3.3-15.8-1.9-4.1-5.3-8.8-8.7-12.2-3.2-3.2-7.9-6.6-11.3-8.1-3.2-1.5-8.5-3-12.2-3.3-3.6-0.4-9.9-0.1-14 0.5-4.1 0.6-9.1 1.8-11 2.6-1.9 0.8-6.4 4.1-9.9 7.4-3.5 3.2-13.9 14.9-23.1 25.9-9.1 11-21.7 25.4-27.9 32-6.1 6.6-16.9 17.4-23.9 23.9-7 6.6-17 15.4-22.2 19.6-5.2 4.2-14.9 11.6-21.5 16.4-6.6 4.9-18.1 12.4-25.5 16.9-7.4 4.4-20.3 11.5-28.5 15.7-8.3 4.2-23.1 10.8-33 14.7-9.9 3.9-22.7 8.4-28.5 10.1-5.8 1.7-17.7 4.9-26.5 7.1-8.8 2.2-21.9 5.1-29 6.4-7.2 1.4-17.1 3-22 3.6-5 0.5-14.4 1.3-21 1.6-6.6 0.3-24.4 0.1-39.5-0.5-15.1-0.5-30.4-1.2-34-1.6-3.6-0.3-11.2-1.1-17-1.9-5.8-0.7-15.9-2.6-22.5-4-6.6-1.5-18.3-4.5-26-6.6-7.7-2.1-19-5.5-25-7.5-6.1-2-16.2-5.6-22.5-8.1-6.3-2.5-17.8-7.6-25.5-11.3-7.7-3.8-19-9.8-25-13.5-6.1-3.7-15.3-9.5-20.5-13-5.2-3.4-14.7-10.4-21-15.5-6.3-5.1-16.5-13.7-22.5-19-6.1-5.3-16.6-15.3-23.4-22.1-6.9-6.8-17-17.4-22.5-23.4-5.6-6.1-15.5-17.8-22.1-26-6.6-8.3-13.9-16.9-16.2-19.3-2.4-2.3-6.1-5.3-8.3-6.7-2.2-1.4-6.4-3.4-9.3-4.6-3-1.2-8.1-2.2-12.2-2.4-5.2-0.2-8.8 0.3-14 1.9zm7641.5 149.6c-1.1 1.1-2 3-2 4.2 0 1.3 0.9 5.3 2 9 1.5 5.3 3 7.8 6.5 11.3 2.5 2.5 7.3 5.8 10.7 7.5 3.5 1.6 9.4 3.4 13.3 4.1 6.2 0.9 7.8 0.8 13.5-0.9 3.9-1.2 8.9-3.9 12.5-6.5 3.3-2.5 7.6-6.5 9.5-8.9 2-2.4 4.6-5.9 5.8-7.8 1.2-1.9 2.5-4.8 3.1-6.5 0.5-1.8 0.5-3.7 0-4.8-0.6-1-2-1.7-3.9-1.7-2.2 0-4.6 1.4-9 5.2-3.4 2.9-8.2 7-10.8 9-2.6 2-6.5 4.2-8.7 4.8-2.2 0.7-5.8 1.2-8 1.2-2.2 0-5.8-0.9-8-2-2.2-1.1-7.5-5.8-11.8-10.6-5.8-6.4-8.3-8.6-10.2-8.6-1.4 0-3.4 0.9-4.5 2zm-3497.5 57.5c-3.3 0.7-7.6 2-9.5 3-1.9 1-6.5 4.2-10.3 7.1-3.8 3.1-7.3 5.2-8.2 4.9-1.1-0.4-1.5-2.1-1.5-6.5 0-5.2-0.3-6.1-2.3-7.1-1.2-0.7-4.8-1-7.9-0.8-4 0.3-6.3 1-7.7 2.4-1.2 1.1-2.9 5.5-4.1 10-1.1 4.4-8.3 37.9-16.1 74.5-7.7 36.6-15.5 73.9-17.4 83-1.8 9.1-3.6 18.6-3.9 21.2-0.6 4.5-0.4 4.9 2.1 5.9 1.6 0.6 5.8 0.9 9.5 0.7 3.7-0.1 7.2-0.8 7.7-1.3 0.6-0.5 3.4-11.6 6.1-24.5 2.8-12.9 6-28.2 7.3-33.9 1.2-5.8 2.6-10.6 3.2-10.8 0.6-0.2 4.8 2.7 9.5 6.4 4.7 3.8 11 7.9 14 9.2 4.8 2.1 7.3 2.4 19 2.7 8.9 0.1 15.9-0.3 20.5-1.2 3.9-0.8 9.4-2.7 12.4-4.2 2.9-1.5 9-5.6 13.4-9.2 4.5-3.6 11-9.9 14.5-14 3.5-4.1 7.9-10.2 9.7-13.5 1.9-3.3 4.1-8 5-10.5 0.9-2.5 2.5-8.9 3.6-14.3 1.4-7 1.9-14 1.9-25 0-12.8-0.3-16.1-2-21.2-1.2-3.3-3.3-8.2-4.8-10.9-1.5-2.7-5.2-7.1-8.2-9.8-3-2.8-8.6-6.5-12.5-8.4-4-1.9-10-3.8-14-4.4-3.9-0.6-10.6-1-15-0.9-4.4 0.1-10.7 0.7-14 1.4zm1074.5-0.6c-3.6 0.5-10.6 2.5-15.5 4.5-4.9 2-11.4 5.2-14.3 7.1-2.8 1.9-6.6 5.6-8.4 8.2-1.7 2.7-4.2 7-5.4 9.8-1.2 2.7-2.7 6.7-3.3 8.7-1 3.6-0.9 3.9 1.6 5.9 2.4 1.8 3.8 2 9.3 1.7 6.2-0.4 6.6-0.7 9.5-4.4 1.6-2.1 5.7-6.7 9-10 5.2-5.3 7-6.5 13-8.3 3.9-1.2 11.5-2.5 17-2.8 7.9-0.5 10.9-0.3 14.5 1 3 1 6.1 3.3 9.3 6.9 2.6 2.9 5.2 6.8 5.8 8.5 0.7 2.6 0.5 4.1-1.1 7.3-1.1 2.2-3.6 5.6-5.5 7.5-2.2 2.2-5.5 4.1-8.8 5-2.8 0.9-10.8 2.5-17.7 3.6-6.9 1.2-20.1 3.4-29.5 4.9-13.2 2.3-18.4 3.6-23 6-3.3 1.6-8 4.9-10.4 7.2-2.8 2.7-5.8 7.2-8 11.8-2.9 6.3-3.6 8.9-4 16-0.4 7.5 0 9.5 2.5 17 2.5 7.2 3.7 9.2 8.4 13.8 3.7 3.6 7.3 6 11 7.3 3.9 1.4 9.2 2.2 18 2.6 7.6 0.3 15.5 0.1 20-0.6 4.1-0.7 9.3-2.1 11.5-3.2 2.2-1.2 6-3.7 8.4-5.8 2.4-2 5.5-4.6 7-5.8l2.6-2.2c4.9 8.8 7.9 12.9 9.9 14.6 3.4 3.1 4 3.3 11.3 3.3 6.3 0.1 8.3-0.3 10.5-2 1.6-1.1 3.5-3.3 4.3-5 0.8-1.7 1.5-4.1 1.5-5.5 0-1.9-1-3.1-4.5-5-2.5-1.4-5.3-3.7-6.2-5.3-1.5-2.4-1.6-3.5-0.4-10.2 0.7-4.1 3.5-17.6 6.2-30 2.8-12.4 5.9-26.8 7-32 1.1-5.2 2-12.7 2-16.5q0.1-7-2-12.5c-1.1-3-3.5-7.3-5.4-9.5-1.9-2.2-6.4-5.6-10.3-7.6-3.8-2-9.4-4.2-12.4-4.8-3-0.7-10.7-1.4-17-1.6-6.3-0.2-14.4 0-18 0.4zm443 0.5c-3 0.6-6.1 1.5-6.8 1.9-0.6 0.4-1.8 1.9-2.6 3.4-0.8 1.6-2.8 8.2-4.4 14.8-1.7 6.6-6.5 27.7-10.7 47-4.2 19.2-9.2 41.5-11.1 49.5-1.9 8-3.8 17.3-4.2 20.7-0.7 6.1-0.7 6.2 2 7.2 1.6 0.6 5.5 1.1 8.8 1.1 3.3 0 6.9-0.5 8-1 1.1-0.5 2.9-2.9 3.9-5.3 1.1-2.3 3.3-10.7 5-18.7 1.8-8 4-16.3 5.1-18.5 1-2.2 5-7 8.9-10.8 3.9-3.7 9.6-8.4 12.6-10.5 5.6-3.7 5.6-3.7 7.5-1.7 1 1.1 5 7.6 8.8 14.5 3.8 6.9 11.6 21.6 17.3 32.7l10.4 20.1c10.1-0.7 15.4-1.1 18.2-1.3 2.9-0.3 5.6-1.1 5.9-1.8 0.3-0.6-3.3-8.9-8-18.2-4.7-9.3-12.4-24.2-17.1-33-4.6-8.8-10.1-19.7-12.2-24.3l-3.8-8.2c7.7-7.9 18.8-17.9 29.5-27.3 10.7-9.4 22.4-20.1 25.9-23.7 5.1-5.3 6.1-6.7 5-7.7-1.1-0.9-3.8-0.9-11.9 0.1-8.2 1-11.6 1.9-15.5 4.2-2.8 1.6-9.7 6.7-15.5 11.3-5.8 4.7-17.5 14.4-26 21.6-8.5 7.2-19 15.9-23.3 19.3-4.2 3.4-8 5.9-8.5 5.6-0.4-0.3 1-11 3.1-23.7 2.1-12.8 4.1-26.4 4.5-30.3 0.6-5.7 0.4-7.5-0.8-8.8-0.8-0.9-1.7-1.6-2-1.6-0.3 0.1-3 0.7-6 1.4zm289.5-0.3c-3.3 0.4-8.7 1.7-12 2.9-3.3 1.1-8.9 3.8-12.5 5.9-3.6 2.1-9.4 6.5-12.9 9.7-3.5 3.3-8.3 8.6-10.6 11.9-2.4 3.3-6.1 9.6-8.3 14-2.2 4.4-4.7 10.1-5.6 12.7-0.9 2.7-2.1 6.9-2.7 9.5-0.6 2.7-1.5 7.7-1.9 11.3-0.5 3.6-0.5 11.5 0 17.5 0.7 9.4 1.3 12.1 4.2 18.5 1.9 4.1 5.3 9.7 7.4 12.5 2.2 2.7 7.3 7.3 11.4 10.1 4.1 2.7 10.2 6.1 13.5 7.4 5.4 2.1 7.6 2.4 21.5 2.4 8.8 0.1 18.3-0.5 22-1.2 4.6-0.9 9-2.8 15-6.4 4.7-2.9 11.8-8.4 15.9-12.3 4-3.8 9.5-10.4 12.2-14.5 2.7-4.1 6.3-11.1 8-15.5 1.7-4.4 4-12 5-17 1.3-6.1 1.9-13.3 1.9-22 0-7.2-0.5-15.7-1.1-19-0.6-3.3-2.5-8.7-4.2-12-1.8-3.4-6.2-9-10.2-13-4.1-4.2-9.3-8.2-12.5-9.8-3.7-1.8-8.4-3-14.5-3.7-4.9-0.5-12.1-0.9-16-0.9-3.9 0.1-9.7 0.5-13 1zm863 0c-3.5 0.5-9.9 2.9-15.5 5.6-6.9 3.5-11.1 6.4-15.5 10.8-4.1 4.1-7.2 8.5-9.8 13.7-2 4.3-3.6 8.8-3.5 10 0.2 1.5 1.6 2.9 3.8 4 1.9 1 5.3 1.8 7.5 1.8 2.2 0 5-0.7 6.2-1.5 1.3-0.8 4.3-4.7 6.8-8.5 3.5-5.4 5.7-7.7 9.7-10 3.3-1.8 8.5-3.5 13.8-4.5 4.7-0.8 11.4-1.5 15-1.5 3.6 0 8.7 0.6 11.5 1.4 2.7 0.8 6.2 2.8 7.7 4.3 1.5 1.5 3.4 4.5 4.2 6.5 0.9 2.1 1.6 5.5 1.6 7.5 0 2.1-0.9 5.6-1.9 7.8-1.1 2.2-3.1 4.8-4.5 5.7-1.4 1-5.9 2.7-9.9 3.8-3.9 1-17.8 3.5-30.7 5.5-12.9 2-25.3 4-27.5 4.5-2.2 0.5-6.4 2.4-9.4 4.2-2.9 1.8-7.9 5.8-11 8.8-3.1 3.1-6.6 7.6-7.8 10-1.2 2.5-2.7 7.7-3.3 11.5-0.6 3.8-0.8 9.2-0.5 12 0.4 2.7 2.2 8.2 4 12 2 4.4 5.1 8.8 8.1 11.7 3.7 3.6 6.7 5.4 12.4 7.3 4.1 1.5 10.6 2.9 14.5 3.2 3.9 0.3 10.4 0 14.5-0.6 4.1-0.6 10.2-2 13.5-3.1 3.3-1.1 9.4-4 13.5-6.5 4.1-2.4 8.3-4.5 9.2-4.5 1.1 0 2.8 1.9 4.5 5.2 2 3.7 4 5.7 6.8 7.2 2.8 1.5 5.8 2.1 10 2 4.6 0 6.9-0.6 9.9-2.4 2.1-1.4 4.7-3.8 5.7-5.5 1-1.7 1.9-3.8 1.9-4.8 0-0.9-1.4-2.5-3.1-3.5-1.8-0.9-4.8-3-6.7-4.7-3.5-3-3.5-3-2.9-9.5 0.3-3.6 2.4-15 4.7-25.5 2.3-10.5 5.5-25.5 7.2-33.5 2-9.3 3.2-17.5 3.2-23 0.1-7.1-0.3-9.4-2.5-14-1.4-3-4.1-7.1-6-9-1.9-1.9-5.7-4.7-8.4-6.2-2.8-1.5-7.7-3.4-11-4.3-3.6-0.9-11.6-1.7-20-2-7.7-0.2-16.7 0-20 0.6zm-2345.5 1c-1.9 0.5-4.6 1.9-5.9 3.1-1.3 1.3-4.3 5.2-6.6 8.8-2.3 3.6-11.8 20.5-21 37.5-9.3 17-19.5 35.5-22.7 41-3.3 5.5-7.1 11.5-8.4 13.2-1.3 1.8-2.8 3.3-3.4 3.3-0.6 0-1.4-0.9-2-2-0.6-1.1-2.1-10.2-3.5-20.3-1.4-10-3.8-27.4-5.5-38.7-1.6-11.3-3.8-25.5-4.9-31.5-1.5-7.8-2.6-11.4-3.8-12.3-1.2-0.8-5.3-1.2-11.6-1.2-8.3 0-9.8 0.3-10.4 1.7-0.3 1 0.4 7 1.6 13.3 1.2 6.3 5.3 29 9.1 50.5 3.7 21.5 8 46.7 9.5 56 1.5 10.3 2.3 18.4 1.9 20.5-0.4 1.9-1.6 5.3-2.7 7.5-1.1 2.2-4 7.2-6.5 11-2.5 3.8-6.8 9.4-9.6 12.4-2.8 2.9-6.5 6-8.1 6.9-2.1 1.1-5.5 1.5-11.8 1.4l-8.7-0.2c-2.6 5.8-3.3 9.3-3.4 11.5-0.1 3.8 0.2 4.1 4.4 6.3 3.9 2 5.5 2.3 12 1.9 4.1-0.3 10-1.5 13-2.7 3-1.1 8-3.8 11-5.9 3.4-2.3 8.1-7.2 12.3-12.7 4-5.3 18.1-28.9 34.6-57.9 15.4-27 32.3-56.9 37.7-66.5 5.3-9.6 13.9-25.7 19.1-35.8 5.1-10 9.1-18.9 8.8-19.7-0.4-1.1-1.9-1.5-5.8-1.4-2.8 0.1-6.8 0.5-8.7 1zm1850 1.2c-4.1 0.4-8 1.3-8.6 2-0.7 0.7-12.3 19.9-25.9 42.7-13.7 22.8-28.3 46.8-32.7 53.2-4.3 6.5-8.5 11.8-9.3 11.8-0.8 0-1.8-0.6-2.1-1.3-0.4-0.6-1.3-7.3-2-14.7-0.8-7.4-2.5-20.9-4-30-1.4-9.1-4.1-26-6-37.5-1.9-11.5-3.6-22-3.9-23.3-0.5-2.2-0.7-2.2-17.3-2.2h-16.7c-8.4 38.4-12.1 55.3-13.7 62.5-1.5 7.2-5.5 26-8.8 42-3.2 16-6 30.7-6.2 32.7-0.2 2-0.1 3.9 0.2 4.2 0.3 0.3 2.7 0.9 5.5 1.4 2.7 0.5 6.4 0.6 8 0.2 1.6-0.4 3.7-1 4.5-1.4 0.8-0.3 2.3-2.2 3.2-4.1 1-1.9 2.9-7.9 4.2-13.3 1.4-5.3 5-22.1 8.1-37.2 3.1-15.1 6.8-31.5 8.1-36.5 1.3-5 2.8-9.5 3.3-10 0.7-0.7 1.5 0.9 2.6 4.5 0.8 3 3.1 13.6 5 23.5 1.8 9.9 4.8 27 6.5 38 1.8 11 3.7 23.4 4.4 27.5l1.2 7.5 22.4 0.5c29.3-49.2 42.4-71.6 48-81.5 5.6-9.9 11.1-19 12.3-20.2 1.2-1.2 2.6-1.9 3.1-1.5 0.5 0.4 0.6 2.7 0.2 5.2-0.3 2.5-4.3 21.4-8.7 42-4.4 20.6-8.6 41-9.2 45.3-1.1 7.4-1.1 8 0.8 9.4 1.6 1.2 3.8 1.4 10 0.9 4.5-0.3 8.6-1.1 9.3-1.8 0.7-0.7 2.3-5.6 3.7-10.8 1.3-5.2 4.9-21 7.9-35 3-14 7.3-35.2 9.5-47 2.2-11.8 4.5-24.7 5.1-28.5 0.6-3.8 1.1-9.7 1.1-13 0-3.7-0.5-6.3-1.3-6.8-0.7-0.4-4.2-0.6-7.8-0.5-3.6 0.1-9.9 0.6-14 1.1zm839.7-0.1c-4.8 0.4-9.6 1.3-10.7 1.8-1.1 0.5-2.4 2.5-2.9 4.2-0.5 1.8-2.8 13.3-5.2 25.5-3.8 19.4-4.7 22.3-6.4 22.7-1.1 0.3-17.2 0.9-35.7 1.3-29.5 0.7-33.7 0.6-34.3-0.7-0.3-0.8 0.8-7.3 2.4-14.5 1.7-7.2 3.7-17 4.6-22 0.8-5 1.5-10.9 1.5-13.3 0-3.5-0.3-4.3-2.3-4.7-1.2-0.3-4.8-0.5-8-0.5-3.1 0-6.8 0.5-8.2 1-1.5 0.6-2.9 2.2-3.5 4.2-0.5 1.8-3.9 17.3-7.5 34.3-3.7 17-8.6 40.7-11.1 52.5-2.5 11.8-5.4 26.9-6.4 33.5-1.1 6.6-1.7 13-1.5 14.2 0.4 1.6 1.6 2.6 4.2 3.3 2.1 0.5 5 1 6.5 1 1.6 0 3.9-0.5 5.3-1 1.4-0.5 3.1-2.2 3.9-3.8 0.8-1.5 2.6-7.4 4.1-13.2 1.5-5.8 4.4-18.8 6.6-29 2.2-10.2 4-18.6 4.2-18.8 0.1-0.1 9.6-0.2 21.2-0.2 11.5 0 26.2 0.3 32.5 0.6 6.3 0.3 12.6 0.7 14 1 2.4 0.5 2.5 0.7 1.7 6-0.4 3-2.2 13.2-4.1 22.6-1.9 9.5-3.9 20.9-4.5 25.3-0.8 6.2-0.8 8.3 0.2 9.3 0.7 0.8 3.6 1.3 7.4 1.2 3.5 0 7.5-0.5 9-1.1 1.6-0.6 3.3-1.8 4-2.7 0.7-1 2.2-5.7 3.3-10.7 1.2-5 4.4-19.1 7-31.5 2.7-12.4 6-28.3 7.5-35.5 1.4-7.2 4.9-23.8 7.6-37 2.8-13.2 5-24.4 4.8-24.9-0.1-0.5-0.7-0.9-1.4-1-0.6-0.1-5 0.2-9.8 0.6zm178.3-0.5c-0.8 0.2-2.5 1-3.8 1.6-1.2 0.7-2.9 2.8-3.7 4.7-0.8 1.9-3.9 14.7-6.9 28.5-3 13.7-8.4 39-12 56-3.6 17-7.2 35-8.1 40-1.5 8.2-1.5 9.1 0 10.5 1.2 1.2 4.7 1.6 15.3 1.8l13.7 0.2c46.5-59.8 64.8-83.6 70.6-91.4 5.9-7.7 11.9-15.1 13.3-16.4 1.4-1.2 3-2 3.6-1.7 0.5 0.3 1 1.4 1 2.5 0 1.1-3.6 18.8-8.1 39.2-4.4 20.5-9.2 43.8-10.7 51.6-2.7 14.3-2.7 14.4-0.7 15.8 1.2 0.9 4.5 1.4 8.5 1.5 5 0 7.1-0.5 9.2-2.1 2-1.4 3.3-3.9 4.7-8.8 1.1-3.7 3.3-12.8 5-20.2 1.7-7.4 5.5-25.2 8.5-39.5 3-14.3 7.3-34.3 9.5-44.5 2.3-10.2 4.1-20.6 4.1-23.3v-4.7c-6.6-0.7-13.3-1.1-19.2-1.2l-10.8-0.3c-45.9 58.9-64.7 83-71.5 91.5-6.7 8.5-13.2 16.4-14.4 17.5l-2.2 2c0.1-4.3 1.7-13.3 3.6-22.8 2-9.4 6-29.4 9-44.2 3-14.8 5.8-30.6 6.2-35 0.6-7.8 0.6-8-1.8-8.7-1.3-0.4-4.2-0.7-6.4-0.7-2.2 0-4.7 0.3-5.5 0.6zm282.5 0.2c-1.6 0.4-4.2 1.4-5.8 2.4-1.9 1.2-3.1 3.3-4.2 6.9-0.8 2.9-4.4 19-8 35.8-3.6 16.8-8.6 40.1-11 51.7-2.5 11.7-5.2 25.9-6 31.5-0.8 5.7-1.7 11.8-2 13.5l-0.5 3.3c12-0.9 18.6-1.6 22.5-2.1 5.4-0.8 7.7-1.6 9.9-3.7 1.5-1.5 6.3-7 10.5-12.2 4.3-5.2 17.8-22.5 30.1-38.5 12.3-16 27.1-35 32.9-42.3 5.8-7.4 10.9-13 11.4-12.5 0.4 0.4 0 5.1-0.8 10.3-0.8 5.2-4.8 26.8-8.9 48-4.1 21.2-7.7 40.5-8 43-0.3 2.5-0.2 5.2 0.4 6 0.6 1 3.4 1.7 7.7 2.2 3.7 0.3 7.8 0.5 9 0.2 1.3-0.2 2.9-1.6 3.7-3.2 0.7-1.5 2.5-7.9 4-14.2 1.4-6.3 4.1-18.9 6-28 1.9-9.1 6.4-30.2 10-47 3.6-16.8 7.3-34.6 8.3-39.7 1-5 1.4-9.5 1-10-0.5-0.4-7.8-0.9-16.3-1.1l-15.4-0.2c-28.9 38.4-46 60.5-56.6 74-10.6 13.5-21.9 27.3-25.1 30.8-3.2 3.5-6.2 6-6.6 5.5-0.4-0.4 1.2-9.3 3.7-19.8 2.5-10.5 7.7-34.1 11.6-52.5 3.9-18.4 6.9-34.3 6.5-35.3-0.3-0.9-1.6-2.2-3-2.7-1.4-0.5-3.7-1-5.3-0.9-1.5 0.1-4.1 0.4-5.7 0.8zm-3764.3 3.8c-0.6 2.1-2.7 11.7-4.7 21.3-2 9.6-7.9 36.8-13 60.5-5.1 23.7-9.9 45.8-10.7 49.2-1.1 5.2-1.1 6.5 0 7.5 0.7 0.7 3.4 1.5 6 1.8 2.6 0.3 6.7 0.2 9.2-0.2 2.5-0.4 5.2-1.6 6-2.6 0.8-1 3-8.3 4.8-16.2 1.9-8 7.1-33 11.8-55.5 4.6-22.5 8.8-42.3 9.2-44 0.5-1.7 1.9-3.5 3.3-4.2 1.6-0.8 12.7-1.4 32.4-1.8 16.5-0.4 31.5-1 33.4-1.4 1.9-0.3 4.2-1.7 5.3-3.1 1.1-1.4 2.2-4.8 2.5-7.5 0.5-4.8 0.4-5-2.3-5.9-1.6-0.5-23-1-47.5-1.3l-44.7-0.5zm785.2-2.8c-4.5 0.4-8.5 0.9-8.8 1.2-0.3 0.2-3.5 13.7-7.1 30-3.6 16.2-9.4 43.2-12.9 60-3.5 16.7-7.1 34.7-8 40-1.2 6.8-1.3 9.8-0.5 10.5 0.6 0.5 3.8 1 7.3 1 3.4 0 7.3-0.3 8.7-0.7 1.4-0.4 3.2-2.1 4.1-4 0.9-1.8 3.5-10.8 5.7-19.8 2.2-9.1 6.1-26.7 8.6-39 2.6-12.4 6.3-31 8.3-41.4l3.8-18.8c45.7 0.2 60.8 0.6 63.1 1 2.3 0.4 4.5 1 5 1.5 0.5 0.4 0.3 3.9-0.4 8-0.7 3.9-3.8 18.9-6.9 33.2-3 14.3-7 33.2-8.9 42-1.9 8.8-4.2 20.6-5.2 26.2-1 5.5-1.4 10.5-0.9 11 0.4 0.4 4.6 0.9 9.2 1 7.6 0.2 8.7 0 10.8-2 1.5-1.5 2.9-4.8 4.1-9.7 0.9-4.2 6.4-29.8 12.1-57 5.7-27.3 11.3-54.7 12.4-61 1.2-6.4 1.8-11.9 1.4-12.3-0.5-0.5-22.4-1-48.8-1.2-26.4-0.2-51.7 0-56.2 0.3zm267.4-0.2c-0.3 0.5-3.6 14.8-7.3 31.9-3.6 17-9.6 44.2-13.1 60.5-3.5 16.2-7.1 32.6-7.9 36.5-0.9 3.8-1.4 8.3-1.3 9.9 0.3 2.3 1 3.1 3.4 3.8 1.6 0.4 5.7 0.8 9 0.8 3.4 0 6.5-0.5 7.3-1.3 0.8-0.7 2-2.4 2.7-3.7 0.7-1.4 3.1-10.9 5.4-21 2.2-10.2 7.6-36.1 11.9-57.5l7.9-39h67.8c-0.3 11.1-2.3 22.7-5 35-2.6 11.5-6.9 31.8-9.7 45-2.7 13.2-5.2 27.6-5.6 32.1-0.7 7.9-0.7 8.1 1.8 9.3 1.5 0.8 4.8 1.2 8.7 1 3.6-0.3 6.8-1 7.8-1.9 0.8-0.9 3.1-8.1 5-16 1.9-8 7-31.2 11.4-51.5 4.4-20.4 9-42.9 10.4-50 1.4-7.2 2.8-15.1 3.2-17.5 0.6-3.8 0.4-4.7-1.2-5.4-1-0.5-26.6-1.1-56.9-1.4-31.1-0.3-55.3-0.1-55.7 0.4zm1610.8 0.3c-5.5 0.3-10.9 1.1-12 1.8-1.7 0.9-2.9 5.2-6.9 24.9-2.7 13.1-8 38-11.8 55.4-3.8 17.3-7.8 36.4-8.9 42.5-1.1 6-2 12.2-2 13.7 0.1 1.6 0.7 3 1.6 3.3 0.8 0.2 5.7 0.5 11 0.5 9 0 9.5-0.1 10-2.3 0.2-1.2 6.1-28.3 13-60.2 6.8-31.9 12.9-58.5 13.5-59 0.6-0.6 12.6-1.2 30.3-1.4 16-0.1 30.7 0.1 32.7 0.6 3.4 0.9 3.4 1 3.1 5.9-0.1 2.7-3.8 21.7-8.2 42.4-4.3 20.6-9 44-10.4 52-1.4 7.9-2.6 16.2-2.5 18.2 0 3.5 0.2 3.8 3.2 4.4 1.8 0.3 5.3 0.6 7.8 0.5 2.7 0 5.5-0.8 7-2 1.8-1.3 3-4 4.7-10.2 1.2-4.6 4-16.5 6.2-26.4 2.2-9.9 8.1-37.4 13-61 5-23.7 9-43.4 9-43.8 0.1-0.4-21-0.7-46.7-0.6-25.7 0.1-51.2 0.5-56.7 0.8z"/>
		<path id="Path 3" class="s0" d="m6826.6 225.1c-0.3 1.3-4.6 22.3-9.4 46.7-4.8 24.4-8.9 44.7-9 45.3-0.1 0.5 11.4 0.7 30 0.5 22.6-0.3 32-0.8 36.8-1.9 3.6-0.9 9.4-2.6 13-4 3.6-1.3 9-4 12-5.9 3-1.9 7.4-5.6 9.7-8.1 2.4-2.6 5.6-7.5 7.3-10.9 1.6-3.5 3.5-8.8 4.1-11.8 0.6-3 0.9-9.6 0.7-14.5-0.3-7.2-1-10-3-14-1.5-2.7-4.6-6.9-7-9.2-2.3-2.3-7.2-5.6-10.8-7.2-3.6-1.7-9.6-3.8-13.5-4.7-5.1-1.1-14.3-1.7-33.6-2.1l-26.6-0.5zm375.4 25.1c-6.3 15-15.4 36.5-20.4 47.7-4.9 11.3-16 35.7-24.8 54.3-8.7 18.5-15.9 34.2-15.9 34.7 0 0.7 14.4 1 41 1h41c0-3.8-1.1-28.3-2.4-56.7-1.4-28.5-3-63.7-3.5-78.3-0.6-14.5-1-27.3-1-28.2-0.1-1-0.6-1.8-1.3-1.8-0.7 0-6.3 11.9-12.7 27.3zm-2368.6 118.6c-3.3 1-8.7 3.2-12 4.8-3.3 1.7-8.7 5.1-12 7.6-3.3 2.5-9.6 8.3-14 12.9l-8 8.3c-1.1 12.4-1.5 19-1.5 22.5 0 3.6 0.5 10.4 1.1 15 0.6 4.7 1.8 11.2 2.6 14.5 0.9 3.3 3.2 9.2 5.2 13 1.9 3.9 5.7 9.4 8.6 12.4 3 3.2 7.6 6.5 11.5 8.5 6.1 2.9 7.2 3.1 17 3.1 9.8 0 11-0.2 17.3-3.2 3.7-1.8 9.3-5.6 12.4-8.5 3.1-2.9 7.7-8.4 10.3-12.3 2.5-3.8 6-10.8 7.7-15.5 1.7-4.6 3.9-12 4.7-16.2 1-4.5 1.6-12.5 1.6-19 0-6.6-0.6-13.9-1.5-17.8-0.9-3.5-2.7-8.7-4.1-11.5-1.4-2.7-4.6-7.1-7.2-9.7-2.7-2.8-7.2-5.9-10.7-7.4-4.5-2-8-2.8-14.5-3-6.1-0.3-10.1 0.2-14.5 1.5zm1963.1 5.3c-0.2 0.7-5.2 24.8-11 53.6-5.8 28.7-10.6 52.9-10.6 53.7 0 1.3 4.2 1.5 31.3 1.5 17.2 0 34.8-0.4 39.2-1 4.4-0.5 11.6-1.8 16-2.9 4.4-1.2 11.9-3.9 16.5-6.2 6.5-3.2 10.2-5.9 15.6-11.3 4.1-4.1 8.1-9.4 9.7-12.6 1.4-3 3.3-8.4 4.2-12 0.8-3.5 1.5-10 1.5-14.2 0-4.3-0.6-10.8-1.4-14.5-1-4.2-3-9.1-5.3-12.8-2.1-3.3-5.6-7.4-7.8-9.3-2.2-1.8-6.2-4.3-9-5.7-2.7-1.3-8.6-3.4-13-4.6-7.2-2-10.9-2.2-41.6-2.6-27.6-0.4-33.8-0.2-34.3 0.9zm-3198.1 415.4c-6 0.8-14.2 2.4-18.2 3.5-4 1.1-11.2 3.6-16 5.7-4.8 2.1-12.1 5.9-16.3 8.4-4.1 2.6-11.1 7.6-15.5 11.1-4.4 3.6-11.3 10-15.5 14.4-4.1 4.4-10.5 12.2-14.2 17.4-4.2 5.8-10.8 17.6-17.2 30.4-5.8 11.6-11.8 25.2-13.5 30.3-1.7 5.1-3.1 10.5-3.1 12 0 2.5 0.4 2.8 4.8 3.5 2.6 0.4 14.9 0.7 27.2 0.7 12.4 0 32.4-0.4 44.5-1 12.1-0.6 27.9-1.7 35-2.5 7.2-0.9 17.5-2.5 23-3.6 5.5-1.1 15.2-3.6 21.5-5.5 6.4-1.9 14.2-4.7 17.5-6.1 3.3-1.5 9.9-4.9 14.5-7.6 5.1-3 11.1-7.6 15-11.6 3.6-3.7 8.2-9.6 10.3-13.1 2.1-3.6 5.1-10.6 6.8-15.7 1.9-5.9 2.9-11.4 2.9-15 0.1-3.2-0.8-9-2-13-1.1-4-2.8-9-3.9-11-1-2.1-3.8-6.2-6.2-9.2-2.4-2.9-7.1-7.3-10.4-9.6-3.3-2.4-9.1-5.7-13-7.4-3.8-1.7-10.6-3.8-15-4.7-4.4-0.8-13.4-1.7-20-1.9-7.5-0.2-16.1 0.2-23 1.1zm1649.4 12.6c-2 0.6-7.4 2.2-12 3.5-4.6 1.4-13.3 5-19.4 7.9-6 3-14.8 8.3-19.5 11.8-4.6 3.5-12.3 10.2-17 14.8-4.7 4.6-12.1 12.8-16.5 18.3-4.4 5.5-9.7 12.7-11.9 16-2.2 3.3-7.2 12.3-11.1 20-3.8 7.7-9.3 19.4-12.1 26-2.8 6.6-7.1 18.3-9.6 26-2.5 7.7-6.2 21.2-8.1 30-2 8.8-4.6 22.6-5.8 30.5-2 12.9-2.2 18.5-2.3 50 0 30.9 0.2 36.6 1.8 44 1 4.7 3.1 12.4 4.7 17 1.6 4.7 4.9 11.5 7.4 15 2.4 3.6 7.7 9.7 11.7 13.6 4 3.8 10.7 9.1 14.8 11.7 4.2 2.5 10.9 5.8 15 7.2 4.2 1.4 10.8 3.2 14.8 4.1 4.6 0.9 12.9 1.4 23 1.4 8.7 0 18.9-0.5 22.7-1 3.9-0.5 10.6-1.9 15-3.1 4.4-1.1 11.2-3.1 15-4.5 3.9-1.3 9.3-3.7 12-5.3 2.8-1.6 8.4-5.5 12.5-8.6 4.2-3.2 10.5-8.5 14-11.8 3.6-3.3 9.9-9.6 13.9-14.1 4-4.4 10.6-12.3 14.6-17.6 3.9-5.2 9.6-13.5 12.6-18.5 2.9-4.9 7.9-14.6 11.1-21.5 3.1-6.8 8.2-19.9 11.3-29 3.1-9 7.2-22.3 9.1-29.5 1.8-7.1 4.3-17.9 5.4-24 1.1-6 2.2-12.5 2.5-14.5 0.3-1.9 1.2-10.9 2-20 0.9-9 1.5-26.5 1.5-38.7 0-13.9-0.5-26.5-1.4-33.5-0.8-6.2-2.7-14.6-4.1-18.8-1.4-4.1-4.4-11.1-6.7-15.5-3.1-5.8-6.6-10.3-12.7-16.5-7.4-7.4-10-9.3-19.1-13.8-5.7-2.8-14.1-6.1-18.5-7.3-7-1.9-11-2.2-32.5-2.4-14.3-0.2-26 0.1-28.1 0.7zm-1050.4 9.8c-3.8 1-10.1 3-14 4.5-3.8 1.4-12.1 5.7-18.5 9.5-6.3 3.7-15.2 9.6-19.7 12.9-4.5 3.4-13.3 11.2-19.5 17.4-6.2 6.2-15.1 16-19.7 21.7-4.6 5.8-11.2 14.8-14.6 20-3.5 5.3-10.1 16.5-14.9 25-4.7 8.6-10.9 20.9-13.7 27.5-2.8 6.6-7.5 19.2-10.4 28-3.7 11.2-8.6 31-16.4 65.8-6.1 27.3-11.1 50.2-11.1 50.7 0 0.6 4.7 7.2 10.4 14.8 5.7 7.5 13.9 17.1 18.3 21.2 4.3 4.2 11.5 9.9 15.9 12.8 4.3 2.9 12.4 7.5 17.9 10.2 5.5 2.7 13 5.6 16.5 6.5 5.2 1.2 11.3 1.5 29 1.2 21.5-0.3 22.9-0.5 30-3.1 4.2-1.4 10.2-4.2 13.5-6 3.3-1.8 9.6-6 14-9.3 4.4-3.2 10.7-8.4 13.9-11.3 3.3-3 9.3-9.5 13.5-14.5 4.1-4.9 9.9-12.6 12.7-17 2.9-4.4 8.5-14.3 12.4-22 3.9-7.7 9.3-19.6 12-26.5 2.6-6.8 7.1-20.1 9.9-29.5 2.8-9.3 6.9-24.4 9.1-33.5 2.2-9 4.7-21.2 5.5-27 0.9-6.4 1.6-23.7 2-45 0.3-18.9 0.1-39.9-0.3-46.5-0.7-8.7-1.6-14-3.5-19.5-1.5-4.1-4.6-10.6-6.8-14.5-2.3-3.8-6.3-9.2-8.9-12-2.6-2.7-7.3-6.4-10.6-8.1-3.2-1.7-9.1-3.9-13.1-4.8-4.8-1-11.8-1.5-20.5-1.5-9.5 0-15.2 0.6-20.3 1.9zm2003.5 687.6c-3.5 1.4-7.8 3.5-9.5 4.7-1.6 1.1-5.8 4.8-9.3 8.1-3.5 3.4-7.4 7.7-8.6 9.6-1.2 2-3.7 6.9-5.5 11-1.8 4.2-4.2 10.9-5.2 15-1.1 4.3-2 11-2 15.5 0 5.4 0.7 10.2 2.1 14.5 1.1 3.6 3.6 8.9 5.5 11.8 2 2.9 5 6.3 6.8 7.7 1.8 1.3 5.5 3.4 8.2 4.6 2.8 1.2 8 2.4 11.5 2.6 3.6 0.3 9.5 0 13-0.6 3.6-0.6 8.6-2 11-3.2 2.5-1.2 8.4-6.1 13.1-10.8 7.1-7.1 9.3-10.2 13.2-18.1 2.5-5.2 5.3-12.7 6.2-16.7 0.8-4 1.5-11.4 1.6-16.5 0-5.1-0.7-12-1.6-15.3-0.8-3.3-3.2-8.4-5.2-11.3-2.1-3-5.1-6.4-6.8-7.6-1.6-1.3-5.9-3.3-9.5-4.5-3.8-1.4-9.7-2.4-14.5-2.7-6.8-0.3-8.9 0-14.5 2.2zm-1811.5 2.2c-6.3 3.2-9.5 5.7-15.3 11.9-5.7 6-8.5 10.2-12.3 17.8-2.6 5.5-5.8 13.9-6.9 18.5-1.7 6.6-2.1 10.8-1.8 18.5 0.3 8.4 0.8 11 3.1 15.8 1.5 3.1 5.1 8.2 8 11.1 4.2 4.3 6.5 5.7 11.2 7.2 4 1.1 9.7 1.8 16.5 1.8 9.5 0.1 11.1-0.1 16-2.5 3.1-1.5 8.6-5.6 12.4-9 3.8-3.5 9.5-10.2 12.6-14.9 3.7-5.6 6.6-11.5 8.6-17.5 2.8-8.4 2.9-10 2.9-24.5 0-13.5-0.2-16-2-20-1.1-2.4-3.8-6.4-6-8.8-2.6-2.8-5.9-5-9.5-6.4-4-1.5-8.5-2.2-17.5-2.5l-12-0.4zm1102.5 51.7c-4.1 0.8-14.2 2.5-22.5 3.9-8.2 1.3-17.4 3.4-20.5 4.5-3 1.2-7.7 3.8-10.4 5.8-2.7 2.1-5.8 5.1-6.8 6.7q-1.8 3-2 10.2c-0.2 5.9 0.1 7.7 1.8 10 1.2 1.6 4.3 4.3 7 6.1 4.9 3.3 5 3.3 16.9 3.3 9.4 0 13.6-0.5 19-2.2 6.1-1.8 7.9-2.9 13.3-8.5 4.4-4.5 7.4-8.8 10.2-14.6 2.2-4.5 4.9-11.6 6.2-15.8 1.2-4.1 1.9-8.2 1.5-9.2-0.4-1.1-1.6-1.7-3.4-1.7-1.5 0.1-6.1 0.8-10.3 1.5zm1601-0.4c-2.4 0.5-12.4 2.2-22.2 3.9-9.8 1.6-20.1 3.8-23 4.9-2.9 1.1-7.5 3.6-10.3 5.5-2.7 1.9-5.8 4.9-6.9 6.7-1.2 2.1-2.1 6-2.4 10.3l-0.5 7c6.2 7 9.7 9.8 11.7 10.8 2.8 1.3 6.2 1.7 14.9 1.7 6.8 0 13.4-0.6 16.7-1.5 3.1-0.8 7.3-2.5 9.5-3.8 2.2-1.3 6-4.8 8.4-7.8 2.4-2.9 5.8-8.3 7.6-11.9 1.8-3.5 4.5-10.4 5.9-15.2 2.2-7.1 2.4-9 1.4-10.3-0.7-0.9-2.4-1.5-3.8-1.4-1.3 0.1-4.5 0.6-7 1.1z"/>
	</g>
</svg>