<svg version="1.2" xmlns="http://www.w3.org/2000/svg" viewBox="0 0 1592 400" width="1592" height="400">
	<title>pNa9yG4IWvE</title>
	<style>
		.s0 { fill: #ffffff } 
		.s1 { fill: #394e6e } 
	</style>
	<path id="Слой 1" class="s0" d="m71 76h1431c11 0 20 9 20 20v232c0 11-9 20-20 20h-1431c-11 0-20-9-20-20v-232c0-11 9-20 20-20zm11-8h1407c22.1 0 40 17.9 40 40v209c0 22.1-17.9 40-40 40h-1407c-22.1 0-40-17.9-40-40v-209c0-22.1 17.9-40 40-40z"/>
	<g id="Background">
		<path id="Path 1" fill-rule="evenodd" class="s1" d="m137.8 116.6c-4.3 0.8-10.6 2.5-14.1 3.8-3.4 1.3-8.5 3.5-11.2 4.9-2.8 1.3-7.7 4.5-11 6.9-3.3 2.5-8.7 7.1-11.9 10.4-3.2 3.2-8.1 9.1-10.9 12.9-2.7 3.8-6.5 10.2-8.3 14-2 4.2-3.4 8.5-3.4 10.8 0 2.9 0.6 4.1 2.7 5.7 1.6 1.2 3.7 2.1 4.8 2.1 1.1 0 3-0.8 4.2-1.8 1.2-1 3.4-4.7 4.9-8.3 1.4-3.6 4.4-9.2 6.4-12.5 2.1-3.3 7.3-9.4 11.7-13.5 5.1-4.9 10.7-9 15.8-11.7 4.4-2.2 11.4-5.2 15.5-6.5 6.5-2 9.5-2.3 22.5-2.3 13.7 0.1 15.7 0.3 23 2.9 4.4 1.5 11.1 4.6 15 6.9 3.8 2.3 10.1 7.1 13.9 10.7 3.8 3.6 9.1 9.7 11.8 13.5 2.7 3.8 4.8 7.6 4.8 8.3 0 0.6 1.1 2.3 2.5 3.7 2.3 2.3 3.2 2.5 12 2.5h9.5l0.5 63.2c5.9 5 6.3 5 19.7 4.7 11.5-0.3 14-0.7 15.5-2.2 1.6-1.6 1.8-4.6 2-33.7l0.3-32h7v63c4.9 4.9 5.4 5 18.5 5 13.2 0 13.7-0.1 16-2.5l2.5-2.5c0-62.3 0-63 2-63 1.1 0 5.3 3 9.2 6.6l7.3 6.6c1 23.5 1.1 24.1 3.7 26.4 1.6 1.3 3.9 2.4 5.3 2.4 1.4 0 3.7-1.1 5-2.5 2.4-2.4 2.5-2.9 2.5-17.5v-15c-18.6-17.1-25-22.3-26.3-22.6-1.2-0.3-6.2-0.4-11-0.2-8.1 0.3-9.1 0.5-10.8 2.8-1.9 2.4-2 4.2-1.9 33.8v31.2h-7c0.1-60.8 0-62.6-1.9-65-1.9-2.4-2.3-2.5-16-2.7-13.9-0.3-14.1-0.3-16.6 2.2l-2.5 2.5v63h-7c0-46.9-0.4-61.6-0.8-62.9-0.4-1.3-1.9-3-3.5-3.7-1.7-0.9-6.3-1.4-13-1.4h-10.2c-4.7-8.9-9.6-15.2-14-19.8-4.8-5.1-11.6-10.8-17-14.4-4.9-3.2-12.7-7.2-17.3-8.8-4.5-1.7-12.4-3.7-17.5-4.5-5-0.8-12.8-1.5-17.2-1.4-4.4 0-11.5 0.7-15.8 1.5zm533.8 23.8c-2.7 0.7-7.5 2.4-10.5 3.8-3 1.4-7.9 4.4-10.7 6.6-2.9 2.3-7.1 6.6-9.2 9.5-2.2 2.8-5.5 8.4-7.4 12.2-1.9 3.9-4.4 10.2-5.6 14-1.1 3.9-2.5 11.3-3 16.5-0.6 5.5-0.7 12.2-0.2 16 0.5 3.6 1.9 8.9 3.2 11.9 1.5 3.4 4.1 6.9 6.9 9.3 2.5 2.2 7 4.9 10 6.1 4.9 1.9 7.4 2.1 22.5 2.2 14.8 0 18-0.3 25-2.3 4.4-1.3 8.8-3.1 9.9-4 1-0.9 2.4-2.9 3.2-4.4 0.8-1.6 1.7-5.8 2.2-9.4l0.7-6.7c-5.4 0.9-11.3 2.3-16.5 3.7-7.1 2-11.8 2.6-18.7 2.6-7.3 0-10.2-0.4-13.3-2-2.8-1.4-4.6-3.2-6-6.2-1.1-2.5-2-6.4-2-9.3 0-2.7 0.3-5.9 0.6-7 0.5-1.9 1.6-2 15.7-2.6 8.6-0.4 18.5-1.4 22.7-2.4 4.1-1 10.2-3 13.5-4.4 3.3-1.5 8-4.5 10.4-6.7 2.4-2.1 5.2-5.7 6.4-7.9 1.1-2.2 2.2-6.5 2.5-9.5 0.3-3.3 0-7.5-0.9-10.4-0.8-3-3-6.7-5.4-9.4-2.2-2.5-5.8-5.4-8-6.5-2.2-1.1-6.2-2.6-9-3.3-2.7-0.8-9.3-1.3-14.5-1.3-5.2 0-11.7 0.6-14.5 1.3zm117 0.7c-3.3 1.2-8.2 3.6-11 5.3-2.7 1.8-6.7 5.2-8.9 7.7l-3.8 4.4c0.9-5.4 1.5-8.9 1.9-11.3 0.6-3.4 0.5-4.5-0.7-5.2-0.8-0.6-5.3-1-10-1-6.8-0.1-8.9 0.3-10.7 1.7-1.9 1.6-3.9 10.3-15.7 69.8-7.5 37.4-13.6 69-13.6 70.3 0 1.2 0.6 2.4 1.3 2.6 0.6 0.2 3.5 0.7 6.2 1.1 2.8 0.4 7.5 0.5 10.5 0.1 3-0.3 6.3-1.2 7.3-1.9 1.4-0.9 2.8-6.2 5.9-22.7 2.2-11.8 4.4-21.9 4.9-22.5 0.6-0.6 1.9 0 3.6 1.6 1.6 1.5 4.8 3.7 7.3 5 3.9 2.1 5.9 2.4 15.5 2.4 10.4 0 11.4-0.2 18-3.3 4.9-2.4 8.9-5.3 13.5-10 4.9-5 7.8-9.2 11.2-16.2 2.6-5.2 5.7-13.3 7-18 1.9-7.1 2.3-11.1 2.3-24v-15.5c-5.9-11.8-8.4-15-11.2-17.2-2.4-1.8-6-3.7-8-4.3-2.1-0.5-6.7-1-10.3-1-3.9 0.1-8.9 0.9-12.5 2.1zm77-0.1c-3.8 1-7.3 1.9-7.8 1.9-0.4 0.1-2.1 1.3-3.8 2.9-1.7 1.5-3.8 4.3-4.6 6.2-0.8 1.9-1.7 6-2 9-0.5 4.2-0.3 5.7 0.8 6.4 0.9 0.5 3.8-0.3 8.4-2.5 3.9-1.8 9.3-3.8 12-4.6 2.8-0.7 7.1-1.3 9.8-1.3 2.6 0 6.3 0.7 8.2 1.5 1.9 0.8 4 2.4 4.5 3.5 0.5 1.1 1 3.4 1 5 0 1.7-1 4.2-2.3 5.8-1.3 1.5-4.8 3.7-7.8 4.9-3 1.2-9.9 3.6-15.4 5.3-5.5 1.8-12.7 4.6-15.9 6.4-3.3 1.7-7.9 4.9-10.4 7.1-2.4 2.2-5.6 6.5-7 9.5-2.2 4.5-2.6 6.9-2.6 13.5 0 6.1 0.5 8.9 2.1 12 1.1 2.2 3.6 5.4 5.4 7.1 1.9 1.6 6.1 4.1 9.4 5.4 5.4 2.2 7.5 2.4 20.5 2.5 11.3 0 16.2-0.4 22-2 4.1-1 8.9-2.8 10.5-4 1.7-1.1 3.9-3.8 4.9-6 1.1-2.2 2.2-6.8 2.5-10.2 0.5-4.9 0.3-6.3-0.9-6.9-0.8-0.3-5.8 1.1-11 3.1-5.2 2.1-12.4 4.2-16 4.8-3.6 0.5-8.7 0.6-11.5 0.2-3.2-0.5-5.8-1.6-7.2-3.1-1.6-1.7-2.3-3.6-2.3-6.4 0-2.8 0.7-4.7 2.3-6.3 1.2-1.3 4-3.3 6.2-4.4 2.2-1.1 9.2-3.7 15.5-5.8 6.3-2 14.6-5.3 18.4-7.3 4.2-2.3 8.6-5.7 11.3-8.7q4.5-5 6-10.5c1-3.4 1.4-7.6 1.1-11-0.3-3-1.4-7.3-2.5-9.5-1.1-2.2-3.6-5.3-5.4-6.9-1.9-1.6-5-3.6-6.9-4.6-1.9-1-5.9-2.3-8.7-2.9-2.9-0.6-9.5-1.1-14.5-1-5.8 0-12 0.7-16.3 1.9zm101.5-0.5c-3 0.9-8.4 2.9-12 4.7-4.4 2.1-8.8 5.4-13.5 10.2-4.8 4.8-8.4 9.7-11.2 15.1-2.3 4.4-5.1 11.4-6.3 15.5-1.4 4.9-2.4 11.7-2.7 19.5-0.5 10.6-0.3 12.9 1.7 19.5 1.9 6.5 3 8.3 7.9 13 3.8 3.8 7.5 6.3 11.6 7.9 4.7 1.9 8.6 2.5 18 2.9 9.1 0.3 13.6 0 18.5-1.2 3.6-0.9 9.4-3.1 13-4.8 3.6-1.8 9.1-5.7 12.4-8.8 3.2-3 7.8-8.6 10.1-12.5 2.4-3.8 5.4-10.1 6.8-14 1.4-3.8 3-10.4 3.7-14.5 0.7-4.3 1-11.8 0.7-17.5-0.3-5.5-1-11.7-1.6-13.7-0.6-2.1-2.6-5.7-4.3-8-1.8-2.3-5.3-5.7-7.8-7.6-2.5-1.8-6.7-4-9.5-4.9-3-0.9-10.1-1.7-17.5-1.9-9-0.3-14 0-18 1.1zm-542.3 1.2c-0.3 1-1.3 5.4-2.2 9.8-0.9 4.4-1.8 8.8-2.1 9.8-0.4 1.6 1.4 1.7 25.5 2l26 0.2c4.8 4.7 6.7 7.6 7.3 9.5 0.6 2.1 0.9 7.1 0.6 12.5-0.4 5.6-1.5 12-3.1 17-1.5 4.4-4.1 10.2-5.9 12.9-1.8 2.7-4.9 6.1-6.8 7.5-1.9 1.4-5 3.1-7 3.8-2.3 0.8-11.4 1.2-27.3 1.3-13 0-23.7 0.3-23.7 0.8 0 0.4-0.9 5-2 10.2-1.1 5.2-2 9.8-2 10.3 0 0.4 12.5 0.7 27.7 0.7 21.6 0 29.1-0.3 33.5-1.5 3.2-0.8 8.4-2.8 11.5-4.4 3.2-1.6 8-4.8 10.7-7.2 2.7-2.4 6.7-7.1 9-10.4 2.2-3.3 5.4-9.4 7.1-13.5 1.8-4.1 4-10.9 5.1-15 1.3-5.4 1.9-11.1 1.8-20 0-10.5-0.3-13.4-2.1-18-1.2-3-3.7-7.3-5.6-9.5-2.1-2.5-5.9-5.2-9.8-7l-6.4-3c-57.5-0.6-59.3-0.5-59.8 1.2zm1012.3-0.1c-3 0.8-8.2 3-11.4 4.7-3.4 1.9-8.7 6.1-12.5 10.2-4.5 4.8-8 9.7-10.8 15.5-2.3 4.7-5.2 12.1-6.4 16.5-1.8 6.4-2.2 10.9-2.3 22-0.1 10.8 0.3 15.1 1.6 19 1 2.8 3.5 7 5.6 9.5 2.5 2.9 6.2 5.6 10.3 7.5l6.4 3 59 0.7c3.5-16 4.5-21.3 4.5-21.9 0-1-5.5-1.3-24.2-1.3-21.1 0-24.8-0.2-27.8-1.8-1.9-0.9-4.3-3.3-5.5-5.2-1.6-2.9-2-5.1-1.9-12.5 0.1-5.1 0.9-11.8 1.9-15.5 0.9-3.6 2.7-8.7 3.9-11.5 1.2-2.7 4-7 6.3-9.5 2.2-2.5 5.8-5.4 7.9-6.5 3.5-1.8 6.5-2.1 28.9-2.5l24.9-0.5c2.5-12.4 3.5-17.2 3.9-18.7l0.7-2.8c-50.9 0.1-58.8 0.5-63 1.6zm-904.8 0.5c-1.2 0.5-2.4 1.7-2.6 2.7-0.3 0.9-4.8 23.8-10.1 50.7-9.2 46.8-9.6 49.1-7.8 50.3 1.3 1 4.8 1.2 12.6 1 8.5-0.2 11.1-0.7 12-1.9 0.7-0.8 2.7-9.4 4.6-19 1.9-9.6 3.8-18.4 4.3-19.6 0.8-2.2 1.2-2.3 14.5-2.2 7.6 0.1 16.1 0.4 18.8 0.7l5.1 0.7c-7.4 37.9-7.5 39.1-5.8 40.3 1.1 0.8 5.1 1.2 11.2 1.2 5.6 0 10.5-0.5 12-1.3 2.3-1.2 2.8-2.9 7.7-27.2 2.8-14.3 7.3-37 10-50.3 4.8-24.1 4.8-24.4 2.8-25.8-1.4-1-4.9-1.4-11.5-1.5-7.6 0-10 0.4-11.8 1.8-2 1.5-2.9 4.5-6.1 20.3l-3.6 18.5c-29.8 0.4-38.5 0.2-38.5-0.2 0-0.5 1.7-9.1 3.7-19.2 3.8-18.2 3.8-18.3 1.8-19.7-1.4-1-4.8-1.4-11.5-1.4-5.2 0.1-10.5 0.5-11.8 1.1zm525.2 0.3c-1.7 0.8-3.8 2.5-4.7 3.8-0.9 1.3-5.2 14-9.6 28.3-4.3 14.3-10.9 35.8-14.5 47.8-5.4 17.8-6.4 22-5.4 23.2 1 1.2 3.4 1.6 10.8 1.6 7.7 0 9.9-0.4 11.7-1.8 1.5-1.3 4.4-9.3 10.7-29.8 4.7-15.4 10-33.6 11.8-40.4l3.3-12.4c1.2 12.2 3.1 30.4 5.1 48.3 3.2 30.1 3.6 32.6 5.7 34.3 1.7 1.4 4 1.8 10.4 1.7 4.6 0 9.5-0.6 10.9-1.2q2.6-1.3 7.9-11.3c2.9-5.5 12.3-23.9 20.9-41 8.6-17 15.6-30.4 15.6-29.7 0 0.6-0.7 5.6-1.5 11-0.8 5.3-2.6 23.2-4 39.7-1.4 16.5-2.4 30.6-2 31.3 0.3 0.8 3.5 1.2 10.7 1.2 7.4 0 10.9-0.4 12.3-1.4 1.8-1.3 2.3-4.6 5.2-35.3 1.7-18.6 3.7-40.7 4.5-49.1l1.3-15.4c-5.3-4.6-6.3-4.8-16.8-4.8-6.1 0-13 0.5-15.2 1.1-2.5 0.7-5.5 2.7-8 5.3-2.9 3-8.4 13-19.2 34.7-8.3 16.7-15.5 31.3-15.9 32.4-0.5 1.2-1-2.4-1.5-9.5-0.4-6.3-1.9-21.2-3.4-33-1.5-11.8-3.2-22.6-3.9-23.9-0.6-1.3-2.4-3.4-3.9-4.5-2.4-1.8-4.5-2.1-14.5-2.4-8.5-0.2-12.5 0.2-14.8 1.2zm142.7 0.4c-1.8 1.4-3.2 6.7-8.8 34.2-5.7 28-6.6 34-6.7 43.5-0.1 10.1 0.2 11.4 2.7 16.3 1.7 3.2 4.1 6.1 6.4 7.6 2.1 1.3 5.6 2.9 7.8 3.6 2.4 0.8 7.3 1.1 12 0.9 6.8-0.4 9.2-1 16-4.4 5.4-2.6 9.9-5.8 13.7-9.7 4.4-4.4 5.7-5.3 5.3-3.5-0.2 1.2-0.9 4.7-1.4 7.7-0.8 4.2-0.8 5.8 0.2 6.8 0.8 0.9 4 1.3 9.9 1.2 7 0 9.2-0.4 10.5-1.8 1.3-1.3 4.5-15.2 11.7-51.7 9.6-48.3 9.8-50 8-51.3-1.4-1-4.9-1.2-12.6-1-5.9 0.2-11.2 0.7-11.8 1.3-0.6 0.6-3.3 12.3-6.1 26-4.1 20.7-5.7 26.4-8.8 33-2.1 4.4-5.8 10.2-8.2 12.9-2.4 2.7-6.4 6.2-8.9 7.8-3.3 2.1-5.7 2.8-9.3 2.8-4 0-5-0.4-6.7-2.7-1.6-2.1-2.1-4.3-2-8.8 0-3.3 2.7-19.7 6-36.5 3.3-16.8 6-31.5 6-32.7 0-1.3-0.7-2.5-1.5-2.8-0.8-0.3-5.9-0.5-11.4-0.5-7.9 0-10.3 0.3-12 1.8zm110.4-0.8c-1.6 0.7-2.5 2.7-3.8 8.2-0.9 4-3.6 17.4-6.1 29.8-2.5 12.4-6.3 32-8.6 43.5-3.9 20-4 21.1-2.3 22.3 1.2 0.8 5.2 1.2 11.3 1.2 5.5 0 10.5-0.6 11.9-1.3 2.2-1.1 2.8-3 6.5-21.2l4.1-20c12.9 0 14.7 0.4 16.5 2 1.3 1.1 2.9 3.6 3.7 5.5 0.9 1.9 2.8 10 4.4 18 1.6 8 3.5 15.1 4.2 15.8 0.8 0.9 4.4 1.3 11.9 1.2 6 0 11.7-0.4 12.8-1q2-1 2-4c0-1.6-1.6-9.6-3.5-17.7-2.3-9.5-4.6-16.7-6.5-20-1.7-2.9-4.9-6.7-7.3-8.4l-4.2-3.2c7-3.5 11.5-7.2 14.5-10.4 3.1-3.2 9-11.2 13.2-17.8 4.1-6.6 8.5-13.9 9.7-16.2 1.7-3.5 1.9-4.6 0.8-5.8-0.9-1.3-3.4-1.6-12-1.5-5.9 0-11.7 0.5-13 1-1.3 0.6-5.4 6.5-10.2 14.8-4.4 7.5-9.8 15.7-12 18.1-2.2 2.4-5.5 5-7.3 5.7-1.7 0.8-5.5 1.4-8.2 1.4-4.7 0-5-0.2-4.6-2.2 0.3-1.3 1.9-9.9 3.7-19.3 3.1-16.5 3.1-17 1.3-18.3-1.2-0.8-5.3-1.2-11.4-1.2-5.2 0.1-10.4 0.5-11.5 1zm-895 44.3c-0.3 0.6-1.1 4.1-2 7.7-0.8 3.6-1.5 7.5-1.5 8.8v2.2h57c0.8-3.5 1.7-7.4 2.5-11 0.8-3.6 1.5-7.1 1.5-7.7 0-1-6.4-1.3-28.5-1.3-21.9 0-28.7 0.3-29 1.3zm-305.3 10.6c-1.7 1.2-3.9 3.5-4.7 5.1-0.8 1.7-1.5 4.5-1.5 6.3 0 1.7 0.9 4.7 2 6.5 1.1 1.7 3.5 3.9 5.2 4.8 2.3 1.2 4.7 1.5 7.8 1.1 3.2-0.4 5.3-1.4 7.5-3.7 2.7-2.7 3-3.7 3-9 0-5.3-0.3-6.3-3-9.1-2.4-2.4-4.1-3.2-8-3.5-3.9-0.4-5.7-0.1-8.3 1.5zm72 0.4c-1.9 1.3-4 3.9-4.9 6.2-1.4 3.7-1.4 4.4 0.1 8.8 1.1 3.3 2.6 5.3 4.8 6.7 1.8 1.1 5 2 7 2 2.1 0 5-0.6 6.5-1.4 1.6-0.7 3.7-2.6 4.7-4.2 1.2-1.8 2-4.6 2-7.4 0-2.8-0.8-5.6-2-7.4-1-1.6-3.1-3.5-4.7-4.2-1.5-0.8-4.4-1.4-6.5-1.4-2.1 0-5.1 1-7 2.3zm-104.2 50.3c-1.2 1.5-2.2 3.6-2.1 4.8 0 1.1 1.4 4.1 3 6.6 1.6 2.5 6 7.6 9.8 11.4 3.7 3.8 9.5 8.8 12.8 11.2 3.3 2.3 9.6 5.9 14 8 4.4 2 11.4 4.5 15.5 5.6 4.1 1 11.5 2.1 16.5 2.5 5.3 0.3 12.7 0.1 18-0.7 4.9-0.7 13.3-2.8 18.5-4.6 5.2-1.9 12.9-5.6 17-8.2 4.1-2.6 10.4-7.4 14-10.8 3.6-3.4 8.4-8.6 10.7-11.5 2.3-3 4.5-6.8 4.9-8.4 0.6-2.4 0.2-3.5-1.9-5.7-1.9-2-3.7-2.8-6-2.8-2.5 0.1-3.9 0.9-6.7 4.3-1.9 2.3-6.6 7.4-10.5 11.3-3.8 3.9-10.2 8.9-14 11.2-3.9 2.2-10.6 5.3-15 6.8-7.4 2.6-9.2 2.8-23 2.8-13.8 0-15.6-0.2-23-2.8-4.4-1.5-11.2-4.6-15-6.8-3.9-2.3-10.4-7.6-14.5-11.7-4.1-4.2-8.9-9.3-10.5-11.3-2.5-3.1-3.7-3.7-6.7-3.8-2.8 0-4.2 0.6-5.8 2.6zm1371 25.9c0 0.8 1 2.5 2.3 3.6 1.7 1.7 2.9 2 5.2 1.5 1.7-0.3 3.8-1.6 4.8-2.9 1-1.2 1.8-2.5 1.7-2.9 0-0.5-0.5-0.8-1.1-0.8-0.6 0-1.7 0.7-2.5 1.5-0.9 0.8-2.6 1.5-4 1.5-1.3 0-2.6-0.7-2.9-1.5-0.3-0.8-1.2-1.5-2-1.5-0.8 0-1.5 0.7-1.5 1.5zm-634.5 9.8c-0.3 0.6-1.8 7.7-3.5 15.7-1.7 8-3.2 15.5-3.5 16.8-0.4 1.8-0.1 2.2 1.8 2 1.9-0.3 2.3-1.2 3.1-5.8 0.5-3 0.9-5.6 1-5.7 0.1-0.2 1.7 0.4 3.6 1.3 2.3 1.1 4.7 1.5 7 1.1 1.9-0.4 4.6-1.5 5.9-2.4 1.3-1 3.2-3.4 4.2-5.3 1.1-2 1.9-5.5 1.9-8.2 0-4-0.5-5.3-3-7.8-2.3-2.3-3.9-3-6.7-3-2.1 0-4.8 0.7-6 1.5-2 1.3-2.3 1.3-2.3 0 0-0.8-0.7-1.5-1.5-1.5-0.9 0-1.8 0.6-2 1.3zm197.9-0.3c-1.2 0.5-2.9 1.9-3.8 3.2-0.9 1.3-1.6 2.6-1.6 3.1 0 0.4 0.8 0.7 1.8 0.7 0.9 0.1 2.4-0.8 3.3-2 1.2-1.4 2.8-2 5.8-2 3 0 4.3 0.5 4.8 1.8 0.3 0.9 0.1 2.4-0.4 3.2-0.6 0.9-3.5 1.8-6.9 2.2-3.2 0.5-7 1.6-8.4 2.6-1.7 1.3-2.6 3-2.7 5.5-0.2 2.6 0.3 4.3 1.7 5.7 1.3 1.3 3.3 2 5.8 2 2 0 4.7-0.7 6-1.5 2-1.3 2.3-1.3 3.5 0 0.6 0.9 2 1.6 3 1.5 0.9 0 1.9-0.7 2.2-1.5 0.3-0.8-0.2-1.8-1.1-2.2-1.4-0.7-1.4-1.4 0-6.8 0.9-3.3 1.6-7.7 1.6-9.7 0-2.8-0.6-4.2-2.2-5.3-1.3-0.8-4.1-1.5-6.3-1.4-2.2 0-5 0.4-6.1 0.9zm80.7 1.2c-0.6 1.3-1.9 6.7-3.1 12.1-1.1 5.3-2 10.2-2 10.7 0 0.6 0.9 1 2 1 1.5 0 2.2-1 2.9-4.2 0.6-2.9 1.8-4.9 3.5-6l2.6-1.8c5.5 10.9 6.4 12 8.5 12h2.5l-8-15c8.6-7.4 11.1-9.8 11-10.2 0-0.5-0.9-0.8-2-0.8-1.1 0-5.2 2.8-9.1 6.3l-7.1 6.2c1.2-6.2 1.6-8.9 1.6-9.9 0.1-1-0.4-2.1-1.1-2.3-0.6-0.3-1.6 0.6-2.2 1.9zm48.8 0.1c-1.9 1.2-4.2 3.8-5.1 5.7-1 1.9-1.8 5.4-1.8 7.8 0 2.3 0.5 5.1 1 6.2 0.6 1.1 2.5 2.7 4.3 3.6 1.9 1 4.6 1.5 6.7 1.2 1.9-0.2 5-1.4 6.8-2.6 1.9-1.3 3.8-3.9 4.8-6.4 1-2.8 1.4-5.9 1.1-8.8-0.4-3.1-1.4-5.2-3.1-6.7-1.8-1.6-3.9-2.3-6.9-2.3-2.8 0-5.5 0.8-7.8 2.3zm47.7-1.1c-0.3 0.7-1.5 5.8-2.6 11.3-1.2 5.5-2.3 10.8-2.6 11.8-0.3 1.2 0.2 1.7 1.9 1.7 2 0 2.4-0.8 3.6-7.2 0.7-4 1.7-8.2 2.1-9.3 0.5-1.4 1-0.2 1.9 4.5 0.6 3.6 1.4 7.7 1.6 9.3 0.4 2.1 1 2.6 2.7 2.5 1.6-0.2 3.6-2.7 7.3-8.7 2.7-4.6 5.2-7.9 5.5-7.4 0.3 0.6-0.3 4.1-1.3 7.7-0.9 3.6-1.7 7.1-1.7 7.6 0 0.6 0.9 1 2 1 1.3 0 2.2-0.8 2.5-2.2 0.2-1.3 1.4-6.6 2.6-11.8 1.1-5.2 1.8-10.1 1.5-10.7-0.3-0.7-1.4-1.3-2.3-1.3-1-0.1-2.5 0.7-3.4 1.7-0.9 1-3.8 5.5-6.5 10.1-2.7 4.5-5.1 8-5.4 7.7-0.3-0.4-1.2-4.8-2-9.8-1.4-8.8-1.6-9.2-4.2-9.5-1.6-0.2-2.9 0.2-3.2 1zm108.8-0.2c-1.2 0.5-2.9 1.9-3.8 3.2-0.9 1.3-1.6 2.6-1.6 3.1 0 0.4 0.8 0.7 1.8 0.7 0.9 0.1 2.4-0.8 3.3-2 1.2-1.4 2.8-2 5.8-2 3 0 4.3 0.5 4.8 1.8 0.3 0.9 0.1 2.4-0.4 3.2-0.6 0.9-3.5 1.8-6.9 2.2-3.2 0.5-7 1.6-8.4 2.6-1.7 1.3-2.6 3-2.7 5.5-0.2 2.6 0.3 4.3 1.7 5.7 1.3 1.3 3.3 2 5.8 2 2 0 4.7-0.7 6-1.5 2-1.3 2.3-1.3 3.5 0 0.6 0.9 2 1.6 3 1.5 0.9 0 2-0.7 2.5-1.6 0.4-1 0.1-1.9-0.8-2.4-1.3-0.8-1.3-1.7-0.2-7.2 0.6-3.5 1.4-7.3 1.7-8.5 0.3-1.6-0.3-3.1-2-4.8-1.9-1.9-3.5-2.5-6.7-2.4-2.4 0-5.3 0.4-6.4 0.9zm45.2 0.2c-0.3 0.7-1.5 5.8-2.6 11.3-1.2 5.5-2.3 10.8-2.6 11.8-0.3 1.2 0.2 1.7 1.9 1.7 1.9 0 2.3-0.7 3.2-5.2l1-5.3c11.6-0.5 12.5-0.3 12.5 1.3 0 0.9-0.5 3.4-1 5.5-0.9 3.5-0.9 3.7 1.3 3.7 2 0 2.4-0.9 4.6-11.2 1.3-6.2 2.7-11.9 3-12.7 0.4-1-0.1-1.3-1.9-1-1.9 0.3-2.6 1.3-3.5 4.9l-1.1 4.5-12.4 0.5c0.9-6.6 1.1-8.9 1.1-9.5-0.1-0.5-0.8-1.1-1.6-1.3-0.7-0.2-1.6 0.2-1.9 1zm62.7 3.6c-2.1 2.6-5.6 7.1-7.8 10-2.2 2.9-4.1 4.9-4.3 4.5-0.2-0.4 0.4-3.8 1.3-7.5 0.8-3.8 1.5-7.7 1.5-8.8 0-1.2-0.7-2-1.7-2-1.5 0-2.2 2.1-4.2 11.2-1.3 6.2-2.7 11.9-3 12.7-0.5 1 0.2 1.2 2.9 1 3-0.4 4.3-1.5 10.5-9.6 3.8-5 7.3-9.2 7.8-9.2 0.4-0.1-0.2 3.6-1.3 8.2-1.1 4.5-2 8.8-2 9.5 0 0.6 0.9 1.2 2 1.2 1.3 0 2.2-0.8 2.5-2.2 0.3-1.3 1.4-6.6 2.5-11.8 1.1-5.2 2-10.1 2-10.7 0-0.7-1.1-1.3-2.5-1.3-1.7 0-3.5 1.4-6.2 4.8zm37.3-3c-0.3 0.9-1.5 6.2-2.6 11.7-1.1 5.5-2 10.6-2 11.3 0 0.6 1.2 1.2 2.8 1.2 2.2 0 3.9-1.6 10-9.5 3.9-5.2 7.4-9.4 7.6-9.2 0.3 0.1-0.2 3.3-1 7.2-0.8 3.9-1.6 8-1.9 9.3-0.4 1.8-0.1 2.2 1.7 2 2-0.3 2.5-1.5 4.5-10.3 1.2-5.5 2.2-11.2 2.2-12.7 0.1-2.2-0.4-2.8-2.1-2.8-1.7 0-4.4 2.5-10.3 10-4.4 5.5-8.1 9.9-8.2 9.8-0.1-0.2 0.7-4.2 1.8-9 1-4.9 1.7-9.2 1.4-9.8-0.3-0.5-1.2-1-1.9-1-0.8 0-1.7 0.8-2 1.8zm-672.1 0.5c-0.2 0.6-1.4 5.5-2.5 10.7-1.1 5.2-2.2 10.3-2.5 11.3-0.4 1.3 0.1 1.7 2 1.7 2.1 0 2.6-0.6 3-3.7 0.3-2.1 1.2-7.1 2-11l1.5-7.3c11-0.4 13.5-0.9 13.7-1.7 0.2-1-1.9-1.3-8.2-1.3-5.9 0-8.7 0.4-9 1.3zm90.5 0c0 0.6 0.9 6.4 2 12.7 2 11.1 2 11.6 0.2 14.5q-1.8 3-4.5 3.3c-1.9 0.1-2.7 0.8-2.7 2.2 0 1.5 0.7 2 2.5 2 1.4 0 3.6-1 4.9-2.2 1.4-1.3 6.3-9.2 11-17.5 4.7-8.4 8.6-15.5 8.6-15.8 0-0.3-1-0.4-2.2-0.2-1.8 0.1-3.5 2.4-7.3 9.6-3.8 7.1-5.1 8.9-5.6 7.5-0.4-1.1-0.9-4.6-1.3-7.9-0.4-3.3-0.9-6.8-1.2-7.7-0.2-1-1.3-1.8-2.4-1.8-1.1 0-2 0.6-2 1.3zm47 4.5c-0.6 3.1-1.8 8.5-2.6 12-0.8 3.4-1.4 6.4-1.4 6.7 0 0.3 0.9 0.5 2 0.5 1.5 0 2.2-1 2.9-3.7 0.5-2.1 1.2-5.4 1.6-7.3 0.4-1.9 1.1-5.2 1.6-7.2l0.9-3.8c9.3 0 12 0.3 12 0.8 0 0.4-0.9 4.8-2 9.7-1.1 5-2 9.6-2 10.3 0 0.6 0.9 1.2 2 1.2 1.6 0 2.2-1 3.1-5.7 0.6-3.2 1.7-8.6 2.5-12 0.8-3.5 1.4-6.5 1.4-6.8 0-0.3-4.7-0.5-10.4-0.5h-10.5zm50.6-4.5c-0.2 0.7-1.3 5.6-2.5 11-1.1 5.4-2.1 10.4-2.1 11.3 0 0.8 0.8 1.5 1.8 1.5 1.4 0 2.1-1.8 3.7-8.8 1-4.8 2.2-9.8 2.7-11 0.7-2 1.5-2.2 6.3-2.2 4.9 0 5.5 0.2 5.5 2 0 1.1-0.6 5-1.5 8.7-0.8 3.7-1.7 7.8-2 9-0.4 1.9-0.1 2.2 1.8 2 2-0.2 2.5-1.4 4.5-10.7 1.2-5.8 2.2-11.3 2.2-12.3 0-1.6-1.1-1.7-10-1.7-7.1 0-10.1 0.3-10.4 1.2zm286 0.5c-0.3 1-1.4 6-2.5 11.3-1.2 5.2-2.1 10-2.1 10.7 0 0.7 0.9 1.3 2 1.3 1.7 0 2.2-1.1 3.1-5.8 0.6-3.2 1.7-8 2.3-10.7l1.3-5c11-0.5 11.3-0.4 11.3 1.7 0 1.2-0.8 6.2-1.8 11-1.6 8.6-1.6 8.7 0.3 8.7 1.8 0.1 2.3-1.3 4.3-10.7 1.2-5.9 2.2-11.5 2.2-12.5 0-1.5-1.1-1.7-9.9-1.7-8.6 0-10 0.2-10.5 1.7z"/>
		<path id="Path 2" class="s0" d="m673.5 160.7c-1.6 0.8-4.7 3.2-6.8 5.2-2.1 2-4.9 5.6-6.2 8.1-1.2 2.5-2.6 5.6-3 7l-0.8 2.5c24.2-1 26.5-1.4 31.6-3.8 3.9-1.8 6.2-3.7 7.2-5.7 0.8-1.6 1.5-4.1 1.5-5.5 0-1.4-0.5-3.4-1-4.5-0.5-1.1-2.4-2.7-4-3.5-1.7-0.9-5.6-1.5-9.3-1.5-3.6 0.1-7.4 0.7-9.2 1.7zm297 2.2c-2.2 1-5.9 3.9-8.3 6.4-2.3 2.6-5 6.4-6.1 8.5-1 2-2.8 6.6-3.9 10.2-1.1 3.6-2.3 10.1-2.7 14.5-0.5 5.2-0.3 9.6 0.5 12.5 0.6 2.5 2.2 5.6 3.3 6.8 1.2 1.3 3.4 3 4.9 3.8 1.6 0.8 5.4 1.4 8.5 1.4 3.4 0 7.4-0.8 9.8-1.9 2.2-1 6-4 8.5-6.7 2.4-2.7 5.4-7.1 6.7-9.9 1.2-2.7 3-7.9 3.9-11.5 1-3.8 1.8-10.4 1.8-16 0.1-8-0.2-10-2-13-1.2-1.9-3.8-4.3-5.8-5.2-2.2-1.1-5.9-1.8-9.4-1.8-3.3 0-7.3 0.8-9.7 1.9zm-187 1.5c-2.8 1.4-7.3 5-10.4 8.3-2.9 3.2-6.8 8.9-8.6 12.8-1.8 3.9-4.3 11.7-5.6 17.5l-2.2 10.5c4.6 6.2 7.5 8.8 9.4 9.7 1.9 0.9 5 2 6.9 2.4 2.1 0.4 5.3 0.1 7.9-0.7q4.4-1.4 8.7-6.1c2.4-2.7 5.5-7.2 6.9-10 1.3-2.9 3.2-8.2 4.1-11.8 1-3.7 1.8-10.6 1.8-16 0.1-6.4-0.4-10.6-1.4-12.9-0.8-1.8-2.7-4-4.3-4.7-1.5-0.8-3.9-1.4-5.5-1.4-1.5 0-5 1.1-7.7 2.4zm37.4 122.7c-0.9 0.5-2.3 2.3-3.3 3.9-0.9 1.7-1.7 4.2-1.8 5.8-0.1 1.5 0.2 3.7 0.5 5 0.4 1.3 1.8 2.5 3.4 2.8 1.6 0.4 3.9 0.3 5.2-0.2 1.3-0.5 3.2-2 4.3-3.4 1-1.4 2.2-4.4 2.6-6.7 0.6-3.4 0.3-4.5-1.3-6.3-1.2-1.2-3.2-2-5-2-1.6 0-3.7 0.5-4.6 1.1zm321.7 1.9c-1.4 1.6-2.9 4.7-3.2 6.8-0.5 2.4-0.2 4.6 0.7 6.2 0.8 1.4 2.6 2.6 3.9 2.8 1.4 0.2 3.5 0.1 4.8-0.2 1.2-0.3 3.1-2.1 4.2-3.8 1.1-1.8 2-5.1 2-7.3 0.1-2.6-0.6-4.6-1.7-5.7-1-1-3.2-1.8-5-1.8-2.3 0-3.8 0.8-5.7 3zm-127.1 7.7c-1.1 0.2-3 0.6-4.2 0.8-1.3 0.3-2.5 1.4-2.8 2.5-0.3 1.1 0.1 2.7 0.8 3.5 0.6 0.9 2.3 1.6 3.7 1.6 1.4-0.1 3.4-0.7 4.5-1.4 1.1-0.8 2.6-2.8 3.3-4.5 1.1-3 1.1-3.2-1-3.1-1.3 0.1-3.2 0.3-4.3 0.6zm285.3 0c-2 0.2-4.4 1.3-5.5 2.4-1.4 1.6-1.6 2.4-0.7 3.7 0.6 0.9 2.6 1.8 4.5 2 2.5 0.2 4-0.3 5.5-2 1.2-1.3 2.4-3.3 2.8-4.5 0.5-1.8 0.2-2.3-1.2-2.1-0.9 0.1-3.3 0.3-5.4 0.5z"/>
	</g>
</svg>